%TF.GenerationSoftware,KiCad,Pcbnew,8.99.0-3334-g98ae574c78*%
%TF.CreationDate,2025-06-08T22:47:57-05:00*%
%TF.ProjectId,CircuitCyboard-Right,43697263-7569-4744-9379-626f6172642d,rev?*%
%TF.SameCoordinates,Original*%
%TF.FileFunction,Legend,Bot*%
%TF.FilePolarity,Positive*%
%FSLAX46Y46*%
G04 Gerber Fmt 4.6, Leading zero omitted, Abs format (unit mm)*
G04 Created by KiCad (PCBNEW 8.99.0-3334-g98ae574c78) date 2025-06-08 22:47:57*
%MOMM*%
%LPD*%
G01*
G04 APERTURE LIST*
%ADD10C,0.150000*%
%ADD11C,0.120000*%
G04 APERTURE END LIST*
D10*
X328354819Y-37855714D02*
X327354819Y-37855714D01*
X327354819Y-37855714D02*
X327354819Y-38093809D01*
X327354819Y-38093809D02*
X327402438Y-38236666D01*
X327402438Y-38236666D02*
X327497676Y-38331904D01*
X327497676Y-38331904D02*
X327592914Y-38379523D01*
X327592914Y-38379523D02*
X327783390Y-38427142D01*
X327783390Y-38427142D02*
X327926247Y-38427142D01*
X327926247Y-38427142D02*
X328116723Y-38379523D01*
X328116723Y-38379523D02*
X328211961Y-38331904D01*
X328211961Y-38331904D02*
X328307200Y-38236666D01*
X328307200Y-38236666D02*
X328354819Y-38093809D01*
X328354819Y-38093809D02*
X328354819Y-37855714D01*
X327354819Y-39331904D02*
X327354819Y-38855714D01*
X327354819Y-38855714D02*
X327831009Y-38808095D01*
X327831009Y-38808095D02*
X327783390Y-38855714D01*
X327783390Y-38855714D02*
X327735771Y-38950952D01*
X327735771Y-38950952D02*
X327735771Y-39189047D01*
X327735771Y-39189047D02*
X327783390Y-39284285D01*
X327783390Y-39284285D02*
X327831009Y-39331904D01*
X327831009Y-39331904D02*
X327926247Y-39379523D01*
X327926247Y-39379523D02*
X328164342Y-39379523D01*
X328164342Y-39379523D02*
X328259580Y-39331904D01*
X328259580Y-39331904D02*
X328307200Y-39284285D01*
X328307200Y-39284285D02*
X328354819Y-39189047D01*
X328354819Y-39189047D02*
X328354819Y-38950952D01*
X328354819Y-38950952D02*
X328307200Y-38855714D01*
X328307200Y-38855714D02*
X328259580Y-38808095D01*
X327783390Y-39950952D02*
X327735771Y-39855714D01*
X327735771Y-39855714D02*
X327688152Y-39808095D01*
X327688152Y-39808095D02*
X327592914Y-39760476D01*
X327592914Y-39760476D02*
X327545295Y-39760476D01*
X327545295Y-39760476D02*
X327450057Y-39808095D01*
X327450057Y-39808095D02*
X327402438Y-39855714D01*
X327402438Y-39855714D02*
X327354819Y-39950952D01*
X327354819Y-39950952D02*
X327354819Y-40141428D01*
X327354819Y-40141428D02*
X327402438Y-40236666D01*
X327402438Y-40236666D02*
X327450057Y-40284285D01*
X327450057Y-40284285D02*
X327545295Y-40331904D01*
X327545295Y-40331904D02*
X327592914Y-40331904D01*
X327592914Y-40331904D02*
X327688152Y-40284285D01*
X327688152Y-40284285D02*
X327735771Y-40236666D01*
X327735771Y-40236666D02*
X327783390Y-40141428D01*
X327783390Y-40141428D02*
X327783390Y-39950952D01*
X327783390Y-39950952D02*
X327831009Y-39855714D01*
X327831009Y-39855714D02*
X327878628Y-39808095D01*
X327878628Y-39808095D02*
X327973866Y-39760476D01*
X327973866Y-39760476D02*
X328164342Y-39760476D01*
X328164342Y-39760476D02*
X328259580Y-39808095D01*
X328259580Y-39808095D02*
X328307200Y-39855714D01*
X328307200Y-39855714D02*
X328354819Y-39950952D01*
X328354819Y-39950952D02*
X328354819Y-40141428D01*
X328354819Y-40141428D02*
X328307200Y-40236666D01*
X328307200Y-40236666D02*
X328259580Y-40284285D01*
X328259580Y-40284285D02*
X328164342Y-40331904D01*
X328164342Y-40331904D02*
X327973866Y-40331904D01*
X327973866Y-40331904D02*
X327878628Y-40284285D01*
X327878628Y-40284285D02*
X327831009Y-40236666D01*
X327831009Y-40236666D02*
X327783390Y-40141428D01*
X328034819Y-45158095D02*
X327034819Y-45158095D01*
X328034819Y-45729523D02*
X327463390Y-45300952D01*
X327034819Y-45729523D02*
X327606247Y-45158095D01*
X86804819Y-37905714D02*
X85804819Y-37905714D01*
X85804819Y-37905714D02*
X85804819Y-38143809D01*
X85804819Y-38143809D02*
X85852438Y-38286666D01*
X85852438Y-38286666D02*
X85947676Y-38381904D01*
X85947676Y-38381904D02*
X86042914Y-38429523D01*
X86042914Y-38429523D02*
X86233390Y-38477142D01*
X86233390Y-38477142D02*
X86376247Y-38477142D01*
X86376247Y-38477142D02*
X86566723Y-38429523D01*
X86566723Y-38429523D02*
X86661961Y-38381904D01*
X86661961Y-38381904D02*
X86757200Y-38286666D01*
X86757200Y-38286666D02*
X86804819Y-38143809D01*
X86804819Y-38143809D02*
X86804819Y-37905714D01*
X86804819Y-39429523D02*
X86804819Y-38858095D01*
X86804819Y-39143809D02*
X85804819Y-39143809D01*
X85804819Y-39143809D02*
X85947676Y-39048571D01*
X85947676Y-39048571D02*
X86042914Y-38953333D01*
X86042914Y-38953333D02*
X86090533Y-38858095D01*
X86804819Y-40381904D02*
X86804819Y-39810476D01*
X86804819Y-40096190D02*
X85804819Y-40096190D01*
X85804819Y-40096190D02*
X85947676Y-40000952D01*
X85947676Y-40000952D02*
X86042914Y-39905714D01*
X86042914Y-39905714D02*
X86090533Y-39810476D01*
X86484819Y-45208095D02*
X85484819Y-45208095D01*
X86484819Y-45779523D02*
X85913390Y-45350952D01*
X85484819Y-45779523D02*
X86056247Y-45208095D01*
X67754819Y-38381905D02*
X66754819Y-38381905D01*
X66754819Y-38381905D02*
X66754819Y-38620000D01*
X66754819Y-38620000D02*
X66802438Y-38762857D01*
X66802438Y-38762857D02*
X66897676Y-38858095D01*
X66897676Y-38858095D02*
X66992914Y-38905714D01*
X66992914Y-38905714D02*
X67183390Y-38953333D01*
X67183390Y-38953333D02*
X67326247Y-38953333D01*
X67326247Y-38953333D02*
X67516723Y-38905714D01*
X67516723Y-38905714D02*
X67611961Y-38858095D01*
X67611961Y-38858095D02*
X67707200Y-38762857D01*
X67707200Y-38762857D02*
X67754819Y-38620000D01*
X67754819Y-38620000D02*
X67754819Y-38381905D01*
X66754819Y-39810476D02*
X66754819Y-39620000D01*
X66754819Y-39620000D02*
X66802438Y-39524762D01*
X66802438Y-39524762D02*
X66850057Y-39477143D01*
X66850057Y-39477143D02*
X66992914Y-39381905D01*
X66992914Y-39381905D02*
X67183390Y-39334286D01*
X67183390Y-39334286D02*
X67564342Y-39334286D01*
X67564342Y-39334286D02*
X67659580Y-39381905D01*
X67659580Y-39381905D02*
X67707200Y-39429524D01*
X67707200Y-39429524D02*
X67754819Y-39524762D01*
X67754819Y-39524762D02*
X67754819Y-39715238D01*
X67754819Y-39715238D02*
X67707200Y-39810476D01*
X67707200Y-39810476D02*
X67659580Y-39858095D01*
X67659580Y-39858095D02*
X67564342Y-39905714D01*
X67564342Y-39905714D02*
X67326247Y-39905714D01*
X67326247Y-39905714D02*
X67231009Y-39858095D01*
X67231009Y-39858095D02*
X67183390Y-39810476D01*
X67183390Y-39810476D02*
X67135771Y-39715238D01*
X67135771Y-39715238D02*
X67135771Y-39524762D01*
X67135771Y-39524762D02*
X67183390Y-39429524D01*
X67183390Y-39429524D02*
X67231009Y-39381905D01*
X67231009Y-39381905D02*
X67326247Y-39334286D01*
X67434819Y-45208095D02*
X66434819Y-45208095D01*
X67434819Y-45779523D02*
X66863390Y-45350952D01*
X66434819Y-45779523D02*
X67006247Y-45208095D01*
X105854819Y-37905714D02*
X104854819Y-37905714D01*
X104854819Y-37905714D02*
X104854819Y-38143809D01*
X104854819Y-38143809D02*
X104902438Y-38286666D01*
X104902438Y-38286666D02*
X104997676Y-38381904D01*
X104997676Y-38381904D02*
X105092914Y-38429523D01*
X105092914Y-38429523D02*
X105283390Y-38477142D01*
X105283390Y-38477142D02*
X105426247Y-38477142D01*
X105426247Y-38477142D02*
X105616723Y-38429523D01*
X105616723Y-38429523D02*
X105711961Y-38381904D01*
X105711961Y-38381904D02*
X105807200Y-38286666D01*
X105807200Y-38286666D02*
X105854819Y-38143809D01*
X105854819Y-38143809D02*
X105854819Y-37905714D01*
X105854819Y-39429523D02*
X105854819Y-38858095D01*
X105854819Y-39143809D02*
X104854819Y-39143809D01*
X104854819Y-39143809D02*
X104997676Y-39048571D01*
X104997676Y-39048571D02*
X105092914Y-38953333D01*
X105092914Y-38953333D02*
X105140533Y-38858095D01*
X104854819Y-40286666D02*
X104854819Y-40096190D01*
X104854819Y-40096190D02*
X104902438Y-40000952D01*
X104902438Y-40000952D02*
X104950057Y-39953333D01*
X104950057Y-39953333D02*
X105092914Y-39858095D01*
X105092914Y-39858095D02*
X105283390Y-39810476D01*
X105283390Y-39810476D02*
X105664342Y-39810476D01*
X105664342Y-39810476D02*
X105759580Y-39858095D01*
X105759580Y-39858095D02*
X105807200Y-39905714D01*
X105807200Y-39905714D02*
X105854819Y-40000952D01*
X105854819Y-40000952D02*
X105854819Y-40191428D01*
X105854819Y-40191428D02*
X105807200Y-40286666D01*
X105807200Y-40286666D02*
X105759580Y-40334285D01*
X105759580Y-40334285D02*
X105664342Y-40381904D01*
X105664342Y-40381904D02*
X105426247Y-40381904D01*
X105426247Y-40381904D02*
X105331009Y-40334285D01*
X105331009Y-40334285D02*
X105283390Y-40286666D01*
X105283390Y-40286666D02*
X105235771Y-40191428D01*
X105235771Y-40191428D02*
X105235771Y-40000952D01*
X105235771Y-40000952D02*
X105283390Y-39905714D01*
X105283390Y-39905714D02*
X105331009Y-39858095D01*
X105331009Y-39858095D02*
X105426247Y-39810476D01*
X105534819Y-45208095D02*
X104534819Y-45208095D01*
X105534819Y-45779523D02*
X104963390Y-45350952D01*
X104534819Y-45779523D02*
X105106247Y-45208095D01*
X423504819Y-56855714D02*
X422504819Y-56855714D01*
X422504819Y-56855714D02*
X422504819Y-57093809D01*
X422504819Y-57093809D02*
X422552438Y-57236666D01*
X422552438Y-57236666D02*
X422647676Y-57331904D01*
X422647676Y-57331904D02*
X422742914Y-57379523D01*
X422742914Y-57379523D02*
X422933390Y-57427142D01*
X422933390Y-57427142D02*
X423076247Y-57427142D01*
X423076247Y-57427142D02*
X423266723Y-57379523D01*
X423266723Y-57379523D02*
X423361961Y-57331904D01*
X423361961Y-57331904D02*
X423457200Y-57236666D01*
X423457200Y-57236666D02*
X423504819Y-57093809D01*
X423504819Y-57093809D02*
X423504819Y-56855714D01*
X422504819Y-57760476D02*
X422504819Y-58427142D01*
X422504819Y-58427142D02*
X423504819Y-57998571D01*
X422600057Y-58760476D02*
X422552438Y-58808095D01*
X422552438Y-58808095D02*
X422504819Y-58903333D01*
X422504819Y-58903333D02*
X422504819Y-59141428D01*
X422504819Y-59141428D02*
X422552438Y-59236666D01*
X422552438Y-59236666D02*
X422600057Y-59284285D01*
X422600057Y-59284285D02*
X422695295Y-59331904D01*
X422695295Y-59331904D02*
X422790533Y-59331904D01*
X422790533Y-59331904D02*
X422933390Y-59284285D01*
X422933390Y-59284285D02*
X423504819Y-58712857D01*
X423504819Y-58712857D02*
X423504819Y-59331904D01*
X423184819Y-64158095D02*
X422184819Y-64158095D01*
X423184819Y-64729523D02*
X422613390Y-64300952D01*
X422184819Y-64729523D02*
X422756247Y-64158095D01*
X245604819Y-33155714D02*
X244604819Y-33155714D01*
X244604819Y-33155714D02*
X244604819Y-33393809D01*
X244604819Y-33393809D02*
X244652438Y-33536666D01*
X244652438Y-33536666D02*
X244747676Y-33631904D01*
X244747676Y-33631904D02*
X244842914Y-33679523D01*
X244842914Y-33679523D02*
X245033390Y-33727142D01*
X245033390Y-33727142D02*
X245176247Y-33727142D01*
X245176247Y-33727142D02*
X245366723Y-33679523D01*
X245366723Y-33679523D02*
X245461961Y-33631904D01*
X245461961Y-33631904D02*
X245557200Y-33536666D01*
X245557200Y-33536666D02*
X245604819Y-33393809D01*
X245604819Y-33393809D02*
X245604819Y-33155714D01*
X244604819Y-34060476D02*
X244604819Y-34679523D01*
X244604819Y-34679523D02*
X244985771Y-34346190D01*
X244985771Y-34346190D02*
X244985771Y-34489047D01*
X244985771Y-34489047D02*
X245033390Y-34584285D01*
X245033390Y-34584285D02*
X245081009Y-34631904D01*
X245081009Y-34631904D02*
X245176247Y-34679523D01*
X245176247Y-34679523D02*
X245414342Y-34679523D01*
X245414342Y-34679523D02*
X245509580Y-34631904D01*
X245509580Y-34631904D02*
X245557200Y-34584285D01*
X245557200Y-34584285D02*
X245604819Y-34489047D01*
X245604819Y-34489047D02*
X245604819Y-34203333D01*
X245604819Y-34203333D02*
X245557200Y-34108095D01*
X245557200Y-34108095D02*
X245509580Y-34060476D01*
X245604819Y-35155714D02*
X245604819Y-35346190D01*
X245604819Y-35346190D02*
X245557200Y-35441428D01*
X245557200Y-35441428D02*
X245509580Y-35489047D01*
X245509580Y-35489047D02*
X245366723Y-35584285D01*
X245366723Y-35584285D02*
X245176247Y-35631904D01*
X245176247Y-35631904D02*
X244795295Y-35631904D01*
X244795295Y-35631904D02*
X244700057Y-35584285D01*
X244700057Y-35584285D02*
X244652438Y-35536666D01*
X244652438Y-35536666D02*
X244604819Y-35441428D01*
X244604819Y-35441428D02*
X244604819Y-35250952D01*
X244604819Y-35250952D02*
X244652438Y-35155714D01*
X244652438Y-35155714D02*
X244700057Y-35108095D01*
X244700057Y-35108095D02*
X244795295Y-35060476D01*
X244795295Y-35060476D02*
X245033390Y-35060476D01*
X245033390Y-35060476D02*
X245128628Y-35108095D01*
X245128628Y-35108095D02*
X245176247Y-35155714D01*
X245176247Y-35155714D02*
X245223866Y-35250952D01*
X245223866Y-35250952D02*
X245223866Y-35441428D01*
X245223866Y-35441428D02*
X245176247Y-35536666D01*
X245176247Y-35536666D02*
X245128628Y-35584285D01*
X245128628Y-35584285D02*
X245033390Y-35631904D01*
X245284819Y-40458095D02*
X244284819Y-40458095D01*
X245284819Y-41029523D02*
X244713390Y-40600952D01*
X244284819Y-41029523D02*
X244856247Y-40458095D01*
X404654819Y-37655714D02*
X403654819Y-37655714D01*
X403654819Y-37655714D02*
X403654819Y-37893809D01*
X403654819Y-37893809D02*
X403702438Y-38036666D01*
X403702438Y-38036666D02*
X403797676Y-38131904D01*
X403797676Y-38131904D02*
X403892914Y-38179523D01*
X403892914Y-38179523D02*
X404083390Y-38227142D01*
X404083390Y-38227142D02*
X404226247Y-38227142D01*
X404226247Y-38227142D02*
X404416723Y-38179523D01*
X404416723Y-38179523D02*
X404511961Y-38131904D01*
X404511961Y-38131904D02*
X404607200Y-38036666D01*
X404607200Y-38036666D02*
X404654819Y-37893809D01*
X404654819Y-37893809D02*
X404654819Y-37655714D01*
X403654819Y-39084285D02*
X403654819Y-38893809D01*
X403654819Y-38893809D02*
X403702438Y-38798571D01*
X403702438Y-38798571D02*
X403750057Y-38750952D01*
X403750057Y-38750952D02*
X403892914Y-38655714D01*
X403892914Y-38655714D02*
X404083390Y-38608095D01*
X404083390Y-38608095D02*
X404464342Y-38608095D01*
X404464342Y-38608095D02*
X404559580Y-38655714D01*
X404559580Y-38655714D02*
X404607200Y-38703333D01*
X404607200Y-38703333D02*
X404654819Y-38798571D01*
X404654819Y-38798571D02*
X404654819Y-38989047D01*
X404654819Y-38989047D02*
X404607200Y-39084285D01*
X404607200Y-39084285D02*
X404559580Y-39131904D01*
X404559580Y-39131904D02*
X404464342Y-39179523D01*
X404464342Y-39179523D02*
X404226247Y-39179523D01*
X404226247Y-39179523D02*
X404131009Y-39131904D01*
X404131009Y-39131904D02*
X404083390Y-39084285D01*
X404083390Y-39084285D02*
X404035771Y-38989047D01*
X404035771Y-38989047D02*
X404035771Y-38798571D01*
X404035771Y-38798571D02*
X404083390Y-38703333D01*
X404083390Y-38703333D02*
X404131009Y-38655714D01*
X404131009Y-38655714D02*
X404226247Y-38608095D01*
X404083390Y-39750952D02*
X404035771Y-39655714D01*
X404035771Y-39655714D02*
X403988152Y-39608095D01*
X403988152Y-39608095D02*
X403892914Y-39560476D01*
X403892914Y-39560476D02*
X403845295Y-39560476D01*
X403845295Y-39560476D02*
X403750057Y-39608095D01*
X403750057Y-39608095D02*
X403702438Y-39655714D01*
X403702438Y-39655714D02*
X403654819Y-39750952D01*
X403654819Y-39750952D02*
X403654819Y-39941428D01*
X403654819Y-39941428D02*
X403702438Y-40036666D01*
X403702438Y-40036666D02*
X403750057Y-40084285D01*
X403750057Y-40084285D02*
X403845295Y-40131904D01*
X403845295Y-40131904D02*
X403892914Y-40131904D01*
X403892914Y-40131904D02*
X403988152Y-40084285D01*
X403988152Y-40084285D02*
X404035771Y-40036666D01*
X404035771Y-40036666D02*
X404083390Y-39941428D01*
X404083390Y-39941428D02*
X404083390Y-39750952D01*
X404083390Y-39750952D02*
X404131009Y-39655714D01*
X404131009Y-39655714D02*
X404178628Y-39608095D01*
X404178628Y-39608095D02*
X404273866Y-39560476D01*
X404273866Y-39560476D02*
X404464342Y-39560476D01*
X404464342Y-39560476D02*
X404559580Y-39608095D01*
X404559580Y-39608095D02*
X404607200Y-39655714D01*
X404607200Y-39655714D02*
X404654819Y-39750952D01*
X404654819Y-39750952D02*
X404654819Y-39941428D01*
X404654819Y-39941428D02*
X404607200Y-40036666D01*
X404607200Y-40036666D02*
X404559580Y-40084285D01*
X404559580Y-40084285D02*
X404464342Y-40131904D01*
X404464342Y-40131904D02*
X404273866Y-40131904D01*
X404273866Y-40131904D02*
X404178628Y-40084285D01*
X404178628Y-40084285D02*
X404131009Y-40036666D01*
X404131009Y-40036666D02*
X404083390Y-39941428D01*
X404334819Y-44958095D02*
X403334819Y-44958095D01*
X404334819Y-45529523D02*
X403763390Y-45100952D01*
X403334819Y-45529523D02*
X403906247Y-44958095D01*
X404454819Y-56855714D02*
X403454819Y-56855714D01*
X403454819Y-56855714D02*
X403454819Y-57093809D01*
X403454819Y-57093809D02*
X403502438Y-57236666D01*
X403502438Y-57236666D02*
X403597676Y-57331904D01*
X403597676Y-57331904D02*
X403692914Y-57379523D01*
X403692914Y-57379523D02*
X403883390Y-57427142D01*
X403883390Y-57427142D02*
X404026247Y-57427142D01*
X404026247Y-57427142D02*
X404216723Y-57379523D01*
X404216723Y-57379523D02*
X404311961Y-57331904D01*
X404311961Y-57331904D02*
X404407200Y-57236666D01*
X404407200Y-57236666D02*
X404454819Y-57093809D01*
X404454819Y-57093809D02*
X404454819Y-56855714D01*
X403454819Y-58284285D02*
X403454819Y-58093809D01*
X403454819Y-58093809D02*
X403502438Y-57998571D01*
X403502438Y-57998571D02*
X403550057Y-57950952D01*
X403550057Y-57950952D02*
X403692914Y-57855714D01*
X403692914Y-57855714D02*
X403883390Y-57808095D01*
X403883390Y-57808095D02*
X404264342Y-57808095D01*
X404264342Y-57808095D02*
X404359580Y-57855714D01*
X404359580Y-57855714D02*
X404407200Y-57903333D01*
X404407200Y-57903333D02*
X404454819Y-57998571D01*
X404454819Y-57998571D02*
X404454819Y-58189047D01*
X404454819Y-58189047D02*
X404407200Y-58284285D01*
X404407200Y-58284285D02*
X404359580Y-58331904D01*
X404359580Y-58331904D02*
X404264342Y-58379523D01*
X404264342Y-58379523D02*
X404026247Y-58379523D01*
X404026247Y-58379523D02*
X403931009Y-58331904D01*
X403931009Y-58331904D02*
X403883390Y-58284285D01*
X403883390Y-58284285D02*
X403835771Y-58189047D01*
X403835771Y-58189047D02*
X403835771Y-57998571D01*
X403835771Y-57998571D02*
X403883390Y-57903333D01*
X403883390Y-57903333D02*
X403931009Y-57855714D01*
X403931009Y-57855714D02*
X404026247Y-57808095D01*
X404454819Y-58855714D02*
X404454819Y-59046190D01*
X404454819Y-59046190D02*
X404407200Y-59141428D01*
X404407200Y-59141428D02*
X404359580Y-59189047D01*
X404359580Y-59189047D02*
X404216723Y-59284285D01*
X404216723Y-59284285D02*
X404026247Y-59331904D01*
X404026247Y-59331904D02*
X403645295Y-59331904D01*
X403645295Y-59331904D02*
X403550057Y-59284285D01*
X403550057Y-59284285D02*
X403502438Y-59236666D01*
X403502438Y-59236666D02*
X403454819Y-59141428D01*
X403454819Y-59141428D02*
X403454819Y-58950952D01*
X403454819Y-58950952D02*
X403502438Y-58855714D01*
X403502438Y-58855714D02*
X403550057Y-58808095D01*
X403550057Y-58808095D02*
X403645295Y-58760476D01*
X403645295Y-58760476D02*
X403883390Y-58760476D01*
X403883390Y-58760476D02*
X403978628Y-58808095D01*
X403978628Y-58808095D02*
X404026247Y-58855714D01*
X404026247Y-58855714D02*
X404073866Y-58950952D01*
X404073866Y-58950952D02*
X404073866Y-59141428D01*
X404073866Y-59141428D02*
X404026247Y-59236666D01*
X404026247Y-59236666D02*
X403978628Y-59284285D01*
X403978628Y-59284285D02*
X403883390Y-59331904D01*
X404134819Y-64158095D02*
X403134819Y-64158095D01*
X404134819Y-64729523D02*
X403563390Y-64300952D01*
X403134819Y-64729523D02*
X403706247Y-64158095D01*
X134454819Y-56855714D02*
X133454819Y-56855714D01*
X133454819Y-56855714D02*
X133454819Y-57093809D01*
X133454819Y-57093809D02*
X133502438Y-57236666D01*
X133502438Y-57236666D02*
X133597676Y-57331904D01*
X133597676Y-57331904D02*
X133692914Y-57379523D01*
X133692914Y-57379523D02*
X133883390Y-57427142D01*
X133883390Y-57427142D02*
X134026247Y-57427142D01*
X134026247Y-57427142D02*
X134216723Y-57379523D01*
X134216723Y-57379523D02*
X134311961Y-57331904D01*
X134311961Y-57331904D02*
X134407200Y-57236666D01*
X134407200Y-57236666D02*
X134454819Y-57093809D01*
X134454819Y-57093809D02*
X134454819Y-56855714D01*
X133550057Y-57808095D02*
X133502438Y-57855714D01*
X133502438Y-57855714D02*
X133454819Y-57950952D01*
X133454819Y-57950952D02*
X133454819Y-58189047D01*
X133454819Y-58189047D02*
X133502438Y-58284285D01*
X133502438Y-58284285D02*
X133550057Y-58331904D01*
X133550057Y-58331904D02*
X133645295Y-58379523D01*
X133645295Y-58379523D02*
X133740533Y-58379523D01*
X133740533Y-58379523D02*
X133883390Y-58331904D01*
X133883390Y-58331904D02*
X134454819Y-57760476D01*
X134454819Y-57760476D02*
X134454819Y-58379523D01*
X133550057Y-58760476D02*
X133502438Y-58808095D01*
X133502438Y-58808095D02*
X133454819Y-58903333D01*
X133454819Y-58903333D02*
X133454819Y-59141428D01*
X133454819Y-59141428D02*
X133502438Y-59236666D01*
X133502438Y-59236666D02*
X133550057Y-59284285D01*
X133550057Y-59284285D02*
X133645295Y-59331904D01*
X133645295Y-59331904D02*
X133740533Y-59331904D01*
X133740533Y-59331904D02*
X133883390Y-59284285D01*
X133883390Y-59284285D02*
X134454819Y-58712857D01*
X134454819Y-58712857D02*
X134454819Y-59331904D01*
X134134819Y-64158095D02*
X133134819Y-64158095D01*
X134134819Y-64729523D02*
X133563390Y-64300952D01*
X133134819Y-64729523D02*
X133706247Y-64158095D01*
X245804819Y-114255714D02*
X244804819Y-114255714D01*
X244804819Y-114255714D02*
X244804819Y-114493809D01*
X244804819Y-114493809D02*
X244852438Y-114636666D01*
X244852438Y-114636666D02*
X244947676Y-114731904D01*
X244947676Y-114731904D02*
X245042914Y-114779523D01*
X245042914Y-114779523D02*
X245233390Y-114827142D01*
X245233390Y-114827142D02*
X245376247Y-114827142D01*
X245376247Y-114827142D02*
X245566723Y-114779523D01*
X245566723Y-114779523D02*
X245661961Y-114731904D01*
X245661961Y-114731904D02*
X245757200Y-114636666D01*
X245757200Y-114636666D02*
X245804819Y-114493809D01*
X245804819Y-114493809D02*
X245804819Y-114255714D01*
X245138152Y-115684285D02*
X245804819Y-115684285D01*
X244757200Y-115446190D02*
X245471485Y-115208095D01*
X245471485Y-115208095D02*
X245471485Y-115827142D01*
X244804819Y-116112857D02*
X244804819Y-116731904D01*
X244804819Y-116731904D02*
X245185771Y-116398571D01*
X245185771Y-116398571D02*
X245185771Y-116541428D01*
X245185771Y-116541428D02*
X245233390Y-116636666D01*
X245233390Y-116636666D02*
X245281009Y-116684285D01*
X245281009Y-116684285D02*
X245376247Y-116731904D01*
X245376247Y-116731904D02*
X245614342Y-116731904D01*
X245614342Y-116731904D02*
X245709580Y-116684285D01*
X245709580Y-116684285D02*
X245757200Y-116636666D01*
X245757200Y-116636666D02*
X245804819Y-116541428D01*
X245804819Y-116541428D02*
X245804819Y-116255714D01*
X245804819Y-116255714D02*
X245757200Y-116160476D01*
X245757200Y-116160476D02*
X245709580Y-116112857D01*
X245484819Y-121558095D02*
X244484819Y-121558095D01*
X245484819Y-122129523D02*
X244913390Y-121700952D01*
X244484819Y-122129523D02*
X245056247Y-121558095D01*
X309504819Y-114055714D02*
X308504819Y-114055714D01*
X308504819Y-114055714D02*
X308504819Y-114293809D01*
X308504819Y-114293809D02*
X308552438Y-114436666D01*
X308552438Y-114436666D02*
X308647676Y-114531904D01*
X308647676Y-114531904D02*
X308742914Y-114579523D01*
X308742914Y-114579523D02*
X308933390Y-114627142D01*
X308933390Y-114627142D02*
X309076247Y-114627142D01*
X309076247Y-114627142D02*
X309266723Y-114579523D01*
X309266723Y-114579523D02*
X309361961Y-114531904D01*
X309361961Y-114531904D02*
X309457200Y-114436666D01*
X309457200Y-114436666D02*
X309504819Y-114293809D01*
X309504819Y-114293809D02*
X309504819Y-114055714D01*
X308504819Y-115531904D02*
X308504819Y-115055714D01*
X308504819Y-115055714D02*
X308981009Y-115008095D01*
X308981009Y-115008095D02*
X308933390Y-115055714D01*
X308933390Y-115055714D02*
X308885771Y-115150952D01*
X308885771Y-115150952D02*
X308885771Y-115389047D01*
X308885771Y-115389047D02*
X308933390Y-115484285D01*
X308933390Y-115484285D02*
X308981009Y-115531904D01*
X308981009Y-115531904D02*
X309076247Y-115579523D01*
X309076247Y-115579523D02*
X309314342Y-115579523D01*
X309314342Y-115579523D02*
X309409580Y-115531904D01*
X309409580Y-115531904D02*
X309457200Y-115484285D01*
X309457200Y-115484285D02*
X309504819Y-115389047D01*
X309504819Y-115389047D02*
X309504819Y-115150952D01*
X309504819Y-115150952D02*
X309457200Y-115055714D01*
X309457200Y-115055714D02*
X309409580Y-115008095D01*
X308504819Y-115912857D02*
X308504819Y-116579523D01*
X308504819Y-116579523D02*
X309504819Y-116150952D01*
X309184819Y-121358095D02*
X308184819Y-121358095D01*
X309184819Y-121929523D02*
X308613390Y-121500952D01*
X308184819Y-121929523D02*
X308756247Y-121358095D01*
X110654819Y-94705714D02*
X109654819Y-94705714D01*
X109654819Y-94705714D02*
X109654819Y-94943809D01*
X109654819Y-94943809D02*
X109702438Y-95086666D01*
X109702438Y-95086666D02*
X109797676Y-95181904D01*
X109797676Y-95181904D02*
X109892914Y-95229523D01*
X109892914Y-95229523D02*
X110083390Y-95277142D01*
X110083390Y-95277142D02*
X110226247Y-95277142D01*
X110226247Y-95277142D02*
X110416723Y-95229523D01*
X110416723Y-95229523D02*
X110511961Y-95181904D01*
X110511961Y-95181904D02*
X110607200Y-95086666D01*
X110607200Y-95086666D02*
X110654819Y-94943809D01*
X110654819Y-94943809D02*
X110654819Y-94705714D01*
X110654819Y-96229523D02*
X110654819Y-95658095D01*
X110654819Y-95943809D02*
X109654819Y-95943809D01*
X109654819Y-95943809D02*
X109797676Y-95848571D01*
X109797676Y-95848571D02*
X109892914Y-95753333D01*
X109892914Y-95753333D02*
X109940533Y-95658095D01*
X109988152Y-97086666D02*
X110654819Y-97086666D01*
X109607200Y-96848571D02*
X110321485Y-96610476D01*
X110321485Y-96610476D02*
X110321485Y-97229523D01*
X110334819Y-102008095D02*
X109334819Y-102008095D01*
X110334819Y-102579523D02*
X109763390Y-102150952D01*
X109334819Y-102579523D02*
X109906247Y-102008095D01*
X290254819Y-75655714D02*
X289254819Y-75655714D01*
X289254819Y-75655714D02*
X289254819Y-75893809D01*
X289254819Y-75893809D02*
X289302438Y-76036666D01*
X289302438Y-76036666D02*
X289397676Y-76131904D01*
X289397676Y-76131904D02*
X289492914Y-76179523D01*
X289492914Y-76179523D02*
X289683390Y-76227142D01*
X289683390Y-76227142D02*
X289826247Y-76227142D01*
X289826247Y-76227142D02*
X290016723Y-76179523D01*
X290016723Y-76179523D02*
X290111961Y-76131904D01*
X290111961Y-76131904D02*
X290207200Y-76036666D01*
X290207200Y-76036666D02*
X290254819Y-75893809D01*
X290254819Y-75893809D02*
X290254819Y-75655714D01*
X289254819Y-77131904D02*
X289254819Y-76655714D01*
X289254819Y-76655714D02*
X289731009Y-76608095D01*
X289731009Y-76608095D02*
X289683390Y-76655714D01*
X289683390Y-76655714D02*
X289635771Y-76750952D01*
X289635771Y-76750952D02*
X289635771Y-76989047D01*
X289635771Y-76989047D02*
X289683390Y-77084285D01*
X289683390Y-77084285D02*
X289731009Y-77131904D01*
X289731009Y-77131904D02*
X289826247Y-77179523D01*
X289826247Y-77179523D02*
X290064342Y-77179523D01*
X290064342Y-77179523D02*
X290159580Y-77131904D01*
X290159580Y-77131904D02*
X290207200Y-77084285D01*
X290207200Y-77084285D02*
X290254819Y-76989047D01*
X290254819Y-76989047D02*
X290254819Y-76750952D01*
X290254819Y-76750952D02*
X290207200Y-76655714D01*
X290207200Y-76655714D02*
X290159580Y-76608095D01*
X289254819Y-77798571D02*
X289254819Y-77893809D01*
X289254819Y-77893809D02*
X289302438Y-77989047D01*
X289302438Y-77989047D02*
X289350057Y-78036666D01*
X289350057Y-78036666D02*
X289445295Y-78084285D01*
X289445295Y-78084285D02*
X289635771Y-78131904D01*
X289635771Y-78131904D02*
X289873866Y-78131904D01*
X289873866Y-78131904D02*
X290064342Y-78084285D01*
X290064342Y-78084285D02*
X290159580Y-78036666D01*
X290159580Y-78036666D02*
X290207200Y-77989047D01*
X290207200Y-77989047D02*
X290254819Y-77893809D01*
X290254819Y-77893809D02*
X290254819Y-77798571D01*
X290254819Y-77798571D02*
X290207200Y-77703333D01*
X290207200Y-77703333D02*
X290159580Y-77655714D01*
X290159580Y-77655714D02*
X290064342Y-77608095D01*
X290064342Y-77608095D02*
X289873866Y-77560476D01*
X289873866Y-77560476D02*
X289635771Y-77560476D01*
X289635771Y-77560476D02*
X289445295Y-77608095D01*
X289445295Y-77608095D02*
X289350057Y-77655714D01*
X289350057Y-77655714D02*
X289302438Y-77703333D01*
X289302438Y-77703333D02*
X289254819Y-77798571D01*
X289934819Y-82958095D02*
X288934819Y-82958095D01*
X289934819Y-83529523D02*
X289363390Y-83100952D01*
X288934819Y-83529523D02*
X289506247Y-82958095D01*
X77304819Y-57331905D02*
X76304819Y-57331905D01*
X76304819Y-57331905D02*
X76304819Y-57570000D01*
X76304819Y-57570000D02*
X76352438Y-57712857D01*
X76352438Y-57712857D02*
X76447676Y-57808095D01*
X76447676Y-57808095D02*
X76542914Y-57855714D01*
X76542914Y-57855714D02*
X76733390Y-57903333D01*
X76733390Y-57903333D02*
X76876247Y-57903333D01*
X76876247Y-57903333D02*
X77066723Y-57855714D01*
X77066723Y-57855714D02*
X77161961Y-57808095D01*
X77161961Y-57808095D02*
X77257200Y-57712857D01*
X77257200Y-57712857D02*
X77304819Y-57570000D01*
X77304819Y-57570000D02*
X77304819Y-57331905D01*
X76304819Y-58236667D02*
X76304819Y-58903333D01*
X76304819Y-58903333D02*
X77304819Y-58474762D01*
X76984819Y-64158095D02*
X75984819Y-64158095D01*
X76984819Y-64729523D02*
X76413390Y-64300952D01*
X75984819Y-64729523D02*
X76556247Y-64158095D01*
X153504819Y-56855714D02*
X152504819Y-56855714D01*
X152504819Y-56855714D02*
X152504819Y-57093809D01*
X152504819Y-57093809D02*
X152552438Y-57236666D01*
X152552438Y-57236666D02*
X152647676Y-57331904D01*
X152647676Y-57331904D02*
X152742914Y-57379523D01*
X152742914Y-57379523D02*
X152933390Y-57427142D01*
X152933390Y-57427142D02*
X153076247Y-57427142D01*
X153076247Y-57427142D02*
X153266723Y-57379523D01*
X153266723Y-57379523D02*
X153361961Y-57331904D01*
X153361961Y-57331904D02*
X153457200Y-57236666D01*
X153457200Y-57236666D02*
X153504819Y-57093809D01*
X153504819Y-57093809D02*
X153504819Y-56855714D01*
X152600057Y-57808095D02*
X152552438Y-57855714D01*
X152552438Y-57855714D02*
X152504819Y-57950952D01*
X152504819Y-57950952D02*
X152504819Y-58189047D01*
X152504819Y-58189047D02*
X152552438Y-58284285D01*
X152552438Y-58284285D02*
X152600057Y-58331904D01*
X152600057Y-58331904D02*
X152695295Y-58379523D01*
X152695295Y-58379523D02*
X152790533Y-58379523D01*
X152790533Y-58379523D02*
X152933390Y-58331904D01*
X152933390Y-58331904D02*
X153504819Y-57760476D01*
X153504819Y-57760476D02*
X153504819Y-58379523D01*
X152504819Y-58712857D02*
X152504819Y-59379523D01*
X152504819Y-59379523D02*
X153504819Y-58950952D01*
X153184819Y-64158095D02*
X152184819Y-64158095D01*
X153184819Y-64729523D02*
X152613390Y-64300952D01*
X152184819Y-64729523D02*
X152756247Y-64158095D01*
X172554819Y-56855714D02*
X171554819Y-56855714D01*
X171554819Y-56855714D02*
X171554819Y-57093809D01*
X171554819Y-57093809D02*
X171602438Y-57236666D01*
X171602438Y-57236666D02*
X171697676Y-57331904D01*
X171697676Y-57331904D02*
X171792914Y-57379523D01*
X171792914Y-57379523D02*
X171983390Y-57427142D01*
X171983390Y-57427142D02*
X172126247Y-57427142D01*
X172126247Y-57427142D02*
X172316723Y-57379523D01*
X172316723Y-57379523D02*
X172411961Y-57331904D01*
X172411961Y-57331904D02*
X172507200Y-57236666D01*
X172507200Y-57236666D02*
X172554819Y-57093809D01*
X172554819Y-57093809D02*
X172554819Y-56855714D01*
X171554819Y-57760476D02*
X171554819Y-58379523D01*
X171554819Y-58379523D02*
X171935771Y-58046190D01*
X171935771Y-58046190D02*
X171935771Y-58189047D01*
X171935771Y-58189047D02*
X171983390Y-58284285D01*
X171983390Y-58284285D02*
X172031009Y-58331904D01*
X172031009Y-58331904D02*
X172126247Y-58379523D01*
X172126247Y-58379523D02*
X172364342Y-58379523D01*
X172364342Y-58379523D02*
X172459580Y-58331904D01*
X172459580Y-58331904D02*
X172507200Y-58284285D01*
X172507200Y-58284285D02*
X172554819Y-58189047D01*
X172554819Y-58189047D02*
X172554819Y-57903333D01*
X172554819Y-57903333D02*
X172507200Y-57808095D01*
X172507200Y-57808095D02*
X172459580Y-57760476D01*
X172554819Y-59331904D02*
X172554819Y-58760476D01*
X172554819Y-59046190D02*
X171554819Y-59046190D01*
X171554819Y-59046190D02*
X171697676Y-58950952D01*
X171697676Y-58950952D02*
X171792914Y-58855714D01*
X171792914Y-58855714D02*
X171840533Y-58760476D01*
X172234819Y-64158095D02*
X171234819Y-64158095D01*
X172234819Y-64729523D02*
X171663390Y-64300952D01*
X171234819Y-64729523D02*
X171806247Y-64158095D01*
X62854819Y-76431905D02*
X61854819Y-76431905D01*
X61854819Y-76431905D02*
X61854819Y-76670000D01*
X61854819Y-76670000D02*
X61902438Y-76812857D01*
X61902438Y-76812857D02*
X61997676Y-76908095D01*
X61997676Y-76908095D02*
X62092914Y-76955714D01*
X62092914Y-76955714D02*
X62283390Y-77003333D01*
X62283390Y-77003333D02*
X62426247Y-77003333D01*
X62426247Y-77003333D02*
X62616723Y-76955714D01*
X62616723Y-76955714D02*
X62711961Y-76908095D01*
X62711961Y-76908095D02*
X62807200Y-76812857D01*
X62807200Y-76812857D02*
X62854819Y-76670000D01*
X62854819Y-76670000D02*
X62854819Y-76431905D01*
X61854819Y-77336667D02*
X61854819Y-77955714D01*
X61854819Y-77955714D02*
X62235771Y-77622381D01*
X62235771Y-77622381D02*
X62235771Y-77765238D01*
X62235771Y-77765238D02*
X62283390Y-77860476D01*
X62283390Y-77860476D02*
X62331009Y-77908095D01*
X62331009Y-77908095D02*
X62426247Y-77955714D01*
X62426247Y-77955714D02*
X62664342Y-77955714D01*
X62664342Y-77955714D02*
X62759580Y-77908095D01*
X62759580Y-77908095D02*
X62807200Y-77860476D01*
X62807200Y-77860476D02*
X62854819Y-77765238D01*
X62854819Y-77765238D02*
X62854819Y-77479524D01*
X62854819Y-77479524D02*
X62807200Y-77384286D01*
X62807200Y-77384286D02*
X62759580Y-77336667D01*
X62534819Y-83258095D02*
X61534819Y-83258095D01*
X62534819Y-83829523D02*
X61963390Y-83400952D01*
X61534819Y-83829523D02*
X62106247Y-83258095D01*
X81904819Y-76431905D02*
X80904819Y-76431905D01*
X80904819Y-76431905D02*
X80904819Y-76670000D01*
X80904819Y-76670000D02*
X80952438Y-76812857D01*
X80952438Y-76812857D02*
X81047676Y-76908095D01*
X81047676Y-76908095D02*
X81142914Y-76955714D01*
X81142914Y-76955714D02*
X81333390Y-77003333D01*
X81333390Y-77003333D02*
X81476247Y-77003333D01*
X81476247Y-77003333D02*
X81666723Y-76955714D01*
X81666723Y-76955714D02*
X81761961Y-76908095D01*
X81761961Y-76908095D02*
X81857200Y-76812857D01*
X81857200Y-76812857D02*
X81904819Y-76670000D01*
X81904819Y-76670000D02*
X81904819Y-76431905D01*
X81333390Y-77574762D02*
X81285771Y-77479524D01*
X81285771Y-77479524D02*
X81238152Y-77431905D01*
X81238152Y-77431905D02*
X81142914Y-77384286D01*
X81142914Y-77384286D02*
X81095295Y-77384286D01*
X81095295Y-77384286D02*
X81000057Y-77431905D01*
X81000057Y-77431905D02*
X80952438Y-77479524D01*
X80952438Y-77479524D02*
X80904819Y-77574762D01*
X80904819Y-77574762D02*
X80904819Y-77765238D01*
X80904819Y-77765238D02*
X80952438Y-77860476D01*
X80952438Y-77860476D02*
X81000057Y-77908095D01*
X81000057Y-77908095D02*
X81095295Y-77955714D01*
X81095295Y-77955714D02*
X81142914Y-77955714D01*
X81142914Y-77955714D02*
X81238152Y-77908095D01*
X81238152Y-77908095D02*
X81285771Y-77860476D01*
X81285771Y-77860476D02*
X81333390Y-77765238D01*
X81333390Y-77765238D02*
X81333390Y-77574762D01*
X81333390Y-77574762D02*
X81381009Y-77479524D01*
X81381009Y-77479524D02*
X81428628Y-77431905D01*
X81428628Y-77431905D02*
X81523866Y-77384286D01*
X81523866Y-77384286D02*
X81714342Y-77384286D01*
X81714342Y-77384286D02*
X81809580Y-77431905D01*
X81809580Y-77431905D02*
X81857200Y-77479524D01*
X81857200Y-77479524D02*
X81904819Y-77574762D01*
X81904819Y-77574762D02*
X81904819Y-77765238D01*
X81904819Y-77765238D02*
X81857200Y-77860476D01*
X81857200Y-77860476D02*
X81809580Y-77908095D01*
X81809580Y-77908095D02*
X81714342Y-77955714D01*
X81714342Y-77955714D02*
X81523866Y-77955714D01*
X81523866Y-77955714D02*
X81428628Y-77908095D01*
X81428628Y-77908095D02*
X81381009Y-77860476D01*
X81381009Y-77860476D02*
X81333390Y-77765238D01*
X81584819Y-83258095D02*
X80584819Y-83258095D01*
X81584819Y-83829523D02*
X81013390Y-83400952D01*
X80584819Y-83829523D02*
X81156247Y-83258095D01*
X347604819Y-114055714D02*
X346604819Y-114055714D01*
X346604819Y-114055714D02*
X346604819Y-114293809D01*
X346604819Y-114293809D02*
X346652438Y-114436666D01*
X346652438Y-114436666D02*
X346747676Y-114531904D01*
X346747676Y-114531904D02*
X346842914Y-114579523D01*
X346842914Y-114579523D02*
X347033390Y-114627142D01*
X347033390Y-114627142D02*
X347176247Y-114627142D01*
X347176247Y-114627142D02*
X347366723Y-114579523D01*
X347366723Y-114579523D02*
X347461961Y-114531904D01*
X347461961Y-114531904D02*
X347557200Y-114436666D01*
X347557200Y-114436666D02*
X347604819Y-114293809D01*
X347604819Y-114293809D02*
X347604819Y-114055714D01*
X346604819Y-115484285D02*
X346604819Y-115293809D01*
X346604819Y-115293809D02*
X346652438Y-115198571D01*
X346652438Y-115198571D02*
X346700057Y-115150952D01*
X346700057Y-115150952D02*
X346842914Y-115055714D01*
X346842914Y-115055714D02*
X347033390Y-115008095D01*
X347033390Y-115008095D02*
X347414342Y-115008095D01*
X347414342Y-115008095D02*
X347509580Y-115055714D01*
X347509580Y-115055714D02*
X347557200Y-115103333D01*
X347557200Y-115103333D02*
X347604819Y-115198571D01*
X347604819Y-115198571D02*
X347604819Y-115389047D01*
X347604819Y-115389047D02*
X347557200Y-115484285D01*
X347557200Y-115484285D02*
X347509580Y-115531904D01*
X347509580Y-115531904D02*
X347414342Y-115579523D01*
X347414342Y-115579523D02*
X347176247Y-115579523D01*
X347176247Y-115579523D02*
X347081009Y-115531904D01*
X347081009Y-115531904D02*
X347033390Y-115484285D01*
X347033390Y-115484285D02*
X346985771Y-115389047D01*
X346985771Y-115389047D02*
X346985771Y-115198571D01*
X346985771Y-115198571D02*
X347033390Y-115103333D01*
X347033390Y-115103333D02*
X347081009Y-115055714D01*
X347081009Y-115055714D02*
X347176247Y-115008095D01*
X346604819Y-115912857D02*
X346604819Y-116579523D01*
X346604819Y-116579523D02*
X347604819Y-116150952D01*
X347284819Y-121358095D02*
X346284819Y-121358095D01*
X347284819Y-121929523D02*
X346713390Y-121500952D01*
X346284819Y-121929523D02*
X346856247Y-121358095D01*
X264854819Y-114255714D02*
X263854819Y-114255714D01*
X263854819Y-114255714D02*
X263854819Y-114493809D01*
X263854819Y-114493809D02*
X263902438Y-114636666D01*
X263902438Y-114636666D02*
X263997676Y-114731904D01*
X263997676Y-114731904D02*
X264092914Y-114779523D01*
X264092914Y-114779523D02*
X264283390Y-114827142D01*
X264283390Y-114827142D02*
X264426247Y-114827142D01*
X264426247Y-114827142D02*
X264616723Y-114779523D01*
X264616723Y-114779523D02*
X264711961Y-114731904D01*
X264711961Y-114731904D02*
X264807200Y-114636666D01*
X264807200Y-114636666D02*
X264854819Y-114493809D01*
X264854819Y-114493809D02*
X264854819Y-114255714D01*
X264188152Y-115684285D02*
X264854819Y-115684285D01*
X263807200Y-115446190D02*
X264521485Y-115208095D01*
X264521485Y-115208095D02*
X264521485Y-115827142D01*
X263854819Y-116112857D02*
X263854819Y-116779523D01*
X263854819Y-116779523D02*
X264854819Y-116350952D01*
X264534819Y-121558095D02*
X263534819Y-121558095D01*
X264534819Y-122129523D02*
X263963390Y-121700952D01*
X263534819Y-122129523D02*
X264106247Y-121558095D01*
X226754819Y-51855714D02*
X225754819Y-51855714D01*
X225754819Y-51855714D02*
X225754819Y-52093809D01*
X225754819Y-52093809D02*
X225802438Y-52236666D01*
X225802438Y-52236666D02*
X225897676Y-52331904D01*
X225897676Y-52331904D02*
X225992914Y-52379523D01*
X225992914Y-52379523D02*
X226183390Y-52427142D01*
X226183390Y-52427142D02*
X226326247Y-52427142D01*
X226326247Y-52427142D02*
X226516723Y-52379523D01*
X226516723Y-52379523D02*
X226611961Y-52331904D01*
X226611961Y-52331904D02*
X226707200Y-52236666D01*
X226707200Y-52236666D02*
X226754819Y-52093809D01*
X226754819Y-52093809D02*
X226754819Y-51855714D01*
X225754819Y-52760476D02*
X225754819Y-53379523D01*
X225754819Y-53379523D02*
X226135771Y-53046190D01*
X226135771Y-53046190D02*
X226135771Y-53189047D01*
X226135771Y-53189047D02*
X226183390Y-53284285D01*
X226183390Y-53284285D02*
X226231009Y-53331904D01*
X226231009Y-53331904D02*
X226326247Y-53379523D01*
X226326247Y-53379523D02*
X226564342Y-53379523D01*
X226564342Y-53379523D02*
X226659580Y-53331904D01*
X226659580Y-53331904D02*
X226707200Y-53284285D01*
X226707200Y-53284285D02*
X226754819Y-53189047D01*
X226754819Y-53189047D02*
X226754819Y-52903333D01*
X226754819Y-52903333D02*
X226707200Y-52808095D01*
X226707200Y-52808095D02*
X226659580Y-52760476D01*
X225754819Y-54236666D02*
X225754819Y-54046190D01*
X225754819Y-54046190D02*
X225802438Y-53950952D01*
X225802438Y-53950952D02*
X225850057Y-53903333D01*
X225850057Y-53903333D02*
X225992914Y-53808095D01*
X225992914Y-53808095D02*
X226183390Y-53760476D01*
X226183390Y-53760476D02*
X226564342Y-53760476D01*
X226564342Y-53760476D02*
X226659580Y-53808095D01*
X226659580Y-53808095D02*
X226707200Y-53855714D01*
X226707200Y-53855714D02*
X226754819Y-53950952D01*
X226754819Y-53950952D02*
X226754819Y-54141428D01*
X226754819Y-54141428D02*
X226707200Y-54236666D01*
X226707200Y-54236666D02*
X226659580Y-54284285D01*
X226659580Y-54284285D02*
X226564342Y-54331904D01*
X226564342Y-54331904D02*
X226326247Y-54331904D01*
X226326247Y-54331904D02*
X226231009Y-54284285D01*
X226231009Y-54284285D02*
X226183390Y-54236666D01*
X226183390Y-54236666D02*
X226135771Y-54141428D01*
X226135771Y-54141428D02*
X226135771Y-53950952D01*
X226135771Y-53950952D02*
X226183390Y-53855714D01*
X226183390Y-53855714D02*
X226231009Y-53808095D01*
X226231009Y-53808095D02*
X226326247Y-53760476D01*
X226434819Y-59158095D02*
X225434819Y-59158095D01*
X226434819Y-59729523D02*
X225863390Y-59300952D01*
X225434819Y-59729523D02*
X226006247Y-59158095D01*
X347404819Y-75655714D02*
X346404819Y-75655714D01*
X346404819Y-75655714D02*
X346404819Y-75893809D01*
X346404819Y-75893809D02*
X346452438Y-76036666D01*
X346452438Y-76036666D02*
X346547676Y-76131904D01*
X346547676Y-76131904D02*
X346642914Y-76179523D01*
X346642914Y-76179523D02*
X346833390Y-76227142D01*
X346833390Y-76227142D02*
X346976247Y-76227142D01*
X346976247Y-76227142D02*
X347166723Y-76179523D01*
X347166723Y-76179523D02*
X347261961Y-76131904D01*
X347261961Y-76131904D02*
X347357200Y-76036666D01*
X347357200Y-76036666D02*
X347404819Y-75893809D01*
X347404819Y-75893809D02*
X347404819Y-75655714D01*
X346404819Y-77084285D02*
X346404819Y-76893809D01*
X346404819Y-76893809D02*
X346452438Y-76798571D01*
X346452438Y-76798571D02*
X346500057Y-76750952D01*
X346500057Y-76750952D02*
X346642914Y-76655714D01*
X346642914Y-76655714D02*
X346833390Y-76608095D01*
X346833390Y-76608095D02*
X347214342Y-76608095D01*
X347214342Y-76608095D02*
X347309580Y-76655714D01*
X347309580Y-76655714D02*
X347357200Y-76703333D01*
X347357200Y-76703333D02*
X347404819Y-76798571D01*
X347404819Y-76798571D02*
X347404819Y-76989047D01*
X347404819Y-76989047D02*
X347357200Y-77084285D01*
X347357200Y-77084285D02*
X347309580Y-77131904D01*
X347309580Y-77131904D02*
X347214342Y-77179523D01*
X347214342Y-77179523D02*
X346976247Y-77179523D01*
X346976247Y-77179523D02*
X346881009Y-77131904D01*
X346881009Y-77131904D02*
X346833390Y-77084285D01*
X346833390Y-77084285D02*
X346785771Y-76989047D01*
X346785771Y-76989047D02*
X346785771Y-76798571D01*
X346785771Y-76798571D02*
X346833390Y-76703333D01*
X346833390Y-76703333D02*
X346881009Y-76655714D01*
X346881009Y-76655714D02*
X346976247Y-76608095D01*
X346404819Y-78084285D02*
X346404819Y-77608095D01*
X346404819Y-77608095D02*
X346881009Y-77560476D01*
X346881009Y-77560476D02*
X346833390Y-77608095D01*
X346833390Y-77608095D02*
X346785771Y-77703333D01*
X346785771Y-77703333D02*
X346785771Y-77941428D01*
X346785771Y-77941428D02*
X346833390Y-78036666D01*
X346833390Y-78036666D02*
X346881009Y-78084285D01*
X346881009Y-78084285D02*
X346976247Y-78131904D01*
X346976247Y-78131904D02*
X347214342Y-78131904D01*
X347214342Y-78131904D02*
X347309580Y-78084285D01*
X347309580Y-78084285D02*
X347357200Y-78036666D01*
X347357200Y-78036666D02*
X347404819Y-77941428D01*
X347404819Y-77941428D02*
X347404819Y-77703333D01*
X347404819Y-77703333D02*
X347357200Y-77608095D01*
X347357200Y-77608095D02*
X347309580Y-77560476D01*
X347084819Y-82958095D02*
X346084819Y-82958095D01*
X347084819Y-83529523D02*
X346513390Y-83100952D01*
X346084819Y-83529523D02*
X346656247Y-82958095D01*
X290254819Y-37855714D02*
X289254819Y-37855714D01*
X289254819Y-37855714D02*
X289254819Y-38093809D01*
X289254819Y-38093809D02*
X289302438Y-38236666D01*
X289302438Y-38236666D02*
X289397676Y-38331904D01*
X289397676Y-38331904D02*
X289492914Y-38379523D01*
X289492914Y-38379523D02*
X289683390Y-38427142D01*
X289683390Y-38427142D02*
X289826247Y-38427142D01*
X289826247Y-38427142D02*
X290016723Y-38379523D01*
X290016723Y-38379523D02*
X290111961Y-38331904D01*
X290111961Y-38331904D02*
X290207200Y-38236666D01*
X290207200Y-38236666D02*
X290254819Y-38093809D01*
X290254819Y-38093809D02*
X290254819Y-37855714D01*
X289588152Y-39284285D02*
X290254819Y-39284285D01*
X289207200Y-39046190D02*
X289921485Y-38808095D01*
X289921485Y-38808095D02*
X289921485Y-39427142D01*
X289683390Y-39950952D02*
X289635771Y-39855714D01*
X289635771Y-39855714D02*
X289588152Y-39808095D01*
X289588152Y-39808095D02*
X289492914Y-39760476D01*
X289492914Y-39760476D02*
X289445295Y-39760476D01*
X289445295Y-39760476D02*
X289350057Y-39808095D01*
X289350057Y-39808095D02*
X289302438Y-39855714D01*
X289302438Y-39855714D02*
X289254819Y-39950952D01*
X289254819Y-39950952D02*
X289254819Y-40141428D01*
X289254819Y-40141428D02*
X289302438Y-40236666D01*
X289302438Y-40236666D02*
X289350057Y-40284285D01*
X289350057Y-40284285D02*
X289445295Y-40331904D01*
X289445295Y-40331904D02*
X289492914Y-40331904D01*
X289492914Y-40331904D02*
X289588152Y-40284285D01*
X289588152Y-40284285D02*
X289635771Y-40236666D01*
X289635771Y-40236666D02*
X289683390Y-40141428D01*
X289683390Y-40141428D02*
X289683390Y-39950952D01*
X289683390Y-39950952D02*
X289731009Y-39855714D01*
X289731009Y-39855714D02*
X289778628Y-39808095D01*
X289778628Y-39808095D02*
X289873866Y-39760476D01*
X289873866Y-39760476D02*
X290064342Y-39760476D01*
X290064342Y-39760476D02*
X290159580Y-39808095D01*
X290159580Y-39808095D02*
X290207200Y-39855714D01*
X290207200Y-39855714D02*
X290254819Y-39950952D01*
X290254819Y-39950952D02*
X290254819Y-40141428D01*
X290254819Y-40141428D02*
X290207200Y-40236666D01*
X290207200Y-40236666D02*
X290159580Y-40284285D01*
X290159580Y-40284285D02*
X290064342Y-40331904D01*
X290064342Y-40331904D02*
X289873866Y-40331904D01*
X289873866Y-40331904D02*
X289778628Y-40284285D01*
X289778628Y-40284285D02*
X289731009Y-40236666D01*
X289731009Y-40236666D02*
X289683390Y-40141428D01*
X289934819Y-45158095D02*
X288934819Y-45158095D01*
X289934819Y-45729523D02*
X289363390Y-45300952D01*
X288934819Y-45729523D02*
X289506247Y-45158095D01*
X129704819Y-94705714D02*
X128704819Y-94705714D01*
X128704819Y-94705714D02*
X128704819Y-94943809D01*
X128704819Y-94943809D02*
X128752438Y-95086666D01*
X128752438Y-95086666D02*
X128847676Y-95181904D01*
X128847676Y-95181904D02*
X128942914Y-95229523D01*
X128942914Y-95229523D02*
X129133390Y-95277142D01*
X129133390Y-95277142D02*
X129276247Y-95277142D01*
X129276247Y-95277142D02*
X129466723Y-95229523D01*
X129466723Y-95229523D02*
X129561961Y-95181904D01*
X129561961Y-95181904D02*
X129657200Y-95086666D01*
X129657200Y-95086666D02*
X129704819Y-94943809D01*
X129704819Y-94943809D02*
X129704819Y-94705714D01*
X129704819Y-96229523D02*
X129704819Y-95658095D01*
X129704819Y-95943809D02*
X128704819Y-95943809D01*
X128704819Y-95943809D02*
X128847676Y-95848571D01*
X128847676Y-95848571D02*
X128942914Y-95753333D01*
X128942914Y-95753333D02*
X128990533Y-95658095D01*
X129704819Y-96705714D02*
X129704819Y-96896190D01*
X129704819Y-96896190D02*
X129657200Y-96991428D01*
X129657200Y-96991428D02*
X129609580Y-97039047D01*
X129609580Y-97039047D02*
X129466723Y-97134285D01*
X129466723Y-97134285D02*
X129276247Y-97181904D01*
X129276247Y-97181904D02*
X128895295Y-97181904D01*
X128895295Y-97181904D02*
X128800057Y-97134285D01*
X128800057Y-97134285D02*
X128752438Y-97086666D01*
X128752438Y-97086666D02*
X128704819Y-96991428D01*
X128704819Y-96991428D02*
X128704819Y-96800952D01*
X128704819Y-96800952D02*
X128752438Y-96705714D01*
X128752438Y-96705714D02*
X128800057Y-96658095D01*
X128800057Y-96658095D02*
X128895295Y-96610476D01*
X128895295Y-96610476D02*
X129133390Y-96610476D01*
X129133390Y-96610476D02*
X129228628Y-96658095D01*
X129228628Y-96658095D02*
X129276247Y-96705714D01*
X129276247Y-96705714D02*
X129323866Y-96800952D01*
X129323866Y-96800952D02*
X129323866Y-96991428D01*
X129323866Y-96991428D02*
X129276247Y-97086666D01*
X129276247Y-97086666D02*
X129228628Y-97134285D01*
X129228628Y-97134285D02*
X129133390Y-97181904D01*
X129384819Y-102008095D02*
X128384819Y-102008095D01*
X129384819Y-102579523D02*
X128813390Y-102150952D01*
X128384819Y-102579523D02*
X128956247Y-102008095D01*
X226754819Y-114255714D02*
X225754819Y-114255714D01*
X225754819Y-114255714D02*
X225754819Y-114493809D01*
X225754819Y-114493809D02*
X225802438Y-114636666D01*
X225802438Y-114636666D02*
X225897676Y-114731904D01*
X225897676Y-114731904D02*
X225992914Y-114779523D01*
X225992914Y-114779523D02*
X226183390Y-114827142D01*
X226183390Y-114827142D02*
X226326247Y-114827142D01*
X226326247Y-114827142D02*
X226516723Y-114779523D01*
X226516723Y-114779523D02*
X226611961Y-114731904D01*
X226611961Y-114731904D02*
X226707200Y-114636666D01*
X226707200Y-114636666D02*
X226754819Y-114493809D01*
X226754819Y-114493809D02*
X226754819Y-114255714D01*
X225754819Y-115160476D02*
X225754819Y-115779523D01*
X225754819Y-115779523D02*
X226135771Y-115446190D01*
X226135771Y-115446190D02*
X226135771Y-115589047D01*
X226135771Y-115589047D02*
X226183390Y-115684285D01*
X226183390Y-115684285D02*
X226231009Y-115731904D01*
X226231009Y-115731904D02*
X226326247Y-115779523D01*
X226326247Y-115779523D02*
X226564342Y-115779523D01*
X226564342Y-115779523D02*
X226659580Y-115731904D01*
X226659580Y-115731904D02*
X226707200Y-115684285D01*
X226707200Y-115684285D02*
X226754819Y-115589047D01*
X226754819Y-115589047D02*
X226754819Y-115303333D01*
X226754819Y-115303333D02*
X226707200Y-115208095D01*
X226707200Y-115208095D02*
X226659580Y-115160476D01*
X226183390Y-116350952D02*
X226135771Y-116255714D01*
X226135771Y-116255714D02*
X226088152Y-116208095D01*
X226088152Y-116208095D02*
X225992914Y-116160476D01*
X225992914Y-116160476D02*
X225945295Y-116160476D01*
X225945295Y-116160476D02*
X225850057Y-116208095D01*
X225850057Y-116208095D02*
X225802438Y-116255714D01*
X225802438Y-116255714D02*
X225754819Y-116350952D01*
X225754819Y-116350952D02*
X225754819Y-116541428D01*
X225754819Y-116541428D02*
X225802438Y-116636666D01*
X225802438Y-116636666D02*
X225850057Y-116684285D01*
X225850057Y-116684285D02*
X225945295Y-116731904D01*
X225945295Y-116731904D02*
X225992914Y-116731904D01*
X225992914Y-116731904D02*
X226088152Y-116684285D01*
X226088152Y-116684285D02*
X226135771Y-116636666D01*
X226135771Y-116636666D02*
X226183390Y-116541428D01*
X226183390Y-116541428D02*
X226183390Y-116350952D01*
X226183390Y-116350952D02*
X226231009Y-116255714D01*
X226231009Y-116255714D02*
X226278628Y-116208095D01*
X226278628Y-116208095D02*
X226373866Y-116160476D01*
X226373866Y-116160476D02*
X226564342Y-116160476D01*
X226564342Y-116160476D02*
X226659580Y-116208095D01*
X226659580Y-116208095D02*
X226707200Y-116255714D01*
X226707200Y-116255714D02*
X226754819Y-116350952D01*
X226754819Y-116350952D02*
X226754819Y-116541428D01*
X226754819Y-116541428D02*
X226707200Y-116636666D01*
X226707200Y-116636666D02*
X226659580Y-116684285D01*
X226659580Y-116684285D02*
X226564342Y-116731904D01*
X226564342Y-116731904D02*
X226373866Y-116731904D01*
X226373866Y-116731904D02*
X226278628Y-116684285D01*
X226278628Y-116684285D02*
X226231009Y-116636666D01*
X226231009Y-116636666D02*
X226183390Y-116541428D01*
X226434819Y-121558095D02*
X225434819Y-121558095D01*
X226434819Y-122129523D02*
X225863390Y-121700952D01*
X225434819Y-122129523D02*
X226006247Y-121558095D01*
X174754819Y-114555714D02*
X173754819Y-114555714D01*
X173754819Y-114555714D02*
X173754819Y-114793809D01*
X173754819Y-114793809D02*
X173802438Y-114936666D01*
X173802438Y-114936666D02*
X173897676Y-115031904D01*
X173897676Y-115031904D02*
X173992914Y-115079523D01*
X173992914Y-115079523D02*
X174183390Y-115127142D01*
X174183390Y-115127142D02*
X174326247Y-115127142D01*
X174326247Y-115127142D02*
X174516723Y-115079523D01*
X174516723Y-115079523D02*
X174611961Y-115031904D01*
X174611961Y-115031904D02*
X174707200Y-114936666D01*
X174707200Y-114936666D02*
X174754819Y-114793809D01*
X174754819Y-114793809D02*
X174754819Y-114555714D01*
X173850057Y-115508095D02*
X173802438Y-115555714D01*
X173802438Y-115555714D02*
X173754819Y-115650952D01*
X173754819Y-115650952D02*
X173754819Y-115889047D01*
X173754819Y-115889047D02*
X173802438Y-115984285D01*
X173802438Y-115984285D02*
X173850057Y-116031904D01*
X173850057Y-116031904D02*
X173945295Y-116079523D01*
X173945295Y-116079523D02*
X174040533Y-116079523D01*
X174040533Y-116079523D02*
X174183390Y-116031904D01*
X174183390Y-116031904D02*
X174754819Y-115460476D01*
X174754819Y-115460476D02*
X174754819Y-116079523D01*
X173754819Y-116698571D02*
X173754819Y-116793809D01*
X173754819Y-116793809D02*
X173802438Y-116889047D01*
X173802438Y-116889047D02*
X173850057Y-116936666D01*
X173850057Y-116936666D02*
X173945295Y-116984285D01*
X173945295Y-116984285D02*
X174135771Y-117031904D01*
X174135771Y-117031904D02*
X174373866Y-117031904D01*
X174373866Y-117031904D02*
X174564342Y-116984285D01*
X174564342Y-116984285D02*
X174659580Y-116936666D01*
X174659580Y-116936666D02*
X174707200Y-116889047D01*
X174707200Y-116889047D02*
X174754819Y-116793809D01*
X174754819Y-116793809D02*
X174754819Y-116698571D01*
X174754819Y-116698571D02*
X174707200Y-116603333D01*
X174707200Y-116603333D02*
X174659580Y-116555714D01*
X174659580Y-116555714D02*
X174564342Y-116508095D01*
X174564342Y-116508095D02*
X174373866Y-116460476D01*
X174373866Y-116460476D02*
X174135771Y-116460476D01*
X174135771Y-116460476D02*
X173945295Y-116508095D01*
X173945295Y-116508095D02*
X173850057Y-116555714D01*
X173850057Y-116555714D02*
X173802438Y-116603333D01*
X173802438Y-116603333D02*
X173754819Y-116698571D01*
X174434819Y-121858095D02*
X173434819Y-121858095D01*
X174434819Y-122429523D02*
X173863390Y-122000952D01*
X173434819Y-122429523D02*
X174006247Y-121858095D01*
X196254819Y-57255714D02*
X195254819Y-57255714D01*
X195254819Y-57255714D02*
X195254819Y-57493809D01*
X195254819Y-57493809D02*
X195302438Y-57636666D01*
X195302438Y-57636666D02*
X195397676Y-57731904D01*
X195397676Y-57731904D02*
X195492914Y-57779523D01*
X195492914Y-57779523D02*
X195683390Y-57827142D01*
X195683390Y-57827142D02*
X195826247Y-57827142D01*
X195826247Y-57827142D02*
X196016723Y-57779523D01*
X196016723Y-57779523D02*
X196111961Y-57731904D01*
X196111961Y-57731904D02*
X196207200Y-57636666D01*
X196207200Y-57636666D02*
X196254819Y-57493809D01*
X196254819Y-57493809D02*
X196254819Y-57255714D01*
X195254819Y-58160476D02*
X195254819Y-58779523D01*
X195254819Y-58779523D02*
X195635771Y-58446190D01*
X195635771Y-58446190D02*
X195635771Y-58589047D01*
X195635771Y-58589047D02*
X195683390Y-58684285D01*
X195683390Y-58684285D02*
X195731009Y-58731904D01*
X195731009Y-58731904D02*
X195826247Y-58779523D01*
X195826247Y-58779523D02*
X196064342Y-58779523D01*
X196064342Y-58779523D02*
X196159580Y-58731904D01*
X196159580Y-58731904D02*
X196207200Y-58684285D01*
X196207200Y-58684285D02*
X196254819Y-58589047D01*
X196254819Y-58589047D02*
X196254819Y-58303333D01*
X196254819Y-58303333D02*
X196207200Y-58208095D01*
X196207200Y-58208095D02*
X196159580Y-58160476D01*
X195588152Y-59636666D02*
X196254819Y-59636666D01*
X195207200Y-59398571D02*
X195921485Y-59160476D01*
X195921485Y-59160476D02*
X195921485Y-59779523D01*
X195934819Y-64558095D02*
X194934819Y-64558095D01*
X195934819Y-65129523D02*
X195363390Y-64700952D01*
X194934819Y-65129523D02*
X195506247Y-64558095D01*
X347404819Y-37855714D02*
X346404819Y-37855714D01*
X346404819Y-37855714D02*
X346404819Y-38093809D01*
X346404819Y-38093809D02*
X346452438Y-38236666D01*
X346452438Y-38236666D02*
X346547676Y-38331904D01*
X346547676Y-38331904D02*
X346642914Y-38379523D01*
X346642914Y-38379523D02*
X346833390Y-38427142D01*
X346833390Y-38427142D02*
X346976247Y-38427142D01*
X346976247Y-38427142D02*
X347166723Y-38379523D01*
X347166723Y-38379523D02*
X347261961Y-38331904D01*
X347261961Y-38331904D02*
X347357200Y-38236666D01*
X347357200Y-38236666D02*
X347404819Y-38093809D01*
X347404819Y-38093809D02*
X347404819Y-37855714D01*
X346404819Y-39284285D02*
X346404819Y-39093809D01*
X346404819Y-39093809D02*
X346452438Y-38998571D01*
X346452438Y-38998571D02*
X346500057Y-38950952D01*
X346500057Y-38950952D02*
X346642914Y-38855714D01*
X346642914Y-38855714D02*
X346833390Y-38808095D01*
X346833390Y-38808095D02*
X347214342Y-38808095D01*
X347214342Y-38808095D02*
X347309580Y-38855714D01*
X347309580Y-38855714D02*
X347357200Y-38903333D01*
X347357200Y-38903333D02*
X347404819Y-38998571D01*
X347404819Y-38998571D02*
X347404819Y-39189047D01*
X347404819Y-39189047D02*
X347357200Y-39284285D01*
X347357200Y-39284285D02*
X347309580Y-39331904D01*
X347309580Y-39331904D02*
X347214342Y-39379523D01*
X347214342Y-39379523D02*
X346976247Y-39379523D01*
X346976247Y-39379523D02*
X346881009Y-39331904D01*
X346881009Y-39331904D02*
X346833390Y-39284285D01*
X346833390Y-39284285D02*
X346785771Y-39189047D01*
X346785771Y-39189047D02*
X346785771Y-38998571D01*
X346785771Y-38998571D02*
X346833390Y-38903333D01*
X346833390Y-38903333D02*
X346881009Y-38855714D01*
X346881009Y-38855714D02*
X346976247Y-38808095D01*
X346404819Y-39712857D02*
X346404819Y-40331904D01*
X346404819Y-40331904D02*
X346785771Y-39998571D01*
X346785771Y-39998571D02*
X346785771Y-40141428D01*
X346785771Y-40141428D02*
X346833390Y-40236666D01*
X346833390Y-40236666D02*
X346881009Y-40284285D01*
X346881009Y-40284285D02*
X346976247Y-40331904D01*
X346976247Y-40331904D02*
X347214342Y-40331904D01*
X347214342Y-40331904D02*
X347309580Y-40284285D01*
X347309580Y-40284285D02*
X347357200Y-40236666D01*
X347357200Y-40236666D02*
X347404819Y-40141428D01*
X347404819Y-40141428D02*
X347404819Y-39855714D01*
X347404819Y-39855714D02*
X347357200Y-39760476D01*
X347357200Y-39760476D02*
X347309580Y-39712857D01*
X347084819Y-45158095D02*
X346084819Y-45158095D01*
X347084819Y-45729523D02*
X346513390Y-45300952D01*
X346084819Y-45729523D02*
X346656247Y-45158095D01*
X442754819Y-37655714D02*
X441754819Y-37655714D01*
X441754819Y-37655714D02*
X441754819Y-37893809D01*
X441754819Y-37893809D02*
X441802438Y-38036666D01*
X441802438Y-38036666D02*
X441897676Y-38131904D01*
X441897676Y-38131904D02*
X441992914Y-38179523D01*
X441992914Y-38179523D02*
X442183390Y-38227142D01*
X442183390Y-38227142D02*
X442326247Y-38227142D01*
X442326247Y-38227142D02*
X442516723Y-38179523D01*
X442516723Y-38179523D02*
X442611961Y-38131904D01*
X442611961Y-38131904D02*
X442707200Y-38036666D01*
X442707200Y-38036666D02*
X442754819Y-37893809D01*
X442754819Y-37893809D02*
X442754819Y-37655714D01*
X441754819Y-38560476D02*
X441754819Y-39227142D01*
X441754819Y-39227142D02*
X442754819Y-38798571D01*
X441754819Y-39512857D02*
X441754819Y-40131904D01*
X441754819Y-40131904D02*
X442135771Y-39798571D01*
X442135771Y-39798571D02*
X442135771Y-39941428D01*
X442135771Y-39941428D02*
X442183390Y-40036666D01*
X442183390Y-40036666D02*
X442231009Y-40084285D01*
X442231009Y-40084285D02*
X442326247Y-40131904D01*
X442326247Y-40131904D02*
X442564342Y-40131904D01*
X442564342Y-40131904D02*
X442659580Y-40084285D01*
X442659580Y-40084285D02*
X442707200Y-40036666D01*
X442707200Y-40036666D02*
X442754819Y-39941428D01*
X442754819Y-39941428D02*
X442754819Y-39655714D01*
X442754819Y-39655714D02*
X442707200Y-39560476D01*
X442707200Y-39560476D02*
X442659580Y-39512857D01*
X442434819Y-44958095D02*
X441434819Y-44958095D01*
X442434819Y-45529523D02*
X441863390Y-45100952D01*
X441434819Y-45529523D02*
X442006247Y-44958095D01*
X309104819Y-56555714D02*
X308104819Y-56555714D01*
X308104819Y-56555714D02*
X308104819Y-56793809D01*
X308104819Y-56793809D02*
X308152438Y-56936666D01*
X308152438Y-56936666D02*
X308247676Y-57031904D01*
X308247676Y-57031904D02*
X308342914Y-57079523D01*
X308342914Y-57079523D02*
X308533390Y-57127142D01*
X308533390Y-57127142D02*
X308676247Y-57127142D01*
X308676247Y-57127142D02*
X308866723Y-57079523D01*
X308866723Y-57079523D02*
X308961961Y-57031904D01*
X308961961Y-57031904D02*
X309057200Y-56936666D01*
X309057200Y-56936666D02*
X309104819Y-56793809D01*
X309104819Y-56793809D02*
X309104819Y-56555714D01*
X308104819Y-58031904D02*
X308104819Y-57555714D01*
X308104819Y-57555714D02*
X308581009Y-57508095D01*
X308581009Y-57508095D02*
X308533390Y-57555714D01*
X308533390Y-57555714D02*
X308485771Y-57650952D01*
X308485771Y-57650952D02*
X308485771Y-57889047D01*
X308485771Y-57889047D02*
X308533390Y-57984285D01*
X308533390Y-57984285D02*
X308581009Y-58031904D01*
X308581009Y-58031904D02*
X308676247Y-58079523D01*
X308676247Y-58079523D02*
X308914342Y-58079523D01*
X308914342Y-58079523D02*
X309009580Y-58031904D01*
X309009580Y-58031904D02*
X309057200Y-57984285D01*
X309057200Y-57984285D02*
X309104819Y-57889047D01*
X309104819Y-57889047D02*
X309104819Y-57650952D01*
X309104819Y-57650952D02*
X309057200Y-57555714D01*
X309057200Y-57555714D02*
X309009580Y-57508095D01*
X308438152Y-58936666D02*
X309104819Y-58936666D01*
X308057200Y-58698571D02*
X308771485Y-58460476D01*
X308771485Y-58460476D02*
X308771485Y-59079523D01*
X308784819Y-63858095D02*
X307784819Y-63858095D01*
X308784819Y-64429523D02*
X308213390Y-64000952D01*
X307784819Y-64429523D02*
X308356247Y-63858095D01*
X226754819Y-71155714D02*
X225754819Y-71155714D01*
X225754819Y-71155714D02*
X225754819Y-71393809D01*
X225754819Y-71393809D02*
X225802438Y-71536666D01*
X225802438Y-71536666D02*
X225897676Y-71631904D01*
X225897676Y-71631904D02*
X225992914Y-71679523D01*
X225992914Y-71679523D02*
X226183390Y-71727142D01*
X226183390Y-71727142D02*
X226326247Y-71727142D01*
X226326247Y-71727142D02*
X226516723Y-71679523D01*
X226516723Y-71679523D02*
X226611961Y-71631904D01*
X226611961Y-71631904D02*
X226707200Y-71536666D01*
X226707200Y-71536666D02*
X226754819Y-71393809D01*
X226754819Y-71393809D02*
X226754819Y-71155714D01*
X225754819Y-72060476D02*
X225754819Y-72679523D01*
X225754819Y-72679523D02*
X226135771Y-72346190D01*
X226135771Y-72346190D02*
X226135771Y-72489047D01*
X226135771Y-72489047D02*
X226183390Y-72584285D01*
X226183390Y-72584285D02*
X226231009Y-72631904D01*
X226231009Y-72631904D02*
X226326247Y-72679523D01*
X226326247Y-72679523D02*
X226564342Y-72679523D01*
X226564342Y-72679523D02*
X226659580Y-72631904D01*
X226659580Y-72631904D02*
X226707200Y-72584285D01*
X226707200Y-72584285D02*
X226754819Y-72489047D01*
X226754819Y-72489047D02*
X226754819Y-72203333D01*
X226754819Y-72203333D02*
X226707200Y-72108095D01*
X226707200Y-72108095D02*
X226659580Y-72060476D01*
X225754819Y-73012857D02*
X225754819Y-73679523D01*
X225754819Y-73679523D02*
X226754819Y-73250952D01*
X226434819Y-78458095D02*
X225434819Y-78458095D01*
X226434819Y-79029523D02*
X225863390Y-78600952D01*
X225434819Y-79029523D02*
X226006247Y-78458095D01*
X309304819Y-75655714D02*
X308304819Y-75655714D01*
X308304819Y-75655714D02*
X308304819Y-75893809D01*
X308304819Y-75893809D02*
X308352438Y-76036666D01*
X308352438Y-76036666D02*
X308447676Y-76131904D01*
X308447676Y-76131904D02*
X308542914Y-76179523D01*
X308542914Y-76179523D02*
X308733390Y-76227142D01*
X308733390Y-76227142D02*
X308876247Y-76227142D01*
X308876247Y-76227142D02*
X309066723Y-76179523D01*
X309066723Y-76179523D02*
X309161961Y-76131904D01*
X309161961Y-76131904D02*
X309257200Y-76036666D01*
X309257200Y-76036666D02*
X309304819Y-75893809D01*
X309304819Y-75893809D02*
X309304819Y-75655714D01*
X308304819Y-77131904D02*
X308304819Y-76655714D01*
X308304819Y-76655714D02*
X308781009Y-76608095D01*
X308781009Y-76608095D02*
X308733390Y-76655714D01*
X308733390Y-76655714D02*
X308685771Y-76750952D01*
X308685771Y-76750952D02*
X308685771Y-76989047D01*
X308685771Y-76989047D02*
X308733390Y-77084285D01*
X308733390Y-77084285D02*
X308781009Y-77131904D01*
X308781009Y-77131904D02*
X308876247Y-77179523D01*
X308876247Y-77179523D02*
X309114342Y-77179523D01*
X309114342Y-77179523D02*
X309209580Y-77131904D01*
X309209580Y-77131904D02*
X309257200Y-77084285D01*
X309257200Y-77084285D02*
X309304819Y-76989047D01*
X309304819Y-76989047D02*
X309304819Y-76750952D01*
X309304819Y-76750952D02*
X309257200Y-76655714D01*
X309257200Y-76655714D02*
X309209580Y-76608095D01*
X308304819Y-78084285D02*
X308304819Y-77608095D01*
X308304819Y-77608095D02*
X308781009Y-77560476D01*
X308781009Y-77560476D02*
X308733390Y-77608095D01*
X308733390Y-77608095D02*
X308685771Y-77703333D01*
X308685771Y-77703333D02*
X308685771Y-77941428D01*
X308685771Y-77941428D02*
X308733390Y-78036666D01*
X308733390Y-78036666D02*
X308781009Y-78084285D01*
X308781009Y-78084285D02*
X308876247Y-78131904D01*
X308876247Y-78131904D02*
X309114342Y-78131904D01*
X309114342Y-78131904D02*
X309209580Y-78084285D01*
X309209580Y-78084285D02*
X309257200Y-78036666D01*
X309257200Y-78036666D02*
X309304819Y-77941428D01*
X309304819Y-77941428D02*
X309304819Y-77703333D01*
X309304819Y-77703333D02*
X309257200Y-77608095D01*
X309257200Y-77608095D02*
X309209580Y-77560476D01*
X308984819Y-82958095D02*
X307984819Y-82958095D01*
X308984819Y-83529523D02*
X308413390Y-83100952D01*
X307984819Y-83529523D02*
X308556247Y-82958095D01*
X432894285Y-106394819D02*
X432894285Y-105394819D01*
X432894285Y-105394819D02*
X432656190Y-105394819D01*
X432656190Y-105394819D02*
X432513333Y-105442438D01*
X432513333Y-105442438D02*
X432418095Y-105537676D01*
X432418095Y-105537676D02*
X432370476Y-105632914D01*
X432370476Y-105632914D02*
X432322857Y-105823390D01*
X432322857Y-105823390D02*
X432322857Y-105966247D01*
X432322857Y-105966247D02*
X432370476Y-106156723D01*
X432370476Y-106156723D02*
X432418095Y-106251961D01*
X432418095Y-106251961D02*
X432513333Y-106347200D01*
X432513333Y-106347200D02*
X432656190Y-106394819D01*
X432656190Y-106394819D02*
X432894285Y-106394819D01*
X431989523Y-105394819D02*
X431322857Y-105394819D01*
X431322857Y-105394819D02*
X431751428Y-106394819D01*
X430751428Y-105394819D02*
X430656190Y-105394819D01*
X430656190Y-105394819D02*
X430560952Y-105442438D01*
X430560952Y-105442438D02*
X430513333Y-105490057D01*
X430513333Y-105490057D02*
X430465714Y-105585295D01*
X430465714Y-105585295D02*
X430418095Y-105775771D01*
X430418095Y-105775771D02*
X430418095Y-106013866D01*
X430418095Y-106013866D02*
X430465714Y-106204342D01*
X430465714Y-106204342D02*
X430513333Y-106299580D01*
X430513333Y-106299580D02*
X430560952Y-106347200D01*
X430560952Y-106347200D02*
X430656190Y-106394819D01*
X430656190Y-106394819D02*
X430751428Y-106394819D01*
X430751428Y-106394819D02*
X430846666Y-106347200D01*
X430846666Y-106347200D02*
X430894285Y-106299580D01*
X430894285Y-106299580D02*
X430941904Y-106204342D01*
X430941904Y-106204342D02*
X430989523Y-106013866D01*
X430989523Y-106013866D02*
X430989523Y-105775771D01*
X430989523Y-105775771D02*
X430941904Y-105585295D01*
X430941904Y-105585295D02*
X430894285Y-105490057D01*
X430894285Y-105490057D02*
X430846666Y-105442438D01*
X430846666Y-105442438D02*
X430751428Y-105394819D01*
X425591904Y-106074819D02*
X425591904Y-105074819D01*
X425020476Y-106074819D02*
X425449047Y-105503390D01*
X425020476Y-105074819D02*
X425591904Y-105646247D01*
X309104819Y-94955714D02*
X308104819Y-94955714D01*
X308104819Y-94955714D02*
X308104819Y-95193809D01*
X308104819Y-95193809D02*
X308152438Y-95336666D01*
X308152438Y-95336666D02*
X308247676Y-95431904D01*
X308247676Y-95431904D02*
X308342914Y-95479523D01*
X308342914Y-95479523D02*
X308533390Y-95527142D01*
X308533390Y-95527142D02*
X308676247Y-95527142D01*
X308676247Y-95527142D02*
X308866723Y-95479523D01*
X308866723Y-95479523D02*
X308961961Y-95431904D01*
X308961961Y-95431904D02*
X309057200Y-95336666D01*
X309057200Y-95336666D02*
X309104819Y-95193809D01*
X309104819Y-95193809D02*
X309104819Y-94955714D01*
X308104819Y-96431904D02*
X308104819Y-95955714D01*
X308104819Y-95955714D02*
X308581009Y-95908095D01*
X308581009Y-95908095D02*
X308533390Y-95955714D01*
X308533390Y-95955714D02*
X308485771Y-96050952D01*
X308485771Y-96050952D02*
X308485771Y-96289047D01*
X308485771Y-96289047D02*
X308533390Y-96384285D01*
X308533390Y-96384285D02*
X308581009Y-96431904D01*
X308581009Y-96431904D02*
X308676247Y-96479523D01*
X308676247Y-96479523D02*
X308914342Y-96479523D01*
X308914342Y-96479523D02*
X309009580Y-96431904D01*
X309009580Y-96431904D02*
X309057200Y-96384285D01*
X309057200Y-96384285D02*
X309104819Y-96289047D01*
X309104819Y-96289047D02*
X309104819Y-96050952D01*
X309104819Y-96050952D02*
X309057200Y-95955714D01*
X309057200Y-95955714D02*
X309009580Y-95908095D01*
X308104819Y-97336666D02*
X308104819Y-97146190D01*
X308104819Y-97146190D02*
X308152438Y-97050952D01*
X308152438Y-97050952D02*
X308200057Y-97003333D01*
X308200057Y-97003333D02*
X308342914Y-96908095D01*
X308342914Y-96908095D02*
X308533390Y-96860476D01*
X308533390Y-96860476D02*
X308914342Y-96860476D01*
X308914342Y-96860476D02*
X309009580Y-96908095D01*
X309009580Y-96908095D02*
X309057200Y-96955714D01*
X309057200Y-96955714D02*
X309104819Y-97050952D01*
X309104819Y-97050952D02*
X309104819Y-97241428D01*
X309104819Y-97241428D02*
X309057200Y-97336666D01*
X309057200Y-97336666D02*
X309009580Y-97384285D01*
X309009580Y-97384285D02*
X308914342Y-97431904D01*
X308914342Y-97431904D02*
X308676247Y-97431904D01*
X308676247Y-97431904D02*
X308581009Y-97384285D01*
X308581009Y-97384285D02*
X308533390Y-97336666D01*
X308533390Y-97336666D02*
X308485771Y-97241428D01*
X308485771Y-97241428D02*
X308485771Y-97050952D01*
X308485771Y-97050952D02*
X308533390Y-96955714D01*
X308533390Y-96955714D02*
X308581009Y-96908095D01*
X308581009Y-96908095D02*
X308676247Y-96860476D01*
X308784819Y-102258095D02*
X307784819Y-102258095D01*
X308784819Y-102829523D02*
X308213390Y-102400952D01*
X307784819Y-102829523D02*
X308356247Y-102258095D01*
X143954819Y-37905714D02*
X142954819Y-37905714D01*
X142954819Y-37905714D02*
X142954819Y-38143809D01*
X142954819Y-38143809D02*
X143002438Y-38286666D01*
X143002438Y-38286666D02*
X143097676Y-38381904D01*
X143097676Y-38381904D02*
X143192914Y-38429523D01*
X143192914Y-38429523D02*
X143383390Y-38477142D01*
X143383390Y-38477142D02*
X143526247Y-38477142D01*
X143526247Y-38477142D02*
X143716723Y-38429523D01*
X143716723Y-38429523D02*
X143811961Y-38381904D01*
X143811961Y-38381904D02*
X143907200Y-38286666D01*
X143907200Y-38286666D02*
X143954819Y-38143809D01*
X143954819Y-38143809D02*
X143954819Y-37905714D01*
X143050057Y-38858095D02*
X143002438Y-38905714D01*
X143002438Y-38905714D02*
X142954819Y-39000952D01*
X142954819Y-39000952D02*
X142954819Y-39239047D01*
X142954819Y-39239047D02*
X143002438Y-39334285D01*
X143002438Y-39334285D02*
X143050057Y-39381904D01*
X143050057Y-39381904D02*
X143145295Y-39429523D01*
X143145295Y-39429523D02*
X143240533Y-39429523D01*
X143240533Y-39429523D02*
X143383390Y-39381904D01*
X143383390Y-39381904D02*
X143954819Y-38810476D01*
X143954819Y-38810476D02*
X143954819Y-39429523D01*
X142954819Y-40286666D02*
X142954819Y-40096190D01*
X142954819Y-40096190D02*
X143002438Y-40000952D01*
X143002438Y-40000952D02*
X143050057Y-39953333D01*
X143050057Y-39953333D02*
X143192914Y-39858095D01*
X143192914Y-39858095D02*
X143383390Y-39810476D01*
X143383390Y-39810476D02*
X143764342Y-39810476D01*
X143764342Y-39810476D02*
X143859580Y-39858095D01*
X143859580Y-39858095D02*
X143907200Y-39905714D01*
X143907200Y-39905714D02*
X143954819Y-40000952D01*
X143954819Y-40000952D02*
X143954819Y-40191428D01*
X143954819Y-40191428D02*
X143907200Y-40286666D01*
X143907200Y-40286666D02*
X143859580Y-40334285D01*
X143859580Y-40334285D02*
X143764342Y-40381904D01*
X143764342Y-40381904D02*
X143526247Y-40381904D01*
X143526247Y-40381904D02*
X143431009Y-40334285D01*
X143431009Y-40334285D02*
X143383390Y-40286666D01*
X143383390Y-40286666D02*
X143335771Y-40191428D01*
X143335771Y-40191428D02*
X143335771Y-40000952D01*
X143335771Y-40000952D02*
X143383390Y-39905714D01*
X143383390Y-39905714D02*
X143431009Y-39858095D01*
X143431009Y-39858095D02*
X143526247Y-39810476D01*
X143634819Y-45208095D02*
X142634819Y-45208095D01*
X143634819Y-45779523D02*
X143063390Y-45350952D01*
X142634819Y-45779523D02*
X143206247Y-45208095D01*
X198654819Y-114455714D02*
X197654819Y-114455714D01*
X197654819Y-114455714D02*
X197654819Y-114693809D01*
X197654819Y-114693809D02*
X197702438Y-114836666D01*
X197702438Y-114836666D02*
X197797676Y-114931904D01*
X197797676Y-114931904D02*
X197892914Y-114979523D01*
X197892914Y-114979523D02*
X198083390Y-115027142D01*
X198083390Y-115027142D02*
X198226247Y-115027142D01*
X198226247Y-115027142D02*
X198416723Y-114979523D01*
X198416723Y-114979523D02*
X198511961Y-114931904D01*
X198511961Y-114931904D02*
X198607200Y-114836666D01*
X198607200Y-114836666D02*
X198654819Y-114693809D01*
X198654819Y-114693809D02*
X198654819Y-114455714D01*
X197750057Y-115408095D02*
X197702438Y-115455714D01*
X197702438Y-115455714D02*
X197654819Y-115550952D01*
X197654819Y-115550952D02*
X197654819Y-115789047D01*
X197654819Y-115789047D02*
X197702438Y-115884285D01*
X197702438Y-115884285D02*
X197750057Y-115931904D01*
X197750057Y-115931904D02*
X197845295Y-115979523D01*
X197845295Y-115979523D02*
X197940533Y-115979523D01*
X197940533Y-115979523D02*
X198083390Y-115931904D01*
X198083390Y-115931904D02*
X198654819Y-115360476D01*
X198654819Y-115360476D02*
X198654819Y-115979523D01*
X197654819Y-116884285D02*
X197654819Y-116408095D01*
X197654819Y-116408095D02*
X198131009Y-116360476D01*
X198131009Y-116360476D02*
X198083390Y-116408095D01*
X198083390Y-116408095D02*
X198035771Y-116503333D01*
X198035771Y-116503333D02*
X198035771Y-116741428D01*
X198035771Y-116741428D02*
X198083390Y-116836666D01*
X198083390Y-116836666D02*
X198131009Y-116884285D01*
X198131009Y-116884285D02*
X198226247Y-116931904D01*
X198226247Y-116931904D02*
X198464342Y-116931904D01*
X198464342Y-116931904D02*
X198559580Y-116884285D01*
X198559580Y-116884285D02*
X198607200Y-116836666D01*
X198607200Y-116836666D02*
X198654819Y-116741428D01*
X198654819Y-116741428D02*
X198654819Y-116503333D01*
X198654819Y-116503333D02*
X198607200Y-116408095D01*
X198607200Y-116408095D02*
X198559580Y-116360476D01*
X198334819Y-121758095D02*
X197334819Y-121758095D01*
X198334819Y-122329523D02*
X197763390Y-121900952D01*
X197334819Y-122329523D02*
X197906247Y-121758095D01*
X179774819Y-75735714D02*
X178774819Y-75735714D01*
X178774819Y-75735714D02*
X178774819Y-75973809D01*
X178774819Y-75973809D02*
X178822438Y-76116666D01*
X178822438Y-76116666D02*
X178917676Y-76211904D01*
X178917676Y-76211904D02*
X179012914Y-76259523D01*
X179012914Y-76259523D02*
X179203390Y-76307142D01*
X179203390Y-76307142D02*
X179346247Y-76307142D01*
X179346247Y-76307142D02*
X179536723Y-76259523D01*
X179536723Y-76259523D02*
X179631961Y-76211904D01*
X179631961Y-76211904D02*
X179727200Y-76116666D01*
X179727200Y-76116666D02*
X179774819Y-75973809D01*
X179774819Y-75973809D02*
X179774819Y-75735714D01*
X178774819Y-76640476D02*
X178774819Y-77259523D01*
X178774819Y-77259523D02*
X179155771Y-76926190D01*
X179155771Y-76926190D02*
X179155771Y-77069047D01*
X179155771Y-77069047D02*
X179203390Y-77164285D01*
X179203390Y-77164285D02*
X179251009Y-77211904D01*
X179251009Y-77211904D02*
X179346247Y-77259523D01*
X179346247Y-77259523D02*
X179584342Y-77259523D01*
X179584342Y-77259523D02*
X179679580Y-77211904D01*
X179679580Y-77211904D02*
X179727200Y-77164285D01*
X179727200Y-77164285D02*
X179774819Y-77069047D01*
X179774819Y-77069047D02*
X179774819Y-76783333D01*
X179774819Y-76783333D02*
X179727200Y-76688095D01*
X179727200Y-76688095D02*
X179679580Y-76640476D01*
X178870057Y-77640476D02*
X178822438Y-77688095D01*
X178822438Y-77688095D02*
X178774819Y-77783333D01*
X178774819Y-77783333D02*
X178774819Y-78021428D01*
X178774819Y-78021428D02*
X178822438Y-78116666D01*
X178822438Y-78116666D02*
X178870057Y-78164285D01*
X178870057Y-78164285D02*
X178965295Y-78211904D01*
X178965295Y-78211904D02*
X179060533Y-78211904D01*
X179060533Y-78211904D02*
X179203390Y-78164285D01*
X179203390Y-78164285D02*
X179774819Y-77592857D01*
X179774819Y-77592857D02*
X179774819Y-78211904D01*
X179454819Y-83038095D02*
X178454819Y-83038095D01*
X179454819Y-83609523D02*
X178883390Y-83180952D01*
X178454819Y-83609523D02*
X179026247Y-83038095D01*
X245654819Y-94755714D02*
X244654819Y-94755714D01*
X244654819Y-94755714D02*
X244654819Y-94993809D01*
X244654819Y-94993809D02*
X244702438Y-95136666D01*
X244702438Y-95136666D02*
X244797676Y-95231904D01*
X244797676Y-95231904D02*
X244892914Y-95279523D01*
X244892914Y-95279523D02*
X245083390Y-95327142D01*
X245083390Y-95327142D02*
X245226247Y-95327142D01*
X245226247Y-95327142D02*
X245416723Y-95279523D01*
X245416723Y-95279523D02*
X245511961Y-95231904D01*
X245511961Y-95231904D02*
X245607200Y-95136666D01*
X245607200Y-95136666D02*
X245654819Y-94993809D01*
X245654819Y-94993809D02*
X245654819Y-94755714D01*
X244988152Y-96184285D02*
X245654819Y-96184285D01*
X244607200Y-95946190D02*
X245321485Y-95708095D01*
X245321485Y-95708095D02*
X245321485Y-96327142D01*
X244750057Y-96660476D02*
X244702438Y-96708095D01*
X244702438Y-96708095D02*
X244654819Y-96803333D01*
X244654819Y-96803333D02*
X244654819Y-97041428D01*
X244654819Y-97041428D02*
X244702438Y-97136666D01*
X244702438Y-97136666D02*
X244750057Y-97184285D01*
X244750057Y-97184285D02*
X244845295Y-97231904D01*
X244845295Y-97231904D02*
X244940533Y-97231904D01*
X244940533Y-97231904D02*
X245083390Y-97184285D01*
X245083390Y-97184285D02*
X245654819Y-96612857D01*
X245654819Y-96612857D02*
X245654819Y-97231904D01*
X245334819Y-102058095D02*
X244334819Y-102058095D01*
X245334819Y-102629523D02*
X244763390Y-102200952D01*
X244334819Y-102629523D02*
X244906247Y-102058095D01*
X264854819Y-51855714D02*
X263854819Y-51855714D01*
X263854819Y-51855714D02*
X263854819Y-52093809D01*
X263854819Y-52093809D02*
X263902438Y-52236666D01*
X263902438Y-52236666D02*
X263997676Y-52331904D01*
X263997676Y-52331904D02*
X264092914Y-52379523D01*
X264092914Y-52379523D02*
X264283390Y-52427142D01*
X264283390Y-52427142D02*
X264426247Y-52427142D01*
X264426247Y-52427142D02*
X264616723Y-52379523D01*
X264616723Y-52379523D02*
X264711961Y-52331904D01*
X264711961Y-52331904D02*
X264807200Y-52236666D01*
X264807200Y-52236666D02*
X264854819Y-52093809D01*
X264854819Y-52093809D02*
X264854819Y-51855714D01*
X264188152Y-53284285D02*
X264854819Y-53284285D01*
X263807200Y-53046190D02*
X264521485Y-52808095D01*
X264521485Y-52808095D02*
X264521485Y-53427142D01*
X263854819Y-54284285D02*
X263854819Y-53808095D01*
X263854819Y-53808095D02*
X264331009Y-53760476D01*
X264331009Y-53760476D02*
X264283390Y-53808095D01*
X264283390Y-53808095D02*
X264235771Y-53903333D01*
X264235771Y-53903333D02*
X264235771Y-54141428D01*
X264235771Y-54141428D02*
X264283390Y-54236666D01*
X264283390Y-54236666D02*
X264331009Y-54284285D01*
X264331009Y-54284285D02*
X264426247Y-54331904D01*
X264426247Y-54331904D02*
X264664342Y-54331904D01*
X264664342Y-54331904D02*
X264759580Y-54284285D01*
X264759580Y-54284285D02*
X264807200Y-54236666D01*
X264807200Y-54236666D02*
X264854819Y-54141428D01*
X264854819Y-54141428D02*
X264854819Y-53903333D01*
X264854819Y-53903333D02*
X264807200Y-53808095D01*
X264807200Y-53808095D02*
X264759580Y-53760476D01*
X264534819Y-59158095D02*
X263534819Y-59158095D01*
X264534819Y-59729523D02*
X263963390Y-59300952D01*
X263534819Y-59729523D02*
X264106247Y-59158095D01*
X139054819Y-75955714D02*
X138054819Y-75955714D01*
X138054819Y-75955714D02*
X138054819Y-76193809D01*
X138054819Y-76193809D02*
X138102438Y-76336666D01*
X138102438Y-76336666D02*
X138197676Y-76431904D01*
X138197676Y-76431904D02*
X138292914Y-76479523D01*
X138292914Y-76479523D02*
X138483390Y-76527142D01*
X138483390Y-76527142D02*
X138626247Y-76527142D01*
X138626247Y-76527142D02*
X138816723Y-76479523D01*
X138816723Y-76479523D02*
X138911961Y-76431904D01*
X138911961Y-76431904D02*
X139007200Y-76336666D01*
X139007200Y-76336666D02*
X139054819Y-76193809D01*
X139054819Y-76193809D02*
X139054819Y-75955714D01*
X138150057Y-76908095D02*
X138102438Y-76955714D01*
X138102438Y-76955714D02*
X138054819Y-77050952D01*
X138054819Y-77050952D02*
X138054819Y-77289047D01*
X138054819Y-77289047D02*
X138102438Y-77384285D01*
X138102438Y-77384285D02*
X138150057Y-77431904D01*
X138150057Y-77431904D02*
X138245295Y-77479523D01*
X138245295Y-77479523D02*
X138340533Y-77479523D01*
X138340533Y-77479523D02*
X138483390Y-77431904D01*
X138483390Y-77431904D02*
X139054819Y-76860476D01*
X139054819Y-76860476D02*
X139054819Y-77479523D01*
X138054819Y-77812857D02*
X138054819Y-78431904D01*
X138054819Y-78431904D02*
X138435771Y-78098571D01*
X138435771Y-78098571D02*
X138435771Y-78241428D01*
X138435771Y-78241428D02*
X138483390Y-78336666D01*
X138483390Y-78336666D02*
X138531009Y-78384285D01*
X138531009Y-78384285D02*
X138626247Y-78431904D01*
X138626247Y-78431904D02*
X138864342Y-78431904D01*
X138864342Y-78431904D02*
X138959580Y-78384285D01*
X138959580Y-78384285D02*
X139007200Y-78336666D01*
X139007200Y-78336666D02*
X139054819Y-78241428D01*
X139054819Y-78241428D02*
X139054819Y-77955714D01*
X139054819Y-77955714D02*
X139007200Y-77860476D01*
X139007200Y-77860476D02*
X138959580Y-77812857D01*
X138734819Y-83258095D02*
X137734819Y-83258095D01*
X138734819Y-83829523D02*
X138163390Y-83400952D01*
X137734819Y-83829523D02*
X138306247Y-83258095D01*
X124904819Y-37905714D02*
X123904819Y-37905714D01*
X123904819Y-37905714D02*
X123904819Y-38143809D01*
X123904819Y-38143809D02*
X123952438Y-38286666D01*
X123952438Y-38286666D02*
X124047676Y-38381904D01*
X124047676Y-38381904D02*
X124142914Y-38429523D01*
X124142914Y-38429523D02*
X124333390Y-38477142D01*
X124333390Y-38477142D02*
X124476247Y-38477142D01*
X124476247Y-38477142D02*
X124666723Y-38429523D01*
X124666723Y-38429523D02*
X124761961Y-38381904D01*
X124761961Y-38381904D02*
X124857200Y-38286666D01*
X124857200Y-38286666D02*
X124904819Y-38143809D01*
X124904819Y-38143809D02*
X124904819Y-37905714D01*
X124000057Y-38858095D02*
X123952438Y-38905714D01*
X123952438Y-38905714D02*
X123904819Y-39000952D01*
X123904819Y-39000952D02*
X123904819Y-39239047D01*
X123904819Y-39239047D02*
X123952438Y-39334285D01*
X123952438Y-39334285D02*
X124000057Y-39381904D01*
X124000057Y-39381904D02*
X124095295Y-39429523D01*
X124095295Y-39429523D02*
X124190533Y-39429523D01*
X124190533Y-39429523D02*
X124333390Y-39381904D01*
X124333390Y-39381904D02*
X124904819Y-38810476D01*
X124904819Y-38810476D02*
X124904819Y-39429523D01*
X124904819Y-40381904D02*
X124904819Y-39810476D01*
X124904819Y-40096190D02*
X123904819Y-40096190D01*
X123904819Y-40096190D02*
X124047676Y-40000952D01*
X124047676Y-40000952D02*
X124142914Y-39905714D01*
X124142914Y-39905714D02*
X124190533Y-39810476D01*
X124584819Y-45208095D02*
X123584819Y-45208095D01*
X124584819Y-45779523D02*
X124013390Y-45350952D01*
X123584819Y-45779523D02*
X124156247Y-45208095D01*
X347204819Y-56555714D02*
X346204819Y-56555714D01*
X346204819Y-56555714D02*
X346204819Y-56793809D01*
X346204819Y-56793809D02*
X346252438Y-56936666D01*
X346252438Y-56936666D02*
X346347676Y-57031904D01*
X346347676Y-57031904D02*
X346442914Y-57079523D01*
X346442914Y-57079523D02*
X346633390Y-57127142D01*
X346633390Y-57127142D02*
X346776247Y-57127142D01*
X346776247Y-57127142D02*
X346966723Y-57079523D01*
X346966723Y-57079523D02*
X347061961Y-57031904D01*
X347061961Y-57031904D02*
X347157200Y-56936666D01*
X347157200Y-56936666D02*
X347204819Y-56793809D01*
X347204819Y-56793809D02*
X347204819Y-56555714D01*
X346204819Y-57984285D02*
X346204819Y-57793809D01*
X346204819Y-57793809D02*
X346252438Y-57698571D01*
X346252438Y-57698571D02*
X346300057Y-57650952D01*
X346300057Y-57650952D02*
X346442914Y-57555714D01*
X346442914Y-57555714D02*
X346633390Y-57508095D01*
X346633390Y-57508095D02*
X347014342Y-57508095D01*
X347014342Y-57508095D02*
X347109580Y-57555714D01*
X347109580Y-57555714D02*
X347157200Y-57603333D01*
X347157200Y-57603333D02*
X347204819Y-57698571D01*
X347204819Y-57698571D02*
X347204819Y-57889047D01*
X347204819Y-57889047D02*
X347157200Y-57984285D01*
X347157200Y-57984285D02*
X347109580Y-58031904D01*
X347109580Y-58031904D02*
X347014342Y-58079523D01*
X347014342Y-58079523D02*
X346776247Y-58079523D01*
X346776247Y-58079523D02*
X346681009Y-58031904D01*
X346681009Y-58031904D02*
X346633390Y-57984285D01*
X346633390Y-57984285D02*
X346585771Y-57889047D01*
X346585771Y-57889047D02*
X346585771Y-57698571D01*
X346585771Y-57698571D02*
X346633390Y-57603333D01*
X346633390Y-57603333D02*
X346681009Y-57555714D01*
X346681009Y-57555714D02*
X346776247Y-57508095D01*
X346538152Y-58936666D02*
X347204819Y-58936666D01*
X346157200Y-58698571D02*
X346871485Y-58460476D01*
X346871485Y-58460476D02*
X346871485Y-59079523D01*
X346884819Y-63858095D02*
X345884819Y-63858095D01*
X346884819Y-64429523D02*
X346313390Y-64000952D01*
X345884819Y-64429523D02*
X346456247Y-63858095D01*
X72554819Y-95181905D02*
X71554819Y-95181905D01*
X71554819Y-95181905D02*
X71554819Y-95420000D01*
X71554819Y-95420000D02*
X71602438Y-95562857D01*
X71602438Y-95562857D02*
X71697676Y-95658095D01*
X71697676Y-95658095D02*
X71792914Y-95705714D01*
X71792914Y-95705714D02*
X71983390Y-95753333D01*
X71983390Y-95753333D02*
X72126247Y-95753333D01*
X72126247Y-95753333D02*
X72316723Y-95705714D01*
X72316723Y-95705714D02*
X72411961Y-95658095D01*
X72411961Y-95658095D02*
X72507200Y-95562857D01*
X72507200Y-95562857D02*
X72554819Y-95420000D01*
X72554819Y-95420000D02*
X72554819Y-95181905D01*
X71888152Y-96610476D02*
X72554819Y-96610476D01*
X71507200Y-96372381D02*
X72221485Y-96134286D01*
X72221485Y-96134286D02*
X72221485Y-96753333D01*
X72234819Y-102008095D02*
X71234819Y-102008095D01*
X72234819Y-102579523D02*
X71663390Y-102150952D01*
X71234819Y-102579523D02*
X71806247Y-102008095D01*
X226554819Y-33155714D02*
X225554819Y-33155714D01*
X225554819Y-33155714D02*
X225554819Y-33393809D01*
X225554819Y-33393809D02*
X225602438Y-33536666D01*
X225602438Y-33536666D02*
X225697676Y-33631904D01*
X225697676Y-33631904D02*
X225792914Y-33679523D01*
X225792914Y-33679523D02*
X225983390Y-33727142D01*
X225983390Y-33727142D02*
X226126247Y-33727142D01*
X226126247Y-33727142D02*
X226316723Y-33679523D01*
X226316723Y-33679523D02*
X226411961Y-33631904D01*
X226411961Y-33631904D02*
X226507200Y-33536666D01*
X226507200Y-33536666D02*
X226554819Y-33393809D01*
X226554819Y-33393809D02*
X226554819Y-33155714D01*
X225554819Y-34060476D02*
X225554819Y-34679523D01*
X225554819Y-34679523D02*
X225935771Y-34346190D01*
X225935771Y-34346190D02*
X225935771Y-34489047D01*
X225935771Y-34489047D02*
X225983390Y-34584285D01*
X225983390Y-34584285D02*
X226031009Y-34631904D01*
X226031009Y-34631904D02*
X226126247Y-34679523D01*
X226126247Y-34679523D02*
X226364342Y-34679523D01*
X226364342Y-34679523D02*
X226459580Y-34631904D01*
X226459580Y-34631904D02*
X226507200Y-34584285D01*
X226507200Y-34584285D02*
X226554819Y-34489047D01*
X226554819Y-34489047D02*
X226554819Y-34203333D01*
X226554819Y-34203333D02*
X226507200Y-34108095D01*
X226507200Y-34108095D02*
X226459580Y-34060476D01*
X225554819Y-35584285D02*
X225554819Y-35108095D01*
X225554819Y-35108095D02*
X226031009Y-35060476D01*
X226031009Y-35060476D02*
X225983390Y-35108095D01*
X225983390Y-35108095D02*
X225935771Y-35203333D01*
X225935771Y-35203333D02*
X225935771Y-35441428D01*
X225935771Y-35441428D02*
X225983390Y-35536666D01*
X225983390Y-35536666D02*
X226031009Y-35584285D01*
X226031009Y-35584285D02*
X226126247Y-35631904D01*
X226126247Y-35631904D02*
X226364342Y-35631904D01*
X226364342Y-35631904D02*
X226459580Y-35584285D01*
X226459580Y-35584285D02*
X226507200Y-35536666D01*
X226507200Y-35536666D02*
X226554819Y-35441428D01*
X226554819Y-35441428D02*
X226554819Y-35203333D01*
X226554819Y-35203333D02*
X226507200Y-35108095D01*
X226507200Y-35108095D02*
X226459580Y-35060476D01*
X226234819Y-40458095D02*
X225234819Y-40458095D01*
X226234819Y-41029523D02*
X225663390Y-40600952D01*
X225234819Y-41029523D02*
X225806247Y-40458095D01*
X442554819Y-56855714D02*
X441554819Y-56855714D01*
X441554819Y-56855714D02*
X441554819Y-57093809D01*
X441554819Y-57093809D02*
X441602438Y-57236666D01*
X441602438Y-57236666D02*
X441697676Y-57331904D01*
X441697676Y-57331904D02*
X441792914Y-57379523D01*
X441792914Y-57379523D02*
X441983390Y-57427142D01*
X441983390Y-57427142D02*
X442126247Y-57427142D01*
X442126247Y-57427142D02*
X442316723Y-57379523D01*
X442316723Y-57379523D02*
X442411961Y-57331904D01*
X442411961Y-57331904D02*
X442507200Y-57236666D01*
X442507200Y-57236666D02*
X442554819Y-57093809D01*
X442554819Y-57093809D02*
X442554819Y-56855714D01*
X441554819Y-57760476D02*
X441554819Y-58427142D01*
X441554819Y-58427142D02*
X442554819Y-57998571D01*
X441888152Y-59236666D02*
X442554819Y-59236666D01*
X441507200Y-58998571D02*
X442221485Y-58760476D01*
X442221485Y-58760476D02*
X442221485Y-59379523D01*
X442234819Y-64158095D02*
X441234819Y-64158095D01*
X442234819Y-64729523D02*
X441663390Y-64300952D01*
X441234819Y-64729523D02*
X441806247Y-64158095D01*
X245804819Y-51855714D02*
X244804819Y-51855714D01*
X244804819Y-51855714D02*
X244804819Y-52093809D01*
X244804819Y-52093809D02*
X244852438Y-52236666D01*
X244852438Y-52236666D02*
X244947676Y-52331904D01*
X244947676Y-52331904D02*
X245042914Y-52379523D01*
X245042914Y-52379523D02*
X245233390Y-52427142D01*
X245233390Y-52427142D02*
X245376247Y-52427142D01*
X245376247Y-52427142D02*
X245566723Y-52379523D01*
X245566723Y-52379523D02*
X245661961Y-52331904D01*
X245661961Y-52331904D02*
X245757200Y-52236666D01*
X245757200Y-52236666D02*
X245804819Y-52093809D01*
X245804819Y-52093809D02*
X245804819Y-51855714D01*
X245138152Y-53284285D02*
X245804819Y-53284285D01*
X244757200Y-53046190D02*
X245471485Y-52808095D01*
X245471485Y-52808095D02*
X245471485Y-53427142D01*
X244804819Y-53998571D02*
X244804819Y-54093809D01*
X244804819Y-54093809D02*
X244852438Y-54189047D01*
X244852438Y-54189047D02*
X244900057Y-54236666D01*
X244900057Y-54236666D02*
X244995295Y-54284285D01*
X244995295Y-54284285D02*
X245185771Y-54331904D01*
X245185771Y-54331904D02*
X245423866Y-54331904D01*
X245423866Y-54331904D02*
X245614342Y-54284285D01*
X245614342Y-54284285D02*
X245709580Y-54236666D01*
X245709580Y-54236666D02*
X245757200Y-54189047D01*
X245757200Y-54189047D02*
X245804819Y-54093809D01*
X245804819Y-54093809D02*
X245804819Y-53998571D01*
X245804819Y-53998571D02*
X245757200Y-53903333D01*
X245757200Y-53903333D02*
X245709580Y-53855714D01*
X245709580Y-53855714D02*
X245614342Y-53808095D01*
X245614342Y-53808095D02*
X245423866Y-53760476D01*
X245423866Y-53760476D02*
X245185771Y-53760476D01*
X245185771Y-53760476D02*
X244995295Y-53808095D01*
X244995295Y-53808095D02*
X244900057Y-53855714D01*
X244900057Y-53855714D02*
X244852438Y-53903333D01*
X244852438Y-53903333D02*
X244804819Y-53998571D01*
X245484819Y-59158095D02*
X244484819Y-59158095D01*
X245484819Y-59729523D02*
X244913390Y-59300952D01*
X244484819Y-59729523D02*
X245056247Y-59158095D01*
X163004819Y-37905714D02*
X162004819Y-37905714D01*
X162004819Y-37905714D02*
X162004819Y-38143809D01*
X162004819Y-38143809D02*
X162052438Y-38286666D01*
X162052438Y-38286666D02*
X162147676Y-38381904D01*
X162147676Y-38381904D02*
X162242914Y-38429523D01*
X162242914Y-38429523D02*
X162433390Y-38477142D01*
X162433390Y-38477142D02*
X162576247Y-38477142D01*
X162576247Y-38477142D02*
X162766723Y-38429523D01*
X162766723Y-38429523D02*
X162861961Y-38381904D01*
X162861961Y-38381904D02*
X162957200Y-38286666D01*
X162957200Y-38286666D02*
X163004819Y-38143809D01*
X163004819Y-38143809D02*
X163004819Y-37905714D01*
X162004819Y-38810476D02*
X162004819Y-39429523D01*
X162004819Y-39429523D02*
X162385771Y-39096190D01*
X162385771Y-39096190D02*
X162385771Y-39239047D01*
X162385771Y-39239047D02*
X162433390Y-39334285D01*
X162433390Y-39334285D02*
X162481009Y-39381904D01*
X162481009Y-39381904D02*
X162576247Y-39429523D01*
X162576247Y-39429523D02*
X162814342Y-39429523D01*
X162814342Y-39429523D02*
X162909580Y-39381904D01*
X162909580Y-39381904D02*
X162957200Y-39334285D01*
X162957200Y-39334285D02*
X163004819Y-39239047D01*
X163004819Y-39239047D02*
X163004819Y-38953333D01*
X163004819Y-38953333D02*
X162957200Y-38858095D01*
X162957200Y-38858095D02*
X162909580Y-38810476D01*
X162004819Y-40048571D02*
X162004819Y-40143809D01*
X162004819Y-40143809D02*
X162052438Y-40239047D01*
X162052438Y-40239047D02*
X162100057Y-40286666D01*
X162100057Y-40286666D02*
X162195295Y-40334285D01*
X162195295Y-40334285D02*
X162385771Y-40381904D01*
X162385771Y-40381904D02*
X162623866Y-40381904D01*
X162623866Y-40381904D02*
X162814342Y-40334285D01*
X162814342Y-40334285D02*
X162909580Y-40286666D01*
X162909580Y-40286666D02*
X162957200Y-40239047D01*
X162957200Y-40239047D02*
X163004819Y-40143809D01*
X163004819Y-40143809D02*
X163004819Y-40048571D01*
X163004819Y-40048571D02*
X162957200Y-39953333D01*
X162957200Y-39953333D02*
X162909580Y-39905714D01*
X162909580Y-39905714D02*
X162814342Y-39858095D01*
X162814342Y-39858095D02*
X162623866Y-39810476D01*
X162623866Y-39810476D02*
X162385771Y-39810476D01*
X162385771Y-39810476D02*
X162195295Y-39858095D01*
X162195295Y-39858095D02*
X162100057Y-39905714D01*
X162100057Y-39905714D02*
X162052438Y-39953333D01*
X162052438Y-39953333D02*
X162004819Y-40048571D01*
X162684819Y-45208095D02*
X161684819Y-45208095D01*
X162684819Y-45779523D02*
X162113390Y-45350952D01*
X161684819Y-45779523D02*
X162256247Y-45208095D01*
X264654819Y-33155714D02*
X263654819Y-33155714D01*
X263654819Y-33155714D02*
X263654819Y-33393809D01*
X263654819Y-33393809D02*
X263702438Y-33536666D01*
X263702438Y-33536666D02*
X263797676Y-33631904D01*
X263797676Y-33631904D02*
X263892914Y-33679523D01*
X263892914Y-33679523D02*
X264083390Y-33727142D01*
X264083390Y-33727142D02*
X264226247Y-33727142D01*
X264226247Y-33727142D02*
X264416723Y-33679523D01*
X264416723Y-33679523D02*
X264511961Y-33631904D01*
X264511961Y-33631904D02*
X264607200Y-33536666D01*
X264607200Y-33536666D02*
X264654819Y-33393809D01*
X264654819Y-33393809D02*
X264654819Y-33155714D01*
X263988152Y-34584285D02*
X264654819Y-34584285D01*
X263607200Y-34346190D02*
X264321485Y-34108095D01*
X264321485Y-34108095D02*
X264321485Y-34727142D01*
X263988152Y-35536666D02*
X264654819Y-35536666D01*
X263607200Y-35298571D02*
X264321485Y-35060476D01*
X264321485Y-35060476D02*
X264321485Y-35679523D01*
X264334819Y-40458095D02*
X263334819Y-40458095D01*
X264334819Y-41029523D02*
X263763390Y-40600952D01*
X263334819Y-41029523D02*
X263906247Y-40458095D01*
X290054819Y-94955714D02*
X289054819Y-94955714D01*
X289054819Y-94955714D02*
X289054819Y-95193809D01*
X289054819Y-95193809D02*
X289102438Y-95336666D01*
X289102438Y-95336666D02*
X289197676Y-95431904D01*
X289197676Y-95431904D02*
X289292914Y-95479523D01*
X289292914Y-95479523D02*
X289483390Y-95527142D01*
X289483390Y-95527142D02*
X289626247Y-95527142D01*
X289626247Y-95527142D02*
X289816723Y-95479523D01*
X289816723Y-95479523D02*
X289911961Y-95431904D01*
X289911961Y-95431904D02*
X290007200Y-95336666D01*
X290007200Y-95336666D02*
X290054819Y-95193809D01*
X290054819Y-95193809D02*
X290054819Y-94955714D01*
X289054819Y-96431904D02*
X289054819Y-95955714D01*
X289054819Y-95955714D02*
X289531009Y-95908095D01*
X289531009Y-95908095D02*
X289483390Y-95955714D01*
X289483390Y-95955714D02*
X289435771Y-96050952D01*
X289435771Y-96050952D02*
X289435771Y-96289047D01*
X289435771Y-96289047D02*
X289483390Y-96384285D01*
X289483390Y-96384285D02*
X289531009Y-96431904D01*
X289531009Y-96431904D02*
X289626247Y-96479523D01*
X289626247Y-96479523D02*
X289864342Y-96479523D01*
X289864342Y-96479523D02*
X289959580Y-96431904D01*
X289959580Y-96431904D02*
X290007200Y-96384285D01*
X290007200Y-96384285D02*
X290054819Y-96289047D01*
X290054819Y-96289047D02*
X290054819Y-96050952D01*
X290054819Y-96050952D02*
X290007200Y-95955714D01*
X290007200Y-95955714D02*
X289959580Y-95908095D01*
X290054819Y-97431904D02*
X290054819Y-96860476D01*
X290054819Y-97146190D02*
X289054819Y-97146190D01*
X289054819Y-97146190D02*
X289197676Y-97050952D01*
X289197676Y-97050952D02*
X289292914Y-96955714D01*
X289292914Y-96955714D02*
X289340533Y-96860476D01*
X289734819Y-102258095D02*
X288734819Y-102258095D01*
X289734819Y-102829523D02*
X289163390Y-102400952D01*
X288734819Y-102829523D02*
X289306247Y-102258095D01*
X174974819Y-94635714D02*
X173974819Y-94635714D01*
X173974819Y-94635714D02*
X173974819Y-94873809D01*
X173974819Y-94873809D02*
X174022438Y-95016666D01*
X174022438Y-95016666D02*
X174117676Y-95111904D01*
X174117676Y-95111904D02*
X174212914Y-95159523D01*
X174212914Y-95159523D02*
X174403390Y-95207142D01*
X174403390Y-95207142D02*
X174546247Y-95207142D01*
X174546247Y-95207142D02*
X174736723Y-95159523D01*
X174736723Y-95159523D02*
X174831961Y-95111904D01*
X174831961Y-95111904D02*
X174927200Y-95016666D01*
X174927200Y-95016666D02*
X174974819Y-94873809D01*
X174974819Y-94873809D02*
X174974819Y-94635714D01*
X174070057Y-95588095D02*
X174022438Y-95635714D01*
X174022438Y-95635714D02*
X173974819Y-95730952D01*
X173974819Y-95730952D02*
X173974819Y-95969047D01*
X173974819Y-95969047D02*
X174022438Y-96064285D01*
X174022438Y-96064285D02*
X174070057Y-96111904D01*
X174070057Y-96111904D02*
X174165295Y-96159523D01*
X174165295Y-96159523D02*
X174260533Y-96159523D01*
X174260533Y-96159523D02*
X174403390Y-96111904D01*
X174403390Y-96111904D02*
X174974819Y-95540476D01*
X174974819Y-95540476D02*
X174974819Y-96159523D01*
X174974819Y-96635714D02*
X174974819Y-96826190D01*
X174974819Y-96826190D02*
X174927200Y-96921428D01*
X174927200Y-96921428D02*
X174879580Y-96969047D01*
X174879580Y-96969047D02*
X174736723Y-97064285D01*
X174736723Y-97064285D02*
X174546247Y-97111904D01*
X174546247Y-97111904D02*
X174165295Y-97111904D01*
X174165295Y-97111904D02*
X174070057Y-97064285D01*
X174070057Y-97064285D02*
X174022438Y-97016666D01*
X174022438Y-97016666D02*
X173974819Y-96921428D01*
X173974819Y-96921428D02*
X173974819Y-96730952D01*
X173974819Y-96730952D02*
X174022438Y-96635714D01*
X174022438Y-96635714D02*
X174070057Y-96588095D01*
X174070057Y-96588095D02*
X174165295Y-96540476D01*
X174165295Y-96540476D02*
X174403390Y-96540476D01*
X174403390Y-96540476D02*
X174498628Y-96588095D01*
X174498628Y-96588095D02*
X174546247Y-96635714D01*
X174546247Y-96635714D02*
X174593866Y-96730952D01*
X174593866Y-96730952D02*
X174593866Y-96921428D01*
X174593866Y-96921428D02*
X174546247Y-97016666D01*
X174546247Y-97016666D02*
X174498628Y-97064285D01*
X174498628Y-97064285D02*
X174403390Y-97111904D01*
X174654819Y-101938095D02*
X173654819Y-101938095D01*
X174654819Y-102509523D02*
X174083390Y-102080952D01*
X173654819Y-102509523D02*
X174226247Y-101938095D01*
X96354819Y-56855714D02*
X95354819Y-56855714D01*
X95354819Y-56855714D02*
X95354819Y-57093809D01*
X95354819Y-57093809D02*
X95402438Y-57236666D01*
X95402438Y-57236666D02*
X95497676Y-57331904D01*
X95497676Y-57331904D02*
X95592914Y-57379523D01*
X95592914Y-57379523D02*
X95783390Y-57427142D01*
X95783390Y-57427142D02*
X95926247Y-57427142D01*
X95926247Y-57427142D02*
X96116723Y-57379523D01*
X96116723Y-57379523D02*
X96211961Y-57331904D01*
X96211961Y-57331904D02*
X96307200Y-57236666D01*
X96307200Y-57236666D02*
X96354819Y-57093809D01*
X96354819Y-57093809D02*
X96354819Y-56855714D01*
X96354819Y-58379523D02*
X96354819Y-57808095D01*
X96354819Y-58093809D02*
X95354819Y-58093809D01*
X95354819Y-58093809D02*
X95497676Y-57998571D01*
X95497676Y-57998571D02*
X95592914Y-57903333D01*
X95592914Y-57903333D02*
X95640533Y-57808095D01*
X95450057Y-58760476D02*
X95402438Y-58808095D01*
X95402438Y-58808095D02*
X95354819Y-58903333D01*
X95354819Y-58903333D02*
X95354819Y-59141428D01*
X95354819Y-59141428D02*
X95402438Y-59236666D01*
X95402438Y-59236666D02*
X95450057Y-59284285D01*
X95450057Y-59284285D02*
X95545295Y-59331904D01*
X95545295Y-59331904D02*
X95640533Y-59331904D01*
X95640533Y-59331904D02*
X95783390Y-59284285D01*
X95783390Y-59284285D02*
X96354819Y-58712857D01*
X96354819Y-58712857D02*
X96354819Y-59331904D01*
X96034819Y-64158095D02*
X95034819Y-64158095D01*
X96034819Y-64729523D02*
X95463390Y-64300952D01*
X95034819Y-64729523D02*
X95606247Y-64158095D01*
X245804819Y-71155714D02*
X244804819Y-71155714D01*
X244804819Y-71155714D02*
X244804819Y-71393809D01*
X244804819Y-71393809D02*
X244852438Y-71536666D01*
X244852438Y-71536666D02*
X244947676Y-71631904D01*
X244947676Y-71631904D02*
X245042914Y-71679523D01*
X245042914Y-71679523D02*
X245233390Y-71727142D01*
X245233390Y-71727142D02*
X245376247Y-71727142D01*
X245376247Y-71727142D02*
X245566723Y-71679523D01*
X245566723Y-71679523D02*
X245661961Y-71631904D01*
X245661961Y-71631904D02*
X245757200Y-71536666D01*
X245757200Y-71536666D02*
X245804819Y-71393809D01*
X245804819Y-71393809D02*
X245804819Y-71155714D01*
X245138152Y-72584285D02*
X245804819Y-72584285D01*
X244757200Y-72346190D02*
X245471485Y-72108095D01*
X245471485Y-72108095D02*
X245471485Y-72727142D01*
X245804819Y-73631904D02*
X245804819Y-73060476D01*
X245804819Y-73346190D02*
X244804819Y-73346190D01*
X244804819Y-73346190D02*
X244947676Y-73250952D01*
X244947676Y-73250952D02*
X245042914Y-73155714D01*
X245042914Y-73155714D02*
X245090533Y-73060476D01*
X245484819Y-78458095D02*
X244484819Y-78458095D01*
X245484819Y-79029523D02*
X244913390Y-78600952D01*
X244484819Y-79029523D02*
X245056247Y-78458095D01*
X150854819Y-114155714D02*
X149854819Y-114155714D01*
X149854819Y-114155714D02*
X149854819Y-114393809D01*
X149854819Y-114393809D02*
X149902438Y-114536666D01*
X149902438Y-114536666D02*
X149997676Y-114631904D01*
X149997676Y-114631904D02*
X150092914Y-114679523D01*
X150092914Y-114679523D02*
X150283390Y-114727142D01*
X150283390Y-114727142D02*
X150426247Y-114727142D01*
X150426247Y-114727142D02*
X150616723Y-114679523D01*
X150616723Y-114679523D02*
X150711961Y-114631904D01*
X150711961Y-114631904D02*
X150807200Y-114536666D01*
X150807200Y-114536666D02*
X150854819Y-114393809D01*
X150854819Y-114393809D02*
X150854819Y-114155714D01*
X150854819Y-115679523D02*
X150854819Y-115108095D01*
X150854819Y-115393809D02*
X149854819Y-115393809D01*
X149854819Y-115393809D02*
X149997676Y-115298571D01*
X149997676Y-115298571D02*
X150092914Y-115203333D01*
X150092914Y-115203333D02*
X150140533Y-115108095D01*
X149854819Y-116584285D02*
X149854819Y-116108095D01*
X149854819Y-116108095D02*
X150331009Y-116060476D01*
X150331009Y-116060476D02*
X150283390Y-116108095D01*
X150283390Y-116108095D02*
X150235771Y-116203333D01*
X150235771Y-116203333D02*
X150235771Y-116441428D01*
X150235771Y-116441428D02*
X150283390Y-116536666D01*
X150283390Y-116536666D02*
X150331009Y-116584285D01*
X150331009Y-116584285D02*
X150426247Y-116631904D01*
X150426247Y-116631904D02*
X150664342Y-116631904D01*
X150664342Y-116631904D02*
X150759580Y-116584285D01*
X150759580Y-116584285D02*
X150807200Y-116536666D01*
X150807200Y-116536666D02*
X150854819Y-116441428D01*
X150854819Y-116441428D02*
X150854819Y-116203333D01*
X150854819Y-116203333D02*
X150807200Y-116108095D01*
X150807200Y-116108095D02*
X150759580Y-116060476D01*
X150534819Y-121458095D02*
X149534819Y-121458095D01*
X150534819Y-122029523D02*
X149963390Y-121600952D01*
X149534819Y-122029523D02*
X150106247Y-121458095D01*
X328554819Y-114055714D02*
X327554819Y-114055714D01*
X327554819Y-114055714D02*
X327554819Y-114293809D01*
X327554819Y-114293809D02*
X327602438Y-114436666D01*
X327602438Y-114436666D02*
X327697676Y-114531904D01*
X327697676Y-114531904D02*
X327792914Y-114579523D01*
X327792914Y-114579523D02*
X327983390Y-114627142D01*
X327983390Y-114627142D02*
X328126247Y-114627142D01*
X328126247Y-114627142D02*
X328316723Y-114579523D01*
X328316723Y-114579523D02*
X328411961Y-114531904D01*
X328411961Y-114531904D02*
X328507200Y-114436666D01*
X328507200Y-114436666D02*
X328554819Y-114293809D01*
X328554819Y-114293809D02*
X328554819Y-114055714D01*
X327554819Y-115484285D02*
X327554819Y-115293809D01*
X327554819Y-115293809D02*
X327602438Y-115198571D01*
X327602438Y-115198571D02*
X327650057Y-115150952D01*
X327650057Y-115150952D02*
X327792914Y-115055714D01*
X327792914Y-115055714D02*
X327983390Y-115008095D01*
X327983390Y-115008095D02*
X328364342Y-115008095D01*
X328364342Y-115008095D02*
X328459580Y-115055714D01*
X328459580Y-115055714D02*
X328507200Y-115103333D01*
X328507200Y-115103333D02*
X328554819Y-115198571D01*
X328554819Y-115198571D02*
X328554819Y-115389047D01*
X328554819Y-115389047D02*
X328507200Y-115484285D01*
X328507200Y-115484285D02*
X328459580Y-115531904D01*
X328459580Y-115531904D02*
X328364342Y-115579523D01*
X328364342Y-115579523D02*
X328126247Y-115579523D01*
X328126247Y-115579523D02*
X328031009Y-115531904D01*
X328031009Y-115531904D02*
X327983390Y-115484285D01*
X327983390Y-115484285D02*
X327935771Y-115389047D01*
X327935771Y-115389047D02*
X327935771Y-115198571D01*
X327935771Y-115198571D02*
X327983390Y-115103333D01*
X327983390Y-115103333D02*
X328031009Y-115055714D01*
X328031009Y-115055714D02*
X328126247Y-115008095D01*
X327650057Y-115960476D02*
X327602438Y-116008095D01*
X327602438Y-116008095D02*
X327554819Y-116103333D01*
X327554819Y-116103333D02*
X327554819Y-116341428D01*
X327554819Y-116341428D02*
X327602438Y-116436666D01*
X327602438Y-116436666D02*
X327650057Y-116484285D01*
X327650057Y-116484285D02*
X327745295Y-116531904D01*
X327745295Y-116531904D02*
X327840533Y-116531904D01*
X327840533Y-116531904D02*
X327983390Y-116484285D01*
X327983390Y-116484285D02*
X328554819Y-115912857D01*
X328554819Y-115912857D02*
X328554819Y-116531904D01*
X328234819Y-121358095D02*
X327234819Y-121358095D01*
X328234819Y-121929523D02*
X327663390Y-121500952D01*
X327234819Y-121929523D02*
X327806247Y-121358095D01*
X48754819Y-38231905D02*
X47754819Y-38231905D01*
X47754819Y-38231905D02*
X47754819Y-38470000D01*
X47754819Y-38470000D02*
X47802438Y-38612857D01*
X47802438Y-38612857D02*
X47897676Y-38708095D01*
X47897676Y-38708095D02*
X47992914Y-38755714D01*
X47992914Y-38755714D02*
X48183390Y-38803333D01*
X48183390Y-38803333D02*
X48326247Y-38803333D01*
X48326247Y-38803333D02*
X48516723Y-38755714D01*
X48516723Y-38755714D02*
X48611961Y-38708095D01*
X48611961Y-38708095D02*
X48707200Y-38612857D01*
X48707200Y-38612857D02*
X48754819Y-38470000D01*
X48754819Y-38470000D02*
X48754819Y-38231905D01*
X48754819Y-39755714D02*
X48754819Y-39184286D01*
X48754819Y-39470000D02*
X47754819Y-39470000D01*
X47754819Y-39470000D02*
X47897676Y-39374762D01*
X47897676Y-39374762D02*
X47992914Y-39279524D01*
X47992914Y-39279524D02*
X48040533Y-39184286D01*
X48434819Y-45058095D02*
X47434819Y-45058095D01*
X48434819Y-45629523D02*
X47863390Y-45200952D01*
X47434819Y-45629523D02*
X48006247Y-45058095D01*
X290454819Y-114055714D02*
X289454819Y-114055714D01*
X289454819Y-114055714D02*
X289454819Y-114293809D01*
X289454819Y-114293809D02*
X289502438Y-114436666D01*
X289502438Y-114436666D02*
X289597676Y-114531904D01*
X289597676Y-114531904D02*
X289692914Y-114579523D01*
X289692914Y-114579523D02*
X289883390Y-114627142D01*
X289883390Y-114627142D02*
X290026247Y-114627142D01*
X290026247Y-114627142D02*
X290216723Y-114579523D01*
X290216723Y-114579523D02*
X290311961Y-114531904D01*
X290311961Y-114531904D02*
X290407200Y-114436666D01*
X290407200Y-114436666D02*
X290454819Y-114293809D01*
X290454819Y-114293809D02*
X290454819Y-114055714D01*
X289454819Y-115531904D02*
X289454819Y-115055714D01*
X289454819Y-115055714D02*
X289931009Y-115008095D01*
X289931009Y-115008095D02*
X289883390Y-115055714D01*
X289883390Y-115055714D02*
X289835771Y-115150952D01*
X289835771Y-115150952D02*
X289835771Y-115389047D01*
X289835771Y-115389047D02*
X289883390Y-115484285D01*
X289883390Y-115484285D02*
X289931009Y-115531904D01*
X289931009Y-115531904D02*
X290026247Y-115579523D01*
X290026247Y-115579523D02*
X290264342Y-115579523D01*
X290264342Y-115579523D02*
X290359580Y-115531904D01*
X290359580Y-115531904D02*
X290407200Y-115484285D01*
X290407200Y-115484285D02*
X290454819Y-115389047D01*
X290454819Y-115389047D02*
X290454819Y-115150952D01*
X290454819Y-115150952D02*
X290407200Y-115055714D01*
X290407200Y-115055714D02*
X290359580Y-115008095D01*
X289550057Y-115960476D02*
X289502438Y-116008095D01*
X289502438Y-116008095D02*
X289454819Y-116103333D01*
X289454819Y-116103333D02*
X289454819Y-116341428D01*
X289454819Y-116341428D02*
X289502438Y-116436666D01*
X289502438Y-116436666D02*
X289550057Y-116484285D01*
X289550057Y-116484285D02*
X289645295Y-116531904D01*
X289645295Y-116531904D02*
X289740533Y-116531904D01*
X289740533Y-116531904D02*
X289883390Y-116484285D01*
X289883390Y-116484285D02*
X290454819Y-115912857D01*
X290454819Y-115912857D02*
X290454819Y-116531904D01*
X290134819Y-121358095D02*
X289134819Y-121358095D01*
X290134819Y-121929523D02*
X289563390Y-121500952D01*
X289134819Y-121929523D02*
X289706247Y-121358095D01*
X328154819Y-94955714D02*
X327154819Y-94955714D01*
X327154819Y-94955714D02*
X327154819Y-95193809D01*
X327154819Y-95193809D02*
X327202438Y-95336666D01*
X327202438Y-95336666D02*
X327297676Y-95431904D01*
X327297676Y-95431904D02*
X327392914Y-95479523D01*
X327392914Y-95479523D02*
X327583390Y-95527142D01*
X327583390Y-95527142D02*
X327726247Y-95527142D01*
X327726247Y-95527142D02*
X327916723Y-95479523D01*
X327916723Y-95479523D02*
X328011961Y-95431904D01*
X328011961Y-95431904D02*
X328107200Y-95336666D01*
X328107200Y-95336666D02*
X328154819Y-95193809D01*
X328154819Y-95193809D02*
X328154819Y-94955714D01*
X327154819Y-96384285D02*
X327154819Y-96193809D01*
X327154819Y-96193809D02*
X327202438Y-96098571D01*
X327202438Y-96098571D02*
X327250057Y-96050952D01*
X327250057Y-96050952D02*
X327392914Y-95955714D01*
X327392914Y-95955714D02*
X327583390Y-95908095D01*
X327583390Y-95908095D02*
X327964342Y-95908095D01*
X327964342Y-95908095D02*
X328059580Y-95955714D01*
X328059580Y-95955714D02*
X328107200Y-96003333D01*
X328107200Y-96003333D02*
X328154819Y-96098571D01*
X328154819Y-96098571D02*
X328154819Y-96289047D01*
X328154819Y-96289047D02*
X328107200Y-96384285D01*
X328107200Y-96384285D02*
X328059580Y-96431904D01*
X328059580Y-96431904D02*
X327964342Y-96479523D01*
X327964342Y-96479523D02*
X327726247Y-96479523D01*
X327726247Y-96479523D02*
X327631009Y-96431904D01*
X327631009Y-96431904D02*
X327583390Y-96384285D01*
X327583390Y-96384285D02*
X327535771Y-96289047D01*
X327535771Y-96289047D02*
X327535771Y-96098571D01*
X327535771Y-96098571D02*
X327583390Y-96003333D01*
X327583390Y-96003333D02*
X327631009Y-95955714D01*
X327631009Y-95955714D02*
X327726247Y-95908095D01*
X328154819Y-97431904D02*
X328154819Y-96860476D01*
X328154819Y-97146190D02*
X327154819Y-97146190D01*
X327154819Y-97146190D02*
X327297676Y-97050952D01*
X327297676Y-97050952D02*
X327392914Y-96955714D01*
X327392914Y-96955714D02*
X327440533Y-96860476D01*
X327834819Y-102258095D02*
X326834819Y-102258095D01*
X327834819Y-102829523D02*
X327263390Y-102400952D01*
X326834819Y-102829523D02*
X327406247Y-102258095D01*
X347204819Y-94955714D02*
X346204819Y-94955714D01*
X346204819Y-94955714D02*
X346204819Y-95193809D01*
X346204819Y-95193809D02*
X346252438Y-95336666D01*
X346252438Y-95336666D02*
X346347676Y-95431904D01*
X346347676Y-95431904D02*
X346442914Y-95479523D01*
X346442914Y-95479523D02*
X346633390Y-95527142D01*
X346633390Y-95527142D02*
X346776247Y-95527142D01*
X346776247Y-95527142D02*
X346966723Y-95479523D01*
X346966723Y-95479523D02*
X347061961Y-95431904D01*
X347061961Y-95431904D02*
X347157200Y-95336666D01*
X347157200Y-95336666D02*
X347204819Y-95193809D01*
X347204819Y-95193809D02*
X347204819Y-94955714D01*
X346204819Y-96384285D02*
X346204819Y-96193809D01*
X346204819Y-96193809D02*
X346252438Y-96098571D01*
X346252438Y-96098571D02*
X346300057Y-96050952D01*
X346300057Y-96050952D02*
X346442914Y-95955714D01*
X346442914Y-95955714D02*
X346633390Y-95908095D01*
X346633390Y-95908095D02*
X347014342Y-95908095D01*
X347014342Y-95908095D02*
X347109580Y-95955714D01*
X347109580Y-95955714D02*
X347157200Y-96003333D01*
X347157200Y-96003333D02*
X347204819Y-96098571D01*
X347204819Y-96098571D02*
X347204819Y-96289047D01*
X347204819Y-96289047D02*
X347157200Y-96384285D01*
X347157200Y-96384285D02*
X347109580Y-96431904D01*
X347109580Y-96431904D02*
X347014342Y-96479523D01*
X347014342Y-96479523D02*
X346776247Y-96479523D01*
X346776247Y-96479523D02*
X346681009Y-96431904D01*
X346681009Y-96431904D02*
X346633390Y-96384285D01*
X346633390Y-96384285D02*
X346585771Y-96289047D01*
X346585771Y-96289047D02*
X346585771Y-96098571D01*
X346585771Y-96098571D02*
X346633390Y-96003333D01*
X346633390Y-96003333D02*
X346681009Y-95955714D01*
X346681009Y-95955714D02*
X346776247Y-95908095D01*
X346204819Y-97336666D02*
X346204819Y-97146190D01*
X346204819Y-97146190D02*
X346252438Y-97050952D01*
X346252438Y-97050952D02*
X346300057Y-97003333D01*
X346300057Y-97003333D02*
X346442914Y-96908095D01*
X346442914Y-96908095D02*
X346633390Y-96860476D01*
X346633390Y-96860476D02*
X347014342Y-96860476D01*
X347014342Y-96860476D02*
X347109580Y-96908095D01*
X347109580Y-96908095D02*
X347157200Y-96955714D01*
X347157200Y-96955714D02*
X347204819Y-97050952D01*
X347204819Y-97050952D02*
X347204819Y-97241428D01*
X347204819Y-97241428D02*
X347157200Y-97336666D01*
X347157200Y-97336666D02*
X347109580Y-97384285D01*
X347109580Y-97384285D02*
X347014342Y-97431904D01*
X347014342Y-97431904D02*
X346776247Y-97431904D01*
X346776247Y-97431904D02*
X346681009Y-97384285D01*
X346681009Y-97384285D02*
X346633390Y-97336666D01*
X346633390Y-97336666D02*
X346585771Y-97241428D01*
X346585771Y-97241428D02*
X346585771Y-97050952D01*
X346585771Y-97050952D02*
X346633390Y-96955714D01*
X346633390Y-96955714D02*
X346681009Y-96908095D01*
X346681009Y-96908095D02*
X346776247Y-96860476D01*
X346884819Y-102258095D02*
X345884819Y-102258095D01*
X346884819Y-102829523D02*
X346313390Y-102400952D01*
X345884819Y-102829523D02*
X346456247Y-102258095D01*
X100954819Y-75955714D02*
X99954819Y-75955714D01*
X99954819Y-75955714D02*
X99954819Y-76193809D01*
X99954819Y-76193809D02*
X100002438Y-76336666D01*
X100002438Y-76336666D02*
X100097676Y-76431904D01*
X100097676Y-76431904D02*
X100192914Y-76479523D01*
X100192914Y-76479523D02*
X100383390Y-76527142D01*
X100383390Y-76527142D02*
X100526247Y-76527142D01*
X100526247Y-76527142D02*
X100716723Y-76479523D01*
X100716723Y-76479523D02*
X100811961Y-76431904D01*
X100811961Y-76431904D02*
X100907200Y-76336666D01*
X100907200Y-76336666D02*
X100954819Y-76193809D01*
X100954819Y-76193809D02*
X100954819Y-75955714D01*
X100954819Y-77479523D02*
X100954819Y-76908095D01*
X100954819Y-77193809D02*
X99954819Y-77193809D01*
X99954819Y-77193809D02*
X100097676Y-77098571D01*
X100097676Y-77098571D02*
X100192914Y-77003333D01*
X100192914Y-77003333D02*
X100240533Y-76908095D01*
X99954819Y-77812857D02*
X99954819Y-78431904D01*
X99954819Y-78431904D02*
X100335771Y-78098571D01*
X100335771Y-78098571D02*
X100335771Y-78241428D01*
X100335771Y-78241428D02*
X100383390Y-78336666D01*
X100383390Y-78336666D02*
X100431009Y-78384285D01*
X100431009Y-78384285D02*
X100526247Y-78431904D01*
X100526247Y-78431904D02*
X100764342Y-78431904D01*
X100764342Y-78431904D02*
X100859580Y-78384285D01*
X100859580Y-78384285D02*
X100907200Y-78336666D01*
X100907200Y-78336666D02*
X100954819Y-78241428D01*
X100954819Y-78241428D02*
X100954819Y-77955714D01*
X100954819Y-77955714D02*
X100907200Y-77860476D01*
X100907200Y-77860476D02*
X100859580Y-77812857D01*
X100634819Y-83258095D02*
X99634819Y-83258095D01*
X100634819Y-83829523D02*
X100063390Y-83400952D01*
X99634819Y-83829523D02*
X100206247Y-83258095D01*
X264854819Y-71155714D02*
X263854819Y-71155714D01*
X263854819Y-71155714D02*
X263854819Y-71393809D01*
X263854819Y-71393809D02*
X263902438Y-71536666D01*
X263902438Y-71536666D02*
X263997676Y-71631904D01*
X263997676Y-71631904D02*
X264092914Y-71679523D01*
X264092914Y-71679523D02*
X264283390Y-71727142D01*
X264283390Y-71727142D02*
X264426247Y-71727142D01*
X264426247Y-71727142D02*
X264616723Y-71679523D01*
X264616723Y-71679523D02*
X264711961Y-71631904D01*
X264711961Y-71631904D02*
X264807200Y-71536666D01*
X264807200Y-71536666D02*
X264854819Y-71393809D01*
X264854819Y-71393809D02*
X264854819Y-71155714D01*
X264188152Y-72584285D02*
X264854819Y-72584285D01*
X263807200Y-72346190D02*
X264521485Y-72108095D01*
X264521485Y-72108095D02*
X264521485Y-72727142D01*
X263854819Y-73536666D02*
X263854819Y-73346190D01*
X263854819Y-73346190D02*
X263902438Y-73250952D01*
X263902438Y-73250952D02*
X263950057Y-73203333D01*
X263950057Y-73203333D02*
X264092914Y-73108095D01*
X264092914Y-73108095D02*
X264283390Y-73060476D01*
X264283390Y-73060476D02*
X264664342Y-73060476D01*
X264664342Y-73060476D02*
X264759580Y-73108095D01*
X264759580Y-73108095D02*
X264807200Y-73155714D01*
X264807200Y-73155714D02*
X264854819Y-73250952D01*
X264854819Y-73250952D02*
X264854819Y-73441428D01*
X264854819Y-73441428D02*
X264807200Y-73536666D01*
X264807200Y-73536666D02*
X264759580Y-73584285D01*
X264759580Y-73584285D02*
X264664342Y-73631904D01*
X264664342Y-73631904D02*
X264426247Y-73631904D01*
X264426247Y-73631904D02*
X264331009Y-73584285D01*
X264331009Y-73584285D02*
X264283390Y-73536666D01*
X264283390Y-73536666D02*
X264235771Y-73441428D01*
X264235771Y-73441428D02*
X264235771Y-73250952D01*
X264235771Y-73250952D02*
X264283390Y-73155714D01*
X264283390Y-73155714D02*
X264331009Y-73108095D01*
X264331009Y-73108095D02*
X264426247Y-73060476D01*
X264534819Y-78458095D02*
X263534819Y-78458095D01*
X264534819Y-79029523D02*
X263963390Y-78600952D01*
X263534819Y-79029523D02*
X264106247Y-78458095D01*
X120004819Y-75955714D02*
X119004819Y-75955714D01*
X119004819Y-75955714D02*
X119004819Y-76193809D01*
X119004819Y-76193809D02*
X119052438Y-76336666D01*
X119052438Y-76336666D02*
X119147676Y-76431904D01*
X119147676Y-76431904D02*
X119242914Y-76479523D01*
X119242914Y-76479523D02*
X119433390Y-76527142D01*
X119433390Y-76527142D02*
X119576247Y-76527142D01*
X119576247Y-76527142D02*
X119766723Y-76479523D01*
X119766723Y-76479523D02*
X119861961Y-76431904D01*
X119861961Y-76431904D02*
X119957200Y-76336666D01*
X119957200Y-76336666D02*
X120004819Y-76193809D01*
X120004819Y-76193809D02*
X120004819Y-75955714D01*
X120004819Y-77479523D02*
X120004819Y-76908095D01*
X120004819Y-77193809D02*
X119004819Y-77193809D01*
X119004819Y-77193809D02*
X119147676Y-77098571D01*
X119147676Y-77098571D02*
X119242914Y-77003333D01*
X119242914Y-77003333D02*
X119290533Y-76908095D01*
X119433390Y-78050952D02*
X119385771Y-77955714D01*
X119385771Y-77955714D02*
X119338152Y-77908095D01*
X119338152Y-77908095D02*
X119242914Y-77860476D01*
X119242914Y-77860476D02*
X119195295Y-77860476D01*
X119195295Y-77860476D02*
X119100057Y-77908095D01*
X119100057Y-77908095D02*
X119052438Y-77955714D01*
X119052438Y-77955714D02*
X119004819Y-78050952D01*
X119004819Y-78050952D02*
X119004819Y-78241428D01*
X119004819Y-78241428D02*
X119052438Y-78336666D01*
X119052438Y-78336666D02*
X119100057Y-78384285D01*
X119100057Y-78384285D02*
X119195295Y-78431904D01*
X119195295Y-78431904D02*
X119242914Y-78431904D01*
X119242914Y-78431904D02*
X119338152Y-78384285D01*
X119338152Y-78384285D02*
X119385771Y-78336666D01*
X119385771Y-78336666D02*
X119433390Y-78241428D01*
X119433390Y-78241428D02*
X119433390Y-78050952D01*
X119433390Y-78050952D02*
X119481009Y-77955714D01*
X119481009Y-77955714D02*
X119528628Y-77908095D01*
X119528628Y-77908095D02*
X119623866Y-77860476D01*
X119623866Y-77860476D02*
X119814342Y-77860476D01*
X119814342Y-77860476D02*
X119909580Y-77908095D01*
X119909580Y-77908095D02*
X119957200Y-77955714D01*
X119957200Y-77955714D02*
X120004819Y-78050952D01*
X120004819Y-78050952D02*
X120004819Y-78241428D01*
X120004819Y-78241428D02*
X119957200Y-78336666D01*
X119957200Y-78336666D02*
X119909580Y-78384285D01*
X119909580Y-78384285D02*
X119814342Y-78431904D01*
X119814342Y-78431904D02*
X119623866Y-78431904D01*
X119623866Y-78431904D02*
X119528628Y-78384285D01*
X119528628Y-78384285D02*
X119481009Y-78336666D01*
X119481009Y-78336666D02*
X119433390Y-78241428D01*
X119684819Y-83258095D02*
X118684819Y-83258095D01*
X119684819Y-83829523D02*
X119113390Y-83400952D01*
X118684819Y-83829523D02*
X119256247Y-83258095D01*
X158104819Y-75955714D02*
X157104819Y-75955714D01*
X157104819Y-75955714D02*
X157104819Y-76193809D01*
X157104819Y-76193809D02*
X157152438Y-76336666D01*
X157152438Y-76336666D02*
X157247676Y-76431904D01*
X157247676Y-76431904D02*
X157342914Y-76479523D01*
X157342914Y-76479523D02*
X157533390Y-76527142D01*
X157533390Y-76527142D02*
X157676247Y-76527142D01*
X157676247Y-76527142D02*
X157866723Y-76479523D01*
X157866723Y-76479523D02*
X157961961Y-76431904D01*
X157961961Y-76431904D02*
X158057200Y-76336666D01*
X158057200Y-76336666D02*
X158104819Y-76193809D01*
X158104819Y-76193809D02*
X158104819Y-75955714D01*
X157200057Y-76908095D02*
X157152438Y-76955714D01*
X157152438Y-76955714D02*
X157104819Y-77050952D01*
X157104819Y-77050952D02*
X157104819Y-77289047D01*
X157104819Y-77289047D02*
X157152438Y-77384285D01*
X157152438Y-77384285D02*
X157200057Y-77431904D01*
X157200057Y-77431904D02*
X157295295Y-77479523D01*
X157295295Y-77479523D02*
X157390533Y-77479523D01*
X157390533Y-77479523D02*
X157533390Y-77431904D01*
X157533390Y-77431904D02*
X158104819Y-76860476D01*
X158104819Y-76860476D02*
X158104819Y-77479523D01*
X157533390Y-78050952D02*
X157485771Y-77955714D01*
X157485771Y-77955714D02*
X157438152Y-77908095D01*
X157438152Y-77908095D02*
X157342914Y-77860476D01*
X157342914Y-77860476D02*
X157295295Y-77860476D01*
X157295295Y-77860476D02*
X157200057Y-77908095D01*
X157200057Y-77908095D02*
X157152438Y-77955714D01*
X157152438Y-77955714D02*
X157104819Y-78050952D01*
X157104819Y-78050952D02*
X157104819Y-78241428D01*
X157104819Y-78241428D02*
X157152438Y-78336666D01*
X157152438Y-78336666D02*
X157200057Y-78384285D01*
X157200057Y-78384285D02*
X157295295Y-78431904D01*
X157295295Y-78431904D02*
X157342914Y-78431904D01*
X157342914Y-78431904D02*
X157438152Y-78384285D01*
X157438152Y-78384285D02*
X157485771Y-78336666D01*
X157485771Y-78336666D02*
X157533390Y-78241428D01*
X157533390Y-78241428D02*
X157533390Y-78050952D01*
X157533390Y-78050952D02*
X157581009Y-77955714D01*
X157581009Y-77955714D02*
X157628628Y-77908095D01*
X157628628Y-77908095D02*
X157723866Y-77860476D01*
X157723866Y-77860476D02*
X157914342Y-77860476D01*
X157914342Y-77860476D02*
X158009580Y-77908095D01*
X158009580Y-77908095D02*
X158057200Y-77955714D01*
X158057200Y-77955714D02*
X158104819Y-78050952D01*
X158104819Y-78050952D02*
X158104819Y-78241428D01*
X158104819Y-78241428D02*
X158057200Y-78336666D01*
X158057200Y-78336666D02*
X158009580Y-78384285D01*
X158009580Y-78384285D02*
X157914342Y-78431904D01*
X157914342Y-78431904D02*
X157723866Y-78431904D01*
X157723866Y-78431904D02*
X157628628Y-78384285D01*
X157628628Y-78384285D02*
X157581009Y-78336666D01*
X157581009Y-78336666D02*
X157533390Y-78241428D01*
X157784819Y-83258095D02*
X156784819Y-83258095D01*
X157784819Y-83829523D02*
X157213390Y-83400952D01*
X156784819Y-83829523D02*
X157356247Y-83258095D01*
X127454819Y-113955714D02*
X126454819Y-113955714D01*
X126454819Y-113955714D02*
X126454819Y-114193809D01*
X126454819Y-114193809D02*
X126502438Y-114336666D01*
X126502438Y-114336666D02*
X126597676Y-114431904D01*
X126597676Y-114431904D02*
X126692914Y-114479523D01*
X126692914Y-114479523D02*
X126883390Y-114527142D01*
X126883390Y-114527142D02*
X127026247Y-114527142D01*
X127026247Y-114527142D02*
X127216723Y-114479523D01*
X127216723Y-114479523D02*
X127311961Y-114431904D01*
X127311961Y-114431904D02*
X127407200Y-114336666D01*
X127407200Y-114336666D02*
X127454819Y-114193809D01*
X127454819Y-114193809D02*
X127454819Y-113955714D01*
X127454819Y-115479523D02*
X127454819Y-114908095D01*
X127454819Y-115193809D02*
X126454819Y-115193809D01*
X126454819Y-115193809D02*
X126597676Y-115098571D01*
X126597676Y-115098571D02*
X126692914Y-115003333D01*
X126692914Y-115003333D02*
X126740533Y-114908095D01*
X126454819Y-116098571D02*
X126454819Y-116193809D01*
X126454819Y-116193809D02*
X126502438Y-116289047D01*
X126502438Y-116289047D02*
X126550057Y-116336666D01*
X126550057Y-116336666D02*
X126645295Y-116384285D01*
X126645295Y-116384285D02*
X126835771Y-116431904D01*
X126835771Y-116431904D02*
X127073866Y-116431904D01*
X127073866Y-116431904D02*
X127264342Y-116384285D01*
X127264342Y-116384285D02*
X127359580Y-116336666D01*
X127359580Y-116336666D02*
X127407200Y-116289047D01*
X127407200Y-116289047D02*
X127454819Y-116193809D01*
X127454819Y-116193809D02*
X127454819Y-116098571D01*
X127454819Y-116098571D02*
X127407200Y-116003333D01*
X127407200Y-116003333D02*
X127359580Y-115955714D01*
X127359580Y-115955714D02*
X127264342Y-115908095D01*
X127264342Y-115908095D02*
X127073866Y-115860476D01*
X127073866Y-115860476D02*
X126835771Y-115860476D01*
X126835771Y-115860476D02*
X126645295Y-115908095D01*
X126645295Y-115908095D02*
X126550057Y-115955714D01*
X126550057Y-115955714D02*
X126502438Y-116003333D01*
X126502438Y-116003333D02*
X126454819Y-116098571D01*
X127134819Y-121258095D02*
X126134819Y-121258095D01*
X127134819Y-121829523D02*
X126563390Y-121400952D01*
X126134819Y-121829523D02*
X126706247Y-121258095D01*
X91604819Y-95181905D02*
X90604819Y-95181905D01*
X90604819Y-95181905D02*
X90604819Y-95420000D01*
X90604819Y-95420000D02*
X90652438Y-95562857D01*
X90652438Y-95562857D02*
X90747676Y-95658095D01*
X90747676Y-95658095D02*
X90842914Y-95705714D01*
X90842914Y-95705714D02*
X91033390Y-95753333D01*
X91033390Y-95753333D02*
X91176247Y-95753333D01*
X91176247Y-95753333D02*
X91366723Y-95705714D01*
X91366723Y-95705714D02*
X91461961Y-95658095D01*
X91461961Y-95658095D02*
X91557200Y-95562857D01*
X91557200Y-95562857D02*
X91604819Y-95420000D01*
X91604819Y-95420000D02*
X91604819Y-95181905D01*
X91604819Y-96229524D02*
X91604819Y-96420000D01*
X91604819Y-96420000D02*
X91557200Y-96515238D01*
X91557200Y-96515238D02*
X91509580Y-96562857D01*
X91509580Y-96562857D02*
X91366723Y-96658095D01*
X91366723Y-96658095D02*
X91176247Y-96705714D01*
X91176247Y-96705714D02*
X90795295Y-96705714D01*
X90795295Y-96705714D02*
X90700057Y-96658095D01*
X90700057Y-96658095D02*
X90652438Y-96610476D01*
X90652438Y-96610476D02*
X90604819Y-96515238D01*
X90604819Y-96515238D02*
X90604819Y-96324762D01*
X90604819Y-96324762D02*
X90652438Y-96229524D01*
X90652438Y-96229524D02*
X90700057Y-96181905D01*
X90700057Y-96181905D02*
X90795295Y-96134286D01*
X90795295Y-96134286D02*
X91033390Y-96134286D01*
X91033390Y-96134286D02*
X91128628Y-96181905D01*
X91128628Y-96181905D02*
X91176247Y-96229524D01*
X91176247Y-96229524D02*
X91223866Y-96324762D01*
X91223866Y-96324762D02*
X91223866Y-96515238D01*
X91223866Y-96515238D02*
X91176247Y-96610476D01*
X91176247Y-96610476D02*
X91128628Y-96658095D01*
X91128628Y-96658095D02*
X91033390Y-96705714D01*
X91284819Y-102008095D02*
X90284819Y-102008095D01*
X91284819Y-102579523D02*
X90713390Y-102150952D01*
X90284819Y-102579523D02*
X90856247Y-102008095D01*
X423704819Y-37655714D02*
X422704819Y-37655714D01*
X422704819Y-37655714D02*
X422704819Y-37893809D01*
X422704819Y-37893809D02*
X422752438Y-38036666D01*
X422752438Y-38036666D02*
X422847676Y-38131904D01*
X422847676Y-38131904D02*
X422942914Y-38179523D01*
X422942914Y-38179523D02*
X423133390Y-38227142D01*
X423133390Y-38227142D02*
X423276247Y-38227142D01*
X423276247Y-38227142D02*
X423466723Y-38179523D01*
X423466723Y-38179523D02*
X423561961Y-38131904D01*
X423561961Y-38131904D02*
X423657200Y-38036666D01*
X423657200Y-38036666D02*
X423704819Y-37893809D01*
X423704819Y-37893809D02*
X423704819Y-37655714D01*
X422704819Y-38560476D02*
X422704819Y-39227142D01*
X422704819Y-39227142D02*
X423704819Y-38798571D01*
X423704819Y-40131904D02*
X423704819Y-39560476D01*
X423704819Y-39846190D02*
X422704819Y-39846190D01*
X422704819Y-39846190D02*
X422847676Y-39750952D01*
X422847676Y-39750952D02*
X422942914Y-39655714D01*
X422942914Y-39655714D02*
X422990533Y-39560476D01*
X423384819Y-44958095D02*
X422384819Y-44958095D01*
X423384819Y-45529523D02*
X422813390Y-45100952D01*
X422384819Y-45529523D02*
X422956247Y-44958095D01*
X115374819Y-114611905D02*
X114374819Y-114611905D01*
X114374819Y-114611905D02*
X114374819Y-114850000D01*
X114374819Y-114850000D02*
X114422438Y-114992857D01*
X114422438Y-114992857D02*
X114517676Y-115088095D01*
X114517676Y-115088095D02*
X114612914Y-115135714D01*
X114612914Y-115135714D02*
X114803390Y-115183333D01*
X114803390Y-115183333D02*
X114946247Y-115183333D01*
X114946247Y-115183333D02*
X115136723Y-115135714D01*
X115136723Y-115135714D02*
X115231961Y-115088095D01*
X115231961Y-115088095D02*
X115327200Y-114992857D01*
X115327200Y-114992857D02*
X115374819Y-114850000D01*
X115374819Y-114850000D02*
X115374819Y-114611905D01*
X114374819Y-116088095D02*
X114374819Y-115611905D01*
X114374819Y-115611905D02*
X114851009Y-115564286D01*
X114851009Y-115564286D02*
X114803390Y-115611905D01*
X114803390Y-115611905D02*
X114755771Y-115707143D01*
X114755771Y-115707143D02*
X114755771Y-115945238D01*
X114755771Y-115945238D02*
X114803390Y-116040476D01*
X114803390Y-116040476D02*
X114851009Y-116088095D01*
X114851009Y-116088095D02*
X114946247Y-116135714D01*
X114946247Y-116135714D02*
X115184342Y-116135714D01*
X115184342Y-116135714D02*
X115279580Y-116088095D01*
X115279580Y-116088095D02*
X115327200Y-116040476D01*
X115327200Y-116040476D02*
X115374819Y-115945238D01*
X115374819Y-115945238D02*
X115374819Y-115707143D01*
X115374819Y-115707143D02*
X115327200Y-115611905D01*
X115327200Y-115611905D02*
X115279580Y-115564286D01*
X115054819Y-121438095D02*
X114054819Y-121438095D01*
X115054819Y-122009523D02*
X114483390Y-121580952D01*
X114054819Y-122009523D02*
X114626247Y-121438095D01*
X290054819Y-56555714D02*
X289054819Y-56555714D01*
X289054819Y-56555714D02*
X289054819Y-56793809D01*
X289054819Y-56793809D02*
X289102438Y-56936666D01*
X289102438Y-56936666D02*
X289197676Y-57031904D01*
X289197676Y-57031904D02*
X289292914Y-57079523D01*
X289292914Y-57079523D02*
X289483390Y-57127142D01*
X289483390Y-57127142D02*
X289626247Y-57127142D01*
X289626247Y-57127142D02*
X289816723Y-57079523D01*
X289816723Y-57079523D02*
X289911961Y-57031904D01*
X289911961Y-57031904D02*
X290007200Y-56936666D01*
X290007200Y-56936666D02*
X290054819Y-56793809D01*
X290054819Y-56793809D02*
X290054819Y-56555714D01*
X289388152Y-57984285D02*
X290054819Y-57984285D01*
X289007200Y-57746190D02*
X289721485Y-57508095D01*
X289721485Y-57508095D02*
X289721485Y-58127142D01*
X290054819Y-58555714D02*
X290054819Y-58746190D01*
X290054819Y-58746190D02*
X290007200Y-58841428D01*
X290007200Y-58841428D02*
X289959580Y-58889047D01*
X289959580Y-58889047D02*
X289816723Y-58984285D01*
X289816723Y-58984285D02*
X289626247Y-59031904D01*
X289626247Y-59031904D02*
X289245295Y-59031904D01*
X289245295Y-59031904D02*
X289150057Y-58984285D01*
X289150057Y-58984285D02*
X289102438Y-58936666D01*
X289102438Y-58936666D02*
X289054819Y-58841428D01*
X289054819Y-58841428D02*
X289054819Y-58650952D01*
X289054819Y-58650952D02*
X289102438Y-58555714D01*
X289102438Y-58555714D02*
X289150057Y-58508095D01*
X289150057Y-58508095D02*
X289245295Y-58460476D01*
X289245295Y-58460476D02*
X289483390Y-58460476D01*
X289483390Y-58460476D02*
X289578628Y-58508095D01*
X289578628Y-58508095D02*
X289626247Y-58555714D01*
X289626247Y-58555714D02*
X289673866Y-58650952D01*
X289673866Y-58650952D02*
X289673866Y-58841428D01*
X289673866Y-58841428D02*
X289626247Y-58936666D01*
X289626247Y-58936666D02*
X289578628Y-58984285D01*
X289578628Y-58984285D02*
X289483390Y-59031904D01*
X289734819Y-63858095D02*
X288734819Y-63858095D01*
X289734819Y-64429523D02*
X289163390Y-64000952D01*
X288734819Y-64429523D02*
X289306247Y-63858095D01*
X115404819Y-56855714D02*
X114404819Y-56855714D01*
X114404819Y-56855714D02*
X114404819Y-57093809D01*
X114404819Y-57093809D02*
X114452438Y-57236666D01*
X114452438Y-57236666D02*
X114547676Y-57331904D01*
X114547676Y-57331904D02*
X114642914Y-57379523D01*
X114642914Y-57379523D02*
X114833390Y-57427142D01*
X114833390Y-57427142D02*
X114976247Y-57427142D01*
X114976247Y-57427142D02*
X115166723Y-57379523D01*
X115166723Y-57379523D02*
X115261961Y-57331904D01*
X115261961Y-57331904D02*
X115357200Y-57236666D01*
X115357200Y-57236666D02*
X115404819Y-57093809D01*
X115404819Y-57093809D02*
X115404819Y-56855714D01*
X115404819Y-58379523D02*
X115404819Y-57808095D01*
X115404819Y-58093809D02*
X114404819Y-58093809D01*
X114404819Y-58093809D02*
X114547676Y-57998571D01*
X114547676Y-57998571D02*
X114642914Y-57903333D01*
X114642914Y-57903333D02*
X114690533Y-57808095D01*
X114404819Y-58712857D02*
X114404819Y-59379523D01*
X114404819Y-59379523D02*
X115404819Y-58950952D01*
X115084819Y-64158095D02*
X114084819Y-64158095D01*
X115084819Y-64729523D02*
X114513390Y-64300952D01*
X114084819Y-64729523D02*
X114656247Y-64158095D01*
X309304819Y-37855714D02*
X308304819Y-37855714D01*
X308304819Y-37855714D02*
X308304819Y-38093809D01*
X308304819Y-38093809D02*
X308352438Y-38236666D01*
X308352438Y-38236666D02*
X308447676Y-38331904D01*
X308447676Y-38331904D02*
X308542914Y-38379523D01*
X308542914Y-38379523D02*
X308733390Y-38427142D01*
X308733390Y-38427142D02*
X308876247Y-38427142D01*
X308876247Y-38427142D02*
X309066723Y-38379523D01*
X309066723Y-38379523D02*
X309161961Y-38331904D01*
X309161961Y-38331904D02*
X309257200Y-38236666D01*
X309257200Y-38236666D02*
X309304819Y-38093809D01*
X309304819Y-38093809D02*
X309304819Y-37855714D01*
X308304819Y-39331904D02*
X308304819Y-38855714D01*
X308304819Y-38855714D02*
X308781009Y-38808095D01*
X308781009Y-38808095D02*
X308733390Y-38855714D01*
X308733390Y-38855714D02*
X308685771Y-38950952D01*
X308685771Y-38950952D02*
X308685771Y-39189047D01*
X308685771Y-39189047D02*
X308733390Y-39284285D01*
X308733390Y-39284285D02*
X308781009Y-39331904D01*
X308781009Y-39331904D02*
X308876247Y-39379523D01*
X308876247Y-39379523D02*
X309114342Y-39379523D01*
X309114342Y-39379523D02*
X309209580Y-39331904D01*
X309209580Y-39331904D02*
X309257200Y-39284285D01*
X309257200Y-39284285D02*
X309304819Y-39189047D01*
X309304819Y-39189047D02*
X309304819Y-38950952D01*
X309304819Y-38950952D02*
X309257200Y-38855714D01*
X309257200Y-38855714D02*
X309209580Y-38808095D01*
X308304819Y-39712857D02*
X308304819Y-40331904D01*
X308304819Y-40331904D02*
X308685771Y-39998571D01*
X308685771Y-39998571D02*
X308685771Y-40141428D01*
X308685771Y-40141428D02*
X308733390Y-40236666D01*
X308733390Y-40236666D02*
X308781009Y-40284285D01*
X308781009Y-40284285D02*
X308876247Y-40331904D01*
X308876247Y-40331904D02*
X309114342Y-40331904D01*
X309114342Y-40331904D02*
X309209580Y-40284285D01*
X309209580Y-40284285D02*
X309257200Y-40236666D01*
X309257200Y-40236666D02*
X309304819Y-40141428D01*
X309304819Y-40141428D02*
X309304819Y-39855714D01*
X309304819Y-39855714D02*
X309257200Y-39760476D01*
X309257200Y-39760476D02*
X309209580Y-39712857D01*
X308984819Y-45158095D02*
X307984819Y-45158095D01*
X308984819Y-45729523D02*
X308413390Y-45300952D01*
X307984819Y-45729523D02*
X308556247Y-45158095D01*
X148754819Y-94705714D02*
X147754819Y-94705714D01*
X147754819Y-94705714D02*
X147754819Y-94943809D01*
X147754819Y-94943809D02*
X147802438Y-95086666D01*
X147802438Y-95086666D02*
X147897676Y-95181904D01*
X147897676Y-95181904D02*
X147992914Y-95229523D01*
X147992914Y-95229523D02*
X148183390Y-95277142D01*
X148183390Y-95277142D02*
X148326247Y-95277142D01*
X148326247Y-95277142D02*
X148516723Y-95229523D01*
X148516723Y-95229523D02*
X148611961Y-95181904D01*
X148611961Y-95181904D02*
X148707200Y-95086666D01*
X148707200Y-95086666D02*
X148754819Y-94943809D01*
X148754819Y-94943809D02*
X148754819Y-94705714D01*
X147850057Y-95658095D02*
X147802438Y-95705714D01*
X147802438Y-95705714D02*
X147754819Y-95800952D01*
X147754819Y-95800952D02*
X147754819Y-96039047D01*
X147754819Y-96039047D02*
X147802438Y-96134285D01*
X147802438Y-96134285D02*
X147850057Y-96181904D01*
X147850057Y-96181904D02*
X147945295Y-96229523D01*
X147945295Y-96229523D02*
X148040533Y-96229523D01*
X148040533Y-96229523D02*
X148183390Y-96181904D01*
X148183390Y-96181904D02*
X148754819Y-95610476D01*
X148754819Y-95610476D02*
X148754819Y-96229523D01*
X148088152Y-97086666D02*
X148754819Y-97086666D01*
X147707200Y-96848571D02*
X148421485Y-96610476D01*
X148421485Y-96610476D02*
X148421485Y-97229523D01*
X148434819Y-102008095D02*
X147434819Y-102008095D01*
X148434819Y-102579523D02*
X147863390Y-102150952D01*
X147434819Y-102579523D02*
X148006247Y-102008095D01*
X328354819Y-75655714D02*
X327354819Y-75655714D01*
X327354819Y-75655714D02*
X327354819Y-75893809D01*
X327354819Y-75893809D02*
X327402438Y-76036666D01*
X327402438Y-76036666D02*
X327497676Y-76131904D01*
X327497676Y-76131904D02*
X327592914Y-76179523D01*
X327592914Y-76179523D02*
X327783390Y-76227142D01*
X327783390Y-76227142D02*
X327926247Y-76227142D01*
X327926247Y-76227142D02*
X328116723Y-76179523D01*
X328116723Y-76179523D02*
X328211961Y-76131904D01*
X328211961Y-76131904D02*
X328307200Y-76036666D01*
X328307200Y-76036666D02*
X328354819Y-75893809D01*
X328354819Y-75893809D02*
X328354819Y-75655714D01*
X327354819Y-77084285D02*
X327354819Y-76893809D01*
X327354819Y-76893809D02*
X327402438Y-76798571D01*
X327402438Y-76798571D02*
X327450057Y-76750952D01*
X327450057Y-76750952D02*
X327592914Y-76655714D01*
X327592914Y-76655714D02*
X327783390Y-76608095D01*
X327783390Y-76608095D02*
X328164342Y-76608095D01*
X328164342Y-76608095D02*
X328259580Y-76655714D01*
X328259580Y-76655714D02*
X328307200Y-76703333D01*
X328307200Y-76703333D02*
X328354819Y-76798571D01*
X328354819Y-76798571D02*
X328354819Y-76989047D01*
X328354819Y-76989047D02*
X328307200Y-77084285D01*
X328307200Y-77084285D02*
X328259580Y-77131904D01*
X328259580Y-77131904D02*
X328164342Y-77179523D01*
X328164342Y-77179523D02*
X327926247Y-77179523D01*
X327926247Y-77179523D02*
X327831009Y-77131904D01*
X327831009Y-77131904D02*
X327783390Y-77084285D01*
X327783390Y-77084285D02*
X327735771Y-76989047D01*
X327735771Y-76989047D02*
X327735771Y-76798571D01*
X327735771Y-76798571D02*
X327783390Y-76703333D01*
X327783390Y-76703333D02*
X327831009Y-76655714D01*
X327831009Y-76655714D02*
X327926247Y-76608095D01*
X327354819Y-77798571D02*
X327354819Y-77893809D01*
X327354819Y-77893809D02*
X327402438Y-77989047D01*
X327402438Y-77989047D02*
X327450057Y-78036666D01*
X327450057Y-78036666D02*
X327545295Y-78084285D01*
X327545295Y-78084285D02*
X327735771Y-78131904D01*
X327735771Y-78131904D02*
X327973866Y-78131904D01*
X327973866Y-78131904D02*
X328164342Y-78084285D01*
X328164342Y-78084285D02*
X328259580Y-78036666D01*
X328259580Y-78036666D02*
X328307200Y-77989047D01*
X328307200Y-77989047D02*
X328354819Y-77893809D01*
X328354819Y-77893809D02*
X328354819Y-77798571D01*
X328354819Y-77798571D02*
X328307200Y-77703333D01*
X328307200Y-77703333D02*
X328259580Y-77655714D01*
X328259580Y-77655714D02*
X328164342Y-77608095D01*
X328164342Y-77608095D02*
X327973866Y-77560476D01*
X327973866Y-77560476D02*
X327735771Y-77560476D01*
X327735771Y-77560476D02*
X327545295Y-77608095D01*
X327545295Y-77608095D02*
X327450057Y-77655714D01*
X327450057Y-77655714D02*
X327402438Y-77703333D01*
X327402438Y-77703333D02*
X327354819Y-77798571D01*
X328034819Y-82958095D02*
X327034819Y-82958095D01*
X328034819Y-83529523D02*
X327463390Y-83100952D01*
X327034819Y-83529523D02*
X327606247Y-82958095D01*
X328154819Y-56555714D02*
X327154819Y-56555714D01*
X327154819Y-56555714D02*
X327154819Y-56793809D01*
X327154819Y-56793809D02*
X327202438Y-56936666D01*
X327202438Y-56936666D02*
X327297676Y-57031904D01*
X327297676Y-57031904D02*
X327392914Y-57079523D01*
X327392914Y-57079523D02*
X327583390Y-57127142D01*
X327583390Y-57127142D02*
X327726247Y-57127142D01*
X327726247Y-57127142D02*
X327916723Y-57079523D01*
X327916723Y-57079523D02*
X328011961Y-57031904D01*
X328011961Y-57031904D02*
X328107200Y-56936666D01*
X328107200Y-56936666D02*
X328154819Y-56793809D01*
X328154819Y-56793809D02*
X328154819Y-56555714D01*
X327154819Y-58031904D02*
X327154819Y-57555714D01*
X327154819Y-57555714D02*
X327631009Y-57508095D01*
X327631009Y-57508095D02*
X327583390Y-57555714D01*
X327583390Y-57555714D02*
X327535771Y-57650952D01*
X327535771Y-57650952D02*
X327535771Y-57889047D01*
X327535771Y-57889047D02*
X327583390Y-57984285D01*
X327583390Y-57984285D02*
X327631009Y-58031904D01*
X327631009Y-58031904D02*
X327726247Y-58079523D01*
X327726247Y-58079523D02*
X327964342Y-58079523D01*
X327964342Y-58079523D02*
X328059580Y-58031904D01*
X328059580Y-58031904D02*
X328107200Y-57984285D01*
X328107200Y-57984285D02*
X328154819Y-57889047D01*
X328154819Y-57889047D02*
X328154819Y-57650952D01*
X328154819Y-57650952D02*
X328107200Y-57555714D01*
X328107200Y-57555714D02*
X328059580Y-57508095D01*
X328154819Y-58555714D02*
X328154819Y-58746190D01*
X328154819Y-58746190D02*
X328107200Y-58841428D01*
X328107200Y-58841428D02*
X328059580Y-58889047D01*
X328059580Y-58889047D02*
X327916723Y-58984285D01*
X327916723Y-58984285D02*
X327726247Y-59031904D01*
X327726247Y-59031904D02*
X327345295Y-59031904D01*
X327345295Y-59031904D02*
X327250057Y-58984285D01*
X327250057Y-58984285D02*
X327202438Y-58936666D01*
X327202438Y-58936666D02*
X327154819Y-58841428D01*
X327154819Y-58841428D02*
X327154819Y-58650952D01*
X327154819Y-58650952D02*
X327202438Y-58555714D01*
X327202438Y-58555714D02*
X327250057Y-58508095D01*
X327250057Y-58508095D02*
X327345295Y-58460476D01*
X327345295Y-58460476D02*
X327583390Y-58460476D01*
X327583390Y-58460476D02*
X327678628Y-58508095D01*
X327678628Y-58508095D02*
X327726247Y-58555714D01*
X327726247Y-58555714D02*
X327773866Y-58650952D01*
X327773866Y-58650952D02*
X327773866Y-58841428D01*
X327773866Y-58841428D02*
X327726247Y-58936666D01*
X327726247Y-58936666D02*
X327678628Y-58984285D01*
X327678628Y-58984285D02*
X327583390Y-59031904D01*
X327834819Y-63858095D02*
X326834819Y-63858095D01*
X327834819Y-64429523D02*
X327263390Y-64000952D01*
X326834819Y-64429523D02*
X327406247Y-63858095D01*
X182074819Y-37855714D02*
X181074819Y-37855714D01*
X181074819Y-37855714D02*
X181074819Y-38093809D01*
X181074819Y-38093809D02*
X181122438Y-38236666D01*
X181122438Y-38236666D02*
X181217676Y-38331904D01*
X181217676Y-38331904D02*
X181312914Y-38379523D01*
X181312914Y-38379523D02*
X181503390Y-38427142D01*
X181503390Y-38427142D02*
X181646247Y-38427142D01*
X181646247Y-38427142D02*
X181836723Y-38379523D01*
X181836723Y-38379523D02*
X181931961Y-38331904D01*
X181931961Y-38331904D02*
X182027200Y-38236666D01*
X182027200Y-38236666D02*
X182074819Y-38093809D01*
X182074819Y-38093809D02*
X182074819Y-37855714D01*
X181074819Y-38760476D02*
X181074819Y-39379523D01*
X181074819Y-39379523D02*
X181455771Y-39046190D01*
X181455771Y-39046190D02*
X181455771Y-39189047D01*
X181455771Y-39189047D02*
X181503390Y-39284285D01*
X181503390Y-39284285D02*
X181551009Y-39331904D01*
X181551009Y-39331904D02*
X181646247Y-39379523D01*
X181646247Y-39379523D02*
X181884342Y-39379523D01*
X181884342Y-39379523D02*
X181979580Y-39331904D01*
X181979580Y-39331904D02*
X182027200Y-39284285D01*
X182027200Y-39284285D02*
X182074819Y-39189047D01*
X182074819Y-39189047D02*
X182074819Y-38903333D01*
X182074819Y-38903333D02*
X182027200Y-38808095D01*
X182027200Y-38808095D02*
X181979580Y-38760476D01*
X181074819Y-39712857D02*
X181074819Y-40331904D01*
X181074819Y-40331904D02*
X181455771Y-39998571D01*
X181455771Y-39998571D02*
X181455771Y-40141428D01*
X181455771Y-40141428D02*
X181503390Y-40236666D01*
X181503390Y-40236666D02*
X181551009Y-40284285D01*
X181551009Y-40284285D02*
X181646247Y-40331904D01*
X181646247Y-40331904D02*
X181884342Y-40331904D01*
X181884342Y-40331904D02*
X181979580Y-40284285D01*
X181979580Y-40284285D02*
X182027200Y-40236666D01*
X182027200Y-40236666D02*
X182074819Y-40141428D01*
X182074819Y-40141428D02*
X182074819Y-39855714D01*
X182074819Y-39855714D02*
X182027200Y-39760476D01*
X182027200Y-39760476D02*
X181979580Y-39712857D01*
X181754819Y-45158095D02*
X180754819Y-45158095D01*
X181754819Y-45729523D02*
X181183390Y-45300952D01*
X180754819Y-45729523D02*
X181326247Y-45158095D01*
X58254819Y-57331905D02*
X57254819Y-57331905D01*
X57254819Y-57331905D02*
X57254819Y-57570000D01*
X57254819Y-57570000D02*
X57302438Y-57712857D01*
X57302438Y-57712857D02*
X57397676Y-57808095D01*
X57397676Y-57808095D02*
X57492914Y-57855714D01*
X57492914Y-57855714D02*
X57683390Y-57903333D01*
X57683390Y-57903333D02*
X57826247Y-57903333D01*
X57826247Y-57903333D02*
X58016723Y-57855714D01*
X58016723Y-57855714D02*
X58111961Y-57808095D01*
X58111961Y-57808095D02*
X58207200Y-57712857D01*
X58207200Y-57712857D02*
X58254819Y-57570000D01*
X58254819Y-57570000D02*
X58254819Y-57331905D01*
X57350057Y-58284286D02*
X57302438Y-58331905D01*
X57302438Y-58331905D02*
X57254819Y-58427143D01*
X57254819Y-58427143D02*
X57254819Y-58665238D01*
X57254819Y-58665238D02*
X57302438Y-58760476D01*
X57302438Y-58760476D02*
X57350057Y-58808095D01*
X57350057Y-58808095D02*
X57445295Y-58855714D01*
X57445295Y-58855714D02*
X57540533Y-58855714D01*
X57540533Y-58855714D02*
X57683390Y-58808095D01*
X57683390Y-58808095D02*
X58254819Y-58236667D01*
X58254819Y-58236667D02*
X58254819Y-58855714D01*
X57934819Y-64158095D02*
X56934819Y-64158095D01*
X57934819Y-64729523D02*
X57363390Y-64300952D01*
X56934819Y-64729523D02*
X57506247Y-64158095D01*
D11*
%TO.C,D58*%
X324660000Y-36950000D02*
X326900000Y-36950000D01*
X324660000Y-41190000D02*
X324660000Y-36950000D01*
X325780000Y-33760000D02*
X325780000Y-36950000D01*
X325780000Y-44380000D02*
X325780000Y-41190000D01*
X326900000Y-36950000D02*
X326900000Y-41190000D01*
X326900000Y-40350000D02*
X324660000Y-40350000D01*
X326900000Y-40470000D02*
X324660000Y-40470000D01*
X326900000Y-40590000D02*
X324660000Y-40590000D01*
X326900000Y-41190000D02*
X324660000Y-41190000D01*
%TO.C,D11*%
X83110000Y-37000000D02*
X85350000Y-37000000D01*
X83110000Y-41240000D02*
X83110000Y-37000000D01*
X84230000Y-33810000D02*
X84230000Y-37000000D01*
X84230000Y-44430000D02*
X84230000Y-41240000D01*
X85350000Y-37000000D02*
X85350000Y-41240000D01*
X85350000Y-40400000D02*
X83110000Y-40400000D01*
X85350000Y-40520000D02*
X83110000Y-40520000D01*
X85350000Y-40640000D02*
X83110000Y-40640000D01*
X85350000Y-41240000D02*
X83110000Y-41240000D01*
%TO.C,D6*%
X64060000Y-37000000D02*
X66300000Y-37000000D01*
X64060000Y-41240000D02*
X64060000Y-37000000D01*
X65180000Y-33810000D02*
X65180000Y-37000000D01*
X65180000Y-44430000D02*
X65180000Y-41240000D01*
X66300000Y-37000000D02*
X66300000Y-41240000D01*
X66300000Y-40400000D02*
X64060000Y-40400000D01*
X66300000Y-40520000D02*
X64060000Y-40520000D01*
X66300000Y-40640000D02*
X64060000Y-40640000D01*
X66300000Y-41240000D02*
X64060000Y-41240000D01*
%TO.C,D16*%
X102160000Y-37000000D02*
X104400000Y-37000000D01*
X102160000Y-41240000D02*
X102160000Y-37000000D01*
X103280000Y-33810000D02*
X103280000Y-37000000D01*
X103280000Y-44430000D02*
X103280000Y-41240000D01*
X104400000Y-37000000D02*
X104400000Y-41240000D01*
X104400000Y-40400000D02*
X102160000Y-40400000D01*
X104400000Y-40520000D02*
X102160000Y-40520000D01*
X104400000Y-40640000D02*
X102160000Y-40640000D01*
X104400000Y-41240000D02*
X102160000Y-41240000D01*
%TO.C,D72*%
X419810000Y-55950000D02*
X422050000Y-55950000D01*
X419810000Y-60190000D02*
X419810000Y-55950000D01*
X420930000Y-52760000D02*
X420930000Y-55950000D01*
X420930000Y-63380000D02*
X420930000Y-60190000D01*
X422050000Y-55950000D02*
X422050000Y-60190000D01*
X422050000Y-59350000D02*
X419810000Y-59350000D01*
X422050000Y-59470000D02*
X419810000Y-59470000D01*
X422050000Y-59590000D02*
X419810000Y-59590000D01*
X422050000Y-60190000D02*
X419810000Y-60190000D01*
%TO.C,D39*%
X241910000Y-32250000D02*
X244150000Y-32250000D01*
X241910000Y-36490000D02*
X241910000Y-32250000D01*
X243030000Y-29060000D02*
X243030000Y-32250000D01*
X243030000Y-39680000D02*
X243030000Y-36490000D01*
X244150000Y-32250000D02*
X244150000Y-36490000D01*
X244150000Y-35650000D02*
X241910000Y-35650000D01*
X244150000Y-35770000D02*
X241910000Y-35770000D01*
X244150000Y-35890000D02*
X241910000Y-35890000D01*
X244150000Y-36490000D02*
X241910000Y-36490000D01*
%TO.C,D68*%
X400960000Y-36750000D02*
X403200000Y-36750000D01*
X400960000Y-40990000D02*
X400960000Y-36750000D01*
X402080000Y-33560000D02*
X402080000Y-36750000D01*
X402080000Y-44180000D02*
X402080000Y-40990000D01*
X403200000Y-36750000D02*
X403200000Y-40990000D01*
X403200000Y-40150000D02*
X400960000Y-40150000D01*
X403200000Y-40270000D02*
X400960000Y-40270000D01*
X403200000Y-40390000D02*
X400960000Y-40390000D01*
X403200000Y-40990000D02*
X400960000Y-40990000D01*
%TO.C,D69*%
X400760000Y-55950000D02*
X403000000Y-55950000D01*
X400760000Y-60190000D02*
X400760000Y-55950000D01*
X401880000Y-52760000D02*
X401880000Y-55950000D01*
X401880000Y-63380000D02*
X401880000Y-60190000D01*
X403000000Y-55950000D02*
X403000000Y-60190000D01*
X403000000Y-59350000D02*
X400760000Y-59350000D01*
X403000000Y-59470000D02*
X400760000Y-59470000D01*
X403000000Y-59590000D02*
X400760000Y-59590000D01*
X403000000Y-60190000D02*
X400760000Y-60190000D01*
%TO.C,D22*%
X130760000Y-55950000D02*
X133000000Y-55950000D01*
X130760000Y-60190000D02*
X130760000Y-55950000D01*
X131880000Y-52760000D02*
X131880000Y-55950000D01*
X131880000Y-63380000D02*
X131880000Y-60190000D01*
X133000000Y-55950000D02*
X133000000Y-60190000D01*
X133000000Y-59350000D02*
X130760000Y-59350000D01*
X133000000Y-59470000D02*
X130760000Y-59470000D01*
X133000000Y-59590000D02*
X130760000Y-59590000D01*
X133000000Y-60190000D02*
X130760000Y-60190000D01*
%TO.C,D43*%
X242110000Y-113350000D02*
X244350000Y-113350000D01*
X242110000Y-117590000D02*
X242110000Y-113350000D01*
X243230000Y-110160000D02*
X243230000Y-113350000D01*
X243230000Y-120780000D02*
X243230000Y-117590000D01*
X244350000Y-113350000D02*
X244350000Y-117590000D01*
X244350000Y-116750000D02*
X242110000Y-116750000D01*
X244350000Y-116870000D02*
X242110000Y-116870000D01*
X244350000Y-116990000D02*
X242110000Y-116990000D01*
X244350000Y-117590000D02*
X242110000Y-117590000D01*
%TO.C,D57*%
X305810000Y-113150000D02*
X308050000Y-113150000D01*
X305810000Y-117390000D02*
X305810000Y-113150000D01*
X306930000Y-109960000D02*
X306930000Y-113150000D01*
X306930000Y-120580000D02*
X306930000Y-117390000D01*
X308050000Y-113150000D02*
X308050000Y-117390000D01*
X308050000Y-116550000D02*
X305810000Y-116550000D01*
X308050000Y-116670000D02*
X305810000Y-116670000D01*
X308050000Y-116790000D02*
X305810000Y-116790000D01*
X308050000Y-117390000D02*
X305810000Y-117390000D01*
%TO.C,D14*%
X106960000Y-93800000D02*
X109200000Y-93800000D01*
X106960000Y-98040000D02*
X106960000Y-93800000D01*
X108080000Y-90610000D02*
X108080000Y-93800000D01*
X108080000Y-101230000D02*
X108080000Y-98040000D01*
X109200000Y-93800000D02*
X109200000Y-98040000D01*
X109200000Y-97200000D02*
X106960000Y-97200000D01*
X109200000Y-97320000D02*
X106960000Y-97320000D01*
X109200000Y-97440000D02*
X106960000Y-97440000D01*
X109200000Y-98040000D02*
X106960000Y-98040000D01*
%TO.C,D50*%
X286560000Y-74750000D02*
X288800000Y-74750000D01*
X286560000Y-78990000D02*
X286560000Y-74750000D01*
X287680000Y-71560000D02*
X287680000Y-74750000D01*
X287680000Y-82180000D02*
X287680000Y-78990000D01*
X288800000Y-74750000D02*
X288800000Y-78990000D01*
X288800000Y-78150000D02*
X286560000Y-78150000D01*
X288800000Y-78270000D02*
X286560000Y-78270000D01*
X288800000Y-78390000D02*
X286560000Y-78390000D01*
X288800000Y-78990000D02*
X286560000Y-78990000D01*
%TO.C,D7*%
X73610000Y-55950000D02*
X75850000Y-55950000D01*
X73610000Y-60190000D02*
X73610000Y-55950000D01*
X74730000Y-52760000D02*
X74730000Y-55950000D01*
X74730000Y-63380000D02*
X74730000Y-60190000D01*
X75850000Y-55950000D02*
X75850000Y-60190000D01*
X75850000Y-59350000D02*
X73610000Y-59350000D01*
X75850000Y-59470000D02*
X73610000Y-59470000D01*
X75850000Y-59590000D02*
X73610000Y-59590000D01*
X75850000Y-60190000D02*
X73610000Y-60190000D01*
%TO.C,D27*%
X149810000Y-55950000D02*
X152050000Y-55950000D01*
X149810000Y-60190000D02*
X149810000Y-55950000D01*
X150930000Y-52760000D02*
X150930000Y-55950000D01*
X150930000Y-63380000D02*
X150930000Y-60190000D01*
X152050000Y-55950000D02*
X152050000Y-60190000D01*
X152050000Y-59350000D02*
X149810000Y-59350000D01*
X152050000Y-59470000D02*
X149810000Y-59470000D01*
X152050000Y-59590000D02*
X149810000Y-59590000D01*
X152050000Y-60190000D02*
X149810000Y-60190000D01*
%TO.C,D31*%
X168860000Y-55950000D02*
X171100000Y-55950000D01*
X168860000Y-60190000D02*
X168860000Y-55950000D01*
X169980000Y-52760000D02*
X169980000Y-55950000D01*
X169980000Y-63380000D02*
X169980000Y-60190000D01*
X171100000Y-55950000D02*
X171100000Y-60190000D01*
X171100000Y-59350000D02*
X168860000Y-59350000D01*
X171100000Y-59470000D02*
X168860000Y-59470000D01*
X171100000Y-59590000D02*
X168860000Y-59590000D01*
X171100000Y-60190000D02*
X168860000Y-60190000D01*
%TO.C,D3*%
X59160000Y-75050000D02*
X61400000Y-75050000D01*
X59160000Y-79290000D02*
X59160000Y-75050000D01*
X60280000Y-71860000D02*
X60280000Y-75050000D01*
X60280000Y-82480000D02*
X60280000Y-79290000D01*
X61400000Y-75050000D02*
X61400000Y-79290000D01*
X61400000Y-78450000D02*
X59160000Y-78450000D01*
X61400000Y-78570000D02*
X59160000Y-78570000D01*
X61400000Y-78690000D02*
X59160000Y-78690000D01*
X61400000Y-79290000D02*
X59160000Y-79290000D01*
%TO.C,D8*%
X78210000Y-75050000D02*
X80450000Y-75050000D01*
X78210000Y-79290000D02*
X78210000Y-75050000D01*
X79330000Y-71860000D02*
X79330000Y-75050000D01*
X79330000Y-82480000D02*
X79330000Y-79290000D01*
X80450000Y-75050000D02*
X80450000Y-79290000D01*
X80450000Y-78450000D02*
X78210000Y-78450000D01*
X80450000Y-78570000D02*
X78210000Y-78570000D01*
X80450000Y-78690000D02*
X78210000Y-78690000D01*
X80450000Y-79290000D02*
X78210000Y-79290000D01*
%TO.C,D67*%
X343910000Y-113150000D02*
X346150000Y-113150000D01*
X343910000Y-117390000D02*
X343910000Y-113150000D01*
X345030000Y-109960000D02*
X345030000Y-113150000D01*
X345030000Y-120580000D02*
X345030000Y-117390000D01*
X346150000Y-113150000D02*
X346150000Y-117390000D01*
X346150000Y-116550000D02*
X343910000Y-116550000D01*
X346150000Y-116670000D02*
X343910000Y-116670000D01*
X346150000Y-116790000D02*
X343910000Y-116790000D01*
X346150000Y-117390000D02*
X343910000Y-117390000D01*
%TO.C,D47*%
X261160000Y-113350000D02*
X263400000Y-113350000D01*
X261160000Y-117590000D02*
X261160000Y-113350000D01*
X262280000Y-110160000D02*
X262280000Y-113350000D01*
X262280000Y-120780000D02*
X262280000Y-117590000D01*
X263400000Y-113350000D02*
X263400000Y-117590000D01*
X263400000Y-116750000D02*
X261160000Y-116750000D01*
X263400000Y-116870000D02*
X261160000Y-116870000D01*
X263400000Y-116990000D02*
X261160000Y-116990000D01*
X263400000Y-117590000D02*
X261160000Y-117590000D01*
%TO.C,D36*%
X223060000Y-50950000D02*
X225300000Y-50950000D01*
X223060000Y-55190000D02*
X223060000Y-50950000D01*
X224180000Y-47760000D02*
X224180000Y-50950000D01*
X224180000Y-58380000D02*
X224180000Y-55190000D01*
X225300000Y-50950000D02*
X225300000Y-55190000D01*
X225300000Y-54350000D02*
X223060000Y-54350000D01*
X225300000Y-54470000D02*
X223060000Y-54470000D01*
X225300000Y-54590000D02*
X223060000Y-54590000D01*
X225300000Y-55190000D02*
X223060000Y-55190000D01*
%TO.C,D65*%
X343710000Y-74750000D02*
X345950000Y-74750000D01*
X343710000Y-78990000D02*
X343710000Y-74750000D01*
X344830000Y-71560000D02*
X344830000Y-74750000D01*
X344830000Y-82180000D02*
X344830000Y-78990000D01*
X345950000Y-74750000D02*
X345950000Y-78990000D01*
X345950000Y-78150000D02*
X343710000Y-78150000D01*
X345950000Y-78270000D02*
X343710000Y-78270000D01*
X345950000Y-78390000D02*
X343710000Y-78390000D01*
X345950000Y-78990000D02*
X343710000Y-78990000D01*
%TO.C,D48*%
X286560000Y-36950000D02*
X288800000Y-36950000D01*
X286560000Y-41190000D02*
X286560000Y-36950000D01*
X287680000Y-33760000D02*
X287680000Y-36950000D01*
X287680000Y-44380000D02*
X287680000Y-41190000D01*
X288800000Y-36950000D02*
X288800000Y-41190000D01*
X288800000Y-40350000D02*
X286560000Y-40350000D01*
X288800000Y-40470000D02*
X286560000Y-40470000D01*
X288800000Y-40590000D02*
X286560000Y-40590000D01*
X288800000Y-41190000D02*
X286560000Y-41190000D01*
%TO.C,D19*%
X126010000Y-93800000D02*
X128250000Y-93800000D01*
X126010000Y-98040000D02*
X126010000Y-93800000D01*
X127130000Y-90610000D02*
X127130000Y-93800000D01*
X127130000Y-101230000D02*
X127130000Y-98040000D01*
X128250000Y-93800000D02*
X128250000Y-98040000D01*
X128250000Y-97200000D02*
X126010000Y-97200000D01*
X128250000Y-97320000D02*
X126010000Y-97320000D01*
X128250000Y-97440000D02*
X126010000Y-97440000D01*
X128250000Y-98040000D02*
X126010000Y-98040000D01*
%TO.C,D38*%
X223060000Y-113350000D02*
X225300000Y-113350000D01*
X223060000Y-117590000D02*
X223060000Y-113350000D01*
X224180000Y-110160000D02*
X224180000Y-113350000D01*
X224180000Y-120780000D02*
X224180000Y-117590000D01*
X225300000Y-113350000D02*
X225300000Y-117590000D01*
X225300000Y-116750000D02*
X223060000Y-116750000D01*
X225300000Y-116870000D02*
X223060000Y-116870000D01*
X225300000Y-116990000D02*
X223060000Y-116990000D01*
X225300000Y-117590000D02*
X223060000Y-117590000D01*
%TO.C,D20*%
X171060000Y-113650000D02*
X173300000Y-113650000D01*
X171060000Y-117890000D02*
X171060000Y-113650000D01*
X172180000Y-110460000D02*
X172180000Y-113650000D01*
X172180000Y-121080000D02*
X172180000Y-117890000D01*
X173300000Y-113650000D02*
X173300000Y-117890000D01*
X173300000Y-117050000D02*
X171060000Y-117050000D01*
X173300000Y-117170000D02*
X171060000Y-117170000D01*
X173300000Y-117290000D02*
X171060000Y-117290000D01*
X173300000Y-117890000D02*
X171060000Y-117890000D01*
%TO.C,D34*%
X192560000Y-56350000D02*
X194800000Y-56350000D01*
X192560000Y-60590000D02*
X192560000Y-56350000D01*
X193680000Y-53160000D02*
X193680000Y-56350000D01*
X193680000Y-63780000D02*
X193680000Y-60590000D01*
X194800000Y-56350000D02*
X194800000Y-60590000D01*
X194800000Y-59750000D02*
X192560000Y-59750000D01*
X194800000Y-59870000D02*
X192560000Y-59870000D01*
X194800000Y-59990000D02*
X192560000Y-59990000D01*
X194800000Y-60590000D02*
X192560000Y-60590000D01*
%TO.C,D63*%
X343710000Y-36950000D02*
X345950000Y-36950000D01*
X343710000Y-41190000D02*
X343710000Y-36950000D01*
X344830000Y-33760000D02*
X344830000Y-36950000D01*
X344830000Y-44380000D02*
X344830000Y-41190000D01*
X345950000Y-36950000D02*
X345950000Y-41190000D01*
X345950000Y-40350000D02*
X343710000Y-40350000D01*
X345950000Y-40470000D02*
X343710000Y-40470000D01*
X345950000Y-40590000D02*
X343710000Y-40590000D01*
X345950000Y-41190000D02*
X343710000Y-41190000D01*
%TO.C,D73*%
X439060000Y-36750000D02*
X441300000Y-36750000D01*
X439060000Y-40990000D02*
X439060000Y-36750000D01*
X440180000Y-33560000D02*
X440180000Y-36750000D01*
X440180000Y-44180000D02*
X440180000Y-40990000D01*
X441300000Y-36750000D02*
X441300000Y-40990000D01*
X441300000Y-40150000D02*
X439060000Y-40150000D01*
X441300000Y-40270000D02*
X439060000Y-40270000D01*
X441300000Y-40390000D02*
X439060000Y-40390000D01*
X441300000Y-40990000D02*
X439060000Y-40990000D01*
%TO.C,D54*%
X305410000Y-55650000D02*
X307650000Y-55650000D01*
X305410000Y-59890000D02*
X305410000Y-55650000D01*
X306530000Y-52460000D02*
X306530000Y-55650000D01*
X306530000Y-63080000D02*
X306530000Y-59890000D01*
X307650000Y-55650000D02*
X307650000Y-59890000D01*
X307650000Y-59050000D02*
X305410000Y-59050000D01*
X307650000Y-59170000D02*
X305410000Y-59170000D01*
X307650000Y-59290000D02*
X305410000Y-59290000D01*
X307650000Y-59890000D02*
X305410000Y-59890000D01*
%TO.C,D37*%
X223060000Y-70250000D02*
X225300000Y-70250000D01*
X223060000Y-74490000D02*
X223060000Y-70250000D01*
X224180000Y-67060000D02*
X224180000Y-70250000D01*
X224180000Y-77680000D02*
X224180000Y-74490000D01*
X225300000Y-70250000D02*
X225300000Y-74490000D01*
X225300000Y-73650000D02*
X223060000Y-73650000D01*
X225300000Y-73770000D02*
X223060000Y-73770000D01*
X225300000Y-73890000D02*
X223060000Y-73890000D01*
X225300000Y-74490000D02*
X223060000Y-74490000D01*
%TO.C,D55*%
X305610000Y-74750000D02*
X307850000Y-74750000D01*
X305610000Y-78990000D02*
X305610000Y-74750000D01*
X306730000Y-71560000D02*
X306730000Y-74750000D01*
X306730000Y-82180000D02*
X306730000Y-78990000D01*
X307850000Y-74750000D02*
X307850000Y-78990000D01*
X307850000Y-78150000D02*
X305610000Y-78150000D01*
X307850000Y-78270000D02*
X305610000Y-78270000D01*
X307850000Y-78390000D02*
X305610000Y-78390000D01*
X307850000Y-78990000D02*
X305610000Y-78990000D01*
%TO.C,D70*%
X426370000Y-103820000D02*
X429560000Y-103820000D01*
X429560000Y-102700000D02*
X433800000Y-102700000D01*
X429560000Y-104940000D02*
X429560000Y-102700000D01*
X430160000Y-104940000D02*
X430160000Y-102700000D01*
X430280000Y-104940000D02*
X430280000Y-102700000D01*
X430400000Y-104940000D02*
X430400000Y-102700000D01*
X433800000Y-102700000D02*
X433800000Y-104940000D01*
X433800000Y-104940000D02*
X429560000Y-104940000D01*
X436990000Y-103820000D02*
X433800000Y-103820000D01*
%TO.C,D56*%
X305410000Y-94050000D02*
X307650000Y-94050000D01*
X305410000Y-98290000D02*
X305410000Y-94050000D01*
X306530000Y-90860000D02*
X306530000Y-94050000D01*
X306530000Y-101480000D02*
X306530000Y-98290000D01*
X307650000Y-94050000D02*
X307650000Y-98290000D01*
X307650000Y-97450000D02*
X305410000Y-97450000D01*
X307650000Y-97570000D02*
X305410000Y-97570000D01*
X307650000Y-97690000D02*
X305410000Y-97690000D01*
X307650000Y-98290000D02*
X305410000Y-98290000D01*
%TO.C,D26*%
X140260000Y-37000000D02*
X142500000Y-37000000D01*
X140260000Y-41240000D02*
X140260000Y-37000000D01*
X141380000Y-33810000D02*
X141380000Y-37000000D01*
X141380000Y-44430000D02*
X141380000Y-41240000D01*
X142500000Y-37000000D02*
X142500000Y-41240000D01*
X142500000Y-40400000D02*
X140260000Y-40400000D01*
X142500000Y-40520000D02*
X140260000Y-40520000D01*
X142500000Y-40640000D02*
X140260000Y-40640000D01*
X142500000Y-41240000D02*
X140260000Y-41240000D01*
%TO.C,D25*%
X194960000Y-113550000D02*
X197200000Y-113550000D01*
X194960000Y-117790000D02*
X194960000Y-113550000D01*
X196080000Y-110360000D02*
X196080000Y-113550000D01*
X196080000Y-120980000D02*
X196080000Y-117790000D01*
X197200000Y-113550000D02*
X197200000Y-117790000D01*
X197200000Y-116950000D02*
X194960000Y-116950000D01*
X197200000Y-117070000D02*
X194960000Y-117070000D01*
X197200000Y-117190000D02*
X194960000Y-117190000D01*
X197200000Y-117790000D02*
X194960000Y-117790000D01*
%TO.C,D32*%
X176080000Y-74830000D02*
X178320000Y-74830000D01*
X176080000Y-79070000D02*
X176080000Y-74830000D01*
X177200000Y-71640000D02*
X177200000Y-74830000D01*
X177200000Y-82260000D02*
X177200000Y-79070000D01*
X178320000Y-74830000D02*
X178320000Y-79070000D01*
X178320000Y-78230000D02*
X176080000Y-78230000D01*
X178320000Y-78350000D02*
X176080000Y-78350000D01*
X178320000Y-78470000D02*
X176080000Y-78470000D01*
X178320000Y-79070000D02*
X176080000Y-79070000D01*
%TO.C,D42*%
X241960000Y-93850000D02*
X244200000Y-93850000D01*
X241960000Y-98090000D02*
X241960000Y-93850000D01*
X243080000Y-90660000D02*
X243080000Y-93850000D01*
X243080000Y-101280000D02*
X243080000Y-98090000D01*
X244200000Y-93850000D02*
X244200000Y-98090000D01*
X244200000Y-97250000D02*
X241960000Y-97250000D01*
X244200000Y-97370000D02*
X241960000Y-97370000D01*
X244200000Y-97490000D02*
X241960000Y-97490000D01*
X244200000Y-98090000D02*
X241960000Y-98090000D01*
%TO.C,D45*%
X261160000Y-50950000D02*
X263400000Y-50950000D01*
X261160000Y-55190000D02*
X261160000Y-50950000D01*
X262280000Y-47760000D02*
X262280000Y-50950000D01*
X262280000Y-58380000D02*
X262280000Y-55190000D01*
X263400000Y-50950000D02*
X263400000Y-55190000D01*
X263400000Y-54350000D02*
X261160000Y-54350000D01*
X263400000Y-54470000D02*
X261160000Y-54470000D01*
X263400000Y-54590000D02*
X261160000Y-54590000D01*
X263400000Y-55190000D02*
X261160000Y-55190000D01*
%TO.C,D23*%
X135360000Y-75050000D02*
X137600000Y-75050000D01*
X135360000Y-79290000D02*
X135360000Y-75050000D01*
X136480000Y-71860000D02*
X136480000Y-75050000D01*
X136480000Y-82480000D02*
X136480000Y-79290000D01*
X137600000Y-75050000D02*
X137600000Y-79290000D01*
X137600000Y-78450000D02*
X135360000Y-78450000D01*
X137600000Y-78570000D02*
X135360000Y-78570000D01*
X137600000Y-78690000D02*
X135360000Y-78690000D01*
X137600000Y-79290000D02*
X135360000Y-79290000D01*
%TO.C,D21*%
X121210000Y-37000000D02*
X123450000Y-37000000D01*
X121210000Y-41240000D02*
X121210000Y-37000000D01*
X122330000Y-33810000D02*
X122330000Y-37000000D01*
X122330000Y-44430000D02*
X122330000Y-41240000D01*
X123450000Y-37000000D02*
X123450000Y-41240000D01*
X123450000Y-40400000D02*
X121210000Y-40400000D01*
X123450000Y-40520000D02*
X121210000Y-40520000D01*
X123450000Y-40640000D02*
X121210000Y-40640000D01*
X123450000Y-41240000D02*
X121210000Y-41240000D01*
%TO.C,D64*%
X343510000Y-55650000D02*
X345750000Y-55650000D01*
X343510000Y-59890000D02*
X343510000Y-55650000D01*
X344630000Y-52460000D02*
X344630000Y-55650000D01*
X344630000Y-63080000D02*
X344630000Y-59890000D01*
X345750000Y-55650000D02*
X345750000Y-59890000D01*
X345750000Y-59050000D02*
X343510000Y-59050000D01*
X345750000Y-59170000D02*
X343510000Y-59170000D01*
X345750000Y-59290000D02*
X343510000Y-59290000D01*
X345750000Y-59890000D02*
X343510000Y-59890000D01*
%TO.C,D4*%
X68860000Y-93800000D02*
X71100000Y-93800000D01*
X68860000Y-98040000D02*
X68860000Y-93800000D01*
X69980000Y-90610000D02*
X69980000Y-93800000D01*
X69980000Y-101230000D02*
X69980000Y-98040000D01*
X71100000Y-93800000D02*
X71100000Y-98040000D01*
X71100000Y-97200000D02*
X68860000Y-97200000D01*
X71100000Y-97320000D02*
X68860000Y-97320000D01*
X71100000Y-97440000D02*
X68860000Y-97440000D01*
X71100000Y-98040000D02*
X68860000Y-98040000D01*
%TO.C,D35*%
X222860000Y-32250000D02*
X225100000Y-32250000D01*
X222860000Y-36490000D02*
X222860000Y-32250000D01*
X223980000Y-29060000D02*
X223980000Y-32250000D01*
X223980000Y-39680000D02*
X223980000Y-36490000D01*
X225100000Y-32250000D02*
X225100000Y-36490000D01*
X225100000Y-35650000D02*
X222860000Y-35650000D01*
X225100000Y-35770000D02*
X222860000Y-35770000D01*
X225100000Y-35890000D02*
X222860000Y-35890000D01*
X225100000Y-36490000D02*
X222860000Y-36490000D01*
%TO.C,D74*%
X438860000Y-55950000D02*
X441100000Y-55950000D01*
X438860000Y-60190000D02*
X438860000Y-55950000D01*
X439980000Y-52760000D02*
X439980000Y-55950000D01*
X439980000Y-63380000D02*
X439980000Y-60190000D01*
X441100000Y-55950000D02*
X441100000Y-60190000D01*
X441100000Y-59350000D02*
X438860000Y-59350000D01*
X441100000Y-59470000D02*
X438860000Y-59470000D01*
X441100000Y-59590000D02*
X438860000Y-59590000D01*
X441100000Y-60190000D02*
X438860000Y-60190000D01*
%TO.C,D40*%
X242110000Y-50950000D02*
X244350000Y-50950000D01*
X242110000Y-55190000D02*
X242110000Y-50950000D01*
X243230000Y-47760000D02*
X243230000Y-50950000D01*
X243230000Y-58380000D02*
X243230000Y-55190000D01*
X244350000Y-50950000D02*
X244350000Y-55190000D01*
X244350000Y-54350000D02*
X242110000Y-54350000D01*
X244350000Y-54470000D02*
X242110000Y-54470000D01*
X244350000Y-54590000D02*
X242110000Y-54590000D01*
X244350000Y-55190000D02*
X242110000Y-55190000D01*
%TO.C,D30*%
X159310000Y-37000000D02*
X161550000Y-37000000D01*
X159310000Y-41240000D02*
X159310000Y-37000000D01*
X160430000Y-33810000D02*
X160430000Y-37000000D01*
X160430000Y-44430000D02*
X160430000Y-41240000D01*
X161550000Y-37000000D02*
X161550000Y-41240000D01*
X161550000Y-40400000D02*
X159310000Y-40400000D01*
X161550000Y-40520000D02*
X159310000Y-40520000D01*
X161550000Y-40640000D02*
X159310000Y-40640000D01*
X161550000Y-41240000D02*
X159310000Y-41240000D01*
%TO.C,D44*%
X260960000Y-32250000D02*
X263200000Y-32250000D01*
X260960000Y-36490000D02*
X260960000Y-32250000D01*
X262080000Y-29060000D02*
X262080000Y-32250000D01*
X262080000Y-39680000D02*
X262080000Y-36490000D01*
X263200000Y-32250000D02*
X263200000Y-36490000D01*
X263200000Y-35650000D02*
X260960000Y-35650000D01*
X263200000Y-35770000D02*
X260960000Y-35770000D01*
X263200000Y-35890000D02*
X260960000Y-35890000D01*
X263200000Y-36490000D02*
X260960000Y-36490000D01*
%TO.C,D51*%
X286360000Y-94050000D02*
X288600000Y-94050000D01*
X286360000Y-98290000D02*
X286360000Y-94050000D01*
X287480000Y-90860000D02*
X287480000Y-94050000D01*
X287480000Y-101480000D02*
X287480000Y-98290000D01*
X288600000Y-94050000D02*
X288600000Y-98290000D01*
X288600000Y-97450000D02*
X286360000Y-97450000D01*
X288600000Y-97570000D02*
X286360000Y-97570000D01*
X288600000Y-97690000D02*
X286360000Y-97690000D01*
X288600000Y-98290000D02*
X286360000Y-98290000D01*
%TO.C,D29*%
X171280000Y-93730000D02*
X173520000Y-93730000D01*
X171280000Y-97970000D02*
X171280000Y-93730000D01*
X172400000Y-90540000D02*
X172400000Y-93730000D01*
X172400000Y-101160000D02*
X172400000Y-97970000D01*
X173520000Y-93730000D02*
X173520000Y-97970000D01*
X173520000Y-97130000D02*
X171280000Y-97130000D01*
X173520000Y-97250000D02*
X171280000Y-97250000D01*
X173520000Y-97370000D02*
X171280000Y-97370000D01*
X173520000Y-97970000D02*
X171280000Y-97970000D01*
%TO.C,D12*%
X92660000Y-55950000D02*
X94900000Y-55950000D01*
X92660000Y-60190000D02*
X92660000Y-55950000D01*
X93780000Y-52760000D02*
X93780000Y-55950000D01*
X93780000Y-63380000D02*
X93780000Y-60190000D01*
X94900000Y-55950000D02*
X94900000Y-60190000D01*
X94900000Y-59350000D02*
X92660000Y-59350000D01*
X94900000Y-59470000D02*
X92660000Y-59470000D01*
X94900000Y-59590000D02*
X92660000Y-59590000D01*
X94900000Y-60190000D02*
X92660000Y-60190000D01*
%TO.C,D41*%
X242110000Y-70250000D02*
X244350000Y-70250000D01*
X242110000Y-74490000D02*
X242110000Y-70250000D01*
X243230000Y-67060000D02*
X243230000Y-70250000D01*
X243230000Y-77680000D02*
X243230000Y-74490000D01*
X244350000Y-70250000D02*
X244350000Y-74490000D01*
X244350000Y-73650000D02*
X242110000Y-73650000D01*
X244350000Y-73770000D02*
X242110000Y-73770000D01*
X244350000Y-73890000D02*
X242110000Y-73890000D01*
X244350000Y-74490000D02*
X242110000Y-74490000D01*
%TO.C,D15*%
X147160000Y-113250000D02*
X149400000Y-113250000D01*
X147160000Y-117490000D02*
X147160000Y-113250000D01*
X148280000Y-110060000D02*
X148280000Y-113250000D01*
X148280000Y-120680000D02*
X148280000Y-117490000D01*
X149400000Y-113250000D02*
X149400000Y-117490000D01*
X149400000Y-116650000D02*
X147160000Y-116650000D01*
X149400000Y-116770000D02*
X147160000Y-116770000D01*
X149400000Y-116890000D02*
X147160000Y-116890000D01*
X149400000Y-117490000D02*
X147160000Y-117490000D01*
%TO.C,D62*%
X324860000Y-113150000D02*
X327100000Y-113150000D01*
X324860000Y-117390000D02*
X324860000Y-113150000D01*
X325980000Y-109960000D02*
X325980000Y-113150000D01*
X325980000Y-120580000D02*
X325980000Y-117390000D01*
X327100000Y-113150000D02*
X327100000Y-117390000D01*
X327100000Y-116550000D02*
X324860000Y-116550000D01*
X327100000Y-116670000D02*
X324860000Y-116670000D01*
X327100000Y-116790000D02*
X324860000Y-116790000D01*
X327100000Y-117390000D02*
X324860000Y-117390000D01*
%TO.C,D1*%
X45060000Y-36850000D02*
X47300000Y-36850000D01*
X45060000Y-41090000D02*
X45060000Y-36850000D01*
X46180000Y-33660000D02*
X46180000Y-36850000D01*
X46180000Y-44280000D02*
X46180000Y-41090000D01*
X47300000Y-36850000D02*
X47300000Y-41090000D01*
X47300000Y-40250000D02*
X45060000Y-40250000D01*
X47300000Y-40370000D02*
X45060000Y-40370000D01*
X47300000Y-40490000D02*
X45060000Y-40490000D01*
X47300000Y-41090000D02*
X45060000Y-41090000D01*
%TO.C,D52*%
X286760000Y-113150000D02*
X289000000Y-113150000D01*
X286760000Y-117390000D02*
X286760000Y-113150000D01*
X287880000Y-109960000D02*
X287880000Y-113150000D01*
X287880000Y-120580000D02*
X287880000Y-117390000D01*
X289000000Y-113150000D02*
X289000000Y-117390000D01*
X289000000Y-116550000D02*
X286760000Y-116550000D01*
X289000000Y-116670000D02*
X286760000Y-116670000D01*
X289000000Y-116790000D02*
X286760000Y-116790000D01*
X289000000Y-117390000D02*
X286760000Y-117390000D01*
%TO.C,D61*%
X324460000Y-94050000D02*
X326700000Y-94050000D01*
X324460000Y-98290000D02*
X324460000Y-94050000D01*
X325580000Y-90860000D02*
X325580000Y-94050000D01*
X325580000Y-101480000D02*
X325580000Y-98290000D01*
X326700000Y-94050000D02*
X326700000Y-98290000D01*
X326700000Y-97450000D02*
X324460000Y-97450000D01*
X326700000Y-97570000D02*
X324460000Y-97570000D01*
X326700000Y-97690000D02*
X324460000Y-97690000D01*
X326700000Y-98290000D02*
X324460000Y-98290000D01*
%TO.C,D66*%
X343510000Y-94050000D02*
X345750000Y-94050000D01*
X343510000Y-98290000D02*
X343510000Y-94050000D01*
X344630000Y-90860000D02*
X344630000Y-94050000D01*
X344630000Y-101480000D02*
X344630000Y-98290000D01*
X345750000Y-94050000D02*
X345750000Y-98290000D01*
X345750000Y-97450000D02*
X343510000Y-97450000D01*
X345750000Y-97570000D02*
X343510000Y-97570000D01*
X345750000Y-97690000D02*
X343510000Y-97690000D01*
X345750000Y-98290000D02*
X343510000Y-98290000D01*
%TO.C,D13*%
X97260000Y-75050000D02*
X99500000Y-75050000D01*
X97260000Y-79290000D02*
X97260000Y-75050000D01*
X98380000Y-71860000D02*
X98380000Y-75050000D01*
X98380000Y-82480000D02*
X98380000Y-79290000D01*
X99500000Y-75050000D02*
X99500000Y-79290000D01*
X99500000Y-78450000D02*
X97260000Y-78450000D01*
X99500000Y-78570000D02*
X97260000Y-78570000D01*
X99500000Y-78690000D02*
X97260000Y-78690000D01*
X99500000Y-79290000D02*
X97260000Y-79290000D01*
%TO.C,D46*%
X261160000Y-70250000D02*
X263400000Y-70250000D01*
X261160000Y-74490000D02*
X261160000Y-70250000D01*
X262280000Y-67060000D02*
X262280000Y-70250000D01*
X262280000Y-77680000D02*
X262280000Y-74490000D01*
X263400000Y-70250000D02*
X263400000Y-74490000D01*
X263400000Y-73650000D02*
X261160000Y-73650000D01*
X263400000Y-73770000D02*
X261160000Y-73770000D01*
X263400000Y-73890000D02*
X261160000Y-73890000D01*
X263400000Y-74490000D02*
X261160000Y-74490000D01*
%TO.C,D18*%
X116310000Y-75050000D02*
X118550000Y-75050000D01*
X116310000Y-79290000D02*
X116310000Y-75050000D01*
X117430000Y-71860000D02*
X117430000Y-75050000D01*
X117430000Y-82480000D02*
X117430000Y-79290000D01*
X118550000Y-75050000D02*
X118550000Y-79290000D01*
X118550000Y-78450000D02*
X116310000Y-78450000D01*
X118550000Y-78570000D02*
X116310000Y-78570000D01*
X118550000Y-78690000D02*
X116310000Y-78690000D01*
X118550000Y-79290000D02*
X116310000Y-79290000D01*
%TO.C,D28*%
X154410000Y-75050000D02*
X156650000Y-75050000D01*
X154410000Y-79290000D02*
X154410000Y-75050000D01*
X155530000Y-71860000D02*
X155530000Y-75050000D01*
X155530000Y-82480000D02*
X155530000Y-79290000D01*
X156650000Y-75050000D02*
X156650000Y-79290000D01*
X156650000Y-78450000D02*
X154410000Y-78450000D01*
X156650000Y-78570000D02*
X154410000Y-78570000D01*
X156650000Y-78690000D02*
X154410000Y-78690000D01*
X156650000Y-79290000D02*
X154410000Y-79290000D01*
%TO.C,D10*%
X123760000Y-113050000D02*
X126000000Y-113050000D01*
X123760000Y-117290000D02*
X123760000Y-113050000D01*
X124880000Y-109860000D02*
X124880000Y-113050000D01*
X124880000Y-120480000D02*
X124880000Y-117290000D01*
X126000000Y-113050000D02*
X126000000Y-117290000D01*
X126000000Y-116450000D02*
X123760000Y-116450000D01*
X126000000Y-116570000D02*
X123760000Y-116570000D01*
X126000000Y-116690000D02*
X123760000Y-116690000D01*
X126000000Y-117290000D02*
X123760000Y-117290000D01*
%TO.C,D9*%
X87910000Y-93800000D02*
X90150000Y-93800000D01*
X87910000Y-98040000D02*
X87910000Y-93800000D01*
X89030000Y-90610000D02*
X89030000Y-93800000D01*
X89030000Y-101230000D02*
X89030000Y-98040000D01*
X90150000Y-93800000D02*
X90150000Y-98040000D01*
X90150000Y-97200000D02*
X87910000Y-97200000D01*
X90150000Y-97320000D02*
X87910000Y-97320000D01*
X90150000Y-97440000D02*
X87910000Y-97440000D01*
X90150000Y-98040000D02*
X87910000Y-98040000D01*
%TO.C,D71*%
X420010000Y-36750000D02*
X422250000Y-36750000D01*
X420010000Y-40990000D02*
X420010000Y-36750000D01*
X421130000Y-33560000D02*
X421130000Y-36750000D01*
X421130000Y-44180000D02*
X421130000Y-40990000D01*
X422250000Y-36750000D02*
X422250000Y-40990000D01*
X422250000Y-40150000D02*
X420010000Y-40150000D01*
X422250000Y-40270000D02*
X420010000Y-40270000D01*
X422250000Y-40390000D02*
X420010000Y-40390000D01*
X422250000Y-40990000D02*
X420010000Y-40990000D01*
%TO.C,D5*%
X111680000Y-113230000D02*
X113920000Y-113230000D01*
X111680000Y-117470000D02*
X111680000Y-113230000D01*
X112800000Y-110040000D02*
X112800000Y-113230000D01*
X112800000Y-120660000D02*
X112800000Y-117470000D01*
X113920000Y-113230000D02*
X113920000Y-117470000D01*
X113920000Y-116630000D02*
X111680000Y-116630000D01*
X113920000Y-116750000D02*
X111680000Y-116750000D01*
X113920000Y-116870000D02*
X111680000Y-116870000D01*
X113920000Y-117470000D02*
X111680000Y-117470000D01*
%TO.C,D49*%
X286360000Y-55650000D02*
X288600000Y-55650000D01*
X286360000Y-59890000D02*
X286360000Y-55650000D01*
X287480000Y-52460000D02*
X287480000Y-55650000D01*
X287480000Y-63080000D02*
X287480000Y-59890000D01*
X288600000Y-55650000D02*
X288600000Y-59890000D01*
X288600000Y-59050000D02*
X286360000Y-59050000D01*
X288600000Y-59170000D02*
X286360000Y-59170000D01*
X288600000Y-59290000D02*
X286360000Y-59290000D01*
X288600000Y-59890000D02*
X286360000Y-59890000D01*
%TO.C,D17*%
X111710000Y-55950000D02*
X113950000Y-55950000D01*
X111710000Y-60190000D02*
X111710000Y-55950000D01*
X112830000Y-52760000D02*
X112830000Y-55950000D01*
X112830000Y-63380000D02*
X112830000Y-60190000D01*
X113950000Y-55950000D02*
X113950000Y-60190000D01*
X113950000Y-59350000D02*
X111710000Y-59350000D01*
X113950000Y-59470000D02*
X111710000Y-59470000D01*
X113950000Y-59590000D02*
X111710000Y-59590000D01*
X113950000Y-60190000D02*
X111710000Y-60190000D01*
%TO.C,D53*%
X305610000Y-36950000D02*
X307850000Y-36950000D01*
X305610000Y-41190000D02*
X305610000Y-36950000D01*
X306730000Y-33760000D02*
X306730000Y-36950000D01*
X306730000Y-44380000D02*
X306730000Y-41190000D01*
X307850000Y-36950000D02*
X307850000Y-41190000D01*
X307850000Y-40350000D02*
X305610000Y-40350000D01*
X307850000Y-40470000D02*
X305610000Y-40470000D01*
X307850000Y-40590000D02*
X305610000Y-40590000D01*
X307850000Y-41190000D02*
X305610000Y-41190000D01*
%TO.C,D24*%
X145060000Y-93800000D02*
X147300000Y-93800000D01*
X145060000Y-98040000D02*
X145060000Y-93800000D01*
X146180000Y-90610000D02*
X146180000Y-93800000D01*
X146180000Y-101230000D02*
X146180000Y-98040000D01*
X147300000Y-93800000D02*
X147300000Y-98040000D01*
X147300000Y-97200000D02*
X145060000Y-97200000D01*
X147300000Y-97320000D02*
X145060000Y-97320000D01*
X147300000Y-97440000D02*
X145060000Y-97440000D01*
X147300000Y-98040000D02*
X145060000Y-98040000D01*
%TO.C,D60*%
X324660000Y-74750000D02*
X326900000Y-74750000D01*
X324660000Y-78990000D02*
X324660000Y-74750000D01*
X325780000Y-71560000D02*
X325780000Y-74750000D01*
X325780000Y-82180000D02*
X325780000Y-78990000D01*
X326900000Y-74750000D02*
X326900000Y-78990000D01*
X326900000Y-78150000D02*
X324660000Y-78150000D01*
X326900000Y-78270000D02*
X324660000Y-78270000D01*
X326900000Y-78390000D02*
X324660000Y-78390000D01*
X326900000Y-78990000D02*
X324660000Y-78990000D01*
%TO.C,D59*%
X324460000Y-55650000D02*
X326700000Y-55650000D01*
X324460000Y-59890000D02*
X324460000Y-55650000D01*
X325580000Y-52460000D02*
X325580000Y-55650000D01*
X325580000Y-63080000D02*
X325580000Y-59890000D01*
X326700000Y-55650000D02*
X326700000Y-59890000D01*
X326700000Y-59050000D02*
X324460000Y-59050000D01*
X326700000Y-59170000D02*
X324460000Y-59170000D01*
X326700000Y-59290000D02*
X324460000Y-59290000D01*
X326700000Y-59890000D02*
X324460000Y-59890000D01*
%TO.C,D33*%
X178380000Y-36950000D02*
X180620000Y-36950000D01*
X178380000Y-41190000D02*
X178380000Y-36950000D01*
X179500000Y-33760000D02*
X179500000Y-36950000D01*
X179500000Y-44380000D02*
X179500000Y-41190000D01*
X180620000Y-36950000D02*
X180620000Y-41190000D01*
X180620000Y-40350000D02*
X178380000Y-40350000D01*
X180620000Y-40470000D02*
X178380000Y-40470000D01*
X180620000Y-40590000D02*
X178380000Y-40590000D01*
X180620000Y-41190000D02*
X178380000Y-41190000D01*
%TO.C,D2*%
X54560000Y-55950000D02*
X56800000Y-55950000D01*
X54560000Y-60190000D02*
X54560000Y-55950000D01*
X55680000Y-52760000D02*
X55680000Y-55950000D01*
X55680000Y-63380000D02*
X55680000Y-60190000D01*
X56800000Y-55950000D02*
X56800000Y-60190000D01*
X56800000Y-59350000D02*
X54560000Y-59350000D01*
X56800000Y-59470000D02*
X54560000Y-59470000D01*
X56800000Y-59590000D02*
X54560000Y-59590000D01*
X56800000Y-60190000D02*
X54560000Y-60190000D01*
%TD*%
M02*
