%TF.GenerationSoftware,KiCad,Pcbnew,8.99.0-3334-g98ae574c78*%
%TF.CreationDate,2025-06-08T22:47:57-05:00*%
%TF.ProjectId,CircuitCyboard-Right,43697263-7569-4744-9379-626f6172642d,rev?*%
%TF.SameCoordinates,Original*%
%TF.FileFunction,Soldermask,Top*%
%TF.FilePolarity,Negative*%
%FSLAX46Y46*%
G04 Gerber Fmt 4.6, Leading zero omitted, Abs format (unit mm)*
G04 Created by KiCad (PCBNEW 8.99.0-3334-g98ae574c78) date 2025-06-08 22:47:57*
%MOMM*%
%LPD*%
G01*
G04 APERTURE LIST*
%ADD10C,1.700000*%
%ADD11C,4.000000*%
%ADD12C,2.200000*%
%ADD13R,2.000000X2.000000*%
%ADD14C,2.000000*%
%ADD15R,3.200000X2.000000*%
%ADD16C,3.050000*%
%ADD17O,1.800000X1.800000*%
%ADD18O,1.500000X1.500000*%
%ADD19O,1.700000X1.700000*%
%ADD20R,3.500000X1.700000*%
%ADD21R,1.700000X1.700000*%
%ADD22R,1.700000X3.500000*%
%ADD23R,1.600000X1.600000*%
%ADD24O,1.600000X1.600000*%
G04 APERTURE END LIST*
D10*
%TO.C,SW62*%
X330220100Y-115220000D03*
D11*
X335300100Y-115220000D03*
D10*
X340380100Y-115220000D03*
D12*
X337840100Y-110140000D03*
X331490100Y-112680000D03*
%TD*%
D10*
%TO.C,SW4*%
X74412500Y-96170000D03*
D11*
X79492500Y-96170000D03*
D10*
X84572500Y-96170000D03*
D12*
X82032500Y-91090000D03*
X75682500Y-93630000D03*
%TD*%
D10*
%TO.C,SW36*%
X228620100Y-53307500D03*
D11*
X233700100Y-53307500D03*
D10*
X238780100Y-53307500D03*
D12*
X236240100Y-48227500D03*
X229890100Y-50767500D03*
%TD*%
D10*
%TO.C,SW47*%
X266720100Y-115220000D03*
D11*
X271800100Y-115220000D03*
D10*
X276880100Y-115220000D03*
D12*
X274340100Y-110140000D03*
X267990100Y-112680000D03*
%TD*%
D10*
%TO.C,SW52*%
X292120100Y-115220000D03*
D11*
X297200100Y-115220000D03*
D10*
X302280100Y-115220000D03*
D12*
X299740100Y-110140000D03*
X293390100Y-112680000D03*
%TD*%
D10*
%TO.C,SW2*%
X60125000Y-58070000D03*
D11*
X65205000Y-58070000D03*
D10*
X70285000Y-58070000D03*
D12*
X67745000Y-52990000D03*
X61395000Y-55530000D03*
%TD*%
D10*
%TO.C,SW61*%
X330220100Y-96170000D03*
D11*
X335300100Y-96170000D03*
D10*
X340380100Y-96170000D03*
D12*
X337840100Y-91090000D03*
X331490100Y-93630000D03*
%TD*%
D10*
%TO.C,SW66*%
X349270100Y-96170000D03*
D11*
X354350100Y-96170000D03*
D10*
X359430100Y-96170000D03*
D12*
X356890100Y-91090000D03*
X350540100Y-93630000D03*
%TD*%
D10*
%TO.C,SW59*%
X330220100Y-58070000D03*
D11*
X335300100Y-58070000D03*
D10*
X340380100Y-58070000D03*
D12*
X337840100Y-52990000D03*
X331490100Y-55530000D03*
%TD*%
D10*
%TO.C,SW39*%
X247670100Y-34257500D03*
D11*
X252750100Y-34257500D03*
D10*
X257830100Y-34257500D03*
D12*
X255290100Y-29177500D03*
X248940100Y-31717500D03*
%TD*%
D13*
%TO.C,SW72*%
X423565100Y-91090000D03*
D14*
X423565100Y-96090000D03*
X423565100Y-93590000D03*
D15*
X431065100Y-87990000D03*
X431065100Y-99190000D03*
D14*
X438065100Y-96090000D03*
X438065100Y-91090000D03*
%TD*%
D10*
%TO.C,SW41*%
X247670100Y-72357500D03*
D11*
X252750100Y-72357500D03*
D10*
X257830100Y-72357500D03*
D12*
X255290100Y-67277500D03*
X248940100Y-69817500D03*
%TD*%
D10*
%TO.C,SW27*%
X155375000Y-58070000D03*
D11*
X160455000Y-58070000D03*
D10*
X165535000Y-58070000D03*
D12*
X162995000Y-52990000D03*
X156645000Y-55530000D03*
%TD*%
D10*
%TO.C,SW1*%
X50600000Y-39020000D03*
D11*
X55680000Y-39020000D03*
D10*
X60760000Y-39020000D03*
D12*
X58220000Y-33940000D03*
X51870000Y-36480000D03*
%TD*%
D10*
%TO.C,SW9*%
X93462500Y-96170000D03*
D11*
X98542500Y-96170000D03*
D10*
X103622500Y-96170000D03*
D12*
X101082500Y-91090000D03*
X94732500Y-93630000D03*
%TD*%
D10*
%TO.C,SW19*%
X131562500Y-96170000D03*
D11*
X136642500Y-96170000D03*
D10*
X141722500Y-96170000D03*
D12*
X139182500Y-91090000D03*
X132832500Y-93630000D03*
%TD*%
D10*
%TO.C,SW53*%
X311170100Y-39020000D03*
D11*
X316250100Y-39020000D03*
D10*
X321330100Y-39020000D03*
D12*
X318790100Y-33940000D03*
X312440100Y-36480000D03*
%TD*%
D10*
%TO.C,SW26*%
X145850000Y-39020000D03*
D11*
X150930000Y-39020000D03*
D10*
X156010000Y-39020000D03*
D12*
X153470000Y-33940000D03*
X147120000Y-36480000D03*
%TD*%
D10*
%TO.C,SW54*%
X311170100Y-58070000D03*
D11*
X316250100Y-58070000D03*
D10*
X321330100Y-58070000D03*
D12*
X318790100Y-52990000D03*
X312440100Y-55530000D03*
%TD*%
D10*
%TO.C,SW69*%
X406420100Y-58070000D03*
D11*
X411500100Y-58070000D03*
D10*
X416580100Y-58070000D03*
D12*
X414040100Y-52990000D03*
X407690100Y-55530000D03*
%TD*%
D10*
%TO.C,SW35*%
X228620100Y-34257500D03*
D11*
X233700100Y-34257500D03*
D10*
X238780100Y-34257500D03*
D12*
X236240100Y-29177500D03*
X229890100Y-31717500D03*
%TD*%
D10*
%TO.C,SW48*%
X292120100Y-39020000D03*
D11*
X297200100Y-39020000D03*
D10*
X302280100Y-39020000D03*
D12*
X299740100Y-33940000D03*
X293390100Y-36480000D03*
%TD*%
D10*
%TO.C,SW13*%
X102987500Y-77120000D03*
D11*
X108067500Y-77120000D03*
D10*
X113147500Y-77120000D03*
D12*
X110607500Y-72040000D03*
X104257500Y-74580000D03*
%TD*%
D10*
%TO.C,SW67*%
X349270100Y-115220000D03*
D11*
X354350100Y-115220000D03*
D10*
X359430100Y-115220000D03*
D12*
X356890100Y-110140000D03*
X350540100Y-112680000D03*
%TD*%
D16*
%TO.C,SW32*%
X184273500Y-70120000D03*
D11*
X184273500Y-85360000D03*
D10*
X191093500Y-77120000D03*
D11*
X196173500Y-77120000D03*
D10*
X201253500Y-77120000D03*
D16*
X208073500Y-70120000D03*
D11*
X208073500Y-85360000D03*
D12*
X198713500Y-72040000D03*
X192363500Y-74580000D03*
%TD*%
D10*
%TO.C,SW73*%
X444520100Y-39020000D03*
D11*
X449600100Y-39020000D03*
D10*
X454680100Y-39020000D03*
D12*
X452140100Y-33940000D03*
X445790100Y-36480000D03*
%TD*%
D10*
%TO.C,SW14*%
X112512500Y-96170000D03*
D11*
X117592500Y-96170000D03*
D10*
X122672500Y-96170000D03*
D12*
X120132500Y-91090000D03*
X113782500Y-93630000D03*
%TD*%
D10*
%TO.C,SW7*%
X79175000Y-58070000D03*
D11*
X84255000Y-58070000D03*
D10*
X89335000Y-58070000D03*
D12*
X86795000Y-52990000D03*
X80445000Y-55530000D03*
%TD*%
D10*
%TO.C,SW11*%
X88700000Y-39020000D03*
D11*
X93780000Y-39020000D03*
D10*
X98860000Y-39020000D03*
D12*
X96320000Y-33940000D03*
X89970000Y-36480000D03*
%TD*%
D10*
%TO.C,SW8*%
X83937500Y-77120000D03*
D11*
X89017500Y-77120000D03*
D10*
X94097500Y-77120000D03*
D12*
X91557500Y-72040000D03*
X85207500Y-74580000D03*
%TD*%
D10*
%TO.C,SW10*%
X129372300Y-115220000D03*
D11*
X134452300Y-115220000D03*
D10*
X139532300Y-115220000D03*
D12*
X136992300Y-110140000D03*
X130642300Y-112680000D03*
%TD*%
D10*
%TO.C,SW70*%
X425470100Y-39020000D03*
D11*
X430550100Y-39020000D03*
D10*
X435630100Y-39020000D03*
D12*
X433090100Y-33940000D03*
X426740100Y-36480000D03*
%TD*%
D10*
%TO.C,SW63*%
X349270100Y-39020000D03*
D11*
X354350100Y-39020000D03*
D10*
X359430100Y-39020000D03*
D12*
X356890100Y-33940000D03*
X350540100Y-36480000D03*
%TD*%
D10*
%TO.C,SW20*%
X176615200Y-115220000D03*
D11*
X181695200Y-115220000D03*
D10*
X186775200Y-115220000D03*
D12*
X184235200Y-110140000D03*
X177885200Y-112680000D03*
%TD*%
D10*
%TO.C,SW30*%
X164900000Y-39020000D03*
D11*
X169980000Y-39020000D03*
D10*
X175060000Y-39020000D03*
D12*
X172520000Y-33940000D03*
X166170000Y-36480000D03*
%TD*%
D10*
%TO.C,SW58*%
X330220100Y-39020000D03*
D11*
X335300100Y-39020000D03*
D10*
X340380100Y-39020000D03*
D12*
X337840100Y-33940000D03*
X331490100Y-36480000D03*
%TD*%
D10*
%TO.C,SW23*%
X141087500Y-77120000D03*
D11*
X146167500Y-77120000D03*
D10*
X151247500Y-77120000D03*
D12*
X148707500Y-72040000D03*
X142357500Y-74580000D03*
%TD*%
D10*
%TO.C,SW40*%
X247670100Y-53307500D03*
D11*
X252750100Y-53307500D03*
D10*
X257830100Y-53307500D03*
D12*
X255290100Y-48227500D03*
X248940100Y-50767500D03*
%TD*%
D10*
%TO.C,SW17*%
X117275000Y-58070000D03*
D11*
X122355000Y-58070000D03*
D10*
X127435000Y-58070000D03*
D12*
X124895000Y-52990000D03*
X118545000Y-55530000D03*
%TD*%
D10*
%TO.C,SW31*%
X174425000Y-58070000D03*
D11*
X179505000Y-58070000D03*
D10*
X184585000Y-58070000D03*
D12*
X182045000Y-52990000D03*
X175695000Y-55530000D03*
%TD*%
D10*
%TO.C,SW55*%
X311170100Y-77120000D03*
D11*
X316250100Y-77120000D03*
D10*
X321330100Y-77120000D03*
D12*
X318790100Y-72040000D03*
X312440100Y-74580000D03*
%TD*%
D10*
%TO.C,SW12*%
X98225000Y-58070000D03*
D11*
X103305000Y-58070000D03*
D10*
X108385000Y-58070000D03*
D12*
X105845000Y-52990000D03*
X99495000Y-55530000D03*
%TD*%
D10*
%TO.C,SW25*%
X200236600Y-115220000D03*
D11*
X205316600Y-115220000D03*
D10*
X210396600Y-115220000D03*
D12*
X207856600Y-110140000D03*
X201506600Y-112680000D03*
%TD*%
D10*
%TO.C,SW57*%
X311170100Y-115220000D03*
D11*
X316250100Y-115220000D03*
D10*
X321330100Y-115220000D03*
D12*
X318790100Y-110140000D03*
X312440100Y-112680000D03*
%TD*%
D10*
%TO.C,SW65*%
X349270100Y-77120000D03*
D11*
X354350100Y-77120000D03*
D10*
X359430100Y-77120000D03*
D12*
X356890100Y-72040000D03*
X350540100Y-74580000D03*
%TD*%
D16*
%TO.C,SW5*%
X81880000Y-108220000D03*
D11*
X81880000Y-123460000D03*
D10*
X88700000Y-115220000D03*
D11*
X93780000Y-115220000D03*
D10*
X98860000Y-115220000D03*
D16*
X105680000Y-108220000D03*
D11*
X105680000Y-123460000D03*
D12*
X96320000Y-110140000D03*
X89970000Y-112680000D03*
%TD*%
D10*
%TO.C,SW18*%
X122037500Y-77120000D03*
D11*
X127117500Y-77120000D03*
D10*
X132197500Y-77120000D03*
D12*
X129657500Y-72040000D03*
X123307500Y-74580000D03*
%TD*%
D10*
%TO.C,SW45*%
X266720100Y-53307500D03*
D11*
X271800100Y-53307500D03*
D10*
X276880100Y-53307500D03*
D12*
X274340100Y-48227500D03*
X267990100Y-50767500D03*
%TD*%
D16*
%TO.C,SW29*%
X179511500Y-89170000D03*
D11*
X179511500Y-104410000D03*
D10*
X186331500Y-96170000D03*
D11*
X191411500Y-96170000D03*
D10*
X196491500Y-96170000D03*
D16*
X203311500Y-89170000D03*
D11*
X203311500Y-104410000D03*
D12*
X193951500Y-91090000D03*
X187601500Y-93630000D03*
%TD*%
D10*
%TO.C,SW51*%
X292120100Y-96170000D03*
D11*
X297200100Y-96170000D03*
D10*
X302280100Y-96170000D03*
D12*
X299740100Y-91090000D03*
X293390100Y-93630000D03*
%TD*%
D16*
%TO.C,SW33*%
X186655000Y-32020000D03*
D11*
X186655000Y-47260000D03*
D10*
X193475000Y-39020000D03*
D11*
X198555000Y-39020000D03*
D10*
X203635000Y-39020000D03*
D16*
X210455000Y-32020000D03*
D11*
X210455000Y-47260000D03*
D12*
X201095000Y-33940000D03*
X194745000Y-36480000D03*
%TD*%
D10*
%TO.C,SW50*%
X292120100Y-77120000D03*
D11*
X297200100Y-77120000D03*
D10*
X302280100Y-77120000D03*
D12*
X299740100Y-72040000D03*
X293390100Y-74580000D03*
%TD*%
D10*
%TO.C,SW46*%
X266720100Y-72357500D03*
D11*
X271800100Y-72357500D03*
D10*
X276880100Y-72357500D03*
D12*
X274340100Y-67277500D03*
X267990100Y-69817500D03*
%TD*%
D10*
%TO.C,SW16*%
X107750000Y-39020000D03*
D11*
X112830000Y-39020000D03*
D10*
X117910000Y-39020000D03*
D12*
X115370000Y-33940000D03*
X109020000Y-36480000D03*
%TD*%
D10*
%TO.C,SW28*%
X160137500Y-77120000D03*
D11*
X165217500Y-77120000D03*
D10*
X170297500Y-77120000D03*
D12*
X167757500Y-72040000D03*
X161407500Y-74580000D03*
%TD*%
D10*
%TO.C,SW44*%
X266720100Y-34257500D03*
D11*
X271800100Y-34257500D03*
D10*
X276880100Y-34257500D03*
D12*
X274340100Y-29177500D03*
X267990100Y-31717500D03*
%TD*%
D10*
%TO.C,SW34*%
X198237500Y-58070000D03*
D11*
X203317500Y-58070000D03*
D10*
X208397500Y-58070000D03*
D12*
X205857500Y-52990000D03*
X199507500Y-55530000D03*
%TD*%
D10*
%TO.C,SW68*%
X406420100Y-39020000D03*
D11*
X411500100Y-39020000D03*
D10*
X416580100Y-39020000D03*
D12*
X414040100Y-33940000D03*
X407690100Y-36480000D03*
%TD*%
D10*
%TO.C,SW74*%
X444520100Y-58070000D03*
D11*
X449600100Y-58070000D03*
D10*
X454680100Y-58070000D03*
D12*
X452140100Y-52990000D03*
X445790100Y-55530000D03*
%TD*%
D10*
%TO.C,SW49*%
X292120100Y-58070000D03*
D11*
X297200100Y-58070000D03*
D10*
X302280100Y-58070000D03*
D12*
X299740100Y-52990000D03*
X293390100Y-55530000D03*
%TD*%
D10*
%TO.C,SW71*%
X425470100Y-58070000D03*
D11*
X430550100Y-58070000D03*
D10*
X435630100Y-58070000D03*
D12*
X433090100Y-52990000D03*
X426740100Y-55530000D03*
%TD*%
D10*
%TO.C,SW38*%
X228620100Y-115220000D03*
D11*
X233700100Y-115220000D03*
D10*
X238780100Y-115220000D03*
D12*
X236240100Y-110140000D03*
X229890100Y-112680000D03*
%TD*%
D10*
%TO.C,SW60*%
X330220100Y-77120000D03*
D11*
X335300100Y-77120000D03*
D10*
X340380100Y-77120000D03*
D12*
X337840100Y-72040000D03*
X331490100Y-74580000D03*
%TD*%
D17*
%TO.C,U1*%
X379650000Y-23900000D03*
D18*
X379950000Y-26930000D03*
X384800000Y-26930000D03*
D17*
X385100000Y-23900000D03*
D19*
X373485000Y-23770000D03*
D20*
X372585000Y-23770000D03*
D19*
X373485000Y-26310000D03*
D20*
X372585000Y-26310000D03*
D21*
X373485000Y-28850000D03*
D20*
X372585000Y-28850000D03*
D19*
X373485000Y-31390000D03*
D20*
X372585000Y-31390000D03*
D19*
X373485000Y-33930000D03*
D20*
X372585000Y-33930000D03*
D19*
X373485000Y-36470000D03*
D20*
X372585000Y-36470000D03*
D19*
X373485000Y-39010000D03*
D20*
X372585000Y-39010000D03*
D21*
X373485000Y-41550000D03*
D20*
X372585000Y-41550000D03*
D19*
X373485000Y-44090000D03*
D20*
X372585000Y-44090000D03*
D19*
X373485000Y-46630000D03*
D20*
X372585000Y-46630000D03*
D19*
X373485000Y-49170000D03*
D20*
X372585000Y-49170000D03*
D19*
X373485000Y-51710000D03*
D20*
X372585000Y-51710000D03*
D21*
X373485000Y-54250000D03*
D20*
X372585000Y-54250000D03*
D19*
X373485000Y-56790000D03*
D20*
X372585000Y-56790000D03*
D19*
X373485000Y-59330000D03*
D20*
X372585000Y-59330000D03*
D19*
X373485000Y-61870000D03*
D20*
X372585000Y-61870000D03*
D19*
X373485000Y-64410000D03*
D20*
X372585000Y-64410000D03*
D21*
X373485000Y-66950000D03*
D20*
X372585000Y-66950000D03*
D19*
X373485000Y-69490000D03*
D20*
X372585000Y-69490000D03*
D19*
X373485000Y-72030000D03*
D20*
X372585000Y-72030000D03*
D19*
X391265000Y-72030000D03*
D20*
X392165000Y-72030000D03*
D19*
X391265000Y-69490000D03*
D20*
X392165000Y-69490000D03*
D21*
X391265000Y-66950000D03*
D20*
X392165000Y-66950000D03*
D19*
X391265000Y-64410000D03*
D20*
X392165000Y-64410000D03*
D19*
X391265000Y-61870000D03*
D20*
X392165000Y-61870000D03*
D19*
X391265000Y-59330000D03*
D20*
X392165000Y-59330000D03*
D19*
X391265000Y-56790000D03*
D20*
X392165000Y-56790000D03*
D21*
X391265000Y-54250000D03*
D20*
X392165000Y-54250000D03*
D19*
X391265000Y-51710000D03*
D20*
X392165000Y-51710000D03*
D19*
X391265000Y-49170000D03*
D20*
X392165000Y-49170000D03*
D19*
X391265000Y-46630000D03*
D20*
X392165000Y-46630000D03*
D19*
X391265000Y-44090000D03*
D20*
X392165000Y-44090000D03*
D21*
X391265000Y-41550000D03*
D20*
X392165000Y-41550000D03*
D19*
X391265000Y-39010000D03*
D20*
X392165000Y-39010000D03*
D19*
X391265000Y-36470000D03*
D20*
X392165000Y-36470000D03*
D19*
X391265000Y-33930000D03*
D20*
X392165000Y-33930000D03*
D19*
X391265000Y-31390000D03*
D20*
X392165000Y-31390000D03*
D21*
X391265000Y-28850000D03*
D20*
X392165000Y-28850000D03*
D19*
X391265000Y-26310000D03*
D20*
X392165000Y-26310000D03*
D19*
X391265000Y-23770000D03*
D20*
X392165000Y-23770000D03*
D19*
X379835000Y-71800000D03*
D22*
X379835000Y-72700000D03*
D21*
X382375000Y-71800000D03*
D22*
X382375000Y-72700000D03*
D19*
X384915000Y-71800000D03*
D22*
X384915000Y-72700000D03*
%TD*%
D10*
%TO.C,SW43*%
X247670100Y-115220000D03*
D11*
X252750100Y-115220000D03*
D10*
X257830100Y-115220000D03*
D12*
X255290100Y-110140000D03*
X248940100Y-112680000D03*
%TD*%
D10*
%TO.C,SW22*%
X136325000Y-58070000D03*
D11*
X141405000Y-58070000D03*
D10*
X146485000Y-58070000D03*
D12*
X143945000Y-52990000D03*
X137595000Y-55530000D03*
%TD*%
D10*
%TO.C,SW21*%
X126800000Y-39020000D03*
D11*
X131880000Y-39020000D03*
D10*
X136960000Y-39020000D03*
D12*
X134420000Y-33940000D03*
X128070000Y-36480000D03*
%TD*%
D10*
%TO.C,SW6*%
X69650000Y-39020000D03*
D11*
X74730000Y-39020000D03*
D10*
X79810000Y-39020000D03*
D12*
X77270000Y-33940000D03*
X70920000Y-36480000D03*
%TD*%
D10*
%TO.C,SW15*%
X152993800Y-115220000D03*
D11*
X158073800Y-115220000D03*
D10*
X163153800Y-115220000D03*
D12*
X160613800Y-110140000D03*
X154263800Y-112680000D03*
%TD*%
D10*
%TO.C,SW24*%
X150612500Y-96170000D03*
D11*
X155692500Y-96170000D03*
D10*
X160772500Y-96170000D03*
D12*
X158232500Y-91090000D03*
X151882500Y-93630000D03*
%TD*%
D10*
%TO.C,SW3*%
X64887500Y-77120000D03*
D11*
X69967500Y-77120000D03*
D10*
X75047500Y-77120000D03*
D12*
X72507500Y-72040000D03*
X66157500Y-74580000D03*
%TD*%
D10*
%TO.C,SW64*%
X349270100Y-58070000D03*
D11*
X354350100Y-58070000D03*
D10*
X359430100Y-58070000D03*
D12*
X356890100Y-52990000D03*
X350540100Y-55530000D03*
%TD*%
D10*
%TO.C,SW42*%
X247670100Y-96170000D03*
D11*
X252750100Y-96170000D03*
D10*
X257830100Y-96170000D03*
D12*
X255290100Y-91090000D03*
X248940100Y-93630000D03*
%TD*%
D10*
%TO.C,SW56*%
X311170100Y-96170000D03*
D11*
X316250100Y-96170000D03*
D10*
X321330100Y-96170000D03*
D12*
X318790100Y-91090000D03*
X312440100Y-93630000D03*
%TD*%
D10*
%TO.C,SW37*%
X228620100Y-72357500D03*
D11*
X233700100Y-72357500D03*
D10*
X238780100Y-72357500D03*
D12*
X236240100Y-67277500D03*
X229890100Y-69817500D03*
%TD*%
D23*
%TO.C,D58*%
X325780000Y-45420000D03*
D24*
X325780000Y-32720000D03*
%TD*%
D23*
%TO.C,D11*%
X84230000Y-45470000D03*
D24*
X84230000Y-32770000D03*
%TD*%
D23*
%TO.C,D6*%
X65180000Y-45470000D03*
D24*
X65180000Y-32770000D03*
%TD*%
D23*
%TO.C,D16*%
X103280000Y-45470000D03*
D24*
X103280000Y-32770000D03*
%TD*%
D23*
%TO.C,D72*%
X420930000Y-64420000D03*
D24*
X420930000Y-51720000D03*
%TD*%
D23*
%TO.C,D39*%
X243030000Y-40720000D03*
D24*
X243030000Y-28020000D03*
%TD*%
D23*
%TO.C,D68*%
X402080000Y-45220000D03*
D24*
X402080000Y-32520000D03*
%TD*%
D23*
%TO.C,D69*%
X401880000Y-64420000D03*
D24*
X401880000Y-51720000D03*
%TD*%
D23*
%TO.C,D22*%
X131880000Y-64420000D03*
D24*
X131880000Y-51720000D03*
%TD*%
D23*
%TO.C,D43*%
X243230000Y-121820000D03*
D24*
X243230000Y-109120000D03*
%TD*%
D23*
%TO.C,D57*%
X306930000Y-121620000D03*
D24*
X306930000Y-108920000D03*
%TD*%
D23*
%TO.C,D14*%
X108080000Y-102270000D03*
D24*
X108080000Y-89570000D03*
%TD*%
D23*
%TO.C,D50*%
X287680000Y-83220000D03*
D24*
X287680000Y-70520000D03*
%TD*%
D23*
%TO.C,D7*%
X74730000Y-64420000D03*
D24*
X74730000Y-51720000D03*
%TD*%
D23*
%TO.C,D27*%
X150930000Y-64420000D03*
D24*
X150930000Y-51720000D03*
%TD*%
D23*
%TO.C,D31*%
X169980000Y-64420000D03*
D24*
X169980000Y-51720000D03*
%TD*%
D23*
%TO.C,D3*%
X60280000Y-83520000D03*
D24*
X60280000Y-70820000D03*
%TD*%
D23*
%TO.C,D8*%
X79330000Y-83520000D03*
D24*
X79330000Y-70820000D03*
%TD*%
D23*
%TO.C,D67*%
X345030000Y-121620000D03*
D24*
X345030000Y-108920000D03*
%TD*%
D23*
%TO.C,D47*%
X262280000Y-121820000D03*
D24*
X262280000Y-109120000D03*
%TD*%
D23*
%TO.C,D36*%
X224180000Y-59420000D03*
D24*
X224180000Y-46720000D03*
%TD*%
D23*
%TO.C,D65*%
X344830000Y-83220000D03*
D24*
X344830000Y-70520000D03*
%TD*%
D23*
%TO.C,D48*%
X287680000Y-45420000D03*
D24*
X287680000Y-32720000D03*
%TD*%
D23*
%TO.C,D19*%
X127130000Y-102270000D03*
D24*
X127130000Y-89570000D03*
%TD*%
D23*
%TO.C,D38*%
X224180000Y-121820000D03*
D24*
X224180000Y-109120000D03*
%TD*%
D23*
%TO.C,D20*%
X172180000Y-122120000D03*
D24*
X172180000Y-109420000D03*
%TD*%
D23*
%TO.C,D34*%
X193680000Y-64820000D03*
D24*
X193680000Y-52120000D03*
%TD*%
D23*
%TO.C,D63*%
X344830000Y-45420000D03*
D24*
X344830000Y-32720000D03*
%TD*%
D23*
%TO.C,D73*%
X440180000Y-45220000D03*
D24*
X440180000Y-32520000D03*
%TD*%
D23*
%TO.C,D54*%
X306530000Y-64120000D03*
D24*
X306530000Y-51420000D03*
%TD*%
D23*
%TO.C,D37*%
X224180000Y-78720000D03*
D24*
X224180000Y-66020000D03*
%TD*%
D23*
%TO.C,D55*%
X306730000Y-83220000D03*
D24*
X306730000Y-70520000D03*
%TD*%
D23*
%TO.C,D70*%
X425330000Y-103820000D03*
D24*
X438030000Y-103820000D03*
%TD*%
D23*
%TO.C,D56*%
X306530000Y-102520000D03*
D24*
X306530000Y-89820000D03*
%TD*%
D23*
%TO.C,D26*%
X141380000Y-45470000D03*
D24*
X141380000Y-32770000D03*
%TD*%
D23*
%TO.C,D25*%
X196080000Y-122020000D03*
D24*
X196080000Y-109320000D03*
%TD*%
D23*
%TO.C,D32*%
X177200000Y-83300000D03*
D24*
X177200000Y-70600000D03*
%TD*%
D23*
%TO.C,D42*%
X243080000Y-102320000D03*
D24*
X243080000Y-89620000D03*
%TD*%
D23*
%TO.C,D45*%
X262280000Y-59420000D03*
D24*
X262280000Y-46720000D03*
%TD*%
D23*
%TO.C,D23*%
X136480000Y-83520000D03*
D24*
X136480000Y-70820000D03*
%TD*%
D23*
%TO.C,D21*%
X122330000Y-45470000D03*
D24*
X122330000Y-32770000D03*
%TD*%
D23*
%TO.C,D64*%
X344630000Y-64120000D03*
D24*
X344630000Y-51420000D03*
%TD*%
D23*
%TO.C,D4*%
X69980000Y-102270000D03*
D24*
X69980000Y-89570000D03*
%TD*%
D23*
%TO.C,D35*%
X223980000Y-40720000D03*
D24*
X223980000Y-28020000D03*
%TD*%
D23*
%TO.C,D74*%
X439980000Y-64420000D03*
D24*
X439980000Y-51720000D03*
%TD*%
D23*
%TO.C,D40*%
X243230000Y-59420000D03*
D24*
X243230000Y-46720000D03*
%TD*%
D23*
%TO.C,D30*%
X160430000Y-45470000D03*
D24*
X160430000Y-32770000D03*
%TD*%
D23*
%TO.C,D44*%
X262080000Y-40720000D03*
D24*
X262080000Y-28020000D03*
%TD*%
D23*
%TO.C,D51*%
X287480000Y-102520000D03*
D24*
X287480000Y-89820000D03*
%TD*%
D23*
%TO.C,D29*%
X172400000Y-102200000D03*
D24*
X172400000Y-89500000D03*
%TD*%
D23*
%TO.C,D12*%
X93780000Y-64420000D03*
D24*
X93780000Y-51720000D03*
%TD*%
D23*
%TO.C,D41*%
X243230000Y-78720000D03*
D24*
X243230000Y-66020000D03*
%TD*%
D23*
%TO.C,D15*%
X148280000Y-121720000D03*
D24*
X148280000Y-109020000D03*
%TD*%
D23*
%TO.C,D62*%
X325980000Y-121620000D03*
D24*
X325980000Y-108920000D03*
%TD*%
D23*
%TO.C,D1*%
X46180000Y-45320000D03*
D24*
X46180000Y-32620000D03*
%TD*%
D23*
%TO.C,D52*%
X287880000Y-121620000D03*
D24*
X287880000Y-108920000D03*
%TD*%
D23*
%TO.C,D61*%
X325580000Y-102520000D03*
D24*
X325580000Y-89820000D03*
%TD*%
D23*
%TO.C,D66*%
X344630000Y-102520000D03*
D24*
X344630000Y-89820000D03*
%TD*%
D23*
%TO.C,D13*%
X98380000Y-83520000D03*
D24*
X98380000Y-70820000D03*
%TD*%
D23*
%TO.C,D46*%
X262280000Y-78720000D03*
D24*
X262280000Y-66020000D03*
%TD*%
D23*
%TO.C,D18*%
X117430000Y-83520000D03*
D24*
X117430000Y-70820000D03*
%TD*%
D23*
%TO.C,D28*%
X155530000Y-83520000D03*
D24*
X155530000Y-70820000D03*
%TD*%
D23*
%TO.C,D10*%
X124880000Y-121520000D03*
D24*
X124880000Y-108820000D03*
%TD*%
D23*
%TO.C,D9*%
X89030000Y-102270000D03*
D24*
X89030000Y-89570000D03*
%TD*%
D23*
%TO.C,D71*%
X421130000Y-45220000D03*
D24*
X421130000Y-32520000D03*
%TD*%
D23*
%TO.C,D5*%
X112800000Y-121700000D03*
D24*
X112800000Y-109000000D03*
%TD*%
D23*
%TO.C,D49*%
X287480000Y-64120000D03*
D24*
X287480000Y-51420000D03*
%TD*%
D23*
%TO.C,D17*%
X112830000Y-64420000D03*
D24*
X112830000Y-51720000D03*
%TD*%
D23*
%TO.C,D53*%
X306730000Y-45420000D03*
D24*
X306730000Y-32720000D03*
%TD*%
D23*
%TO.C,D24*%
X146180000Y-102270000D03*
D24*
X146180000Y-89570000D03*
%TD*%
D23*
%TO.C,D60*%
X325780000Y-83220000D03*
D24*
X325780000Y-70520000D03*
%TD*%
D23*
%TO.C,D59*%
X325580000Y-64120000D03*
D24*
X325580000Y-51420000D03*
%TD*%
D23*
%TO.C,D33*%
X179500000Y-45420000D03*
D24*
X179500000Y-32720000D03*
%TD*%
D23*
%TO.C,D2*%
X55680000Y-64420000D03*
D24*
X55680000Y-51720000D03*
%TD*%
M02*
