M48
; DRILL file {KiCad 8.99.0-3334-g98ae574c78} date 2025-06-08T22:45:46-0500
; FORMAT={-:-/ absolute / metric / decimal}
; #@! TF.CreationDate,2025-06-08T22:45:46-05:00
; #@! TF.GenerationSoftware,Kicad,Pcbnew,8.99.0-3334-g98ae574c78
; #@! TF.FileFunction,Plated,1,2,PTH
FMAT,2
METRIC
; #@! TA.AperFunction,Plated,PTH,ViaDrill
T1C0.300
; #@! TA.AperFunction,Plated,PTH,ComponentDrill
T2C0.800
; #@! TA.AperFunction,Plated,PTH,ComponentDrill
T3C1.000
; #@! TA.AperFunction,Plated,PTH,ComponentDrill
T4C1.020
; #@! TA.AperFunction,Plated,PTH,ComponentDrill
T5C1.500
%
G90
G05
T1
X101.896Y-112.28
X120.946Y-107.669
X144.161Y-107.058
X162.464Y-42.78
X180.485Y-42.3
X182.045Y-43.569
X205.551Y-44.214
X217.526Y-38.775
X217.526Y-93.893
X286.378Y-42.178
X300.756Y-60.651
X322.108Y-61.87
X361.175Y-107.058
X375.0Y-121.62
X388.161Y-82.204
X394.763Y-64.41
X395.8Y-93.893
X396.5Y-91.09
X414.091Y-70.648
X425.33Y-63.8
X438.065Y-73.8
X452.228Y-66.5
T2
X46.18Y-32.62
X46.18Y-45.32
X55.68Y-51.72
X55.68Y-64.42
X60.28Y-70.82
X60.28Y-83.52
X65.18Y-32.77
X65.18Y-45.47
X69.98Y-89.57
X69.98Y-102.27
X74.73Y-51.72
X74.73Y-64.42
X79.33Y-70.82
X79.33Y-83.52
X84.23Y-32.77
X84.23Y-45.47
X89.03Y-89.57
X89.03Y-102.27
X93.78Y-51.72
X93.78Y-64.42
X98.38Y-70.82
X98.38Y-83.52
X103.28Y-32.77
X103.28Y-45.47
X108.08Y-89.57
X108.08Y-102.27
X112.8Y-109.0
X112.8Y-121.7
X112.83Y-51.72
X112.83Y-64.42
X117.43Y-70.82
X117.43Y-83.52
X122.33Y-32.77
X122.33Y-45.47
X124.88Y-108.82
X124.88Y-121.52
X127.13Y-89.57
X127.13Y-102.27
X131.88Y-51.72
X131.88Y-64.42
X136.48Y-70.82
X136.48Y-83.52
X141.38Y-32.77
X141.38Y-45.47
X146.18Y-89.57
X146.18Y-102.27
X148.28Y-109.02
X148.28Y-121.72
X150.93Y-51.72
X150.93Y-64.42
X155.53Y-70.82
X155.53Y-83.52
X160.43Y-32.77
X160.43Y-45.47
X169.98Y-51.72
X169.98Y-64.42
X172.18Y-109.42
X172.18Y-122.12
X172.4Y-89.5
X172.4Y-102.2
X177.2Y-70.6
X177.2Y-83.3
X179.5Y-32.72
X179.5Y-45.42
X193.68Y-52.12
X193.68Y-64.82
X196.08Y-109.32
X196.08Y-122.02
X223.98Y-28.02
X223.98Y-40.72
X224.18Y-46.72
X224.18Y-59.42
X224.18Y-66.02
X224.18Y-78.72
X224.18Y-109.12
X224.18Y-121.82
X243.03Y-28.02
X243.03Y-40.72
X243.08Y-89.62
X243.08Y-102.32
X243.23Y-46.72
X243.23Y-59.42
X243.23Y-66.02
X243.23Y-78.72
X243.23Y-109.12
X243.23Y-121.82
X262.08Y-28.02
X262.08Y-40.72
X262.28Y-46.72
X262.28Y-59.42
X262.28Y-66.02
X262.28Y-78.72
X262.28Y-109.12
X262.28Y-121.82
X287.48Y-51.42
X287.48Y-64.12
X287.48Y-89.82
X287.48Y-102.52
X287.68Y-32.72
X287.68Y-45.42
X287.68Y-70.52
X287.68Y-83.22
X287.88Y-108.92
X287.88Y-121.62
X306.53Y-51.42
X306.53Y-64.12
X306.53Y-89.82
X306.53Y-102.52
X306.73Y-32.72
X306.73Y-45.42
X306.73Y-70.52
X306.73Y-83.22
X306.93Y-108.92
X306.93Y-121.62
X325.58Y-51.42
X325.58Y-64.12
X325.58Y-89.82
X325.58Y-102.52
X325.78Y-32.72
X325.78Y-45.42
X325.78Y-70.52
X325.78Y-83.22
X325.98Y-108.92
X325.98Y-121.62
X344.63Y-51.42
X344.63Y-64.12
X344.63Y-89.82
X344.63Y-102.52
X344.83Y-32.72
X344.83Y-45.42
X344.83Y-70.52
X344.83Y-83.22
X345.03Y-108.92
X345.03Y-121.62
X401.88Y-51.72
X401.88Y-64.42
X402.08Y-32.52
X402.08Y-45.22
X420.93Y-51.72
X420.93Y-64.42
X421.13Y-32.52
X421.13Y-45.22
X425.33Y-103.82
X438.03Y-103.82
X439.98Y-51.72
X439.98Y-64.42
X440.18Y-32.52
X440.18Y-45.22
T3
X423.565Y-91.09
X423.565Y-93.59
X423.565Y-96.09
X438.065Y-91.09
X438.065Y-96.09
T4
X373.485Y-23.77
X373.485Y-26.31
X373.485Y-28.85
X373.485Y-31.39
X373.485Y-33.93
X373.485Y-36.47
X373.485Y-39.01
X373.485Y-41.55
X373.485Y-44.09
X373.485Y-46.63
X373.485Y-49.17
X373.485Y-51.71
X373.485Y-54.25
X373.485Y-56.79
X373.485Y-59.33
X373.485Y-61.87
X373.485Y-64.41
X373.485Y-66.95
X373.485Y-69.49
X373.485Y-72.03
X379.835Y-71.8
X382.375Y-71.8
X384.915Y-71.8
X391.265Y-23.77
X391.265Y-26.31
X391.265Y-28.85
X391.265Y-31.39
X391.265Y-33.93
X391.265Y-36.47
X391.265Y-39.01
X391.265Y-41.55
X391.265Y-44.09
X391.265Y-46.63
X391.265Y-49.17
X391.265Y-51.71
X391.265Y-54.25
X391.265Y-56.79
X391.265Y-59.33
X391.265Y-61.87
X391.265Y-64.41
X391.265Y-66.95
X391.265Y-69.49
X391.265Y-72.03
T5
X51.87Y-36.48
X58.22Y-33.94
X61.395Y-55.53
X66.157Y-74.58
X67.745Y-52.99
X70.92Y-36.48
X72.507Y-72.04
X75.682Y-93.63
X77.27Y-33.94
X80.445Y-55.53
X82.032Y-91.09
X85.207Y-74.58
X86.795Y-52.99
X89.97Y-36.48
X89.97Y-112.68
X91.557Y-72.04
X94.733Y-93.63
X96.32Y-33.94
X96.32Y-110.14
X99.495Y-55.53
X101.082Y-91.09
X104.257Y-74.58
X105.845Y-52.99
X109.02Y-36.48
X110.608Y-72.04
X113.782Y-93.63
X115.37Y-33.94
X118.545Y-55.53
X120.132Y-91.09
X123.307Y-74.58
X124.895Y-52.99
X128.07Y-36.48
X129.657Y-72.04
X130.642Y-112.68
X132.832Y-93.63
X134.42Y-33.94
X136.992Y-110.14
X137.595Y-55.53
X139.183Y-91.09
X142.357Y-74.58
X143.945Y-52.99
X147.12Y-36.48
X148.707Y-72.04
X151.882Y-93.63
X153.47Y-33.94
X154.264Y-112.68
X156.645Y-55.53
X158.232Y-91.09
X160.614Y-110.14
X161.407Y-74.58
X162.995Y-52.99
X166.17Y-36.48
X167.757Y-72.04
X172.52Y-33.94
X175.695Y-55.53
X177.885Y-112.68
X182.045Y-52.99
X184.235Y-110.14
X187.601Y-93.63
X192.363Y-74.58
X193.951Y-91.09
X194.745Y-36.48
X198.713Y-72.04
X199.507Y-55.53
X201.095Y-33.94
X201.507Y-112.68
X205.857Y-52.99
X207.857Y-110.14
X229.89Y-31.717
X229.89Y-50.767
X229.89Y-69.817
X229.89Y-112.68
X236.24Y-29.177
X236.24Y-48.227
X236.24Y-67.278
X236.24Y-110.14
X248.94Y-31.717
X248.94Y-50.767
X248.94Y-69.817
X248.94Y-93.63
X248.94Y-112.68
X255.29Y-29.177
X255.29Y-48.227
X255.29Y-67.278
X255.29Y-91.09
X255.29Y-110.14
X267.99Y-31.717
X267.99Y-50.767
X267.99Y-69.817
X267.99Y-112.68
X274.34Y-29.177
X274.34Y-48.227
X274.34Y-67.278
X274.34Y-110.14
X293.39Y-36.48
X293.39Y-55.53
X293.39Y-74.58
X293.39Y-93.63
X293.39Y-112.68
X299.74Y-33.94
X299.74Y-52.99
X299.74Y-72.04
X299.74Y-91.09
X299.74Y-110.14
X312.44Y-36.48
X312.44Y-55.53
X312.44Y-74.58
X312.44Y-93.63
X312.44Y-112.68
X318.79Y-33.94
X318.79Y-52.99
X318.79Y-72.04
X318.79Y-91.09
X318.79Y-110.14
X331.49Y-36.48
X331.49Y-55.53
X331.49Y-74.58
X331.49Y-93.63
X331.49Y-112.68
X337.84Y-33.94
X337.84Y-52.99
X337.84Y-72.04
X337.84Y-91.09
X337.84Y-110.14
X350.54Y-36.48
X350.54Y-55.53
X350.54Y-74.58
X350.54Y-93.63
X350.54Y-112.68
X356.89Y-33.94
X356.89Y-52.99
X356.89Y-72.04
X356.89Y-91.09
X356.89Y-110.14
X407.69Y-36.48
X407.69Y-55.53
X414.04Y-33.94
X414.04Y-52.99
X426.74Y-36.48
X426.74Y-55.53
X433.09Y-33.94
X433.09Y-52.99
X445.79Y-36.48
X445.79Y-55.53
X452.14Y-33.94
X452.14Y-52.99
T5
X430.415Y-87.99G85X431.715Y-87.99
G05
X430.415Y-99.19G85X431.715Y-99.19
G05
M30
