M48
; DRILL file {KiCad 8.99.0-3334-g98ae574c78} date 2025-06-08T22:45:46-0500
; FORMAT={-:-/ absolute / metric / decimal}
; #@! TF.CreationDate,2025-06-08T22:45:46-05:00
; #@! TF.GenerationSoftware,Kicad,Pcbnew,8.99.0-3334-g98ae574c78
; #@! TF.FileFunction,NonPlated,1,2,NPTH
FMAT,2
METRIC
; #@! TA.AperFunction,NonPlated,NPTH,ComponentDrill
T1C1.500
; #@! TA.AperFunction,NonPlated,NPTH,ComponentDrill
T2C1.700
; #@! TA.AperFunction,NonPlated,NPTH,ComponentDrill
T3C1.800
; #@! TA.AperFunction,NonPlated,NPTH,ComponentDrill
T4C3.050
; #@! TA.AperFunction,NonPlated,NPTH,ComponentDrill
T5C4.000
%
G90
G05
T1
X379.95Y-26.93
X384.8Y-26.93
T2
X50.6Y-39.02
X60.125Y-58.07
X60.76Y-39.02
X64.888Y-77.12
X69.65Y-39.02
X70.285Y-58.07
X74.412Y-96.17
X75.047Y-77.12
X79.175Y-58.07
X79.81Y-39.02
X83.938Y-77.12
X84.572Y-96.17
X88.7Y-39.02
X88.7Y-115.22
X89.335Y-58.07
X93.462Y-96.17
X94.097Y-77.12
X98.225Y-58.07
X98.86Y-39.02
X98.86Y-115.22
X102.987Y-77.12
X103.623Y-96.17
X107.75Y-39.02
X108.385Y-58.07
X112.512Y-96.17
X113.147Y-77.12
X117.275Y-58.07
X117.91Y-39.02
X122.037Y-77.12
X122.672Y-96.17
X126.8Y-39.02
X127.435Y-58.07
X129.372Y-115.22
X131.562Y-96.17
X132.197Y-77.12
X136.325Y-58.07
X136.96Y-39.02
X139.532Y-115.22
X141.088Y-77.12
X141.722Y-96.17
X145.85Y-39.02
X146.485Y-58.07
X150.612Y-96.17
X151.248Y-77.12
X152.994Y-115.22
X155.375Y-58.07
X156.01Y-39.02
X160.137Y-77.12
X160.772Y-96.17
X163.154Y-115.22
X164.9Y-39.02
X165.535Y-58.07
X170.297Y-77.12
X174.425Y-58.07
X175.06Y-39.02
X176.615Y-115.22
X184.585Y-58.07
X186.332Y-96.17
X186.775Y-115.22
X191.093Y-77.12
X193.475Y-39.02
X196.492Y-96.17
X198.237Y-58.07
X200.237Y-115.22
X201.254Y-77.12
X203.635Y-39.02
X208.397Y-58.07
X210.397Y-115.22
X228.62Y-34.258
X228.62Y-53.307
X228.62Y-72.358
X228.62Y-115.22
X238.78Y-34.258
X238.78Y-53.307
X238.78Y-72.358
X238.78Y-115.22
X247.67Y-34.258
X247.67Y-53.307
X247.67Y-72.358
X247.67Y-96.17
X247.67Y-115.22
X257.83Y-34.258
X257.83Y-53.307
X257.83Y-72.358
X257.83Y-96.17
X257.83Y-115.22
X266.72Y-34.258
X266.72Y-53.307
X266.72Y-72.358
X266.72Y-115.22
X276.88Y-34.258
X276.88Y-53.307
X276.88Y-72.358
X276.88Y-115.22
X292.12Y-39.02
X292.12Y-58.07
X292.12Y-77.12
X292.12Y-96.17
X292.12Y-115.22
X302.28Y-39.02
X302.28Y-58.07
X302.28Y-77.12
X302.28Y-96.17
X302.28Y-115.22
X311.17Y-39.02
X311.17Y-58.07
X311.17Y-77.12
X311.17Y-96.17
X311.17Y-115.22
X321.33Y-39.02
X321.33Y-58.07
X321.33Y-77.12
X321.33Y-96.17
X321.33Y-115.22
X330.22Y-39.02
X330.22Y-58.07
X330.22Y-77.12
X330.22Y-96.17
X330.22Y-115.22
X340.38Y-39.02
X340.38Y-58.07
X340.38Y-77.12
X340.38Y-96.17
X340.38Y-115.22
X349.27Y-39.02
X349.27Y-58.07
X349.27Y-77.12
X349.27Y-96.17
X349.27Y-115.22
X359.43Y-39.02
X359.43Y-58.07
X359.43Y-77.12
X359.43Y-96.17
X359.43Y-115.22
X406.42Y-39.02
X406.42Y-58.07
X416.58Y-39.02
X416.58Y-58.07
X425.47Y-39.02
X425.47Y-58.07
X435.63Y-39.02
X435.63Y-58.07
X444.52Y-39.02
X444.52Y-58.07
X454.68Y-39.02
X454.68Y-58.07
T3
X379.65Y-23.9
X385.1Y-23.9
T4
X81.88Y-108.22
X105.68Y-108.22
X179.511Y-89.17
X184.273Y-70.12
X186.655Y-32.02
X203.311Y-89.17
X208.073Y-70.12
X210.455Y-32.02
T5
X55.68Y-39.02
X65.205Y-58.07
X69.968Y-77.12
X74.73Y-39.02
X79.492Y-96.17
X81.88Y-123.46
X84.255Y-58.07
X89.017Y-77.12
X93.78Y-39.02
X93.78Y-115.22
X98.542Y-96.17
X103.305Y-58.07
X105.68Y-123.46
X108.067Y-77.12
X112.83Y-39.02
X117.593Y-96.17
X122.355Y-58.07
X127.117Y-77.12
X131.88Y-39.02
X134.452Y-115.22
X136.642Y-96.17
X141.405Y-58.07
X146.167Y-77.12
X150.93Y-39.02
X155.692Y-96.17
X158.074Y-115.22
X160.455Y-58.07
X165.218Y-77.12
X169.98Y-39.02
X179.505Y-58.07
X179.511Y-104.41
X181.695Y-115.22
X184.273Y-85.36
X186.655Y-47.26
X191.411Y-96.17
X196.173Y-77.12
X198.555Y-39.02
X203.311Y-104.41
X203.317Y-58.07
X205.317Y-115.22
X208.073Y-85.36
X210.455Y-47.26
X233.7Y-34.258
X233.7Y-53.307
X233.7Y-72.358
X233.7Y-115.22
X252.75Y-34.258
X252.75Y-53.307
X252.75Y-72.358
X252.75Y-96.17
X252.75Y-115.22
X271.8Y-34.258
X271.8Y-53.307
X271.8Y-72.358
X271.8Y-115.22
X297.2Y-39.02
X297.2Y-58.07
X297.2Y-77.12
X297.2Y-96.17
X297.2Y-115.22
X316.25Y-39.02
X316.25Y-58.07
X316.25Y-77.12
X316.25Y-96.17
X316.25Y-115.22
X335.3Y-39.02
X335.3Y-58.07
X335.3Y-77.12
X335.3Y-96.17
X335.3Y-115.22
X354.35Y-39.02
X354.35Y-58.07
X354.35Y-77.12
X354.35Y-96.17
X354.35Y-115.22
X411.5Y-39.02
X411.5Y-58.07
X430.55Y-39.02
X430.55Y-58.07
X449.6Y-39.02
X449.6Y-58.07
M30
