%TF.GenerationSoftware,KiCad,Pcbnew,8.99.0-3334-g98ae574c78*%
%TF.CreationDate,2025-06-08T23:29:47-05:00*%
%TF.ProjectId,CircuitCyboard,43697263-7569-4744-9379-626f6172642e,1*%
%TF.SameCoordinates,Original*%
%TF.FileFunction,Legend,Bot*%
%TF.FilePolarity,Positive*%
%FSLAX46Y46*%
G04 Gerber Fmt 4.6, Leading zero omitted, Abs format (unit mm)*
G04 Created by KiCad (PCBNEW 8.99.0-3334-g98ae574c78) date 2025-06-08 23:29:47*
%MOMM*%
%LPD*%
G01*
G04 APERTURE LIST*
%ADD10C,0.150000*%
%ADD11C,0.120000*%
G04 APERTURE END LIST*
D10*
X55434819Y-123335714D02*
X54434819Y-123335714D01*
X54434819Y-123335714D02*
X54434819Y-123573809D01*
X54434819Y-123573809D02*
X54482438Y-123716666D01*
X54482438Y-123716666D02*
X54577676Y-123811904D01*
X54577676Y-123811904D02*
X54672914Y-123859523D01*
X54672914Y-123859523D02*
X54863390Y-123907142D01*
X54863390Y-123907142D02*
X55006247Y-123907142D01*
X55006247Y-123907142D02*
X55196723Y-123859523D01*
X55196723Y-123859523D02*
X55291961Y-123811904D01*
X55291961Y-123811904D02*
X55387200Y-123716666D01*
X55387200Y-123716666D02*
X55434819Y-123573809D01*
X55434819Y-123573809D02*
X55434819Y-123335714D01*
X55434819Y-124859523D02*
X55434819Y-124288095D01*
X55434819Y-124573809D02*
X54434819Y-124573809D01*
X54434819Y-124573809D02*
X54577676Y-124478571D01*
X54577676Y-124478571D02*
X54672914Y-124383333D01*
X54672914Y-124383333D02*
X54720533Y-124288095D01*
X54434819Y-125192857D02*
X54434819Y-125811904D01*
X54434819Y-125811904D02*
X54815771Y-125478571D01*
X54815771Y-125478571D02*
X54815771Y-125621428D01*
X54815771Y-125621428D02*
X54863390Y-125716666D01*
X54863390Y-125716666D02*
X54911009Y-125764285D01*
X54911009Y-125764285D02*
X55006247Y-125811904D01*
X55006247Y-125811904D02*
X55244342Y-125811904D01*
X55244342Y-125811904D02*
X55339580Y-125764285D01*
X55339580Y-125764285D02*
X55387200Y-125716666D01*
X55387200Y-125716666D02*
X55434819Y-125621428D01*
X55434819Y-125621428D02*
X55434819Y-125335714D01*
X55434819Y-125335714D02*
X55387200Y-125240476D01*
X55387200Y-125240476D02*
X55339580Y-125192857D01*
X55754819Y-117938095D02*
X54754819Y-117938095D01*
X55754819Y-118509523D02*
X55183390Y-118080952D01*
X54754819Y-118509523D02*
X55326247Y-117938095D01*
X74484819Y-41711905D02*
X73484819Y-41711905D01*
X73484819Y-41711905D02*
X73484819Y-41950000D01*
X73484819Y-41950000D02*
X73532438Y-42092857D01*
X73532438Y-42092857D02*
X73627676Y-42188095D01*
X73627676Y-42188095D02*
X73722914Y-42235714D01*
X73722914Y-42235714D02*
X73913390Y-42283333D01*
X73913390Y-42283333D02*
X74056247Y-42283333D01*
X74056247Y-42283333D02*
X74246723Y-42235714D01*
X74246723Y-42235714D02*
X74341961Y-42188095D01*
X74341961Y-42188095D02*
X74437200Y-42092857D01*
X74437200Y-42092857D02*
X74484819Y-41950000D01*
X74484819Y-41950000D02*
X74484819Y-41711905D01*
X73484819Y-42616667D02*
X73484819Y-43235714D01*
X73484819Y-43235714D02*
X73865771Y-42902381D01*
X73865771Y-42902381D02*
X73865771Y-43045238D01*
X73865771Y-43045238D02*
X73913390Y-43140476D01*
X73913390Y-43140476D02*
X73961009Y-43188095D01*
X73961009Y-43188095D02*
X74056247Y-43235714D01*
X74056247Y-43235714D02*
X74294342Y-43235714D01*
X74294342Y-43235714D02*
X74389580Y-43188095D01*
X74389580Y-43188095D02*
X74437200Y-43140476D01*
X74437200Y-43140476D02*
X74484819Y-43045238D01*
X74484819Y-43045238D02*
X74484819Y-42759524D01*
X74484819Y-42759524D02*
X74437200Y-42664286D01*
X74437200Y-42664286D02*
X74389580Y-42616667D01*
X74804819Y-35838095D02*
X73804819Y-35838095D01*
X74804819Y-36409523D02*
X74233390Y-35980952D01*
X73804819Y-36409523D02*
X74376247Y-35838095D01*
X122234819Y-104285714D02*
X121234819Y-104285714D01*
X121234819Y-104285714D02*
X121234819Y-104523809D01*
X121234819Y-104523809D02*
X121282438Y-104666666D01*
X121282438Y-104666666D02*
X121377676Y-104761904D01*
X121377676Y-104761904D02*
X121472914Y-104809523D01*
X121472914Y-104809523D02*
X121663390Y-104857142D01*
X121663390Y-104857142D02*
X121806247Y-104857142D01*
X121806247Y-104857142D02*
X121996723Y-104809523D01*
X121996723Y-104809523D02*
X122091961Y-104761904D01*
X122091961Y-104761904D02*
X122187200Y-104666666D01*
X122187200Y-104666666D02*
X122234819Y-104523809D01*
X122234819Y-104523809D02*
X122234819Y-104285714D01*
X121234819Y-105190476D02*
X121234819Y-105809523D01*
X121234819Y-105809523D02*
X121615771Y-105476190D01*
X121615771Y-105476190D02*
X121615771Y-105619047D01*
X121615771Y-105619047D02*
X121663390Y-105714285D01*
X121663390Y-105714285D02*
X121711009Y-105761904D01*
X121711009Y-105761904D02*
X121806247Y-105809523D01*
X121806247Y-105809523D02*
X122044342Y-105809523D01*
X122044342Y-105809523D02*
X122139580Y-105761904D01*
X122139580Y-105761904D02*
X122187200Y-105714285D01*
X122187200Y-105714285D02*
X122234819Y-105619047D01*
X122234819Y-105619047D02*
X122234819Y-105333333D01*
X122234819Y-105333333D02*
X122187200Y-105238095D01*
X122187200Y-105238095D02*
X122139580Y-105190476D01*
X122234819Y-106761904D02*
X122234819Y-106190476D01*
X122234819Y-106476190D02*
X121234819Y-106476190D01*
X121234819Y-106476190D02*
X121377676Y-106380952D01*
X121377676Y-106380952D02*
X121472914Y-106285714D01*
X121472914Y-106285714D02*
X121520533Y-106190476D01*
X40984819Y-85611905D02*
X39984819Y-85611905D01*
X39984819Y-85611905D02*
X39984819Y-85850000D01*
X39984819Y-85850000D02*
X40032438Y-85992857D01*
X40032438Y-85992857D02*
X40127676Y-86088095D01*
X40127676Y-86088095D02*
X40222914Y-86135714D01*
X40222914Y-86135714D02*
X40413390Y-86183333D01*
X40413390Y-86183333D02*
X40556247Y-86183333D01*
X40556247Y-86183333D02*
X40746723Y-86135714D01*
X40746723Y-86135714D02*
X40841961Y-86088095D01*
X40841961Y-86088095D02*
X40937200Y-85992857D01*
X40937200Y-85992857D02*
X40984819Y-85850000D01*
X40984819Y-85850000D02*
X40984819Y-85611905D01*
X39984819Y-86516667D02*
X39984819Y-87183333D01*
X39984819Y-87183333D02*
X40984819Y-86754762D01*
X41304819Y-79738095D02*
X40304819Y-79738095D01*
X41304819Y-80309523D02*
X40733390Y-79880952D01*
X40304819Y-80309523D02*
X40876247Y-79738095D01*
X222184819Y-104335714D02*
X221184819Y-104335714D01*
X221184819Y-104335714D02*
X221184819Y-104573809D01*
X221184819Y-104573809D02*
X221232438Y-104716666D01*
X221232438Y-104716666D02*
X221327676Y-104811904D01*
X221327676Y-104811904D02*
X221422914Y-104859523D01*
X221422914Y-104859523D02*
X221613390Y-104907142D01*
X221613390Y-104907142D02*
X221756247Y-104907142D01*
X221756247Y-104907142D02*
X221946723Y-104859523D01*
X221946723Y-104859523D02*
X222041961Y-104811904D01*
X222041961Y-104811904D02*
X222137200Y-104716666D01*
X222137200Y-104716666D02*
X222184819Y-104573809D01*
X222184819Y-104573809D02*
X222184819Y-104335714D01*
X221184819Y-105811904D02*
X221184819Y-105335714D01*
X221184819Y-105335714D02*
X221661009Y-105288095D01*
X221661009Y-105288095D02*
X221613390Y-105335714D01*
X221613390Y-105335714D02*
X221565771Y-105430952D01*
X221565771Y-105430952D02*
X221565771Y-105669047D01*
X221565771Y-105669047D02*
X221613390Y-105764285D01*
X221613390Y-105764285D02*
X221661009Y-105811904D01*
X221661009Y-105811904D02*
X221756247Y-105859523D01*
X221756247Y-105859523D02*
X221994342Y-105859523D01*
X221994342Y-105859523D02*
X222089580Y-105811904D01*
X222089580Y-105811904D02*
X222137200Y-105764285D01*
X222137200Y-105764285D02*
X222184819Y-105669047D01*
X222184819Y-105669047D02*
X222184819Y-105430952D01*
X222184819Y-105430952D02*
X222137200Y-105335714D01*
X222137200Y-105335714D02*
X222089580Y-105288095D01*
X221280057Y-106240476D02*
X221232438Y-106288095D01*
X221232438Y-106288095D02*
X221184819Y-106383333D01*
X221184819Y-106383333D02*
X221184819Y-106621428D01*
X221184819Y-106621428D02*
X221232438Y-106716666D01*
X221232438Y-106716666D02*
X221280057Y-106764285D01*
X221280057Y-106764285D02*
X221375295Y-106811904D01*
X221375295Y-106811904D02*
X221470533Y-106811904D01*
X221470533Y-106811904D02*
X221613390Y-106764285D01*
X221613390Y-106764285D02*
X222184819Y-106192857D01*
X222184819Y-106192857D02*
X222184819Y-106811904D01*
X222504819Y-98938095D02*
X221504819Y-98938095D01*
X222504819Y-99509523D02*
X221933390Y-99080952D01*
X221504819Y-99509523D02*
X222076247Y-98938095D01*
X69784819Y-85611905D02*
X68784819Y-85611905D01*
X68784819Y-85611905D02*
X68784819Y-85850000D01*
X68784819Y-85850000D02*
X68832438Y-85992857D01*
X68832438Y-85992857D02*
X68927676Y-86088095D01*
X68927676Y-86088095D02*
X69022914Y-86135714D01*
X69022914Y-86135714D02*
X69213390Y-86183333D01*
X69213390Y-86183333D02*
X69356247Y-86183333D01*
X69356247Y-86183333D02*
X69546723Y-86135714D01*
X69546723Y-86135714D02*
X69641961Y-86088095D01*
X69641961Y-86088095D02*
X69737200Y-85992857D01*
X69737200Y-85992857D02*
X69784819Y-85850000D01*
X69784819Y-85850000D02*
X69784819Y-85611905D01*
X69213390Y-86754762D02*
X69165771Y-86659524D01*
X69165771Y-86659524D02*
X69118152Y-86611905D01*
X69118152Y-86611905D02*
X69022914Y-86564286D01*
X69022914Y-86564286D02*
X68975295Y-86564286D01*
X68975295Y-86564286D02*
X68880057Y-86611905D01*
X68880057Y-86611905D02*
X68832438Y-86659524D01*
X68832438Y-86659524D02*
X68784819Y-86754762D01*
X68784819Y-86754762D02*
X68784819Y-86945238D01*
X68784819Y-86945238D02*
X68832438Y-87040476D01*
X68832438Y-87040476D02*
X68880057Y-87088095D01*
X68880057Y-87088095D02*
X68975295Y-87135714D01*
X68975295Y-87135714D02*
X69022914Y-87135714D01*
X69022914Y-87135714D02*
X69118152Y-87088095D01*
X69118152Y-87088095D02*
X69165771Y-87040476D01*
X69165771Y-87040476D02*
X69213390Y-86945238D01*
X69213390Y-86945238D02*
X69213390Y-86754762D01*
X69213390Y-86754762D02*
X69261009Y-86659524D01*
X69261009Y-86659524D02*
X69308628Y-86611905D01*
X69308628Y-86611905D02*
X69403866Y-86564286D01*
X69403866Y-86564286D02*
X69594342Y-86564286D01*
X69594342Y-86564286D02*
X69689580Y-86611905D01*
X69689580Y-86611905D02*
X69737200Y-86659524D01*
X69737200Y-86659524D02*
X69784819Y-86754762D01*
X69784819Y-86754762D02*
X69784819Y-86945238D01*
X69784819Y-86945238D02*
X69737200Y-87040476D01*
X69737200Y-87040476D02*
X69689580Y-87088095D01*
X69689580Y-87088095D02*
X69594342Y-87135714D01*
X69594342Y-87135714D02*
X69403866Y-87135714D01*
X69403866Y-87135714D02*
X69308628Y-87088095D01*
X69308628Y-87088095D02*
X69261009Y-87040476D01*
X69261009Y-87040476D02*
X69213390Y-86945238D01*
X70104819Y-79738095D02*
X69104819Y-79738095D01*
X70104819Y-80309523D02*
X69533390Y-79880952D01*
X69104819Y-80309523D02*
X69676247Y-79738095D01*
X36384819Y-142335714D02*
X35384819Y-142335714D01*
X35384819Y-142335714D02*
X35384819Y-142573809D01*
X35384819Y-142573809D02*
X35432438Y-142716666D01*
X35432438Y-142716666D02*
X35527676Y-142811904D01*
X35527676Y-142811904D02*
X35622914Y-142859523D01*
X35622914Y-142859523D02*
X35813390Y-142907142D01*
X35813390Y-142907142D02*
X35956247Y-142907142D01*
X35956247Y-142907142D02*
X36146723Y-142859523D01*
X36146723Y-142859523D02*
X36241961Y-142811904D01*
X36241961Y-142811904D02*
X36337200Y-142716666D01*
X36337200Y-142716666D02*
X36384819Y-142573809D01*
X36384819Y-142573809D02*
X36384819Y-142335714D01*
X36384819Y-143859523D02*
X36384819Y-143288095D01*
X36384819Y-143573809D02*
X35384819Y-143573809D01*
X35384819Y-143573809D02*
X35527676Y-143478571D01*
X35527676Y-143478571D02*
X35622914Y-143383333D01*
X35622914Y-143383333D02*
X35670533Y-143288095D01*
X35384819Y-144764285D02*
X35384819Y-144288095D01*
X35384819Y-144288095D02*
X35861009Y-144240476D01*
X35861009Y-144240476D02*
X35813390Y-144288095D01*
X35813390Y-144288095D02*
X35765771Y-144383333D01*
X35765771Y-144383333D02*
X35765771Y-144621428D01*
X35765771Y-144621428D02*
X35813390Y-144716666D01*
X35813390Y-144716666D02*
X35861009Y-144764285D01*
X35861009Y-144764285D02*
X35956247Y-144811904D01*
X35956247Y-144811904D02*
X36194342Y-144811904D01*
X36194342Y-144811904D02*
X36289580Y-144764285D01*
X36289580Y-144764285D02*
X36337200Y-144716666D01*
X36337200Y-144716666D02*
X36384819Y-144621428D01*
X36384819Y-144621428D02*
X36384819Y-144383333D01*
X36384819Y-144383333D02*
X36337200Y-144288095D01*
X36337200Y-144288095D02*
X36289580Y-144240476D01*
X36704819Y-136938095D02*
X35704819Y-136938095D01*
X36704819Y-137509523D02*
X36133390Y-137080952D01*
X35704819Y-137509523D02*
X36276247Y-136938095D01*
X214984819Y-142335714D02*
X213984819Y-142335714D01*
X213984819Y-142335714D02*
X213984819Y-142573809D01*
X213984819Y-142573809D02*
X214032438Y-142716666D01*
X214032438Y-142716666D02*
X214127676Y-142811904D01*
X214127676Y-142811904D02*
X214222914Y-142859523D01*
X214222914Y-142859523D02*
X214413390Y-142907142D01*
X214413390Y-142907142D02*
X214556247Y-142907142D01*
X214556247Y-142907142D02*
X214746723Y-142859523D01*
X214746723Y-142859523D02*
X214841961Y-142811904D01*
X214841961Y-142811904D02*
X214937200Y-142716666D01*
X214937200Y-142716666D02*
X214984819Y-142573809D01*
X214984819Y-142573809D02*
X214984819Y-142335714D01*
X213984819Y-143764285D02*
X213984819Y-143573809D01*
X213984819Y-143573809D02*
X214032438Y-143478571D01*
X214032438Y-143478571D02*
X214080057Y-143430952D01*
X214080057Y-143430952D02*
X214222914Y-143335714D01*
X214222914Y-143335714D02*
X214413390Y-143288095D01*
X214413390Y-143288095D02*
X214794342Y-143288095D01*
X214794342Y-143288095D02*
X214889580Y-143335714D01*
X214889580Y-143335714D02*
X214937200Y-143383333D01*
X214937200Y-143383333D02*
X214984819Y-143478571D01*
X214984819Y-143478571D02*
X214984819Y-143669047D01*
X214984819Y-143669047D02*
X214937200Y-143764285D01*
X214937200Y-143764285D02*
X214889580Y-143811904D01*
X214889580Y-143811904D02*
X214794342Y-143859523D01*
X214794342Y-143859523D02*
X214556247Y-143859523D01*
X214556247Y-143859523D02*
X214461009Y-143811904D01*
X214461009Y-143811904D02*
X214413390Y-143764285D01*
X214413390Y-143764285D02*
X214365771Y-143669047D01*
X214365771Y-143669047D02*
X214365771Y-143478571D01*
X214365771Y-143478571D02*
X214413390Y-143383333D01*
X214413390Y-143383333D02*
X214461009Y-143335714D01*
X214461009Y-143335714D02*
X214556247Y-143288095D01*
X214318152Y-144716666D02*
X214984819Y-144716666D01*
X213937200Y-144478571D02*
X214651485Y-144240476D01*
X214651485Y-144240476D02*
X214651485Y-144859523D01*
X215304819Y-136938095D02*
X214304819Y-136938095D01*
X215304819Y-137509523D02*
X214733390Y-137080952D01*
X214304819Y-137509523D02*
X214876247Y-136938095D01*
X195984819Y-104335714D02*
X194984819Y-104335714D01*
X194984819Y-104335714D02*
X194984819Y-104573809D01*
X194984819Y-104573809D02*
X195032438Y-104716666D01*
X195032438Y-104716666D02*
X195127676Y-104811904D01*
X195127676Y-104811904D02*
X195222914Y-104859523D01*
X195222914Y-104859523D02*
X195413390Y-104907142D01*
X195413390Y-104907142D02*
X195556247Y-104907142D01*
X195556247Y-104907142D02*
X195746723Y-104859523D01*
X195746723Y-104859523D02*
X195841961Y-104811904D01*
X195841961Y-104811904D02*
X195937200Y-104716666D01*
X195937200Y-104716666D02*
X195984819Y-104573809D01*
X195984819Y-104573809D02*
X195984819Y-104335714D01*
X194984819Y-105811904D02*
X194984819Y-105335714D01*
X194984819Y-105335714D02*
X195461009Y-105288095D01*
X195461009Y-105288095D02*
X195413390Y-105335714D01*
X195413390Y-105335714D02*
X195365771Y-105430952D01*
X195365771Y-105430952D02*
X195365771Y-105669047D01*
X195365771Y-105669047D02*
X195413390Y-105764285D01*
X195413390Y-105764285D02*
X195461009Y-105811904D01*
X195461009Y-105811904D02*
X195556247Y-105859523D01*
X195556247Y-105859523D02*
X195794342Y-105859523D01*
X195794342Y-105859523D02*
X195889580Y-105811904D01*
X195889580Y-105811904D02*
X195937200Y-105764285D01*
X195937200Y-105764285D02*
X195984819Y-105669047D01*
X195984819Y-105669047D02*
X195984819Y-105430952D01*
X195984819Y-105430952D02*
X195937200Y-105335714D01*
X195937200Y-105335714D02*
X195889580Y-105288095D01*
X195984819Y-106811904D02*
X195984819Y-106240476D01*
X195984819Y-106526190D02*
X194984819Y-106526190D01*
X194984819Y-106526190D02*
X195127676Y-106430952D01*
X195127676Y-106430952D02*
X195222914Y-106335714D01*
X195222914Y-106335714D02*
X195270533Y-106240476D01*
X196304819Y-98938095D02*
X195304819Y-98938095D01*
X196304819Y-99509523D02*
X195733390Y-99080952D01*
X195304819Y-99509523D02*
X195876247Y-98938095D01*
X193734819Y-123385714D02*
X192734819Y-123385714D01*
X192734819Y-123385714D02*
X192734819Y-123623809D01*
X192734819Y-123623809D02*
X192782438Y-123766666D01*
X192782438Y-123766666D02*
X192877676Y-123861904D01*
X192877676Y-123861904D02*
X192972914Y-123909523D01*
X192972914Y-123909523D02*
X193163390Y-123957142D01*
X193163390Y-123957142D02*
X193306247Y-123957142D01*
X193306247Y-123957142D02*
X193496723Y-123909523D01*
X193496723Y-123909523D02*
X193591961Y-123861904D01*
X193591961Y-123861904D02*
X193687200Y-123766666D01*
X193687200Y-123766666D02*
X193734819Y-123623809D01*
X193734819Y-123623809D02*
X193734819Y-123385714D01*
X192734819Y-124861904D02*
X192734819Y-124385714D01*
X192734819Y-124385714D02*
X193211009Y-124338095D01*
X193211009Y-124338095D02*
X193163390Y-124385714D01*
X193163390Y-124385714D02*
X193115771Y-124480952D01*
X193115771Y-124480952D02*
X193115771Y-124719047D01*
X193115771Y-124719047D02*
X193163390Y-124814285D01*
X193163390Y-124814285D02*
X193211009Y-124861904D01*
X193211009Y-124861904D02*
X193306247Y-124909523D01*
X193306247Y-124909523D02*
X193544342Y-124909523D01*
X193544342Y-124909523D02*
X193639580Y-124861904D01*
X193639580Y-124861904D02*
X193687200Y-124814285D01*
X193687200Y-124814285D02*
X193734819Y-124719047D01*
X193734819Y-124719047D02*
X193734819Y-124480952D01*
X193734819Y-124480952D02*
X193687200Y-124385714D01*
X193687200Y-124385714D02*
X193639580Y-124338095D01*
X192734819Y-125242857D02*
X192734819Y-125909523D01*
X192734819Y-125909523D02*
X193734819Y-125480952D01*
X194054819Y-117988095D02*
X193054819Y-117988095D01*
X194054819Y-118559523D02*
X193483390Y-118130952D01*
X193054819Y-118559523D02*
X193626247Y-117988095D01*
X298384819Y-104335714D02*
X297384819Y-104335714D01*
X297384819Y-104335714D02*
X297384819Y-104573809D01*
X297384819Y-104573809D02*
X297432438Y-104716666D01*
X297432438Y-104716666D02*
X297527676Y-104811904D01*
X297527676Y-104811904D02*
X297622914Y-104859523D01*
X297622914Y-104859523D02*
X297813390Y-104907142D01*
X297813390Y-104907142D02*
X297956247Y-104907142D01*
X297956247Y-104907142D02*
X298146723Y-104859523D01*
X298146723Y-104859523D02*
X298241961Y-104811904D01*
X298241961Y-104811904D02*
X298337200Y-104716666D01*
X298337200Y-104716666D02*
X298384819Y-104573809D01*
X298384819Y-104573809D02*
X298384819Y-104335714D01*
X297384819Y-105811904D02*
X297384819Y-105335714D01*
X297384819Y-105335714D02*
X297861009Y-105288095D01*
X297861009Y-105288095D02*
X297813390Y-105335714D01*
X297813390Y-105335714D02*
X297765771Y-105430952D01*
X297765771Y-105430952D02*
X297765771Y-105669047D01*
X297765771Y-105669047D02*
X297813390Y-105764285D01*
X297813390Y-105764285D02*
X297861009Y-105811904D01*
X297861009Y-105811904D02*
X297956247Y-105859523D01*
X297956247Y-105859523D02*
X298194342Y-105859523D01*
X298194342Y-105859523D02*
X298289580Y-105811904D01*
X298289580Y-105811904D02*
X298337200Y-105764285D01*
X298337200Y-105764285D02*
X298384819Y-105669047D01*
X298384819Y-105669047D02*
X298384819Y-105430952D01*
X298384819Y-105430952D02*
X298337200Y-105335714D01*
X298337200Y-105335714D02*
X298289580Y-105288095D01*
X297384819Y-106716666D02*
X297384819Y-106526190D01*
X297384819Y-106526190D02*
X297432438Y-106430952D01*
X297432438Y-106430952D02*
X297480057Y-106383333D01*
X297480057Y-106383333D02*
X297622914Y-106288095D01*
X297622914Y-106288095D02*
X297813390Y-106240476D01*
X297813390Y-106240476D02*
X298194342Y-106240476D01*
X298194342Y-106240476D02*
X298289580Y-106288095D01*
X298289580Y-106288095D02*
X298337200Y-106335714D01*
X298337200Y-106335714D02*
X298384819Y-106430952D01*
X298384819Y-106430952D02*
X298384819Y-106621428D01*
X298384819Y-106621428D02*
X298337200Y-106716666D01*
X298337200Y-106716666D02*
X298289580Y-106764285D01*
X298289580Y-106764285D02*
X298194342Y-106811904D01*
X298194342Y-106811904D02*
X297956247Y-106811904D01*
X297956247Y-106811904D02*
X297861009Y-106764285D01*
X297861009Y-106764285D02*
X297813390Y-106716666D01*
X297813390Y-106716666D02*
X297765771Y-106621428D01*
X297765771Y-106621428D02*
X297765771Y-106430952D01*
X297765771Y-106430952D02*
X297813390Y-106335714D01*
X297813390Y-106335714D02*
X297861009Y-106288095D01*
X297861009Y-106288095D02*
X297956247Y-106240476D01*
X298704819Y-98938095D02*
X297704819Y-98938095D01*
X298704819Y-99509523D02*
X298133390Y-99080952D01*
X297704819Y-99509523D02*
X298276247Y-98938095D01*
X231584819Y-123485714D02*
X230584819Y-123485714D01*
X230584819Y-123485714D02*
X230584819Y-123723809D01*
X230584819Y-123723809D02*
X230632438Y-123866666D01*
X230632438Y-123866666D02*
X230727676Y-123961904D01*
X230727676Y-123961904D02*
X230822914Y-124009523D01*
X230822914Y-124009523D02*
X231013390Y-124057142D01*
X231013390Y-124057142D02*
X231156247Y-124057142D01*
X231156247Y-124057142D02*
X231346723Y-124009523D01*
X231346723Y-124009523D02*
X231441961Y-123961904D01*
X231441961Y-123961904D02*
X231537200Y-123866666D01*
X231537200Y-123866666D02*
X231584819Y-123723809D01*
X231584819Y-123723809D02*
X231584819Y-123485714D01*
X230584819Y-124961904D02*
X230584819Y-124485714D01*
X230584819Y-124485714D02*
X231061009Y-124438095D01*
X231061009Y-124438095D02*
X231013390Y-124485714D01*
X231013390Y-124485714D02*
X230965771Y-124580952D01*
X230965771Y-124580952D02*
X230965771Y-124819047D01*
X230965771Y-124819047D02*
X231013390Y-124914285D01*
X231013390Y-124914285D02*
X231061009Y-124961904D01*
X231061009Y-124961904D02*
X231156247Y-125009523D01*
X231156247Y-125009523D02*
X231394342Y-125009523D01*
X231394342Y-125009523D02*
X231489580Y-124961904D01*
X231489580Y-124961904D02*
X231537200Y-124914285D01*
X231537200Y-124914285D02*
X231584819Y-124819047D01*
X231584819Y-124819047D02*
X231584819Y-124580952D01*
X231584819Y-124580952D02*
X231537200Y-124485714D01*
X231537200Y-124485714D02*
X231489580Y-124438095D01*
X231013390Y-125580952D02*
X230965771Y-125485714D01*
X230965771Y-125485714D02*
X230918152Y-125438095D01*
X230918152Y-125438095D02*
X230822914Y-125390476D01*
X230822914Y-125390476D02*
X230775295Y-125390476D01*
X230775295Y-125390476D02*
X230680057Y-125438095D01*
X230680057Y-125438095D02*
X230632438Y-125485714D01*
X230632438Y-125485714D02*
X230584819Y-125580952D01*
X230584819Y-125580952D02*
X230584819Y-125771428D01*
X230584819Y-125771428D02*
X230632438Y-125866666D01*
X230632438Y-125866666D02*
X230680057Y-125914285D01*
X230680057Y-125914285D02*
X230775295Y-125961904D01*
X230775295Y-125961904D02*
X230822914Y-125961904D01*
X230822914Y-125961904D02*
X230918152Y-125914285D01*
X230918152Y-125914285D02*
X230965771Y-125866666D01*
X230965771Y-125866666D02*
X231013390Y-125771428D01*
X231013390Y-125771428D02*
X231013390Y-125580952D01*
X231013390Y-125580952D02*
X231061009Y-125485714D01*
X231061009Y-125485714D02*
X231108628Y-125438095D01*
X231108628Y-125438095D02*
X231203866Y-125390476D01*
X231203866Y-125390476D02*
X231394342Y-125390476D01*
X231394342Y-125390476D02*
X231489580Y-125438095D01*
X231489580Y-125438095D02*
X231537200Y-125485714D01*
X231537200Y-125485714D02*
X231584819Y-125580952D01*
X231584819Y-125580952D02*
X231584819Y-125771428D01*
X231584819Y-125771428D02*
X231537200Y-125866666D01*
X231537200Y-125866666D02*
X231489580Y-125914285D01*
X231489580Y-125914285D02*
X231394342Y-125961904D01*
X231394342Y-125961904D02*
X231203866Y-125961904D01*
X231203866Y-125961904D02*
X231108628Y-125914285D01*
X231108628Y-125914285D02*
X231061009Y-125866666D01*
X231061009Y-125866666D02*
X231013390Y-125771428D01*
X231904819Y-118088095D02*
X230904819Y-118088095D01*
X231904819Y-118659523D02*
X231333390Y-118230952D01*
X230904819Y-118659523D02*
X231476247Y-118088095D01*
X193584819Y-85135714D02*
X192584819Y-85135714D01*
X192584819Y-85135714D02*
X192584819Y-85373809D01*
X192584819Y-85373809D02*
X192632438Y-85516666D01*
X192632438Y-85516666D02*
X192727676Y-85611904D01*
X192727676Y-85611904D02*
X192822914Y-85659523D01*
X192822914Y-85659523D02*
X193013390Y-85707142D01*
X193013390Y-85707142D02*
X193156247Y-85707142D01*
X193156247Y-85707142D02*
X193346723Y-85659523D01*
X193346723Y-85659523D02*
X193441961Y-85611904D01*
X193441961Y-85611904D02*
X193537200Y-85516666D01*
X193537200Y-85516666D02*
X193584819Y-85373809D01*
X193584819Y-85373809D02*
X193584819Y-85135714D01*
X192918152Y-86564285D02*
X193584819Y-86564285D01*
X192537200Y-86326190D02*
X193251485Y-86088095D01*
X193251485Y-86088095D02*
X193251485Y-86707142D01*
X192584819Y-87564285D02*
X192584819Y-87088095D01*
X192584819Y-87088095D02*
X193061009Y-87040476D01*
X193061009Y-87040476D02*
X193013390Y-87088095D01*
X193013390Y-87088095D02*
X192965771Y-87183333D01*
X192965771Y-87183333D02*
X192965771Y-87421428D01*
X192965771Y-87421428D02*
X193013390Y-87516666D01*
X193013390Y-87516666D02*
X193061009Y-87564285D01*
X193061009Y-87564285D02*
X193156247Y-87611904D01*
X193156247Y-87611904D02*
X193394342Y-87611904D01*
X193394342Y-87611904D02*
X193489580Y-87564285D01*
X193489580Y-87564285D02*
X193537200Y-87516666D01*
X193537200Y-87516666D02*
X193584819Y-87421428D01*
X193584819Y-87421428D02*
X193584819Y-87183333D01*
X193584819Y-87183333D02*
X193537200Y-87088095D01*
X193537200Y-87088095D02*
X193489580Y-87040476D01*
X193904819Y-79738095D02*
X192904819Y-79738095D01*
X193904819Y-80309523D02*
X193333390Y-79880952D01*
X192904819Y-80309523D02*
X193476247Y-79738095D01*
X55434819Y-104085714D02*
X54434819Y-104085714D01*
X54434819Y-104085714D02*
X54434819Y-104323809D01*
X54434819Y-104323809D02*
X54482438Y-104466666D01*
X54482438Y-104466666D02*
X54577676Y-104561904D01*
X54577676Y-104561904D02*
X54672914Y-104609523D01*
X54672914Y-104609523D02*
X54863390Y-104657142D01*
X54863390Y-104657142D02*
X55006247Y-104657142D01*
X55006247Y-104657142D02*
X55196723Y-104609523D01*
X55196723Y-104609523D02*
X55291961Y-104561904D01*
X55291961Y-104561904D02*
X55387200Y-104466666D01*
X55387200Y-104466666D02*
X55434819Y-104323809D01*
X55434819Y-104323809D02*
X55434819Y-104085714D01*
X55434819Y-105609523D02*
X55434819Y-105038095D01*
X55434819Y-105323809D02*
X54434819Y-105323809D01*
X54434819Y-105323809D02*
X54577676Y-105228571D01*
X54577676Y-105228571D02*
X54672914Y-105133333D01*
X54672914Y-105133333D02*
X54720533Y-105038095D01*
X54434819Y-106228571D02*
X54434819Y-106323809D01*
X54434819Y-106323809D02*
X54482438Y-106419047D01*
X54482438Y-106419047D02*
X54530057Y-106466666D01*
X54530057Y-106466666D02*
X54625295Y-106514285D01*
X54625295Y-106514285D02*
X54815771Y-106561904D01*
X54815771Y-106561904D02*
X55053866Y-106561904D01*
X55053866Y-106561904D02*
X55244342Y-106514285D01*
X55244342Y-106514285D02*
X55339580Y-106466666D01*
X55339580Y-106466666D02*
X55387200Y-106419047D01*
X55387200Y-106419047D02*
X55434819Y-106323809D01*
X55434819Y-106323809D02*
X55434819Y-106228571D01*
X55434819Y-106228571D02*
X55387200Y-106133333D01*
X55387200Y-106133333D02*
X55339580Y-106085714D01*
X55339580Y-106085714D02*
X55244342Y-106038095D01*
X55244342Y-106038095D02*
X55053866Y-105990476D01*
X55053866Y-105990476D02*
X54815771Y-105990476D01*
X54815771Y-105990476D02*
X54625295Y-106038095D01*
X54625295Y-106038095D02*
X54530057Y-106085714D01*
X54530057Y-106085714D02*
X54482438Y-106133333D01*
X54482438Y-106133333D02*
X54434819Y-106228571D01*
X55754819Y-98688095D02*
X54754819Y-98688095D01*
X55754819Y-99259523D02*
X55183390Y-98830952D01*
X54754819Y-99259523D02*
X55326247Y-98688095D01*
X102984819Y-123335714D02*
X101984819Y-123335714D01*
X101984819Y-123335714D02*
X101984819Y-123573809D01*
X101984819Y-123573809D02*
X102032438Y-123716666D01*
X102032438Y-123716666D02*
X102127676Y-123811904D01*
X102127676Y-123811904D02*
X102222914Y-123859523D01*
X102222914Y-123859523D02*
X102413390Y-123907142D01*
X102413390Y-123907142D02*
X102556247Y-123907142D01*
X102556247Y-123907142D02*
X102746723Y-123859523D01*
X102746723Y-123859523D02*
X102841961Y-123811904D01*
X102841961Y-123811904D02*
X102937200Y-123716666D01*
X102937200Y-123716666D02*
X102984819Y-123573809D01*
X102984819Y-123573809D02*
X102984819Y-123335714D01*
X101984819Y-124240476D02*
X101984819Y-124859523D01*
X101984819Y-124859523D02*
X102365771Y-124526190D01*
X102365771Y-124526190D02*
X102365771Y-124669047D01*
X102365771Y-124669047D02*
X102413390Y-124764285D01*
X102413390Y-124764285D02*
X102461009Y-124811904D01*
X102461009Y-124811904D02*
X102556247Y-124859523D01*
X102556247Y-124859523D02*
X102794342Y-124859523D01*
X102794342Y-124859523D02*
X102889580Y-124811904D01*
X102889580Y-124811904D02*
X102937200Y-124764285D01*
X102937200Y-124764285D02*
X102984819Y-124669047D01*
X102984819Y-124669047D02*
X102984819Y-124383333D01*
X102984819Y-124383333D02*
X102937200Y-124288095D01*
X102937200Y-124288095D02*
X102889580Y-124240476D01*
X102318152Y-125716666D02*
X102984819Y-125716666D01*
X101937200Y-125478571D02*
X102651485Y-125240476D01*
X102651485Y-125240476D02*
X102651485Y-125859523D01*
X55434819Y-142335714D02*
X54434819Y-142335714D01*
X54434819Y-142335714D02*
X54434819Y-142573809D01*
X54434819Y-142573809D02*
X54482438Y-142716666D01*
X54482438Y-142716666D02*
X54577676Y-142811904D01*
X54577676Y-142811904D02*
X54672914Y-142859523D01*
X54672914Y-142859523D02*
X54863390Y-142907142D01*
X54863390Y-142907142D02*
X55006247Y-142907142D01*
X55006247Y-142907142D02*
X55196723Y-142859523D01*
X55196723Y-142859523D02*
X55291961Y-142811904D01*
X55291961Y-142811904D02*
X55387200Y-142716666D01*
X55387200Y-142716666D02*
X55434819Y-142573809D01*
X55434819Y-142573809D02*
X55434819Y-142335714D01*
X55434819Y-143859523D02*
X55434819Y-143288095D01*
X55434819Y-143573809D02*
X54434819Y-143573809D01*
X54434819Y-143573809D02*
X54577676Y-143478571D01*
X54577676Y-143478571D02*
X54672914Y-143383333D01*
X54672914Y-143383333D02*
X54720533Y-143288095D01*
X54434819Y-144716666D02*
X54434819Y-144526190D01*
X54434819Y-144526190D02*
X54482438Y-144430952D01*
X54482438Y-144430952D02*
X54530057Y-144383333D01*
X54530057Y-144383333D02*
X54672914Y-144288095D01*
X54672914Y-144288095D02*
X54863390Y-144240476D01*
X54863390Y-144240476D02*
X55244342Y-144240476D01*
X55244342Y-144240476D02*
X55339580Y-144288095D01*
X55339580Y-144288095D02*
X55387200Y-144335714D01*
X55387200Y-144335714D02*
X55434819Y-144430952D01*
X55434819Y-144430952D02*
X55434819Y-144621428D01*
X55434819Y-144621428D02*
X55387200Y-144716666D01*
X55387200Y-144716666D02*
X55339580Y-144764285D01*
X55339580Y-144764285D02*
X55244342Y-144811904D01*
X55244342Y-144811904D02*
X55006247Y-144811904D01*
X55006247Y-144811904D02*
X54911009Y-144764285D01*
X54911009Y-144764285D02*
X54863390Y-144716666D01*
X54863390Y-144716666D02*
X54815771Y-144621428D01*
X54815771Y-144621428D02*
X54815771Y-144430952D01*
X54815771Y-144430952D02*
X54863390Y-144335714D01*
X54863390Y-144335714D02*
X54911009Y-144288095D01*
X54911009Y-144288095D02*
X55006247Y-144240476D01*
X55754819Y-136938095D02*
X54754819Y-136938095D01*
X55754819Y-137509523D02*
X55183390Y-137080952D01*
X54754819Y-137509523D02*
X55326247Y-136938095D01*
X141234819Y-123335714D02*
X140234819Y-123335714D01*
X140234819Y-123335714D02*
X140234819Y-123573809D01*
X140234819Y-123573809D02*
X140282438Y-123716666D01*
X140282438Y-123716666D02*
X140377676Y-123811904D01*
X140377676Y-123811904D02*
X140472914Y-123859523D01*
X140472914Y-123859523D02*
X140663390Y-123907142D01*
X140663390Y-123907142D02*
X140806247Y-123907142D01*
X140806247Y-123907142D02*
X140996723Y-123859523D01*
X140996723Y-123859523D02*
X141091961Y-123811904D01*
X141091961Y-123811904D02*
X141187200Y-123716666D01*
X141187200Y-123716666D02*
X141234819Y-123573809D01*
X141234819Y-123573809D02*
X141234819Y-123335714D01*
X140234819Y-124240476D02*
X140234819Y-124859523D01*
X140234819Y-124859523D02*
X140615771Y-124526190D01*
X140615771Y-124526190D02*
X140615771Y-124669047D01*
X140615771Y-124669047D02*
X140663390Y-124764285D01*
X140663390Y-124764285D02*
X140711009Y-124811904D01*
X140711009Y-124811904D02*
X140806247Y-124859523D01*
X140806247Y-124859523D02*
X141044342Y-124859523D01*
X141044342Y-124859523D02*
X141139580Y-124811904D01*
X141139580Y-124811904D02*
X141187200Y-124764285D01*
X141187200Y-124764285D02*
X141234819Y-124669047D01*
X141234819Y-124669047D02*
X141234819Y-124383333D01*
X141234819Y-124383333D02*
X141187200Y-124288095D01*
X141187200Y-124288095D02*
X141139580Y-124240476D01*
X140234819Y-125716666D02*
X140234819Y-125526190D01*
X140234819Y-125526190D02*
X140282438Y-125430952D01*
X140282438Y-125430952D02*
X140330057Y-125383333D01*
X140330057Y-125383333D02*
X140472914Y-125288095D01*
X140472914Y-125288095D02*
X140663390Y-125240476D01*
X140663390Y-125240476D02*
X141044342Y-125240476D01*
X141044342Y-125240476D02*
X141139580Y-125288095D01*
X141139580Y-125288095D02*
X141187200Y-125335714D01*
X141187200Y-125335714D02*
X141234819Y-125430952D01*
X141234819Y-125430952D02*
X141234819Y-125621428D01*
X141234819Y-125621428D02*
X141187200Y-125716666D01*
X141187200Y-125716666D02*
X141139580Y-125764285D01*
X141139580Y-125764285D02*
X141044342Y-125811904D01*
X141044342Y-125811904D02*
X140806247Y-125811904D01*
X140806247Y-125811904D02*
X140711009Y-125764285D01*
X140711009Y-125764285D02*
X140663390Y-125716666D01*
X140663390Y-125716666D02*
X140615771Y-125621428D01*
X140615771Y-125621428D02*
X140615771Y-125430952D01*
X140615771Y-125430952D02*
X140663390Y-125335714D01*
X140663390Y-125335714D02*
X140711009Y-125288095D01*
X140711009Y-125288095D02*
X140806247Y-125240476D01*
X141554819Y-117938095D02*
X140554819Y-117938095D01*
X141554819Y-118509523D02*
X140983390Y-118080952D01*
X140554819Y-118509523D02*
X141126247Y-117938095D01*
X103184819Y-59835714D02*
X102184819Y-59835714D01*
X102184819Y-59835714D02*
X102184819Y-60073809D01*
X102184819Y-60073809D02*
X102232438Y-60216666D01*
X102232438Y-60216666D02*
X102327676Y-60311904D01*
X102327676Y-60311904D02*
X102422914Y-60359523D01*
X102422914Y-60359523D02*
X102613390Y-60407142D01*
X102613390Y-60407142D02*
X102756247Y-60407142D01*
X102756247Y-60407142D02*
X102946723Y-60359523D01*
X102946723Y-60359523D02*
X103041961Y-60311904D01*
X103041961Y-60311904D02*
X103137200Y-60216666D01*
X103137200Y-60216666D02*
X103184819Y-60073809D01*
X103184819Y-60073809D02*
X103184819Y-59835714D01*
X102280057Y-60788095D02*
X102232438Y-60835714D01*
X102232438Y-60835714D02*
X102184819Y-60930952D01*
X102184819Y-60930952D02*
X102184819Y-61169047D01*
X102184819Y-61169047D02*
X102232438Y-61264285D01*
X102232438Y-61264285D02*
X102280057Y-61311904D01*
X102280057Y-61311904D02*
X102375295Y-61359523D01*
X102375295Y-61359523D02*
X102470533Y-61359523D01*
X102470533Y-61359523D02*
X102613390Y-61311904D01*
X102613390Y-61311904D02*
X103184819Y-60740476D01*
X103184819Y-60740476D02*
X103184819Y-61359523D01*
X102280057Y-61740476D02*
X102232438Y-61788095D01*
X102232438Y-61788095D02*
X102184819Y-61883333D01*
X102184819Y-61883333D02*
X102184819Y-62121428D01*
X102184819Y-62121428D02*
X102232438Y-62216666D01*
X102232438Y-62216666D02*
X102280057Y-62264285D01*
X102280057Y-62264285D02*
X102375295Y-62311904D01*
X102375295Y-62311904D02*
X102470533Y-62311904D01*
X102470533Y-62311904D02*
X102613390Y-62264285D01*
X102613390Y-62264285D02*
X103184819Y-61692857D01*
X103184819Y-61692857D02*
X103184819Y-62311904D01*
X36384819Y-41711905D02*
X35384819Y-41711905D01*
X35384819Y-41711905D02*
X35384819Y-41950000D01*
X35384819Y-41950000D02*
X35432438Y-42092857D01*
X35432438Y-42092857D02*
X35527676Y-42188095D01*
X35527676Y-42188095D02*
X35622914Y-42235714D01*
X35622914Y-42235714D02*
X35813390Y-42283333D01*
X35813390Y-42283333D02*
X35956247Y-42283333D01*
X35956247Y-42283333D02*
X36146723Y-42235714D01*
X36146723Y-42235714D02*
X36241961Y-42188095D01*
X36241961Y-42188095D02*
X36337200Y-42092857D01*
X36337200Y-42092857D02*
X36384819Y-41950000D01*
X36384819Y-41950000D02*
X36384819Y-41711905D01*
X36384819Y-43235714D02*
X36384819Y-42664286D01*
X36384819Y-42950000D02*
X35384819Y-42950000D01*
X35384819Y-42950000D02*
X35527676Y-42854762D01*
X35527676Y-42854762D02*
X35622914Y-42759524D01*
X35622914Y-42759524D02*
X35670533Y-42664286D01*
X288734819Y-123485714D02*
X287734819Y-123485714D01*
X287734819Y-123485714D02*
X287734819Y-123723809D01*
X287734819Y-123723809D02*
X287782438Y-123866666D01*
X287782438Y-123866666D02*
X287877676Y-123961904D01*
X287877676Y-123961904D02*
X287972914Y-124009523D01*
X287972914Y-124009523D02*
X288163390Y-124057142D01*
X288163390Y-124057142D02*
X288306247Y-124057142D01*
X288306247Y-124057142D02*
X288496723Y-124009523D01*
X288496723Y-124009523D02*
X288591961Y-123961904D01*
X288591961Y-123961904D02*
X288687200Y-123866666D01*
X288687200Y-123866666D02*
X288734819Y-123723809D01*
X288734819Y-123723809D02*
X288734819Y-123485714D01*
X287734819Y-124914285D02*
X287734819Y-124723809D01*
X287734819Y-124723809D02*
X287782438Y-124628571D01*
X287782438Y-124628571D02*
X287830057Y-124580952D01*
X287830057Y-124580952D02*
X287972914Y-124485714D01*
X287972914Y-124485714D02*
X288163390Y-124438095D01*
X288163390Y-124438095D02*
X288544342Y-124438095D01*
X288544342Y-124438095D02*
X288639580Y-124485714D01*
X288639580Y-124485714D02*
X288687200Y-124533333D01*
X288687200Y-124533333D02*
X288734819Y-124628571D01*
X288734819Y-124628571D02*
X288734819Y-124819047D01*
X288734819Y-124819047D02*
X288687200Y-124914285D01*
X288687200Y-124914285D02*
X288639580Y-124961904D01*
X288639580Y-124961904D02*
X288544342Y-125009523D01*
X288544342Y-125009523D02*
X288306247Y-125009523D01*
X288306247Y-125009523D02*
X288211009Y-124961904D01*
X288211009Y-124961904D02*
X288163390Y-124914285D01*
X288163390Y-124914285D02*
X288115771Y-124819047D01*
X288115771Y-124819047D02*
X288115771Y-124628571D01*
X288115771Y-124628571D02*
X288163390Y-124533333D01*
X288163390Y-124533333D02*
X288211009Y-124485714D01*
X288211009Y-124485714D02*
X288306247Y-124438095D01*
X288734819Y-125961904D02*
X288734819Y-125390476D01*
X288734819Y-125676190D02*
X287734819Y-125676190D01*
X287734819Y-125676190D02*
X287877676Y-125580952D01*
X287877676Y-125580952D02*
X287972914Y-125485714D01*
X287972914Y-125485714D02*
X288020533Y-125390476D01*
X289054819Y-118088095D02*
X288054819Y-118088095D01*
X289054819Y-118659523D02*
X288483390Y-118230952D01*
X288054819Y-118659523D02*
X288626247Y-118088095D01*
X217384819Y-85135714D02*
X216384819Y-85135714D01*
X216384819Y-85135714D02*
X216384819Y-85373809D01*
X216384819Y-85373809D02*
X216432438Y-85516666D01*
X216432438Y-85516666D02*
X216527676Y-85611904D01*
X216527676Y-85611904D02*
X216622914Y-85659523D01*
X216622914Y-85659523D02*
X216813390Y-85707142D01*
X216813390Y-85707142D02*
X216956247Y-85707142D01*
X216956247Y-85707142D02*
X217146723Y-85659523D01*
X217146723Y-85659523D02*
X217241961Y-85611904D01*
X217241961Y-85611904D02*
X217337200Y-85516666D01*
X217337200Y-85516666D02*
X217384819Y-85373809D01*
X217384819Y-85373809D02*
X217384819Y-85135714D01*
X216718152Y-86564285D02*
X217384819Y-86564285D01*
X216337200Y-86326190D02*
X217051485Y-86088095D01*
X217051485Y-86088095D02*
X217051485Y-86707142D01*
X216384819Y-87516666D02*
X216384819Y-87326190D01*
X216384819Y-87326190D02*
X216432438Y-87230952D01*
X216432438Y-87230952D02*
X216480057Y-87183333D01*
X216480057Y-87183333D02*
X216622914Y-87088095D01*
X216622914Y-87088095D02*
X216813390Y-87040476D01*
X216813390Y-87040476D02*
X217194342Y-87040476D01*
X217194342Y-87040476D02*
X217289580Y-87088095D01*
X217289580Y-87088095D02*
X217337200Y-87135714D01*
X217337200Y-87135714D02*
X217384819Y-87230952D01*
X217384819Y-87230952D02*
X217384819Y-87421428D01*
X217384819Y-87421428D02*
X217337200Y-87516666D01*
X217337200Y-87516666D02*
X217289580Y-87564285D01*
X217289580Y-87564285D02*
X217194342Y-87611904D01*
X217194342Y-87611904D02*
X216956247Y-87611904D01*
X216956247Y-87611904D02*
X216861009Y-87564285D01*
X216861009Y-87564285D02*
X216813390Y-87516666D01*
X216813390Y-87516666D02*
X216765771Y-87421428D01*
X216765771Y-87421428D02*
X216765771Y-87230952D01*
X216765771Y-87230952D02*
X216813390Y-87135714D01*
X216813390Y-87135714D02*
X216861009Y-87088095D01*
X216861009Y-87088095D02*
X216956247Y-87040476D01*
X217704819Y-79738095D02*
X216704819Y-79738095D01*
X217704819Y-80309523D02*
X217133390Y-79880952D01*
X216704819Y-80309523D02*
X217276247Y-79738095D01*
X103184819Y-104285714D02*
X102184819Y-104285714D01*
X102184819Y-104285714D02*
X102184819Y-104523809D01*
X102184819Y-104523809D02*
X102232438Y-104666666D01*
X102232438Y-104666666D02*
X102327676Y-104761904D01*
X102327676Y-104761904D02*
X102422914Y-104809523D01*
X102422914Y-104809523D02*
X102613390Y-104857142D01*
X102613390Y-104857142D02*
X102756247Y-104857142D01*
X102756247Y-104857142D02*
X102946723Y-104809523D01*
X102946723Y-104809523D02*
X103041961Y-104761904D01*
X103041961Y-104761904D02*
X103137200Y-104666666D01*
X103137200Y-104666666D02*
X103184819Y-104523809D01*
X103184819Y-104523809D02*
X103184819Y-104285714D01*
X102184819Y-105190476D02*
X102184819Y-105809523D01*
X102184819Y-105809523D02*
X102565771Y-105476190D01*
X102565771Y-105476190D02*
X102565771Y-105619047D01*
X102565771Y-105619047D02*
X102613390Y-105714285D01*
X102613390Y-105714285D02*
X102661009Y-105761904D01*
X102661009Y-105761904D02*
X102756247Y-105809523D01*
X102756247Y-105809523D02*
X102994342Y-105809523D01*
X102994342Y-105809523D02*
X103089580Y-105761904D01*
X103089580Y-105761904D02*
X103137200Y-105714285D01*
X103137200Y-105714285D02*
X103184819Y-105619047D01*
X103184819Y-105619047D02*
X103184819Y-105333333D01*
X103184819Y-105333333D02*
X103137200Y-105238095D01*
X103137200Y-105238095D02*
X103089580Y-105190476D01*
X102184819Y-106428571D02*
X102184819Y-106523809D01*
X102184819Y-106523809D02*
X102232438Y-106619047D01*
X102232438Y-106619047D02*
X102280057Y-106666666D01*
X102280057Y-106666666D02*
X102375295Y-106714285D01*
X102375295Y-106714285D02*
X102565771Y-106761904D01*
X102565771Y-106761904D02*
X102803866Y-106761904D01*
X102803866Y-106761904D02*
X102994342Y-106714285D01*
X102994342Y-106714285D02*
X103089580Y-106666666D01*
X103089580Y-106666666D02*
X103137200Y-106619047D01*
X103137200Y-106619047D02*
X103184819Y-106523809D01*
X103184819Y-106523809D02*
X103184819Y-106428571D01*
X103184819Y-106428571D02*
X103137200Y-106333333D01*
X103137200Y-106333333D02*
X103089580Y-106285714D01*
X103089580Y-106285714D02*
X102994342Y-106238095D01*
X102994342Y-106238095D02*
X102803866Y-106190476D01*
X102803866Y-106190476D02*
X102565771Y-106190476D01*
X102565771Y-106190476D02*
X102375295Y-106238095D01*
X102375295Y-106238095D02*
X102280057Y-106285714D01*
X102280057Y-106285714D02*
X102232438Y-106333333D01*
X102232438Y-106333333D02*
X102184819Y-106428571D01*
X160334819Y-41085714D02*
X159334819Y-41085714D01*
X159334819Y-41085714D02*
X159334819Y-41323809D01*
X159334819Y-41323809D02*
X159382438Y-41466666D01*
X159382438Y-41466666D02*
X159477676Y-41561904D01*
X159477676Y-41561904D02*
X159572914Y-41609523D01*
X159572914Y-41609523D02*
X159763390Y-41657142D01*
X159763390Y-41657142D02*
X159906247Y-41657142D01*
X159906247Y-41657142D02*
X160096723Y-41609523D01*
X160096723Y-41609523D02*
X160191961Y-41561904D01*
X160191961Y-41561904D02*
X160287200Y-41466666D01*
X160287200Y-41466666D02*
X160334819Y-41323809D01*
X160334819Y-41323809D02*
X160334819Y-41085714D01*
X159430057Y-42038095D02*
X159382438Y-42085714D01*
X159382438Y-42085714D02*
X159334819Y-42180952D01*
X159334819Y-42180952D02*
X159334819Y-42419047D01*
X159334819Y-42419047D02*
X159382438Y-42514285D01*
X159382438Y-42514285D02*
X159430057Y-42561904D01*
X159430057Y-42561904D02*
X159525295Y-42609523D01*
X159525295Y-42609523D02*
X159620533Y-42609523D01*
X159620533Y-42609523D02*
X159763390Y-42561904D01*
X159763390Y-42561904D02*
X160334819Y-41990476D01*
X160334819Y-41990476D02*
X160334819Y-42609523D01*
X160334819Y-43561904D02*
X160334819Y-42990476D01*
X160334819Y-43276190D02*
X159334819Y-43276190D01*
X159334819Y-43276190D02*
X159477676Y-43180952D01*
X159477676Y-43180952D02*
X159572914Y-43085714D01*
X159572914Y-43085714D02*
X159620533Y-42990476D01*
X74484819Y-104085714D02*
X73484819Y-104085714D01*
X73484819Y-104085714D02*
X73484819Y-104323809D01*
X73484819Y-104323809D02*
X73532438Y-104466666D01*
X73532438Y-104466666D02*
X73627676Y-104561904D01*
X73627676Y-104561904D02*
X73722914Y-104609523D01*
X73722914Y-104609523D02*
X73913390Y-104657142D01*
X73913390Y-104657142D02*
X74056247Y-104657142D01*
X74056247Y-104657142D02*
X74246723Y-104609523D01*
X74246723Y-104609523D02*
X74341961Y-104561904D01*
X74341961Y-104561904D02*
X74437200Y-104466666D01*
X74437200Y-104466666D02*
X74484819Y-104323809D01*
X74484819Y-104323809D02*
X74484819Y-104085714D01*
X74484819Y-105609523D02*
X74484819Y-105038095D01*
X74484819Y-105323809D02*
X73484819Y-105323809D01*
X73484819Y-105323809D02*
X73627676Y-105228571D01*
X73627676Y-105228571D02*
X73722914Y-105133333D01*
X73722914Y-105133333D02*
X73770533Y-105038095D01*
X74484819Y-106561904D02*
X74484819Y-105990476D01*
X74484819Y-106276190D02*
X73484819Y-106276190D01*
X73484819Y-106276190D02*
X73627676Y-106180952D01*
X73627676Y-106180952D02*
X73722914Y-106085714D01*
X73722914Y-106085714D02*
X73770533Y-105990476D01*
X74804819Y-98688095D02*
X73804819Y-98688095D01*
X74804819Y-99259523D02*
X74233390Y-98830952D01*
X73804819Y-99259523D02*
X74376247Y-98688095D01*
X250634819Y-123485714D02*
X249634819Y-123485714D01*
X249634819Y-123485714D02*
X249634819Y-123723809D01*
X249634819Y-123723809D02*
X249682438Y-123866666D01*
X249682438Y-123866666D02*
X249777676Y-123961904D01*
X249777676Y-123961904D02*
X249872914Y-124009523D01*
X249872914Y-124009523D02*
X250063390Y-124057142D01*
X250063390Y-124057142D02*
X250206247Y-124057142D01*
X250206247Y-124057142D02*
X250396723Y-124009523D01*
X250396723Y-124009523D02*
X250491961Y-123961904D01*
X250491961Y-123961904D02*
X250587200Y-123866666D01*
X250587200Y-123866666D02*
X250634819Y-123723809D01*
X250634819Y-123723809D02*
X250634819Y-123485714D01*
X249634819Y-124961904D02*
X249634819Y-124485714D01*
X249634819Y-124485714D02*
X250111009Y-124438095D01*
X250111009Y-124438095D02*
X250063390Y-124485714D01*
X250063390Y-124485714D02*
X250015771Y-124580952D01*
X250015771Y-124580952D02*
X250015771Y-124819047D01*
X250015771Y-124819047D02*
X250063390Y-124914285D01*
X250063390Y-124914285D02*
X250111009Y-124961904D01*
X250111009Y-124961904D02*
X250206247Y-125009523D01*
X250206247Y-125009523D02*
X250444342Y-125009523D01*
X250444342Y-125009523D02*
X250539580Y-124961904D01*
X250539580Y-124961904D02*
X250587200Y-124914285D01*
X250587200Y-124914285D02*
X250634819Y-124819047D01*
X250634819Y-124819047D02*
X250634819Y-124580952D01*
X250634819Y-124580952D02*
X250587200Y-124485714D01*
X250587200Y-124485714D02*
X250539580Y-124438095D01*
X250634819Y-125485714D02*
X250634819Y-125676190D01*
X250634819Y-125676190D02*
X250587200Y-125771428D01*
X250587200Y-125771428D02*
X250539580Y-125819047D01*
X250539580Y-125819047D02*
X250396723Y-125914285D01*
X250396723Y-125914285D02*
X250206247Y-125961904D01*
X250206247Y-125961904D02*
X249825295Y-125961904D01*
X249825295Y-125961904D02*
X249730057Y-125914285D01*
X249730057Y-125914285D02*
X249682438Y-125866666D01*
X249682438Y-125866666D02*
X249634819Y-125771428D01*
X249634819Y-125771428D02*
X249634819Y-125580952D01*
X249634819Y-125580952D02*
X249682438Y-125485714D01*
X249682438Y-125485714D02*
X249730057Y-125438095D01*
X249730057Y-125438095D02*
X249825295Y-125390476D01*
X249825295Y-125390476D02*
X250063390Y-125390476D01*
X250063390Y-125390476D02*
X250158628Y-125438095D01*
X250158628Y-125438095D02*
X250206247Y-125485714D01*
X250206247Y-125485714D02*
X250253866Y-125580952D01*
X250253866Y-125580952D02*
X250253866Y-125771428D01*
X250253866Y-125771428D02*
X250206247Y-125866666D01*
X250206247Y-125866666D02*
X250158628Y-125914285D01*
X250158628Y-125914285D02*
X250063390Y-125961904D01*
X250954819Y-118088095D02*
X249954819Y-118088095D01*
X250954819Y-118659523D02*
X250383390Y-118230952D01*
X249954819Y-118659523D02*
X250526247Y-118088095D01*
X103184819Y-85135714D02*
X102184819Y-85135714D01*
X102184819Y-85135714D02*
X102184819Y-85373809D01*
X102184819Y-85373809D02*
X102232438Y-85516666D01*
X102232438Y-85516666D02*
X102327676Y-85611904D01*
X102327676Y-85611904D02*
X102422914Y-85659523D01*
X102422914Y-85659523D02*
X102613390Y-85707142D01*
X102613390Y-85707142D02*
X102756247Y-85707142D01*
X102756247Y-85707142D02*
X102946723Y-85659523D01*
X102946723Y-85659523D02*
X103041961Y-85611904D01*
X103041961Y-85611904D02*
X103137200Y-85516666D01*
X103137200Y-85516666D02*
X103184819Y-85373809D01*
X103184819Y-85373809D02*
X103184819Y-85135714D01*
X102280057Y-86088095D02*
X102232438Y-86135714D01*
X102232438Y-86135714D02*
X102184819Y-86230952D01*
X102184819Y-86230952D02*
X102184819Y-86469047D01*
X102184819Y-86469047D02*
X102232438Y-86564285D01*
X102232438Y-86564285D02*
X102280057Y-86611904D01*
X102280057Y-86611904D02*
X102375295Y-86659523D01*
X102375295Y-86659523D02*
X102470533Y-86659523D01*
X102470533Y-86659523D02*
X102613390Y-86611904D01*
X102613390Y-86611904D02*
X103184819Y-86040476D01*
X103184819Y-86040476D02*
X103184819Y-86659523D01*
X102184819Y-87516666D02*
X102184819Y-87326190D01*
X102184819Y-87326190D02*
X102232438Y-87230952D01*
X102232438Y-87230952D02*
X102280057Y-87183333D01*
X102280057Y-87183333D02*
X102422914Y-87088095D01*
X102422914Y-87088095D02*
X102613390Y-87040476D01*
X102613390Y-87040476D02*
X102994342Y-87040476D01*
X102994342Y-87040476D02*
X103089580Y-87088095D01*
X103089580Y-87088095D02*
X103137200Y-87135714D01*
X103137200Y-87135714D02*
X103184819Y-87230952D01*
X103184819Y-87230952D02*
X103184819Y-87421428D01*
X103184819Y-87421428D02*
X103137200Y-87516666D01*
X103137200Y-87516666D02*
X103089580Y-87564285D01*
X103089580Y-87564285D02*
X102994342Y-87611904D01*
X102994342Y-87611904D02*
X102756247Y-87611904D01*
X102756247Y-87611904D02*
X102661009Y-87564285D01*
X102661009Y-87564285D02*
X102613390Y-87516666D01*
X102613390Y-87516666D02*
X102565771Y-87421428D01*
X102565771Y-87421428D02*
X102565771Y-87230952D01*
X102565771Y-87230952D02*
X102613390Y-87135714D01*
X102613390Y-87135714D02*
X102661009Y-87088095D01*
X102661009Y-87088095D02*
X102756247Y-87040476D01*
X191184819Y-142485714D02*
X190184819Y-142485714D01*
X190184819Y-142485714D02*
X190184819Y-142723809D01*
X190184819Y-142723809D02*
X190232438Y-142866666D01*
X190232438Y-142866666D02*
X190327676Y-142961904D01*
X190327676Y-142961904D02*
X190422914Y-143009523D01*
X190422914Y-143009523D02*
X190613390Y-143057142D01*
X190613390Y-143057142D02*
X190756247Y-143057142D01*
X190756247Y-143057142D02*
X190946723Y-143009523D01*
X190946723Y-143009523D02*
X191041961Y-142961904D01*
X191041961Y-142961904D02*
X191137200Y-142866666D01*
X191137200Y-142866666D02*
X191184819Y-142723809D01*
X191184819Y-142723809D02*
X191184819Y-142485714D01*
X190184819Y-143914285D02*
X190184819Y-143723809D01*
X190184819Y-143723809D02*
X190232438Y-143628571D01*
X190232438Y-143628571D02*
X190280057Y-143580952D01*
X190280057Y-143580952D02*
X190422914Y-143485714D01*
X190422914Y-143485714D02*
X190613390Y-143438095D01*
X190613390Y-143438095D02*
X190994342Y-143438095D01*
X190994342Y-143438095D02*
X191089580Y-143485714D01*
X191089580Y-143485714D02*
X191137200Y-143533333D01*
X191137200Y-143533333D02*
X191184819Y-143628571D01*
X191184819Y-143628571D02*
X191184819Y-143819047D01*
X191184819Y-143819047D02*
X191137200Y-143914285D01*
X191137200Y-143914285D02*
X191089580Y-143961904D01*
X191089580Y-143961904D02*
X190994342Y-144009523D01*
X190994342Y-144009523D02*
X190756247Y-144009523D01*
X190756247Y-144009523D02*
X190661009Y-143961904D01*
X190661009Y-143961904D02*
X190613390Y-143914285D01*
X190613390Y-143914285D02*
X190565771Y-143819047D01*
X190565771Y-143819047D02*
X190565771Y-143628571D01*
X190565771Y-143628571D02*
X190613390Y-143533333D01*
X190613390Y-143533333D02*
X190661009Y-143485714D01*
X190661009Y-143485714D02*
X190756247Y-143438095D01*
X190184819Y-144342857D02*
X190184819Y-144961904D01*
X190184819Y-144961904D02*
X190565771Y-144628571D01*
X190565771Y-144628571D02*
X190565771Y-144771428D01*
X190565771Y-144771428D02*
X190613390Y-144866666D01*
X190613390Y-144866666D02*
X190661009Y-144914285D01*
X190661009Y-144914285D02*
X190756247Y-144961904D01*
X190756247Y-144961904D02*
X190994342Y-144961904D01*
X190994342Y-144961904D02*
X191089580Y-144914285D01*
X191089580Y-144914285D02*
X191137200Y-144866666D01*
X191137200Y-144866666D02*
X191184819Y-144771428D01*
X191184819Y-144771428D02*
X191184819Y-144485714D01*
X191184819Y-144485714D02*
X191137200Y-144390476D01*
X191137200Y-144390476D02*
X191089580Y-144342857D01*
X191504819Y-137088095D02*
X190504819Y-137088095D01*
X191504819Y-137659523D02*
X190933390Y-137230952D01*
X190504819Y-137659523D02*
X191076247Y-137088095D01*
X103134819Y-141535714D02*
X102134819Y-141535714D01*
X102134819Y-141535714D02*
X102134819Y-141773809D01*
X102134819Y-141773809D02*
X102182438Y-141916666D01*
X102182438Y-141916666D02*
X102277676Y-142011904D01*
X102277676Y-142011904D02*
X102372914Y-142059523D01*
X102372914Y-142059523D02*
X102563390Y-142107142D01*
X102563390Y-142107142D02*
X102706247Y-142107142D01*
X102706247Y-142107142D02*
X102896723Y-142059523D01*
X102896723Y-142059523D02*
X102991961Y-142011904D01*
X102991961Y-142011904D02*
X103087200Y-141916666D01*
X103087200Y-141916666D02*
X103134819Y-141773809D01*
X103134819Y-141773809D02*
X103134819Y-141535714D01*
X102134819Y-142440476D02*
X102134819Y-143059523D01*
X102134819Y-143059523D02*
X102515771Y-142726190D01*
X102515771Y-142726190D02*
X102515771Y-142869047D01*
X102515771Y-142869047D02*
X102563390Y-142964285D01*
X102563390Y-142964285D02*
X102611009Y-143011904D01*
X102611009Y-143011904D02*
X102706247Y-143059523D01*
X102706247Y-143059523D02*
X102944342Y-143059523D01*
X102944342Y-143059523D02*
X103039580Y-143011904D01*
X103039580Y-143011904D02*
X103087200Y-142964285D01*
X103087200Y-142964285D02*
X103134819Y-142869047D01*
X103134819Y-142869047D02*
X103134819Y-142583333D01*
X103134819Y-142583333D02*
X103087200Y-142488095D01*
X103087200Y-142488095D02*
X103039580Y-142440476D01*
X102563390Y-143630952D02*
X102515771Y-143535714D01*
X102515771Y-143535714D02*
X102468152Y-143488095D01*
X102468152Y-143488095D02*
X102372914Y-143440476D01*
X102372914Y-143440476D02*
X102325295Y-143440476D01*
X102325295Y-143440476D02*
X102230057Y-143488095D01*
X102230057Y-143488095D02*
X102182438Y-143535714D01*
X102182438Y-143535714D02*
X102134819Y-143630952D01*
X102134819Y-143630952D02*
X102134819Y-143821428D01*
X102134819Y-143821428D02*
X102182438Y-143916666D01*
X102182438Y-143916666D02*
X102230057Y-143964285D01*
X102230057Y-143964285D02*
X102325295Y-144011904D01*
X102325295Y-144011904D02*
X102372914Y-144011904D01*
X102372914Y-144011904D02*
X102468152Y-143964285D01*
X102468152Y-143964285D02*
X102515771Y-143916666D01*
X102515771Y-143916666D02*
X102563390Y-143821428D01*
X102563390Y-143821428D02*
X102563390Y-143630952D01*
X102563390Y-143630952D02*
X102611009Y-143535714D01*
X102611009Y-143535714D02*
X102658628Y-143488095D01*
X102658628Y-143488095D02*
X102753866Y-143440476D01*
X102753866Y-143440476D02*
X102944342Y-143440476D01*
X102944342Y-143440476D02*
X103039580Y-143488095D01*
X103039580Y-143488095D02*
X103087200Y-143535714D01*
X103087200Y-143535714D02*
X103134819Y-143630952D01*
X103134819Y-143630952D02*
X103134819Y-143821428D01*
X103134819Y-143821428D02*
X103087200Y-143916666D01*
X103087200Y-143916666D02*
X103039580Y-143964285D01*
X103039580Y-143964285D02*
X102944342Y-144011904D01*
X102944342Y-144011904D02*
X102753866Y-144011904D01*
X102753866Y-144011904D02*
X102658628Y-143964285D01*
X102658628Y-143964285D02*
X102611009Y-143916666D01*
X102611009Y-143916666D02*
X102563390Y-143821428D01*
X103454819Y-136138095D02*
X102454819Y-136138095D01*
X103454819Y-136709523D02*
X102883390Y-136280952D01*
X102454819Y-136709523D02*
X103026247Y-136138095D01*
X55434819Y-59711905D02*
X54434819Y-59711905D01*
X54434819Y-59711905D02*
X54434819Y-59950000D01*
X54434819Y-59950000D02*
X54482438Y-60092857D01*
X54482438Y-60092857D02*
X54577676Y-60188095D01*
X54577676Y-60188095D02*
X54672914Y-60235714D01*
X54672914Y-60235714D02*
X54863390Y-60283333D01*
X54863390Y-60283333D02*
X55006247Y-60283333D01*
X55006247Y-60283333D02*
X55196723Y-60235714D01*
X55196723Y-60235714D02*
X55291961Y-60188095D01*
X55291961Y-60188095D02*
X55387200Y-60092857D01*
X55387200Y-60092857D02*
X55434819Y-59950000D01*
X55434819Y-59950000D02*
X55434819Y-59711905D01*
X54434819Y-61188095D02*
X54434819Y-60711905D01*
X54434819Y-60711905D02*
X54911009Y-60664286D01*
X54911009Y-60664286D02*
X54863390Y-60711905D01*
X54863390Y-60711905D02*
X54815771Y-60807143D01*
X54815771Y-60807143D02*
X54815771Y-61045238D01*
X54815771Y-61045238D02*
X54863390Y-61140476D01*
X54863390Y-61140476D02*
X54911009Y-61188095D01*
X54911009Y-61188095D02*
X55006247Y-61235714D01*
X55006247Y-61235714D02*
X55244342Y-61235714D01*
X55244342Y-61235714D02*
X55339580Y-61188095D01*
X55339580Y-61188095D02*
X55387200Y-61140476D01*
X55387200Y-61140476D02*
X55434819Y-61045238D01*
X55434819Y-61045238D02*
X55434819Y-60807143D01*
X55434819Y-60807143D02*
X55387200Y-60711905D01*
X55387200Y-60711905D02*
X55339580Y-60664286D01*
X55754819Y-53838095D02*
X54754819Y-53838095D01*
X55754819Y-54409523D02*
X55183390Y-53980952D01*
X54754819Y-54409523D02*
X55326247Y-53838095D01*
X279334819Y-104335714D02*
X278334819Y-104335714D01*
X278334819Y-104335714D02*
X278334819Y-104573809D01*
X278334819Y-104573809D02*
X278382438Y-104716666D01*
X278382438Y-104716666D02*
X278477676Y-104811904D01*
X278477676Y-104811904D02*
X278572914Y-104859523D01*
X278572914Y-104859523D02*
X278763390Y-104907142D01*
X278763390Y-104907142D02*
X278906247Y-104907142D01*
X278906247Y-104907142D02*
X279096723Y-104859523D01*
X279096723Y-104859523D02*
X279191961Y-104811904D01*
X279191961Y-104811904D02*
X279287200Y-104716666D01*
X279287200Y-104716666D02*
X279334819Y-104573809D01*
X279334819Y-104573809D02*
X279334819Y-104335714D01*
X278334819Y-105811904D02*
X278334819Y-105335714D01*
X278334819Y-105335714D02*
X278811009Y-105288095D01*
X278811009Y-105288095D02*
X278763390Y-105335714D01*
X278763390Y-105335714D02*
X278715771Y-105430952D01*
X278715771Y-105430952D02*
X278715771Y-105669047D01*
X278715771Y-105669047D02*
X278763390Y-105764285D01*
X278763390Y-105764285D02*
X278811009Y-105811904D01*
X278811009Y-105811904D02*
X278906247Y-105859523D01*
X278906247Y-105859523D02*
X279144342Y-105859523D01*
X279144342Y-105859523D02*
X279239580Y-105811904D01*
X279239580Y-105811904D02*
X279287200Y-105764285D01*
X279287200Y-105764285D02*
X279334819Y-105669047D01*
X279334819Y-105669047D02*
X279334819Y-105430952D01*
X279334819Y-105430952D02*
X279287200Y-105335714D01*
X279287200Y-105335714D02*
X279239580Y-105288095D01*
X278334819Y-106764285D02*
X278334819Y-106288095D01*
X278334819Y-106288095D02*
X278811009Y-106240476D01*
X278811009Y-106240476D02*
X278763390Y-106288095D01*
X278763390Y-106288095D02*
X278715771Y-106383333D01*
X278715771Y-106383333D02*
X278715771Y-106621428D01*
X278715771Y-106621428D02*
X278763390Y-106716666D01*
X278763390Y-106716666D02*
X278811009Y-106764285D01*
X278811009Y-106764285D02*
X278906247Y-106811904D01*
X278906247Y-106811904D02*
X279144342Y-106811904D01*
X279144342Y-106811904D02*
X279239580Y-106764285D01*
X279239580Y-106764285D02*
X279287200Y-106716666D01*
X279287200Y-106716666D02*
X279334819Y-106621428D01*
X279334819Y-106621428D02*
X279334819Y-106383333D01*
X279334819Y-106383333D02*
X279287200Y-106288095D01*
X279287200Y-106288095D02*
X279239580Y-106240476D01*
X279654819Y-98938095D02*
X278654819Y-98938095D01*
X279654819Y-99509523D02*
X279083390Y-99080952D01*
X278654819Y-99509523D02*
X279226247Y-98938095D01*
X141284819Y-59835714D02*
X140284819Y-59835714D01*
X140284819Y-59835714D02*
X140284819Y-60073809D01*
X140284819Y-60073809D02*
X140332438Y-60216666D01*
X140332438Y-60216666D02*
X140427676Y-60311904D01*
X140427676Y-60311904D02*
X140522914Y-60359523D01*
X140522914Y-60359523D02*
X140713390Y-60407142D01*
X140713390Y-60407142D02*
X140856247Y-60407142D01*
X140856247Y-60407142D02*
X141046723Y-60359523D01*
X141046723Y-60359523D02*
X141141961Y-60311904D01*
X141141961Y-60311904D02*
X141237200Y-60216666D01*
X141237200Y-60216666D02*
X141284819Y-60073809D01*
X141284819Y-60073809D02*
X141284819Y-59835714D01*
X140380057Y-60788095D02*
X140332438Y-60835714D01*
X140332438Y-60835714D02*
X140284819Y-60930952D01*
X140284819Y-60930952D02*
X140284819Y-61169047D01*
X140284819Y-61169047D02*
X140332438Y-61264285D01*
X140332438Y-61264285D02*
X140380057Y-61311904D01*
X140380057Y-61311904D02*
X140475295Y-61359523D01*
X140475295Y-61359523D02*
X140570533Y-61359523D01*
X140570533Y-61359523D02*
X140713390Y-61311904D01*
X140713390Y-61311904D02*
X141284819Y-60740476D01*
X141284819Y-60740476D02*
X141284819Y-61359523D01*
X140618152Y-62216666D02*
X141284819Y-62216666D01*
X140237200Y-61978571D02*
X140951485Y-61740476D01*
X140951485Y-61740476D02*
X140951485Y-62359523D01*
X269684819Y-123485714D02*
X268684819Y-123485714D01*
X268684819Y-123485714D02*
X268684819Y-123723809D01*
X268684819Y-123723809D02*
X268732438Y-123866666D01*
X268732438Y-123866666D02*
X268827676Y-123961904D01*
X268827676Y-123961904D02*
X268922914Y-124009523D01*
X268922914Y-124009523D02*
X269113390Y-124057142D01*
X269113390Y-124057142D02*
X269256247Y-124057142D01*
X269256247Y-124057142D02*
X269446723Y-124009523D01*
X269446723Y-124009523D02*
X269541961Y-123961904D01*
X269541961Y-123961904D02*
X269637200Y-123866666D01*
X269637200Y-123866666D02*
X269684819Y-123723809D01*
X269684819Y-123723809D02*
X269684819Y-123485714D01*
X268684819Y-124914285D02*
X268684819Y-124723809D01*
X268684819Y-124723809D02*
X268732438Y-124628571D01*
X268732438Y-124628571D02*
X268780057Y-124580952D01*
X268780057Y-124580952D02*
X268922914Y-124485714D01*
X268922914Y-124485714D02*
X269113390Y-124438095D01*
X269113390Y-124438095D02*
X269494342Y-124438095D01*
X269494342Y-124438095D02*
X269589580Y-124485714D01*
X269589580Y-124485714D02*
X269637200Y-124533333D01*
X269637200Y-124533333D02*
X269684819Y-124628571D01*
X269684819Y-124628571D02*
X269684819Y-124819047D01*
X269684819Y-124819047D02*
X269637200Y-124914285D01*
X269637200Y-124914285D02*
X269589580Y-124961904D01*
X269589580Y-124961904D02*
X269494342Y-125009523D01*
X269494342Y-125009523D02*
X269256247Y-125009523D01*
X269256247Y-125009523D02*
X269161009Y-124961904D01*
X269161009Y-124961904D02*
X269113390Y-124914285D01*
X269113390Y-124914285D02*
X269065771Y-124819047D01*
X269065771Y-124819047D02*
X269065771Y-124628571D01*
X269065771Y-124628571D02*
X269113390Y-124533333D01*
X269113390Y-124533333D02*
X269161009Y-124485714D01*
X269161009Y-124485714D02*
X269256247Y-124438095D01*
X268684819Y-125628571D02*
X268684819Y-125723809D01*
X268684819Y-125723809D02*
X268732438Y-125819047D01*
X268732438Y-125819047D02*
X268780057Y-125866666D01*
X268780057Y-125866666D02*
X268875295Y-125914285D01*
X268875295Y-125914285D02*
X269065771Y-125961904D01*
X269065771Y-125961904D02*
X269303866Y-125961904D01*
X269303866Y-125961904D02*
X269494342Y-125914285D01*
X269494342Y-125914285D02*
X269589580Y-125866666D01*
X269589580Y-125866666D02*
X269637200Y-125819047D01*
X269637200Y-125819047D02*
X269684819Y-125723809D01*
X269684819Y-125723809D02*
X269684819Y-125628571D01*
X269684819Y-125628571D02*
X269637200Y-125533333D01*
X269637200Y-125533333D02*
X269589580Y-125485714D01*
X269589580Y-125485714D02*
X269494342Y-125438095D01*
X269494342Y-125438095D02*
X269303866Y-125390476D01*
X269303866Y-125390476D02*
X269065771Y-125390476D01*
X269065771Y-125390476D02*
X268875295Y-125438095D01*
X268875295Y-125438095D02*
X268780057Y-125485714D01*
X268780057Y-125485714D02*
X268732438Y-125533333D01*
X268732438Y-125533333D02*
X268684819Y-125628571D01*
X270004819Y-118088095D02*
X269004819Y-118088095D01*
X270004819Y-118659523D02*
X269433390Y-118230952D01*
X269004819Y-118659523D02*
X269576247Y-118088095D01*
X160284819Y-123335714D02*
X159284819Y-123335714D01*
X159284819Y-123335714D02*
X159284819Y-123573809D01*
X159284819Y-123573809D02*
X159332438Y-123716666D01*
X159332438Y-123716666D02*
X159427676Y-123811904D01*
X159427676Y-123811904D02*
X159522914Y-123859523D01*
X159522914Y-123859523D02*
X159713390Y-123907142D01*
X159713390Y-123907142D02*
X159856247Y-123907142D01*
X159856247Y-123907142D02*
X160046723Y-123859523D01*
X160046723Y-123859523D02*
X160141961Y-123811904D01*
X160141961Y-123811904D02*
X160237200Y-123716666D01*
X160237200Y-123716666D02*
X160284819Y-123573809D01*
X160284819Y-123573809D02*
X160284819Y-123335714D01*
X159284819Y-124240476D02*
X159284819Y-124859523D01*
X159284819Y-124859523D02*
X159665771Y-124526190D01*
X159665771Y-124526190D02*
X159665771Y-124669047D01*
X159665771Y-124669047D02*
X159713390Y-124764285D01*
X159713390Y-124764285D02*
X159761009Y-124811904D01*
X159761009Y-124811904D02*
X159856247Y-124859523D01*
X159856247Y-124859523D02*
X160094342Y-124859523D01*
X160094342Y-124859523D02*
X160189580Y-124811904D01*
X160189580Y-124811904D02*
X160237200Y-124764285D01*
X160237200Y-124764285D02*
X160284819Y-124669047D01*
X160284819Y-124669047D02*
X160284819Y-124383333D01*
X160284819Y-124383333D02*
X160237200Y-124288095D01*
X160237200Y-124288095D02*
X160189580Y-124240476D01*
X159284819Y-125192857D02*
X159284819Y-125859523D01*
X159284819Y-125859523D02*
X160284819Y-125430952D01*
X160604819Y-117938095D02*
X159604819Y-117938095D01*
X160604819Y-118509523D02*
X160033390Y-118080952D01*
X159604819Y-118509523D02*
X160176247Y-117938095D01*
X55434819Y-41711905D02*
X54434819Y-41711905D01*
X54434819Y-41711905D02*
X54434819Y-41950000D01*
X54434819Y-41950000D02*
X54482438Y-42092857D01*
X54482438Y-42092857D02*
X54577676Y-42188095D01*
X54577676Y-42188095D02*
X54672914Y-42235714D01*
X54672914Y-42235714D02*
X54863390Y-42283333D01*
X54863390Y-42283333D02*
X55006247Y-42283333D01*
X55006247Y-42283333D02*
X55196723Y-42235714D01*
X55196723Y-42235714D02*
X55291961Y-42188095D01*
X55291961Y-42188095D02*
X55387200Y-42092857D01*
X55387200Y-42092857D02*
X55434819Y-41950000D01*
X55434819Y-41950000D02*
X55434819Y-41711905D01*
X54530057Y-42664286D02*
X54482438Y-42711905D01*
X54482438Y-42711905D02*
X54434819Y-42807143D01*
X54434819Y-42807143D02*
X54434819Y-43045238D01*
X54434819Y-43045238D02*
X54482438Y-43140476D01*
X54482438Y-43140476D02*
X54530057Y-43188095D01*
X54530057Y-43188095D02*
X54625295Y-43235714D01*
X54625295Y-43235714D02*
X54720533Y-43235714D01*
X54720533Y-43235714D02*
X54863390Y-43188095D01*
X54863390Y-43188095D02*
X55434819Y-42616667D01*
X55434819Y-42616667D02*
X55434819Y-43235714D01*
X55754819Y-35838095D02*
X54754819Y-35838095D01*
X55754819Y-36409523D02*
X55183390Y-35980952D01*
X54754819Y-36409523D02*
X55326247Y-35838095D01*
X36384819Y-123335714D02*
X35384819Y-123335714D01*
X35384819Y-123335714D02*
X35384819Y-123573809D01*
X35384819Y-123573809D02*
X35432438Y-123716666D01*
X35432438Y-123716666D02*
X35527676Y-123811904D01*
X35527676Y-123811904D02*
X35622914Y-123859523D01*
X35622914Y-123859523D02*
X35813390Y-123907142D01*
X35813390Y-123907142D02*
X35956247Y-123907142D01*
X35956247Y-123907142D02*
X36146723Y-123859523D01*
X36146723Y-123859523D02*
X36241961Y-123811904D01*
X36241961Y-123811904D02*
X36337200Y-123716666D01*
X36337200Y-123716666D02*
X36384819Y-123573809D01*
X36384819Y-123573809D02*
X36384819Y-123335714D01*
X36384819Y-124859523D02*
X36384819Y-124288095D01*
X36384819Y-124573809D02*
X35384819Y-124573809D01*
X35384819Y-124573809D02*
X35527676Y-124478571D01*
X35527676Y-124478571D02*
X35622914Y-124383333D01*
X35622914Y-124383333D02*
X35670533Y-124288095D01*
X35480057Y-125240476D02*
X35432438Y-125288095D01*
X35432438Y-125288095D02*
X35384819Y-125383333D01*
X35384819Y-125383333D02*
X35384819Y-125621428D01*
X35384819Y-125621428D02*
X35432438Y-125716666D01*
X35432438Y-125716666D02*
X35480057Y-125764285D01*
X35480057Y-125764285D02*
X35575295Y-125811904D01*
X35575295Y-125811904D02*
X35670533Y-125811904D01*
X35670533Y-125811904D02*
X35813390Y-125764285D01*
X35813390Y-125764285D02*
X36384819Y-125192857D01*
X36384819Y-125192857D02*
X36384819Y-125811904D01*
X36704819Y-117938095D02*
X35704819Y-117938095D01*
X36704819Y-118509523D02*
X36133390Y-118080952D01*
X35704819Y-118509523D02*
X36276247Y-117938095D01*
X74484819Y-123335714D02*
X73484819Y-123335714D01*
X73484819Y-123335714D02*
X73484819Y-123573809D01*
X73484819Y-123573809D02*
X73532438Y-123716666D01*
X73532438Y-123716666D02*
X73627676Y-123811904D01*
X73627676Y-123811904D02*
X73722914Y-123859523D01*
X73722914Y-123859523D02*
X73913390Y-123907142D01*
X73913390Y-123907142D02*
X74056247Y-123907142D01*
X74056247Y-123907142D02*
X74246723Y-123859523D01*
X74246723Y-123859523D02*
X74341961Y-123811904D01*
X74341961Y-123811904D02*
X74437200Y-123716666D01*
X74437200Y-123716666D02*
X74484819Y-123573809D01*
X74484819Y-123573809D02*
X74484819Y-123335714D01*
X74484819Y-124859523D02*
X74484819Y-124288095D01*
X74484819Y-124573809D02*
X73484819Y-124573809D01*
X73484819Y-124573809D02*
X73627676Y-124478571D01*
X73627676Y-124478571D02*
X73722914Y-124383333D01*
X73722914Y-124383333D02*
X73770533Y-124288095D01*
X73818152Y-125716666D02*
X74484819Y-125716666D01*
X73437200Y-125478571D02*
X74151485Y-125240476D01*
X74151485Y-125240476D02*
X74151485Y-125859523D01*
X74804819Y-117938095D02*
X73804819Y-117938095D01*
X74804819Y-118509523D02*
X74233390Y-118080952D01*
X73804819Y-118509523D02*
X74376247Y-117938095D01*
X36384819Y-104561905D02*
X35384819Y-104561905D01*
X35384819Y-104561905D02*
X35384819Y-104800000D01*
X35384819Y-104800000D02*
X35432438Y-104942857D01*
X35432438Y-104942857D02*
X35527676Y-105038095D01*
X35527676Y-105038095D02*
X35622914Y-105085714D01*
X35622914Y-105085714D02*
X35813390Y-105133333D01*
X35813390Y-105133333D02*
X35956247Y-105133333D01*
X35956247Y-105133333D02*
X36146723Y-105085714D01*
X36146723Y-105085714D02*
X36241961Y-105038095D01*
X36241961Y-105038095D02*
X36337200Y-104942857D01*
X36337200Y-104942857D02*
X36384819Y-104800000D01*
X36384819Y-104800000D02*
X36384819Y-104561905D01*
X36384819Y-105609524D02*
X36384819Y-105800000D01*
X36384819Y-105800000D02*
X36337200Y-105895238D01*
X36337200Y-105895238D02*
X36289580Y-105942857D01*
X36289580Y-105942857D02*
X36146723Y-106038095D01*
X36146723Y-106038095D02*
X35956247Y-106085714D01*
X35956247Y-106085714D02*
X35575295Y-106085714D01*
X35575295Y-106085714D02*
X35480057Y-106038095D01*
X35480057Y-106038095D02*
X35432438Y-105990476D01*
X35432438Y-105990476D02*
X35384819Y-105895238D01*
X35384819Y-105895238D02*
X35384819Y-105704762D01*
X35384819Y-105704762D02*
X35432438Y-105609524D01*
X35432438Y-105609524D02*
X35480057Y-105561905D01*
X35480057Y-105561905D02*
X35575295Y-105514286D01*
X35575295Y-105514286D02*
X35813390Y-105514286D01*
X35813390Y-105514286D02*
X35908628Y-105561905D01*
X35908628Y-105561905D02*
X35956247Y-105609524D01*
X35956247Y-105609524D02*
X36003866Y-105704762D01*
X36003866Y-105704762D02*
X36003866Y-105895238D01*
X36003866Y-105895238D02*
X35956247Y-105990476D01*
X35956247Y-105990476D02*
X35908628Y-106038095D01*
X35908628Y-106038095D02*
X35813390Y-106085714D01*
X36704819Y-98688095D02*
X35704819Y-98688095D01*
X36704819Y-99259523D02*
X36133390Y-98830952D01*
X35704819Y-99259523D02*
X36276247Y-98688095D01*
X160334819Y-104285714D02*
X159334819Y-104285714D01*
X159334819Y-104285714D02*
X159334819Y-104523809D01*
X159334819Y-104523809D02*
X159382438Y-104666666D01*
X159382438Y-104666666D02*
X159477676Y-104761904D01*
X159477676Y-104761904D02*
X159572914Y-104809523D01*
X159572914Y-104809523D02*
X159763390Y-104857142D01*
X159763390Y-104857142D02*
X159906247Y-104857142D01*
X159906247Y-104857142D02*
X160096723Y-104809523D01*
X160096723Y-104809523D02*
X160191961Y-104761904D01*
X160191961Y-104761904D02*
X160287200Y-104666666D01*
X160287200Y-104666666D02*
X160334819Y-104523809D01*
X160334819Y-104523809D02*
X160334819Y-104285714D01*
X159334819Y-105190476D02*
X159334819Y-105809523D01*
X159334819Y-105809523D02*
X159715771Y-105476190D01*
X159715771Y-105476190D02*
X159715771Y-105619047D01*
X159715771Y-105619047D02*
X159763390Y-105714285D01*
X159763390Y-105714285D02*
X159811009Y-105761904D01*
X159811009Y-105761904D02*
X159906247Y-105809523D01*
X159906247Y-105809523D02*
X160144342Y-105809523D01*
X160144342Y-105809523D02*
X160239580Y-105761904D01*
X160239580Y-105761904D02*
X160287200Y-105714285D01*
X160287200Y-105714285D02*
X160334819Y-105619047D01*
X160334819Y-105619047D02*
X160334819Y-105333333D01*
X160334819Y-105333333D02*
X160287200Y-105238095D01*
X160287200Y-105238095D02*
X160239580Y-105190476D01*
X159334819Y-106142857D02*
X159334819Y-106761904D01*
X159334819Y-106761904D02*
X159715771Y-106428571D01*
X159715771Y-106428571D02*
X159715771Y-106571428D01*
X159715771Y-106571428D02*
X159763390Y-106666666D01*
X159763390Y-106666666D02*
X159811009Y-106714285D01*
X159811009Y-106714285D02*
X159906247Y-106761904D01*
X159906247Y-106761904D02*
X160144342Y-106761904D01*
X160144342Y-106761904D02*
X160239580Y-106714285D01*
X160239580Y-106714285D02*
X160287200Y-106666666D01*
X160287200Y-106666666D02*
X160334819Y-106571428D01*
X160334819Y-106571428D02*
X160334819Y-106285714D01*
X160334819Y-106285714D02*
X160287200Y-106190476D01*
X160287200Y-106190476D02*
X160239580Y-106142857D01*
X188784819Y-66135714D02*
X187784819Y-66135714D01*
X187784819Y-66135714D02*
X187784819Y-66373809D01*
X187784819Y-66373809D02*
X187832438Y-66516666D01*
X187832438Y-66516666D02*
X187927676Y-66611904D01*
X187927676Y-66611904D02*
X188022914Y-66659523D01*
X188022914Y-66659523D02*
X188213390Y-66707142D01*
X188213390Y-66707142D02*
X188356247Y-66707142D01*
X188356247Y-66707142D02*
X188546723Y-66659523D01*
X188546723Y-66659523D02*
X188641961Y-66611904D01*
X188641961Y-66611904D02*
X188737200Y-66516666D01*
X188737200Y-66516666D02*
X188784819Y-66373809D01*
X188784819Y-66373809D02*
X188784819Y-66135714D01*
X187784819Y-67564285D02*
X187784819Y-67373809D01*
X187784819Y-67373809D02*
X187832438Y-67278571D01*
X187832438Y-67278571D02*
X187880057Y-67230952D01*
X187880057Y-67230952D02*
X188022914Y-67135714D01*
X188022914Y-67135714D02*
X188213390Y-67088095D01*
X188213390Y-67088095D02*
X188594342Y-67088095D01*
X188594342Y-67088095D02*
X188689580Y-67135714D01*
X188689580Y-67135714D02*
X188737200Y-67183333D01*
X188737200Y-67183333D02*
X188784819Y-67278571D01*
X188784819Y-67278571D02*
X188784819Y-67469047D01*
X188784819Y-67469047D02*
X188737200Y-67564285D01*
X188737200Y-67564285D02*
X188689580Y-67611904D01*
X188689580Y-67611904D02*
X188594342Y-67659523D01*
X188594342Y-67659523D02*
X188356247Y-67659523D01*
X188356247Y-67659523D02*
X188261009Y-67611904D01*
X188261009Y-67611904D02*
X188213390Y-67564285D01*
X188213390Y-67564285D02*
X188165771Y-67469047D01*
X188165771Y-67469047D02*
X188165771Y-67278571D01*
X188165771Y-67278571D02*
X188213390Y-67183333D01*
X188213390Y-67183333D02*
X188261009Y-67135714D01*
X188261009Y-67135714D02*
X188356247Y-67088095D01*
X187784819Y-67992857D02*
X187784819Y-68659523D01*
X187784819Y-68659523D02*
X188784819Y-68230952D01*
X189104819Y-60738095D02*
X188104819Y-60738095D01*
X189104819Y-61309523D02*
X188533390Y-60880952D01*
X188104819Y-61309523D02*
X188676247Y-60738095D01*
X160334819Y-85135714D02*
X159334819Y-85135714D01*
X159334819Y-85135714D02*
X159334819Y-85373809D01*
X159334819Y-85373809D02*
X159382438Y-85516666D01*
X159382438Y-85516666D02*
X159477676Y-85611904D01*
X159477676Y-85611904D02*
X159572914Y-85659523D01*
X159572914Y-85659523D02*
X159763390Y-85707142D01*
X159763390Y-85707142D02*
X159906247Y-85707142D01*
X159906247Y-85707142D02*
X160096723Y-85659523D01*
X160096723Y-85659523D02*
X160191961Y-85611904D01*
X160191961Y-85611904D02*
X160287200Y-85516666D01*
X160287200Y-85516666D02*
X160334819Y-85373809D01*
X160334819Y-85373809D02*
X160334819Y-85135714D01*
X159430057Y-86088095D02*
X159382438Y-86135714D01*
X159382438Y-86135714D02*
X159334819Y-86230952D01*
X159334819Y-86230952D02*
X159334819Y-86469047D01*
X159334819Y-86469047D02*
X159382438Y-86564285D01*
X159382438Y-86564285D02*
X159430057Y-86611904D01*
X159430057Y-86611904D02*
X159525295Y-86659523D01*
X159525295Y-86659523D02*
X159620533Y-86659523D01*
X159620533Y-86659523D02*
X159763390Y-86611904D01*
X159763390Y-86611904D02*
X160334819Y-86040476D01*
X160334819Y-86040476D02*
X160334819Y-86659523D01*
X160334819Y-87135714D02*
X160334819Y-87326190D01*
X160334819Y-87326190D02*
X160287200Y-87421428D01*
X160287200Y-87421428D02*
X160239580Y-87469047D01*
X160239580Y-87469047D02*
X160096723Y-87564285D01*
X160096723Y-87564285D02*
X159906247Y-87611904D01*
X159906247Y-87611904D02*
X159525295Y-87611904D01*
X159525295Y-87611904D02*
X159430057Y-87564285D01*
X159430057Y-87564285D02*
X159382438Y-87516666D01*
X159382438Y-87516666D02*
X159334819Y-87421428D01*
X159334819Y-87421428D02*
X159334819Y-87230952D01*
X159334819Y-87230952D02*
X159382438Y-87135714D01*
X159382438Y-87135714D02*
X159430057Y-87088095D01*
X159430057Y-87088095D02*
X159525295Y-87040476D01*
X159525295Y-87040476D02*
X159763390Y-87040476D01*
X159763390Y-87040476D02*
X159858628Y-87088095D01*
X159858628Y-87088095D02*
X159906247Y-87135714D01*
X159906247Y-87135714D02*
X159953866Y-87230952D01*
X159953866Y-87230952D02*
X159953866Y-87421428D01*
X159953866Y-87421428D02*
X159906247Y-87516666D01*
X159906247Y-87516666D02*
X159858628Y-87564285D01*
X159858628Y-87564285D02*
X159763390Y-87611904D01*
X122234819Y-85135714D02*
X121234819Y-85135714D01*
X121234819Y-85135714D02*
X121234819Y-85373809D01*
X121234819Y-85373809D02*
X121282438Y-85516666D01*
X121282438Y-85516666D02*
X121377676Y-85611904D01*
X121377676Y-85611904D02*
X121472914Y-85659523D01*
X121472914Y-85659523D02*
X121663390Y-85707142D01*
X121663390Y-85707142D02*
X121806247Y-85707142D01*
X121806247Y-85707142D02*
X121996723Y-85659523D01*
X121996723Y-85659523D02*
X122091961Y-85611904D01*
X122091961Y-85611904D02*
X122187200Y-85516666D01*
X122187200Y-85516666D02*
X122234819Y-85373809D01*
X122234819Y-85373809D02*
X122234819Y-85135714D01*
X121330057Y-86088095D02*
X121282438Y-86135714D01*
X121282438Y-86135714D02*
X121234819Y-86230952D01*
X121234819Y-86230952D02*
X121234819Y-86469047D01*
X121234819Y-86469047D02*
X121282438Y-86564285D01*
X121282438Y-86564285D02*
X121330057Y-86611904D01*
X121330057Y-86611904D02*
X121425295Y-86659523D01*
X121425295Y-86659523D02*
X121520533Y-86659523D01*
X121520533Y-86659523D02*
X121663390Y-86611904D01*
X121663390Y-86611904D02*
X122234819Y-86040476D01*
X122234819Y-86040476D02*
X122234819Y-86659523D01*
X121234819Y-86992857D02*
X121234819Y-87659523D01*
X121234819Y-87659523D02*
X122234819Y-87230952D01*
X207834819Y-66135714D02*
X206834819Y-66135714D01*
X206834819Y-66135714D02*
X206834819Y-66373809D01*
X206834819Y-66373809D02*
X206882438Y-66516666D01*
X206882438Y-66516666D02*
X206977676Y-66611904D01*
X206977676Y-66611904D02*
X207072914Y-66659523D01*
X207072914Y-66659523D02*
X207263390Y-66707142D01*
X207263390Y-66707142D02*
X207406247Y-66707142D01*
X207406247Y-66707142D02*
X207596723Y-66659523D01*
X207596723Y-66659523D02*
X207691961Y-66611904D01*
X207691961Y-66611904D02*
X207787200Y-66516666D01*
X207787200Y-66516666D02*
X207834819Y-66373809D01*
X207834819Y-66373809D02*
X207834819Y-66135714D01*
X207168152Y-67564285D02*
X207834819Y-67564285D01*
X206787200Y-67326190D02*
X207501485Y-67088095D01*
X207501485Y-67088095D02*
X207501485Y-67707142D01*
X206834819Y-68278571D02*
X206834819Y-68373809D01*
X206834819Y-68373809D02*
X206882438Y-68469047D01*
X206882438Y-68469047D02*
X206930057Y-68516666D01*
X206930057Y-68516666D02*
X207025295Y-68564285D01*
X207025295Y-68564285D02*
X207215771Y-68611904D01*
X207215771Y-68611904D02*
X207453866Y-68611904D01*
X207453866Y-68611904D02*
X207644342Y-68564285D01*
X207644342Y-68564285D02*
X207739580Y-68516666D01*
X207739580Y-68516666D02*
X207787200Y-68469047D01*
X207787200Y-68469047D02*
X207834819Y-68373809D01*
X207834819Y-68373809D02*
X207834819Y-68278571D01*
X207834819Y-68278571D02*
X207787200Y-68183333D01*
X207787200Y-68183333D02*
X207739580Y-68135714D01*
X207739580Y-68135714D02*
X207644342Y-68088095D01*
X207644342Y-68088095D02*
X207453866Y-68040476D01*
X207453866Y-68040476D02*
X207215771Y-68040476D01*
X207215771Y-68040476D02*
X207025295Y-68088095D01*
X207025295Y-68088095D02*
X206930057Y-68135714D01*
X206930057Y-68135714D02*
X206882438Y-68183333D01*
X206882438Y-68183333D02*
X206834819Y-68278571D01*
X208154819Y-60738095D02*
X207154819Y-60738095D01*
X208154819Y-61309523D02*
X207583390Y-60880952D01*
X207154819Y-61309523D02*
X207726247Y-60738095D01*
X122234819Y-59835714D02*
X121234819Y-59835714D01*
X121234819Y-59835714D02*
X121234819Y-60073809D01*
X121234819Y-60073809D02*
X121282438Y-60216666D01*
X121282438Y-60216666D02*
X121377676Y-60311904D01*
X121377676Y-60311904D02*
X121472914Y-60359523D01*
X121472914Y-60359523D02*
X121663390Y-60407142D01*
X121663390Y-60407142D02*
X121806247Y-60407142D01*
X121806247Y-60407142D02*
X121996723Y-60359523D01*
X121996723Y-60359523D02*
X122091961Y-60311904D01*
X122091961Y-60311904D02*
X122187200Y-60216666D01*
X122187200Y-60216666D02*
X122234819Y-60073809D01*
X122234819Y-60073809D02*
X122234819Y-59835714D01*
X121330057Y-60788095D02*
X121282438Y-60835714D01*
X121282438Y-60835714D02*
X121234819Y-60930952D01*
X121234819Y-60930952D02*
X121234819Y-61169047D01*
X121234819Y-61169047D02*
X121282438Y-61264285D01*
X121282438Y-61264285D02*
X121330057Y-61311904D01*
X121330057Y-61311904D02*
X121425295Y-61359523D01*
X121425295Y-61359523D02*
X121520533Y-61359523D01*
X121520533Y-61359523D02*
X121663390Y-61311904D01*
X121663390Y-61311904D02*
X122234819Y-60740476D01*
X122234819Y-60740476D02*
X122234819Y-61359523D01*
X121234819Y-61692857D02*
X121234819Y-62311904D01*
X121234819Y-62311904D02*
X121615771Y-61978571D01*
X121615771Y-61978571D02*
X121615771Y-62121428D01*
X121615771Y-62121428D02*
X121663390Y-62216666D01*
X121663390Y-62216666D02*
X121711009Y-62264285D01*
X121711009Y-62264285D02*
X121806247Y-62311904D01*
X121806247Y-62311904D02*
X122044342Y-62311904D01*
X122044342Y-62311904D02*
X122139580Y-62264285D01*
X122139580Y-62264285D02*
X122187200Y-62216666D01*
X122187200Y-62216666D02*
X122234819Y-62121428D01*
X122234819Y-62121428D02*
X122234819Y-61835714D01*
X122234819Y-61835714D02*
X122187200Y-61740476D01*
X122187200Y-61740476D02*
X122139580Y-61692857D01*
X226884819Y-66135714D02*
X225884819Y-66135714D01*
X225884819Y-66135714D02*
X225884819Y-66373809D01*
X225884819Y-66373809D02*
X225932438Y-66516666D01*
X225932438Y-66516666D02*
X226027676Y-66611904D01*
X226027676Y-66611904D02*
X226122914Y-66659523D01*
X226122914Y-66659523D02*
X226313390Y-66707142D01*
X226313390Y-66707142D02*
X226456247Y-66707142D01*
X226456247Y-66707142D02*
X226646723Y-66659523D01*
X226646723Y-66659523D02*
X226741961Y-66611904D01*
X226741961Y-66611904D02*
X226837200Y-66516666D01*
X226837200Y-66516666D02*
X226884819Y-66373809D01*
X226884819Y-66373809D02*
X226884819Y-66135714D01*
X226218152Y-67564285D02*
X226884819Y-67564285D01*
X225837200Y-67326190D02*
X226551485Y-67088095D01*
X226551485Y-67088095D02*
X226551485Y-67707142D01*
X226884819Y-68611904D02*
X226884819Y-68040476D01*
X226884819Y-68326190D02*
X225884819Y-68326190D01*
X225884819Y-68326190D02*
X226027676Y-68230952D01*
X226027676Y-68230952D02*
X226122914Y-68135714D01*
X226122914Y-68135714D02*
X226170533Y-68040476D01*
X227204819Y-60738095D02*
X226204819Y-60738095D01*
X227204819Y-61309523D02*
X226633390Y-60880952D01*
X226204819Y-61309523D02*
X226776247Y-60738095D01*
X122184819Y-123335714D02*
X121184819Y-123335714D01*
X121184819Y-123335714D02*
X121184819Y-123573809D01*
X121184819Y-123573809D02*
X121232438Y-123716666D01*
X121232438Y-123716666D02*
X121327676Y-123811904D01*
X121327676Y-123811904D02*
X121422914Y-123859523D01*
X121422914Y-123859523D02*
X121613390Y-123907142D01*
X121613390Y-123907142D02*
X121756247Y-123907142D01*
X121756247Y-123907142D02*
X121946723Y-123859523D01*
X121946723Y-123859523D02*
X122041961Y-123811904D01*
X122041961Y-123811904D02*
X122137200Y-123716666D01*
X122137200Y-123716666D02*
X122184819Y-123573809D01*
X122184819Y-123573809D02*
X122184819Y-123335714D01*
X121184819Y-124240476D02*
X121184819Y-124859523D01*
X121184819Y-124859523D02*
X121565771Y-124526190D01*
X121565771Y-124526190D02*
X121565771Y-124669047D01*
X121565771Y-124669047D02*
X121613390Y-124764285D01*
X121613390Y-124764285D02*
X121661009Y-124811904D01*
X121661009Y-124811904D02*
X121756247Y-124859523D01*
X121756247Y-124859523D02*
X121994342Y-124859523D01*
X121994342Y-124859523D02*
X122089580Y-124811904D01*
X122089580Y-124811904D02*
X122137200Y-124764285D01*
X122137200Y-124764285D02*
X122184819Y-124669047D01*
X122184819Y-124669047D02*
X122184819Y-124383333D01*
X122184819Y-124383333D02*
X122137200Y-124288095D01*
X122137200Y-124288095D02*
X122089580Y-124240476D01*
X121184819Y-125764285D02*
X121184819Y-125288095D01*
X121184819Y-125288095D02*
X121661009Y-125240476D01*
X121661009Y-125240476D02*
X121613390Y-125288095D01*
X121613390Y-125288095D02*
X121565771Y-125383333D01*
X121565771Y-125383333D02*
X121565771Y-125621428D01*
X121565771Y-125621428D02*
X121613390Y-125716666D01*
X121613390Y-125716666D02*
X121661009Y-125764285D01*
X121661009Y-125764285D02*
X121756247Y-125811904D01*
X121756247Y-125811904D02*
X121994342Y-125811904D01*
X121994342Y-125811904D02*
X122089580Y-125764285D01*
X122089580Y-125764285D02*
X122137200Y-125716666D01*
X122137200Y-125716666D02*
X122184819Y-125621428D01*
X122184819Y-125621428D02*
X122184819Y-125383333D01*
X122184819Y-125383333D02*
X122137200Y-125288095D01*
X122137200Y-125288095D02*
X122089580Y-125240476D01*
X122504819Y-117938095D02*
X121504819Y-117938095D01*
X122504819Y-118509523D02*
X121933390Y-118080952D01*
X121504819Y-118509523D02*
X122076247Y-117938095D01*
X141284819Y-41085714D02*
X140284819Y-41085714D01*
X140284819Y-41085714D02*
X140284819Y-41323809D01*
X140284819Y-41323809D02*
X140332438Y-41466666D01*
X140332438Y-41466666D02*
X140427676Y-41561904D01*
X140427676Y-41561904D02*
X140522914Y-41609523D01*
X140522914Y-41609523D02*
X140713390Y-41657142D01*
X140713390Y-41657142D02*
X140856247Y-41657142D01*
X140856247Y-41657142D02*
X141046723Y-41609523D01*
X141046723Y-41609523D02*
X141141961Y-41561904D01*
X141141961Y-41561904D02*
X141237200Y-41466666D01*
X141237200Y-41466666D02*
X141284819Y-41323809D01*
X141284819Y-41323809D02*
X141284819Y-41085714D01*
X140380057Y-42038095D02*
X140332438Y-42085714D01*
X140332438Y-42085714D02*
X140284819Y-42180952D01*
X140284819Y-42180952D02*
X140284819Y-42419047D01*
X140284819Y-42419047D02*
X140332438Y-42514285D01*
X140332438Y-42514285D02*
X140380057Y-42561904D01*
X140380057Y-42561904D02*
X140475295Y-42609523D01*
X140475295Y-42609523D02*
X140570533Y-42609523D01*
X140570533Y-42609523D02*
X140713390Y-42561904D01*
X140713390Y-42561904D02*
X141284819Y-41990476D01*
X141284819Y-41990476D02*
X141284819Y-42609523D01*
X140284819Y-43228571D02*
X140284819Y-43323809D01*
X140284819Y-43323809D02*
X140332438Y-43419047D01*
X140332438Y-43419047D02*
X140380057Y-43466666D01*
X140380057Y-43466666D02*
X140475295Y-43514285D01*
X140475295Y-43514285D02*
X140665771Y-43561904D01*
X140665771Y-43561904D02*
X140903866Y-43561904D01*
X140903866Y-43561904D02*
X141094342Y-43514285D01*
X141094342Y-43514285D02*
X141189580Y-43466666D01*
X141189580Y-43466666D02*
X141237200Y-43419047D01*
X141237200Y-43419047D02*
X141284819Y-43323809D01*
X141284819Y-43323809D02*
X141284819Y-43228571D01*
X141284819Y-43228571D02*
X141237200Y-43133333D01*
X141237200Y-43133333D02*
X141189580Y-43085714D01*
X141189580Y-43085714D02*
X141094342Y-43038095D01*
X141094342Y-43038095D02*
X140903866Y-42990476D01*
X140903866Y-42990476D02*
X140665771Y-42990476D01*
X140665771Y-42990476D02*
X140475295Y-43038095D01*
X140475295Y-43038095D02*
X140380057Y-43085714D01*
X140380057Y-43085714D02*
X140332438Y-43133333D01*
X140332438Y-43133333D02*
X140284819Y-43228571D01*
X236434819Y-85135714D02*
X235434819Y-85135714D01*
X235434819Y-85135714D02*
X235434819Y-85373809D01*
X235434819Y-85373809D02*
X235482438Y-85516666D01*
X235482438Y-85516666D02*
X235577676Y-85611904D01*
X235577676Y-85611904D02*
X235672914Y-85659523D01*
X235672914Y-85659523D02*
X235863390Y-85707142D01*
X235863390Y-85707142D02*
X236006247Y-85707142D01*
X236006247Y-85707142D02*
X236196723Y-85659523D01*
X236196723Y-85659523D02*
X236291961Y-85611904D01*
X236291961Y-85611904D02*
X236387200Y-85516666D01*
X236387200Y-85516666D02*
X236434819Y-85373809D01*
X236434819Y-85373809D02*
X236434819Y-85135714D01*
X235768152Y-86564285D02*
X236434819Y-86564285D01*
X235387200Y-86326190D02*
X236101485Y-86088095D01*
X236101485Y-86088095D02*
X236101485Y-86707142D01*
X235434819Y-86992857D02*
X235434819Y-87659523D01*
X235434819Y-87659523D02*
X236434819Y-87230952D01*
X236754819Y-79738095D02*
X235754819Y-79738095D01*
X236754819Y-80309523D02*
X236183390Y-79880952D01*
X235754819Y-80309523D02*
X236326247Y-79738095D01*
X141334819Y-141735714D02*
X140334819Y-141735714D01*
X140334819Y-141735714D02*
X140334819Y-141973809D01*
X140334819Y-141973809D02*
X140382438Y-142116666D01*
X140382438Y-142116666D02*
X140477676Y-142211904D01*
X140477676Y-142211904D02*
X140572914Y-142259523D01*
X140572914Y-142259523D02*
X140763390Y-142307142D01*
X140763390Y-142307142D02*
X140906247Y-142307142D01*
X140906247Y-142307142D02*
X141096723Y-142259523D01*
X141096723Y-142259523D02*
X141191961Y-142211904D01*
X141191961Y-142211904D02*
X141287200Y-142116666D01*
X141287200Y-142116666D02*
X141334819Y-141973809D01*
X141334819Y-141973809D02*
X141334819Y-141735714D01*
X140334819Y-142640476D02*
X140334819Y-143259523D01*
X140334819Y-143259523D02*
X140715771Y-142926190D01*
X140715771Y-142926190D02*
X140715771Y-143069047D01*
X140715771Y-143069047D02*
X140763390Y-143164285D01*
X140763390Y-143164285D02*
X140811009Y-143211904D01*
X140811009Y-143211904D02*
X140906247Y-143259523D01*
X140906247Y-143259523D02*
X141144342Y-143259523D01*
X141144342Y-143259523D02*
X141239580Y-143211904D01*
X141239580Y-143211904D02*
X141287200Y-143164285D01*
X141287200Y-143164285D02*
X141334819Y-143069047D01*
X141334819Y-143069047D02*
X141334819Y-142783333D01*
X141334819Y-142783333D02*
X141287200Y-142688095D01*
X141287200Y-142688095D02*
X141239580Y-142640476D01*
X141334819Y-143735714D02*
X141334819Y-143926190D01*
X141334819Y-143926190D02*
X141287200Y-144021428D01*
X141287200Y-144021428D02*
X141239580Y-144069047D01*
X141239580Y-144069047D02*
X141096723Y-144164285D01*
X141096723Y-144164285D02*
X140906247Y-144211904D01*
X140906247Y-144211904D02*
X140525295Y-144211904D01*
X140525295Y-144211904D02*
X140430057Y-144164285D01*
X140430057Y-144164285D02*
X140382438Y-144116666D01*
X140382438Y-144116666D02*
X140334819Y-144021428D01*
X140334819Y-144021428D02*
X140334819Y-143830952D01*
X140334819Y-143830952D02*
X140382438Y-143735714D01*
X140382438Y-143735714D02*
X140430057Y-143688095D01*
X140430057Y-143688095D02*
X140525295Y-143640476D01*
X140525295Y-143640476D02*
X140763390Y-143640476D01*
X140763390Y-143640476D02*
X140858628Y-143688095D01*
X140858628Y-143688095D02*
X140906247Y-143735714D01*
X140906247Y-143735714D02*
X140953866Y-143830952D01*
X140953866Y-143830952D02*
X140953866Y-144021428D01*
X140953866Y-144021428D02*
X140906247Y-144116666D01*
X140906247Y-144116666D02*
X140858628Y-144164285D01*
X140858628Y-144164285D02*
X140763390Y-144211904D01*
X141654819Y-136338095D02*
X140654819Y-136338095D01*
X141654819Y-136909523D02*
X141083390Y-136480952D01*
X140654819Y-136909523D02*
X141226247Y-136338095D01*
X141284819Y-85135714D02*
X140284819Y-85135714D01*
X140284819Y-85135714D02*
X140284819Y-85373809D01*
X140284819Y-85373809D02*
X140332438Y-85516666D01*
X140332438Y-85516666D02*
X140427676Y-85611904D01*
X140427676Y-85611904D02*
X140522914Y-85659523D01*
X140522914Y-85659523D02*
X140713390Y-85707142D01*
X140713390Y-85707142D02*
X140856247Y-85707142D01*
X140856247Y-85707142D02*
X141046723Y-85659523D01*
X141046723Y-85659523D02*
X141141961Y-85611904D01*
X141141961Y-85611904D02*
X141237200Y-85516666D01*
X141237200Y-85516666D02*
X141284819Y-85373809D01*
X141284819Y-85373809D02*
X141284819Y-85135714D01*
X140380057Y-86088095D02*
X140332438Y-86135714D01*
X140332438Y-86135714D02*
X140284819Y-86230952D01*
X140284819Y-86230952D02*
X140284819Y-86469047D01*
X140284819Y-86469047D02*
X140332438Y-86564285D01*
X140332438Y-86564285D02*
X140380057Y-86611904D01*
X140380057Y-86611904D02*
X140475295Y-86659523D01*
X140475295Y-86659523D02*
X140570533Y-86659523D01*
X140570533Y-86659523D02*
X140713390Y-86611904D01*
X140713390Y-86611904D02*
X141284819Y-86040476D01*
X141284819Y-86040476D02*
X141284819Y-86659523D01*
X140713390Y-87230952D02*
X140665771Y-87135714D01*
X140665771Y-87135714D02*
X140618152Y-87088095D01*
X140618152Y-87088095D02*
X140522914Y-87040476D01*
X140522914Y-87040476D02*
X140475295Y-87040476D01*
X140475295Y-87040476D02*
X140380057Y-87088095D01*
X140380057Y-87088095D02*
X140332438Y-87135714D01*
X140332438Y-87135714D02*
X140284819Y-87230952D01*
X140284819Y-87230952D02*
X140284819Y-87421428D01*
X140284819Y-87421428D02*
X140332438Y-87516666D01*
X140332438Y-87516666D02*
X140380057Y-87564285D01*
X140380057Y-87564285D02*
X140475295Y-87611904D01*
X140475295Y-87611904D02*
X140522914Y-87611904D01*
X140522914Y-87611904D02*
X140618152Y-87564285D01*
X140618152Y-87564285D02*
X140665771Y-87516666D01*
X140665771Y-87516666D02*
X140713390Y-87421428D01*
X140713390Y-87421428D02*
X140713390Y-87230952D01*
X140713390Y-87230952D02*
X140761009Y-87135714D01*
X140761009Y-87135714D02*
X140808628Y-87088095D01*
X140808628Y-87088095D02*
X140903866Y-87040476D01*
X140903866Y-87040476D02*
X141094342Y-87040476D01*
X141094342Y-87040476D02*
X141189580Y-87088095D01*
X141189580Y-87088095D02*
X141237200Y-87135714D01*
X141237200Y-87135714D02*
X141284819Y-87230952D01*
X141284819Y-87230952D02*
X141284819Y-87421428D01*
X141284819Y-87421428D02*
X141237200Y-87516666D01*
X141237200Y-87516666D02*
X141189580Y-87564285D01*
X141189580Y-87564285D02*
X141094342Y-87611904D01*
X141094342Y-87611904D02*
X140903866Y-87611904D01*
X140903866Y-87611904D02*
X140808628Y-87564285D01*
X140808628Y-87564285D02*
X140761009Y-87516666D01*
X140761009Y-87516666D02*
X140713390Y-87421428D01*
X267534819Y-142435714D02*
X266534819Y-142435714D01*
X266534819Y-142435714D02*
X266534819Y-142673809D01*
X266534819Y-142673809D02*
X266582438Y-142816666D01*
X266582438Y-142816666D02*
X266677676Y-142911904D01*
X266677676Y-142911904D02*
X266772914Y-142959523D01*
X266772914Y-142959523D02*
X266963390Y-143007142D01*
X266963390Y-143007142D02*
X267106247Y-143007142D01*
X267106247Y-143007142D02*
X267296723Y-142959523D01*
X267296723Y-142959523D02*
X267391961Y-142911904D01*
X267391961Y-142911904D02*
X267487200Y-142816666D01*
X267487200Y-142816666D02*
X267534819Y-142673809D01*
X267534819Y-142673809D02*
X267534819Y-142435714D01*
X266534819Y-143864285D02*
X266534819Y-143673809D01*
X266534819Y-143673809D02*
X266582438Y-143578571D01*
X266582438Y-143578571D02*
X266630057Y-143530952D01*
X266630057Y-143530952D02*
X266772914Y-143435714D01*
X266772914Y-143435714D02*
X266963390Y-143388095D01*
X266963390Y-143388095D02*
X267344342Y-143388095D01*
X267344342Y-143388095D02*
X267439580Y-143435714D01*
X267439580Y-143435714D02*
X267487200Y-143483333D01*
X267487200Y-143483333D02*
X267534819Y-143578571D01*
X267534819Y-143578571D02*
X267534819Y-143769047D01*
X267534819Y-143769047D02*
X267487200Y-143864285D01*
X267487200Y-143864285D02*
X267439580Y-143911904D01*
X267439580Y-143911904D02*
X267344342Y-143959523D01*
X267344342Y-143959523D02*
X267106247Y-143959523D01*
X267106247Y-143959523D02*
X267011009Y-143911904D01*
X267011009Y-143911904D02*
X266963390Y-143864285D01*
X266963390Y-143864285D02*
X266915771Y-143769047D01*
X266915771Y-143769047D02*
X266915771Y-143578571D01*
X266915771Y-143578571D02*
X266963390Y-143483333D01*
X266963390Y-143483333D02*
X267011009Y-143435714D01*
X267011009Y-143435714D02*
X267106247Y-143388095D01*
X266534819Y-144816666D02*
X266534819Y-144626190D01*
X266534819Y-144626190D02*
X266582438Y-144530952D01*
X266582438Y-144530952D02*
X266630057Y-144483333D01*
X266630057Y-144483333D02*
X266772914Y-144388095D01*
X266772914Y-144388095D02*
X266963390Y-144340476D01*
X266963390Y-144340476D02*
X267344342Y-144340476D01*
X267344342Y-144340476D02*
X267439580Y-144388095D01*
X267439580Y-144388095D02*
X267487200Y-144435714D01*
X267487200Y-144435714D02*
X267534819Y-144530952D01*
X267534819Y-144530952D02*
X267534819Y-144721428D01*
X267534819Y-144721428D02*
X267487200Y-144816666D01*
X267487200Y-144816666D02*
X267439580Y-144864285D01*
X267439580Y-144864285D02*
X267344342Y-144911904D01*
X267344342Y-144911904D02*
X267106247Y-144911904D01*
X267106247Y-144911904D02*
X267011009Y-144864285D01*
X267011009Y-144864285D02*
X266963390Y-144816666D01*
X266963390Y-144816666D02*
X266915771Y-144721428D01*
X266915771Y-144721428D02*
X266915771Y-144530952D01*
X266915771Y-144530952D02*
X266963390Y-144435714D01*
X266963390Y-144435714D02*
X267011009Y-144388095D01*
X267011009Y-144388095D02*
X267106247Y-144340476D01*
X267854819Y-137038095D02*
X266854819Y-137038095D01*
X267854819Y-137609523D02*
X267283390Y-137180952D01*
X266854819Y-137609523D02*
X267426247Y-137038095D01*
X238784819Y-142285714D02*
X237784819Y-142285714D01*
X237784819Y-142285714D02*
X237784819Y-142523809D01*
X237784819Y-142523809D02*
X237832438Y-142666666D01*
X237832438Y-142666666D02*
X237927676Y-142761904D01*
X237927676Y-142761904D02*
X238022914Y-142809523D01*
X238022914Y-142809523D02*
X238213390Y-142857142D01*
X238213390Y-142857142D02*
X238356247Y-142857142D01*
X238356247Y-142857142D02*
X238546723Y-142809523D01*
X238546723Y-142809523D02*
X238641961Y-142761904D01*
X238641961Y-142761904D02*
X238737200Y-142666666D01*
X238737200Y-142666666D02*
X238784819Y-142523809D01*
X238784819Y-142523809D02*
X238784819Y-142285714D01*
X237784819Y-143714285D02*
X237784819Y-143523809D01*
X237784819Y-143523809D02*
X237832438Y-143428571D01*
X237832438Y-143428571D02*
X237880057Y-143380952D01*
X237880057Y-143380952D02*
X238022914Y-143285714D01*
X238022914Y-143285714D02*
X238213390Y-143238095D01*
X238213390Y-143238095D02*
X238594342Y-143238095D01*
X238594342Y-143238095D02*
X238689580Y-143285714D01*
X238689580Y-143285714D02*
X238737200Y-143333333D01*
X238737200Y-143333333D02*
X238784819Y-143428571D01*
X238784819Y-143428571D02*
X238784819Y-143619047D01*
X238784819Y-143619047D02*
X238737200Y-143714285D01*
X238737200Y-143714285D02*
X238689580Y-143761904D01*
X238689580Y-143761904D02*
X238594342Y-143809523D01*
X238594342Y-143809523D02*
X238356247Y-143809523D01*
X238356247Y-143809523D02*
X238261009Y-143761904D01*
X238261009Y-143761904D02*
X238213390Y-143714285D01*
X238213390Y-143714285D02*
X238165771Y-143619047D01*
X238165771Y-143619047D02*
X238165771Y-143428571D01*
X238165771Y-143428571D02*
X238213390Y-143333333D01*
X238213390Y-143333333D02*
X238261009Y-143285714D01*
X238261009Y-143285714D02*
X238356247Y-143238095D01*
X237784819Y-144714285D02*
X237784819Y-144238095D01*
X237784819Y-144238095D02*
X238261009Y-144190476D01*
X238261009Y-144190476D02*
X238213390Y-144238095D01*
X238213390Y-144238095D02*
X238165771Y-144333333D01*
X238165771Y-144333333D02*
X238165771Y-144571428D01*
X238165771Y-144571428D02*
X238213390Y-144666666D01*
X238213390Y-144666666D02*
X238261009Y-144714285D01*
X238261009Y-144714285D02*
X238356247Y-144761904D01*
X238356247Y-144761904D02*
X238594342Y-144761904D01*
X238594342Y-144761904D02*
X238689580Y-144714285D01*
X238689580Y-144714285D02*
X238737200Y-144666666D01*
X238737200Y-144666666D02*
X238784819Y-144571428D01*
X238784819Y-144571428D02*
X238784819Y-144333333D01*
X238784819Y-144333333D02*
X238737200Y-144238095D01*
X238737200Y-144238095D02*
X238689580Y-144190476D01*
X239104819Y-136888095D02*
X238104819Y-136888095D01*
X239104819Y-137459523D02*
X238533390Y-137030952D01*
X238104819Y-137459523D02*
X238676247Y-136888095D01*
X245934819Y-66135714D02*
X244934819Y-66135714D01*
X244934819Y-66135714D02*
X244934819Y-66373809D01*
X244934819Y-66373809D02*
X244982438Y-66516666D01*
X244982438Y-66516666D02*
X245077676Y-66611904D01*
X245077676Y-66611904D02*
X245172914Y-66659523D01*
X245172914Y-66659523D02*
X245363390Y-66707142D01*
X245363390Y-66707142D02*
X245506247Y-66707142D01*
X245506247Y-66707142D02*
X245696723Y-66659523D01*
X245696723Y-66659523D02*
X245791961Y-66611904D01*
X245791961Y-66611904D02*
X245887200Y-66516666D01*
X245887200Y-66516666D02*
X245934819Y-66373809D01*
X245934819Y-66373809D02*
X245934819Y-66135714D01*
X245268152Y-67564285D02*
X245934819Y-67564285D01*
X244887200Y-67326190D02*
X245601485Y-67088095D01*
X245601485Y-67088095D02*
X245601485Y-67707142D01*
X245030057Y-68040476D02*
X244982438Y-68088095D01*
X244982438Y-68088095D02*
X244934819Y-68183333D01*
X244934819Y-68183333D02*
X244934819Y-68421428D01*
X244934819Y-68421428D02*
X244982438Y-68516666D01*
X244982438Y-68516666D02*
X245030057Y-68564285D01*
X245030057Y-68564285D02*
X245125295Y-68611904D01*
X245125295Y-68611904D02*
X245220533Y-68611904D01*
X245220533Y-68611904D02*
X245363390Y-68564285D01*
X245363390Y-68564285D02*
X245934819Y-67992857D01*
X245934819Y-67992857D02*
X245934819Y-68611904D01*
X246254819Y-60738095D02*
X245254819Y-60738095D01*
X246254819Y-61309523D02*
X245683390Y-60880952D01*
X245254819Y-61309523D02*
X245826247Y-60738095D01*
X293584819Y-85135714D02*
X292584819Y-85135714D01*
X292584819Y-85135714D02*
X292584819Y-85373809D01*
X292584819Y-85373809D02*
X292632438Y-85516666D01*
X292632438Y-85516666D02*
X292727676Y-85611904D01*
X292727676Y-85611904D02*
X292822914Y-85659523D01*
X292822914Y-85659523D02*
X293013390Y-85707142D01*
X293013390Y-85707142D02*
X293156247Y-85707142D01*
X293156247Y-85707142D02*
X293346723Y-85659523D01*
X293346723Y-85659523D02*
X293441961Y-85611904D01*
X293441961Y-85611904D02*
X293537200Y-85516666D01*
X293537200Y-85516666D02*
X293584819Y-85373809D01*
X293584819Y-85373809D02*
X293584819Y-85135714D01*
X292584819Y-86611904D02*
X292584819Y-86135714D01*
X292584819Y-86135714D02*
X293061009Y-86088095D01*
X293061009Y-86088095D02*
X293013390Y-86135714D01*
X293013390Y-86135714D02*
X292965771Y-86230952D01*
X292965771Y-86230952D02*
X292965771Y-86469047D01*
X292965771Y-86469047D02*
X293013390Y-86564285D01*
X293013390Y-86564285D02*
X293061009Y-86611904D01*
X293061009Y-86611904D02*
X293156247Y-86659523D01*
X293156247Y-86659523D02*
X293394342Y-86659523D01*
X293394342Y-86659523D02*
X293489580Y-86611904D01*
X293489580Y-86611904D02*
X293537200Y-86564285D01*
X293537200Y-86564285D02*
X293584819Y-86469047D01*
X293584819Y-86469047D02*
X293584819Y-86230952D01*
X293584819Y-86230952D02*
X293537200Y-86135714D01*
X293537200Y-86135714D02*
X293489580Y-86088095D01*
X292584819Y-87278571D02*
X292584819Y-87373809D01*
X292584819Y-87373809D02*
X292632438Y-87469047D01*
X292632438Y-87469047D02*
X292680057Y-87516666D01*
X292680057Y-87516666D02*
X292775295Y-87564285D01*
X292775295Y-87564285D02*
X292965771Y-87611904D01*
X292965771Y-87611904D02*
X293203866Y-87611904D01*
X293203866Y-87611904D02*
X293394342Y-87564285D01*
X293394342Y-87564285D02*
X293489580Y-87516666D01*
X293489580Y-87516666D02*
X293537200Y-87469047D01*
X293537200Y-87469047D02*
X293584819Y-87373809D01*
X293584819Y-87373809D02*
X293584819Y-87278571D01*
X293584819Y-87278571D02*
X293537200Y-87183333D01*
X293537200Y-87183333D02*
X293489580Y-87135714D01*
X293489580Y-87135714D02*
X293394342Y-87088095D01*
X293394342Y-87088095D02*
X293203866Y-87040476D01*
X293203866Y-87040476D02*
X292965771Y-87040476D01*
X292965771Y-87040476D02*
X292775295Y-87088095D01*
X292775295Y-87088095D02*
X292680057Y-87135714D01*
X292680057Y-87135714D02*
X292632438Y-87183333D01*
X292632438Y-87183333D02*
X292584819Y-87278571D01*
X293904819Y-79738095D02*
X292904819Y-79738095D01*
X293904819Y-80309523D02*
X293333390Y-79880952D01*
X292904819Y-80309523D02*
X293476247Y-79738095D01*
X103184819Y-41085714D02*
X102184819Y-41085714D01*
X102184819Y-41085714D02*
X102184819Y-41323809D01*
X102184819Y-41323809D02*
X102232438Y-41466666D01*
X102232438Y-41466666D02*
X102327676Y-41561904D01*
X102327676Y-41561904D02*
X102422914Y-41609523D01*
X102422914Y-41609523D02*
X102613390Y-41657142D01*
X102613390Y-41657142D02*
X102756247Y-41657142D01*
X102756247Y-41657142D02*
X102946723Y-41609523D01*
X102946723Y-41609523D02*
X103041961Y-41561904D01*
X103041961Y-41561904D02*
X103137200Y-41466666D01*
X103137200Y-41466666D02*
X103184819Y-41323809D01*
X103184819Y-41323809D02*
X103184819Y-41085714D01*
X103184819Y-42609523D02*
X103184819Y-42038095D01*
X103184819Y-42323809D02*
X102184819Y-42323809D01*
X102184819Y-42323809D02*
X102327676Y-42228571D01*
X102327676Y-42228571D02*
X102422914Y-42133333D01*
X102422914Y-42133333D02*
X102470533Y-42038095D01*
X102613390Y-43180952D02*
X102565771Y-43085714D01*
X102565771Y-43085714D02*
X102518152Y-43038095D01*
X102518152Y-43038095D02*
X102422914Y-42990476D01*
X102422914Y-42990476D02*
X102375295Y-42990476D01*
X102375295Y-42990476D02*
X102280057Y-43038095D01*
X102280057Y-43038095D02*
X102232438Y-43085714D01*
X102232438Y-43085714D02*
X102184819Y-43180952D01*
X102184819Y-43180952D02*
X102184819Y-43371428D01*
X102184819Y-43371428D02*
X102232438Y-43466666D01*
X102232438Y-43466666D02*
X102280057Y-43514285D01*
X102280057Y-43514285D02*
X102375295Y-43561904D01*
X102375295Y-43561904D02*
X102422914Y-43561904D01*
X102422914Y-43561904D02*
X102518152Y-43514285D01*
X102518152Y-43514285D02*
X102565771Y-43466666D01*
X102565771Y-43466666D02*
X102613390Y-43371428D01*
X102613390Y-43371428D02*
X102613390Y-43180952D01*
X102613390Y-43180952D02*
X102661009Y-43085714D01*
X102661009Y-43085714D02*
X102708628Y-43038095D01*
X102708628Y-43038095D02*
X102803866Y-42990476D01*
X102803866Y-42990476D02*
X102994342Y-42990476D01*
X102994342Y-42990476D02*
X103089580Y-43038095D01*
X103089580Y-43038095D02*
X103137200Y-43085714D01*
X103137200Y-43085714D02*
X103184819Y-43180952D01*
X103184819Y-43180952D02*
X103184819Y-43371428D01*
X103184819Y-43371428D02*
X103137200Y-43466666D01*
X103137200Y-43466666D02*
X103089580Y-43514285D01*
X103089580Y-43514285D02*
X102994342Y-43561904D01*
X102994342Y-43561904D02*
X102803866Y-43561904D01*
X102803866Y-43561904D02*
X102708628Y-43514285D01*
X102708628Y-43514285D02*
X102661009Y-43466666D01*
X102661009Y-43466666D02*
X102613390Y-43371428D01*
X274534819Y-85135714D02*
X273534819Y-85135714D01*
X273534819Y-85135714D02*
X273534819Y-85373809D01*
X273534819Y-85373809D02*
X273582438Y-85516666D01*
X273582438Y-85516666D02*
X273677676Y-85611904D01*
X273677676Y-85611904D02*
X273772914Y-85659523D01*
X273772914Y-85659523D02*
X273963390Y-85707142D01*
X273963390Y-85707142D02*
X274106247Y-85707142D01*
X274106247Y-85707142D02*
X274296723Y-85659523D01*
X274296723Y-85659523D02*
X274391961Y-85611904D01*
X274391961Y-85611904D02*
X274487200Y-85516666D01*
X274487200Y-85516666D02*
X274534819Y-85373809D01*
X274534819Y-85373809D02*
X274534819Y-85135714D01*
X273868152Y-86564285D02*
X274534819Y-86564285D01*
X273487200Y-86326190D02*
X274201485Y-86088095D01*
X274201485Y-86088095D02*
X274201485Y-86707142D01*
X274534819Y-87135714D02*
X274534819Y-87326190D01*
X274534819Y-87326190D02*
X274487200Y-87421428D01*
X274487200Y-87421428D02*
X274439580Y-87469047D01*
X274439580Y-87469047D02*
X274296723Y-87564285D01*
X274296723Y-87564285D02*
X274106247Y-87611904D01*
X274106247Y-87611904D02*
X273725295Y-87611904D01*
X273725295Y-87611904D02*
X273630057Y-87564285D01*
X273630057Y-87564285D02*
X273582438Y-87516666D01*
X273582438Y-87516666D02*
X273534819Y-87421428D01*
X273534819Y-87421428D02*
X273534819Y-87230952D01*
X273534819Y-87230952D02*
X273582438Y-87135714D01*
X273582438Y-87135714D02*
X273630057Y-87088095D01*
X273630057Y-87088095D02*
X273725295Y-87040476D01*
X273725295Y-87040476D02*
X273963390Y-87040476D01*
X273963390Y-87040476D02*
X274058628Y-87088095D01*
X274058628Y-87088095D02*
X274106247Y-87135714D01*
X274106247Y-87135714D02*
X274153866Y-87230952D01*
X274153866Y-87230952D02*
X274153866Y-87421428D01*
X274153866Y-87421428D02*
X274106247Y-87516666D01*
X274106247Y-87516666D02*
X274058628Y-87564285D01*
X274058628Y-87564285D02*
X273963390Y-87611904D01*
X274854819Y-79738095D02*
X273854819Y-79738095D01*
X274854819Y-80309523D02*
X274283390Y-79880952D01*
X273854819Y-80309523D02*
X274426247Y-79738095D01*
X241234819Y-104335714D02*
X240234819Y-104335714D01*
X240234819Y-104335714D02*
X240234819Y-104573809D01*
X240234819Y-104573809D02*
X240282438Y-104716666D01*
X240282438Y-104716666D02*
X240377676Y-104811904D01*
X240377676Y-104811904D02*
X240472914Y-104859523D01*
X240472914Y-104859523D02*
X240663390Y-104907142D01*
X240663390Y-104907142D02*
X240806247Y-104907142D01*
X240806247Y-104907142D02*
X240996723Y-104859523D01*
X240996723Y-104859523D02*
X241091961Y-104811904D01*
X241091961Y-104811904D02*
X241187200Y-104716666D01*
X241187200Y-104716666D02*
X241234819Y-104573809D01*
X241234819Y-104573809D02*
X241234819Y-104335714D01*
X240234819Y-105811904D02*
X240234819Y-105335714D01*
X240234819Y-105335714D02*
X240711009Y-105288095D01*
X240711009Y-105288095D02*
X240663390Y-105335714D01*
X240663390Y-105335714D02*
X240615771Y-105430952D01*
X240615771Y-105430952D02*
X240615771Y-105669047D01*
X240615771Y-105669047D02*
X240663390Y-105764285D01*
X240663390Y-105764285D02*
X240711009Y-105811904D01*
X240711009Y-105811904D02*
X240806247Y-105859523D01*
X240806247Y-105859523D02*
X241044342Y-105859523D01*
X241044342Y-105859523D02*
X241139580Y-105811904D01*
X241139580Y-105811904D02*
X241187200Y-105764285D01*
X241187200Y-105764285D02*
X241234819Y-105669047D01*
X241234819Y-105669047D02*
X241234819Y-105430952D01*
X241234819Y-105430952D02*
X241187200Y-105335714D01*
X241187200Y-105335714D02*
X241139580Y-105288095D01*
X240234819Y-106192857D02*
X240234819Y-106811904D01*
X240234819Y-106811904D02*
X240615771Y-106478571D01*
X240615771Y-106478571D02*
X240615771Y-106621428D01*
X240615771Y-106621428D02*
X240663390Y-106716666D01*
X240663390Y-106716666D02*
X240711009Y-106764285D01*
X240711009Y-106764285D02*
X240806247Y-106811904D01*
X240806247Y-106811904D02*
X241044342Y-106811904D01*
X241044342Y-106811904D02*
X241139580Y-106764285D01*
X241139580Y-106764285D02*
X241187200Y-106716666D01*
X241187200Y-106716666D02*
X241234819Y-106621428D01*
X241234819Y-106621428D02*
X241234819Y-106335714D01*
X241234819Y-106335714D02*
X241187200Y-106240476D01*
X241187200Y-106240476D02*
X241139580Y-106192857D01*
X241554819Y-98938095D02*
X240554819Y-98938095D01*
X241554819Y-99509523D02*
X240983390Y-99080952D01*
X240554819Y-99509523D02*
X241126247Y-98938095D01*
X141284819Y-104285714D02*
X140284819Y-104285714D01*
X140284819Y-104285714D02*
X140284819Y-104523809D01*
X140284819Y-104523809D02*
X140332438Y-104666666D01*
X140332438Y-104666666D02*
X140427676Y-104761904D01*
X140427676Y-104761904D02*
X140522914Y-104809523D01*
X140522914Y-104809523D02*
X140713390Y-104857142D01*
X140713390Y-104857142D02*
X140856247Y-104857142D01*
X140856247Y-104857142D02*
X141046723Y-104809523D01*
X141046723Y-104809523D02*
X141141961Y-104761904D01*
X141141961Y-104761904D02*
X141237200Y-104666666D01*
X141237200Y-104666666D02*
X141284819Y-104523809D01*
X141284819Y-104523809D02*
X141284819Y-104285714D01*
X140284819Y-105190476D02*
X140284819Y-105809523D01*
X140284819Y-105809523D02*
X140665771Y-105476190D01*
X140665771Y-105476190D02*
X140665771Y-105619047D01*
X140665771Y-105619047D02*
X140713390Y-105714285D01*
X140713390Y-105714285D02*
X140761009Y-105761904D01*
X140761009Y-105761904D02*
X140856247Y-105809523D01*
X140856247Y-105809523D02*
X141094342Y-105809523D01*
X141094342Y-105809523D02*
X141189580Y-105761904D01*
X141189580Y-105761904D02*
X141237200Y-105714285D01*
X141237200Y-105714285D02*
X141284819Y-105619047D01*
X141284819Y-105619047D02*
X141284819Y-105333333D01*
X141284819Y-105333333D02*
X141237200Y-105238095D01*
X141237200Y-105238095D02*
X141189580Y-105190476D01*
X140380057Y-106190476D02*
X140332438Y-106238095D01*
X140332438Y-106238095D02*
X140284819Y-106333333D01*
X140284819Y-106333333D02*
X140284819Y-106571428D01*
X140284819Y-106571428D02*
X140332438Y-106666666D01*
X140332438Y-106666666D02*
X140380057Y-106714285D01*
X140380057Y-106714285D02*
X140475295Y-106761904D01*
X140475295Y-106761904D02*
X140570533Y-106761904D01*
X140570533Y-106761904D02*
X140713390Y-106714285D01*
X140713390Y-106714285D02*
X141284819Y-106142857D01*
X141284819Y-106142857D02*
X141284819Y-106761904D01*
X160334819Y-59835714D02*
X159334819Y-59835714D01*
X159334819Y-59835714D02*
X159334819Y-60073809D01*
X159334819Y-60073809D02*
X159382438Y-60216666D01*
X159382438Y-60216666D02*
X159477676Y-60311904D01*
X159477676Y-60311904D02*
X159572914Y-60359523D01*
X159572914Y-60359523D02*
X159763390Y-60407142D01*
X159763390Y-60407142D02*
X159906247Y-60407142D01*
X159906247Y-60407142D02*
X160096723Y-60359523D01*
X160096723Y-60359523D02*
X160191961Y-60311904D01*
X160191961Y-60311904D02*
X160287200Y-60216666D01*
X160287200Y-60216666D02*
X160334819Y-60073809D01*
X160334819Y-60073809D02*
X160334819Y-59835714D01*
X159430057Y-60788095D02*
X159382438Y-60835714D01*
X159382438Y-60835714D02*
X159334819Y-60930952D01*
X159334819Y-60930952D02*
X159334819Y-61169047D01*
X159334819Y-61169047D02*
X159382438Y-61264285D01*
X159382438Y-61264285D02*
X159430057Y-61311904D01*
X159430057Y-61311904D02*
X159525295Y-61359523D01*
X159525295Y-61359523D02*
X159620533Y-61359523D01*
X159620533Y-61359523D02*
X159763390Y-61311904D01*
X159763390Y-61311904D02*
X160334819Y-60740476D01*
X160334819Y-60740476D02*
X160334819Y-61359523D01*
X159334819Y-62264285D02*
X159334819Y-61788095D01*
X159334819Y-61788095D02*
X159811009Y-61740476D01*
X159811009Y-61740476D02*
X159763390Y-61788095D01*
X159763390Y-61788095D02*
X159715771Y-61883333D01*
X159715771Y-61883333D02*
X159715771Y-62121428D01*
X159715771Y-62121428D02*
X159763390Y-62216666D01*
X159763390Y-62216666D02*
X159811009Y-62264285D01*
X159811009Y-62264285D02*
X159906247Y-62311904D01*
X159906247Y-62311904D02*
X160144342Y-62311904D01*
X160144342Y-62311904D02*
X160239580Y-62264285D01*
X160239580Y-62264285D02*
X160287200Y-62216666D01*
X160287200Y-62216666D02*
X160334819Y-62121428D01*
X160334819Y-62121428D02*
X160334819Y-61883333D01*
X160334819Y-61883333D02*
X160287200Y-61788095D01*
X160287200Y-61788095D02*
X160239580Y-61740476D01*
X74484819Y-59711905D02*
X73484819Y-59711905D01*
X73484819Y-59711905D02*
X73484819Y-59950000D01*
X73484819Y-59950000D02*
X73532438Y-60092857D01*
X73532438Y-60092857D02*
X73627676Y-60188095D01*
X73627676Y-60188095D02*
X73722914Y-60235714D01*
X73722914Y-60235714D02*
X73913390Y-60283333D01*
X73913390Y-60283333D02*
X74056247Y-60283333D01*
X74056247Y-60283333D02*
X74246723Y-60235714D01*
X74246723Y-60235714D02*
X74341961Y-60188095D01*
X74341961Y-60188095D02*
X74437200Y-60092857D01*
X74437200Y-60092857D02*
X74484819Y-59950000D01*
X74484819Y-59950000D02*
X74484819Y-59711905D01*
X73484819Y-61140476D02*
X73484819Y-60950000D01*
X73484819Y-60950000D02*
X73532438Y-60854762D01*
X73532438Y-60854762D02*
X73580057Y-60807143D01*
X73580057Y-60807143D02*
X73722914Y-60711905D01*
X73722914Y-60711905D02*
X73913390Y-60664286D01*
X73913390Y-60664286D02*
X74294342Y-60664286D01*
X74294342Y-60664286D02*
X74389580Y-60711905D01*
X74389580Y-60711905D02*
X74437200Y-60759524D01*
X74437200Y-60759524D02*
X74484819Y-60854762D01*
X74484819Y-60854762D02*
X74484819Y-61045238D01*
X74484819Y-61045238D02*
X74437200Y-61140476D01*
X74437200Y-61140476D02*
X74389580Y-61188095D01*
X74389580Y-61188095D02*
X74294342Y-61235714D01*
X74294342Y-61235714D02*
X74056247Y-61235714D01*
X74056247Y-61235714D02*
X73961009Y-61188095D01*
X73961009Y-61188095D02*
X73913390Y-61140476D01*
X73913390Y-61140476D02*
X73865771Y-61045238D01*
X73865771Y-61045238D02*
X73865771Y-60854762D01*
X73865771Y-60854762D02*
X73913390Y-60759524D01*
X73913390Y-60759524D02*
X73961009Y-60711905D01*
X73961009Y-60711905D02*
X74056247Y-60664286D01*
X74804819Y-53838095D02*
X73804819Y-53838095D01*
X74804819Y-54409523D02*
X74233390Y-53980952D01*
X73804819Y-54409523D02*
X74376247Y-53838095D01*
X74484819Y-142335714D02*
X73484819Y-142335714D01*
X73484819Y-142335714D02*
X73484819Y-142573809D01*
X73484819Y-142573809D02*
X73532438Y-142716666D01*
X73532438Y-142716666D02*
X73627676Y-142811904D01*
X73627676Y-142811904D02*
X73722914Y-142859523D01*
X73722914Y-142859523D02*
X73913390Y-142907142D01*
X73913390Y-142907142D02*
X74056247Y-142907142D01*
X74056247Y-142907142D02*
X74246723Y-142859523D01*
X74246723Y-142859523D02*
X74341961Y-142811904D01*
X74341961Y-142811904D02*
X74437200Y-142716666D01*
X74437200Y-142716666D02*
X74484819Y-142573809D01*
X74484819Y-142573809D02*
X74484819Y-142335714D01*
X74484819Y-143859523D02*
X74484819Y-143288095D01*
X74484819Y-143573809D02*
X73484819Y-143573809D01*
X73484819Y-143573809D02*
X73627676Y-143478571D01*
X73627676Y-143478571D02*
X73722914Y-143383333D01*
X73722914Y-143383333D02*
X73770533Y-143288095D01*
X73484819Y-144192857D02*
X73484819Y-144859523D01*
X73484819Y-144859523D02*
X74484819Y-144430952D01*
X74804819Y-136938095D02*
X73804819Y-136938095D01*
X74804819Y-137509523D02*
X74233390Y-137080952D01*
X73804819Y-137509523D02*
X74376247Y-136938095D01*
X36384819Y-59711905D02*
X35384819Y-59711905D01*
X35384819Y-59711905D02*
X35384819Y-59950000D01*
X35384819Y-59950000D02*
X35432438Y-60092857D01*
X35432438Y-60092857D02*
X35527676Y-60188095D01*
X35527676Y-60188095D02*
X35622914Y-60235714D01*
X35622914Y-60235714D02*
X35813390Y-60283333D01*
X35813390Y-60283333D02*
X35956247Y-60283333D01*
X35956247Y-60283333D02*
X36146723Y-60235714D01*
X36146723Y-60235714D02*
X36241961Y-60188095D01*
X36241961Y-60188095D02*
X36337200Y-60092857D01*
X36337200Y-60092857D02*
X36384819Y-59950000D01*
X36384819Y-59950000D02*
X36384819Y-59711905D01*
X35718152Y-61140476D02*
X36384819Y-61140476D01*
X35337200Y-60902381D02*
X36051485Y-60664286D01*
X36051485Y-60664286D02*
X36051485Y-61283333D01*
X36704819Y-53838095D02*
X35704819Y-53838095D01*
X36704819Y-54409523D02*
X36133390Y-53980952D01*
X35704819Y-54409523D02*
X36276247Y-53838095D01*
X307784819Y-123485714D02*
X306784819Y-123485714D01*
X306784819Y-123485714D02*
X306784819Y-123723809D01*
X306784819Y-123723809D02*
X306832438Y-123866666D01*
X306832438Y-123866666D02*
X306927676Y-123961904D01*
X306927676Y-123961904D02*
X307022914Y-124009523D01*
X307022914Y-124009523D02*
X307213390Y-124057142D01*
X307213390Y-124057142D02*
X307356247Y-124057142D01*
X307356247Y-124057142D02*
X307546723Y-124009523D01*
X307546723Y-124009523D02*
X307641961Y-123961904D01*
X307641961Y-123961904D02*
X307737200Y-123866666D01*
X307737200Y-123866666D02*
X307784819Y-123723809D01*
X307784819Y-123723809D02*
X307784819Y-123485714D01*
X306784819Y-124914285D02*
X306784819Y-124723809D01*
X306784819Y-124723809D02*
X306832438Y-124628571D01*
X306832438Y-124628571D02*
X306880057Y-124580952D01*
X306880057Y-124580952D02*
X307022914Y-124485714D01*
X307022914Y-124485714D02*
X307213390Y-124438095D01*
X307213390Y-124438095D02*
X307594342Y-124438095D01*
X307594342Y-124438095D02*
X307689580Y-124485714D01*
X307689580Y-124485714D02*
X307737200Y-124533333D01*
X307737200Y-124533333D02*
X307784819Y-124628571D01*
X307784819Y-124628571D02*
X307784819Y-124819047D01*
X307784819Y-124819047D02*
X307737200Y-124914285D01*
X307737200Y-124914285D02*
X307689580Y-124961904D01*
X307689580Y-124961904D02*
X307594342Y-125009523D01*
X307594342Y-125009523D02*
X307356247Y-125009523D01*
X307356247Y-125009523D02*
X307261009Y-124961904D01*
X307261009Y-124961904D02*
X307213390Y-124914285D01*
X307213390Y-124914285D02*
X307165771Y-124819047D01*
X307165771Y-124819047D02*
X307165771Y-124628571D01*
X307165771Y-124628571D02*
X307213390Y-124533333D01*
X307213390Y-124533333D02*
X307261009Y-124485714D01*
X307261009Y-124485714D02*
X307356247Y-124438095D01*
X306880057Y-125390476D02*
X306832438Y-125438095D01*
X306832438Y-125438095D02*
X306784819Y-125533333D01*
X306784819Y-125533333D02*
X306784819Y-125771428D01*
X306784819Y-125771428D02*
X306832438Y-125866666D01*
X306832438Y-125866666D02*
X306880057Y-125914285D01*
X306880057Y-125914285D02*
X306975295Y-125961904D01*
X306975295Y-125961904D02*
X307070533Y-125961904D01*
X307070533Y-125961904D02*
X307213390Y-125914285D01*
X307213390Y-125914285D02*
X307784819Y-125342857D01*
X307784819Y-125342857D02*
X307784819Y-125961904D01*
X308104819Y-118088095D02*
X307104819Y-118088095D01*
X308104819Y-118659523D02*
X307533390Y-118230952D01*
X307104819Y-118659523D02*
X307676247Y-118088095D01*
X122234819Y-41085714D02*
X121234819Y-41085714D01*
X121234819Y-41085714D02*
X121234819Y-41323809D01*
X121234819Y-41323809D02*
X121282438Y-41466666D01*
X121282438Y-41466666D02*
X121377676Y-41561904D01*
X121377676Y-41561904D02*
X121472914Y-41609523D01*
X121472914Y-41609523D02*
X121663390Y-41657142D01*
X121663390Y-41657142D02*
X121806247Y-41657142D01*
X121806247Y-41657142D02*
X121996723Y-41609523D01*
X121996723Y-41609523D02*
X122091961Y-41561904D01*
X122091961Y-41561904D02*
X122187200Y-41466666D01*
X122187200Y-41466666D02*
X122234819Y-41323809D01*
X122234819Y-41323809D02*
X122234819Y-41085714D01*
X122234819Y-42609523D02*
X122234819Y-42038095D01*
X122234819Y-42323809D02*
X121234819Y-42323809D01*
X121234819Y-42323809D02*
X121377676Y-42228571D01*
X121377676Y-42228571D02*
X121472914Y-42133333D01*
X121472914Y-42133333D02*
X121520533Y-42038095D01*
X122234819Y-43085714D02*
X122234819Y-43276190D01*
X122234819Y-43276190D02*
X122187200Y-43371428D01*
X122187200Y-43371428D02*
X122139580Y-43419047D01*
X122139580Y-43419047D02*
X121996723Y-43514285D01*
X121996723Y-43514285D02*
X121806247Y-43561904D01*
X121806247Y-43561904D02*
X121425295Y-43561904D01*
X121425295Y-43561904D02*
X121330057Y-43514285D01*
X121330057Y-43514285D02*
X121282438Y-43466666D01*
X121282438Y-43466666D02*
X121234819Y-43371428D01*
X121234819Y-43371428D02*
X121234819Y-43180952D01*
X121234819Y-43180952D02*
X121282438Y-43085714D01*
X121282438Y-43085714D02*
X121330057Y-43038095D01*
X121330057Y-43038095D02*
X121425295Y-42990476D01*
X121425295Y-42990476D02*
X121663390Y-42990476D01*
X121663390Y-42990476D02*
X121758628Y-43038095D01*
X121758628Y-43038095D02*
X121806247Y-43085714D01*
X121806247Y-43085714D02*
X121853866Y-43180952D01*
X121853866Y-43180952D02*
X121853866Y-43371428D01*
X121853866Y-43371428D02*
X121806247Y-43466666D01*
X121806247Y-43466666D02*
X121758628Y-43514285D01*
X121758628Y-43514285D02*
X121663390Y-43561904D01*
X255484819Y-85135714D02*
X254484819Y-85135714D01*
X254484819Y-85135714D02*
X254484819Y-85373809D01*
X254484819Y-85373809D02*
X254532438Y-85516666D01*
X254532438Y-85516666D02*
X254627676Y-85611904D01*
X254627676Y-85611904D02*
X254722914Y-85659523D01*
X254722914Y-85659523D02*
X254913390Y-85707142D01*
X254913390Y-85707142D02*
X255056247Y-85707142D01*
X255056247Y-85707142D02*
X255246723Y-85659523D01*
X255246723Y-85659523D02*
X255341961Y-85611904D01*
X255341961Y-85611904D02*
X255437200Y-85516666D01*
X255437200Y-85516666D02*
X255484819Y-85373809D01*
X255484819Y-85373809D02*
X255484819Y-85135714D01*
X254818152Y-86564285D02*
X255484819Y-86564285D01*
X254437200Y-86326190D02*
X255151485Y-86088095D01*
X255151485Y-86088095D02*
X255151485Y-86707142D01*
X254913390Y-87230952D02*
X254865771Y-87135714D01*
X254865771Y-87135714D02*
X254818152Y-87088095D01*
X254818152Y-87088095D02*
X254722914Y-87040476D01*
X254722914Y-87040476D02*
X254675295Y-87040476D01*
X254675295Y-87040476D02*
X254580057Y-87088095D01*
X254580057Y-87088095D02*
X254532438Y-87135714D01*
X254532438Y-87135714D02*
X254484819Y-87230952D01*
X254484819Y-87230952D02*
X254484819Y-87421428D01*
X254484819Y-87421428D02*
X254532438Y-87516666D01*
X254532438Y-87516666D02*
X254580057Y-87564285D01*
X254580057Y-87564285D02*
X254675295Y-87611904D01*
X254675295Y-87611904D02*
X254722914Y-87611904D01*
X254722914Y-87611904D02*
X254818152Y-87564285D01*
X254818152Y-87564285D02*
X254865771Y-87516666D01*
X254865771Y-87516666D02*
X254913390Y-87421428D01*
X254913390Y-87421428D02*
X254913390Y-87230952D01*
X254913390Y-87230952D02*
X254961009Y-87135714D01*
X254961009Y-87135714D02*
X255008628Y-87088095D01*
X255008628Y-87088095D02*
X255103866Y-87040476D01*
X255103866Y-87040476D02*
X255294342Y-87040476D01*
X255294342Y-87040476D02*
X255389580Y-87088095D01*
X255389580Y-87088095D02*
X255437200Y-87135714D01*
X255437200Y-87135714D02*
X255484819Y-87230952D01*
X255484819Y-87230952D02*
X255484819Y-87421428D01*
X255484819Y-87421428D02*
X255437200Y-87516666D01*
X255437200Y-87516666D02*
X255389580Y-87564285D01*
X255389580Y-87564285D02*
X255294342Y-87611904D01*
X255294342Y-87611904D02*
X255103866Y-87611904D01*
X255103866Y-87611904D02*
X255008628Y-87564285D01*
X255008628Y-87564285D02*
X254961009Y-87516666D01*
X254961009Y-87516666D02*
X254913390Y-87421428D01*
X255804819Y-79738095D02*
X254804819Y-79738095D01*
X255804819Y-80309523D02*
X255233390Y-79880952D01*
X254804819Y-80309523D02*
X255376247Y-79738095D01*
X260284819Y-104335714D02*
X259284819Y-104335714D01*
X259284819Y-104335714D02*
X259284819Y-104573809D01*
X259284819Y-104573809D02*
X259332438Y-104716666D01*
X259332438Y-104716666D02*
X259427676Y-104811904D01*
X259427676Y-104811904D02*
X259522914Y-104859523D01*
X259522914Y-104859523D02*
X259713390Y-104907142D01*
X259713390Y-104907142D02*
X259856247Y-104907142D01*
X259856247Y-104907142D02*
X260046723Y-104859523D01*
X260046723Y-104859523D02*
X260141961Y-104811904D01*
X260141961Y-104811904D02*
X260237200Y-104716666D01*
X260237200Y-104716666D02*
X260284819Y-104573809D01*
X260284819Y-104573809D02*
X260284819Y-104335714D01*
X259284819Y-105811904D02*
X259284819Y-105335714D01*
X259284819Y-105335714D02*
X259761009Y-105288095D01*
X259761009Y-105288095D02*
X259713390Y-105335714D01*
X259713390Y-105335714D02*
X259665771Y-105430952D01*
X259665771Y-105430952D02*
X259665771Y-105669047D01*
X259665771Y-105669047D02*
X259713390Y-105764285D01*
X259713390Y-105764285D02*
X259761009Y-105811904D01*
X259761009Y-105811904D02*
X259856247Y-105859523D01*
X259856247Y-105859523D02*
X260094342Y-105859523D01*
X260094342Y-105859523D02*
X260189580Y-105811904D01*
X260189580Y-105811904D02*
X260237200Y-105764285D01*
X260237200Y-105764285D02*
X260284819Y-105669047D01*
X260284819Y-105669047D02*
X260284819Y-105430952D01*
X260284819Y-105430952D02*
X260237200Y-105335714D01*
X260237200Y-105335714D02*
X260189580Y-105288095D01*
X259618152Y-106716666D02*
X260284819Y-106716666D01*
X259237200Y-106478571D02*
X259951485Y-106240476D01*
X259951485Y-106240476D02*
X259951485Y-106859523D01*
X260604819Y-98938095D02*
X259604819Y-98938095D01*
X260604819Y-99509523D02*
X260033390Y-99080952D01*
X259604819Y-99509523D02*
X260176247Y-98938095D01*
X264984819Y-66135714D02*
X263984819Y-66135714D01*
X263984819Y-66135714D02*
X263984819Y-66373809D01*
X263984819Y-66373809D02*
X264032438Y-66516666D01*
X264032438Y-66516666D02*
X264127676Y-66611904D01*
X264127676Y-66611904D02*
X264222914Y-66659523D01*
X264222914Y-66659523D02*
X264413390Y-66707142D01*
X264413390Y-66707142D02*
X264556247Y-66707142D01*
X264556247Y-66707142D02*
X264746723Y-66659523D01*
X264746723Y-66659523D02*
X264841961Y-66611904D01*
X264841961Y-66611904D02*
X264937200Y-66516666D01*
X264937200Y-66516666D02*
X264984819Y-66373809D01*
X264984819Y-66373809D02*
X264984819Y-66135714D01*
X264318152Y-67564285D02*
X264984819Y-67564285D01*
X263937200Y-67326190D02*
X264651485Y-67088095D01*
X264651485Y-67088095D02*
X264651485Y-67707142D01*
X263984819Y-67992857D02*
X263984819Y-68611904D01*
X263984819Y-68611904D02*
X264365771Y-68278571D01*
X264365771Y-68278571D02*
X264365771Y-68421428D01*
X264365771Y-68421428D02*
X264413390Y-68516666D01*
X264413390Y-68516666D02*
X264461009Y-68564285D01*
X264461009Y-68564285D02*
X264556247Y-68611904D01*
X264556247Y-68611904D02*
X264794342Y-68611904D01*
X264794342Y-68611904D02*
X264889580Y-68564285D01*
X264889580Y-68564285D02*
X264937200Y-68516666D01*
X264937200Y-68516666D02*
X264984819Y-68421428D01*
X264984819Y-68421428D02*
X264984819Y-68135714D01*
X264984819Y-68135714D02*
X264937200Y-68040476D01*
X264937200Y-68040476D02*
X264889580Y-67992857D01*
X265304819Y-60738095D02*
X264304819Y-60738095D01*
X265304819Y-61309523D02*
X264733390Y-60880952D01*
X264304819Y-61309523D02*
X264876247Y-60738095D01*
D11*
%TO.C,D13*%
X55980000Y-122430000D02*
X58220000Y-122430000D01*
X55980000Y-123030000D02*
X58220000Y-123030000D01*
X55980000Y-123150000D02*
X58220000Y-123150000D01*
X55980000Y-123270000D02*
X58220000Y-123270000D01*
X55980000Y-126670000D02*
X55980000Y-122430000D01*
X57100000Y-119240000D02*
X57100000Y-122430000D01*
X57100000Y-129860000D02*
X57100000Y-126670000D01*
X58220000Y-122430000D02*
X58220000Y-126670000D01*
X58220000Y-126670000D02*
X55980000Y-126670000D01*
%TO.C,D3*%
X75030000Y-40330000D02*
X77270000Y-40330000D01*
X75030000Y-40930000D02*
X77270000Y-40930000D01*
X75030000Y-41050000D02*
X77270000Y-41050000D01*
X75030000Y-41170000D02*
X77270000Y-41170000D01*
X75030000Y-44570000D02*
X75030000Y-40330000D01*
X76150000Y-37140000D02*
X76150000Y-40330000D01*
X76150000Y-47760000D02*
X76150000Y-44570000D01*
X77270000Y-40330000D02*
X77270000Y-44570000D01*
X77270000Y-44570000D02*
X75030000Y-44570000D01*
%TO.C,D31*%
X122780000Y-103380000D02*
X125020000Y-103380000D01*
X122780000Y-103980000D02*
X125020000Y-103980000D01*
X122780000Y-104100000D02*
X125020000Y-104100000D01*
X122780000Y-104220000D02*
X125020000Y-104220000D01*
X122780000Y-107620000D02*
X122780000Y-103380000D01*
X123900000Y-100190000D02*
X123900000Y-103380000D01*
X123900000Y-110810000D02*
X123900000Y-107620000D01*
X125020000Y-103380000D02*
X125020000Y-107620000D01*
X125020000Y-107620000D02*
X122780000Y-107620000D01*
%TO.C,D7*%
X41530000Y-84230000D02*
X43770000Y-84230000D01*
X41530000Y-84830000D02*
X43770000Y-84830000D01*
X41530000Y-84950000D02*
X43770000Y-84950000D01*
X41530000Y-85070000D02*
X43770000Y-85070000D01*
X41530000Y-88470000D02*
X41530000Y-84230000D01*
X42650000Y-81040000D02*
X42650000Y-84230000D01*
X42650000Y-91660000D02*
X42650000Y-88470000D01*
X43770000Y-84230000D02*
X43770000Y-88470000D01*
X43770000Y-88470000D02*
X41530000Y-88470000D01*
%TO.C,D52*%
X222730000Y-103430000D02*
X224970000Y-103430000D01*
X222730000Y-104030000D02*
X224970000Y-104030000D01*
X222730000Y-104150000D02*
X224970000Y-104150000D01*
X222730000Y-104270000D02*
X224970000Y-104270000D01*
X222730000Y-107670000D02*
X222730000Y-103430000D01*
X223850000Y-100240000D02*
X223850000Y-103430000D01*
X223850000Y-110860000D02*
X223850000Y-107670000D01*
X224970000Y-103430000D02*
X224970000Y-107670000D01*
X224970000Y-107670000D02*
X222730000Y-107670000D01*
%TO.C,D8*%
X70330000Y-84230000D02*
X72570000Y-84230000D01*
X70330000Y-84830000D02*
X72570000Y-84830000D01*
X70330000Y-84950000D02*
X72570000Y-84950000D01*
X70330000Y-85070000D02*
X72570000Y-85070000D01*
X70330000Y-88470000D02*
X70330000Y-84230000D01*
X71450000Y-81040000D02*
X71450000Y-84230000D01*
X71450000Y-91660000D02*
X71450000Y-88470000D01*
X72570000Y-84230000D02*
X72570000Y-88470000D01*
X72570000Y-88470000D02*
X70330000Y-88470000D01*
%TO.C,D15*%
X36930000Y-141430000D02*
X39170000Y-141430000D01*
X36930000Y-142030000D02*
X39170000Y-142030000D01*
X36930000Y-142150000D02*
X39170000Y-142150000D01*
X36930000Y-142270000D02*
X39170000Y-142270000D01*
X36930000Y-145670000D02*
X36930000Y-141430000D01*
X38050000Y-138240000D02*
X38050000Y-141430000D01*
X38050000Y-148860000D02*
X38050000Y-145670000D01*
X39170000Y-141430000D02*
X39170000Y-145670000D01*
X39170000Y-145670000D02*
X36930000Y-145670000D01*
%TO.C,D64*%
X215530000Y-141430000D02*
X217770000Y-141430000D01*
X215530000Y-142030000D02*
X217770000Y-142030000D01*
X215530000Y-142150000D02*
X217770000Y-142150000D01*
X215530000Y-142270000D02*
X217770000Y-142270000D01*
X215530000Y-145670000D02*
X215530000Y-141430000D01*
X216650000Y-138240000D02*
X216650000Y-141430000D01*
X216650000Y-148860000D02*
X216650000Y-145670000D01*
X217770000Y-141430000D02*
X217770000Y-145670000D01*
X217770000Y-145670000D02*
X215530000Y-145670000D01*
%TO.C,D51*%
X196530000Y-103430000D02*
X198770000Y-103430000D01*
X196530000Y-104030000D02*
X198770000Y-104030000D01*
X196530000Y-104150000D02*
X198770000Y-104150000D01*
X196530000Y-104270000D02*
X198770000Y-104270000D01*
X196530000Y-107670000D02*
X196530000Y-103430000D01*
X197650000Y-100240000D02*
X197650000Y-103430000D01*
X197650000Y-110860000D02*
X197650000Y-107670000D01*
X198770000Y-103430000D02*
X198770000Y-107670000D01*
X198770000Y-107670000D02*
X196530000Y-107670000D01*
%TO.C,D57*%
X194280000Y-122480000D02*
X196520000Y-122480000D01*
X194280000Y-123080000D02*
X196520000Y-123080000D01*
X194280000Y-123200000D02*
X196520000Y-123200000D01*
X194280000Y-123320000D02*
X196520000Y-123320000D01*
X194280000Y-126720000D02*
X194280000Y-122480000D01*
X195400000Y-119290000D02*
X195400000Y-122480000D01*
X195400000Y-129910000D02*
X195400000Y-126720000D01*
X196520000Y-122480000D02*
X196520000Y-126720000D01*
X196520000Y-126720000D02*
X194280000Y-126720000D01*
%TO.C,D56*%
X298930000Y-103430000D02*
X301170000Y-103430000D01*
X298930000Y-104030000D02*
X301170000Y-104030000D01*
X298930000Y-104150000D02*
X301170000Y-104150000D01*
X298930000Y-104270000D02*
X301170000Y-104270000D01*
X298930000Y-107670000D02*
X298930000Y-103430000D01*
X300050000Y-100240000D02*
X300050000Y-103430000D01*
X300050000Y-110860000D02*
X300050000Y-107670000D01*
X301170000Y-103430000D02*
X301170000Y-107670000D01*
X301170000Y-107670000D02*
X298930000Y-107670000D01*
%TO.C,D58*%
X232130000Y-122580000D02*
X234370000Y-122580000D01*
X232130000Y-123180000D02*
X234370000Y-123180000D01*
X232130000Y-123300000D02*
X234370000Y-123300000D01*
X232130000Y-123420000D02*
X234370000Y-123420000D01*
X232130000Y-126820000D02*
X232130000Y-122580000D01*
X233250000Y-119390000D02*
X233250000Y-122580000D01*
X233250000Y-130010000D02*
X233250000Y-126820000D01*
X234370000Y-122580000D02*
X234370000Y-126820000D01*
X234370000Y-126820000D02*
X232130000Y-126820000D01*
%TO.C,D45*%
X194130000Y-84230000D02*
X196370000Y-84230000D01*
X194130000Y-84830000D02*
X196370000Y-84830000D01*
X194130000Y-84950000D02*
X196370000Y-84950000D01*
X194130000Y-85070000D02*
X196370000Y-85070000D01*
X194130000Y-88470000D02*
X194130000Y-84230000D01*
X195250000Y-81040000D02*
X195250000Y-84230000D01*
X195250000Y-91660000D02*
X195250000Y-88470000D01*
X196370000Y-84230000D02*
X196370000Y-88470000D01*
X196370000Y-88470000D02*
X194130000Y-88470000D01*
%TO.C,D10*%
X55980000Y-103180000D02*
X58220000Y-103180000D01*
X55980000Y-103780000D02*
X58220000Y-103780000D01*
X55980000Y-103900000D02*
X58220000Y-103900000D01*
X55980000Y-104020000D02*
X58220000Y-104020000D01*
X55980000Y-107420000D02*
X55980000Y-103180000D01*
X57100000Y-99990000D02*
X57100000Y-103180000D01*
X57100000Y-110610000D02*
X57100000Y-107420000D01*
X58220000Y-103180000D02*
X58220000Y-107420000D01*
X58220000Y-107420000D02*
X55980000Y-107420000D01*
%TO.C,D34*%
X103530000Y-122430000D02*
X105770000Y-122430000D01*
X103530000Y-123030000D02*
X105770000Y-123030000D01*
X103530000Y-123150000D02*
X105770000Y-123150000D01*
X103530000Y-123270000D02*
X105770000Y-123270000D01*
X103530000Y-126670000D02*
X103530000Y-122430000D01*
X104650000Y-119240000D02*
X104650000Y-122430000D01*
X104650000Y-129860000D02*
X104650000Y-126670000D01*
X105770000Y-122430000D02*
X105770000Y-126670000D01*
X105770000Y-126670000D02*
X103530000Y-126670000D01*
%TO.C,D16*%
X55980000Y-141430000D02*
X58220000Y-141430000D01*
X55980000Y-142030000D02*
X58220000Y-142030000D01*
X55980000Y-142150000D02*
X58220000Y-142150000D01*
X55980000Y-142270000D02*
X58220000Y-142270000D01*
X55980000Y-145670000D02*
X55980000Y-141430000D01*
X57100000Y-138240000D02*
X57100000Y-141430000D01*
X57100000Y-148860000D02*
X57100000Y-145670000D01*
X58220000Y-141430000D02*
X58220000Y-145670000D01*
X58220000Y-145670000D02*
X55980000Y-145670000D01*
%TO.C,D36*%
X141780000Y-122430000D02*
X144020000Y-122430000D01*
X141780000Y-123030000D02*
X144020000Y-123030000D01*
X141780000Y-123150000D02*
X144020000Y-123150000D01*
X141780000Y-123270000D02*
X144020000Y-123270000D01*
X141780000Y-126670000D02*
X141780000Y-122430000D01*
X142900000Y-119240000D02*
X142900000Y-122430000D01*
X142900000Y-129860000D02*
X142900000Y-126670000D01*
X144020000Y-122430000D02*
X144020000Y-126670000D01*
X144020000Y-126670000D02*
X141780000Y-126670000D01*
%TO.C,D22*%
X103730000Y-58930000D02*
X105970000Y-58930000D01*
X103730000Y-59530000D02*
X105970000Y-59530000D01*
X103730000Y-59650000D02*
X105970000Y-59650000D01*
X103730000Y-59770000D02*
X105970000Y-59770000D01*
X103730000Y-63170000D02*
X103730000Y-58930000D01*
X104850000Y-55740000D02*
X104850000Y-58930000D01*
X104850000Y-66360000D02*
X104850000Y-63170000D01*
X105970000Y-58930000D02*
X105970000Y-63170000D01*
X105970000Y-63170000D02*
X103730000Y-63170000D01*
%TO.C,D1*%
X36930000Y-40330000D02*
X39170000Y-40330000D01*
X36930000Y-40930000D02*
X39170000Y-40930000D01*
X36930000Y-41050000D02*
X39170000Y-41050000D01*
X36930000Y-41170000D02*
X39170000Y-41170000D01*
X36930000Y-44570000D02*
X36930000Y-40330000D01*
X38050000Y-37140000D02*
X38050000Y-40330000D01*
X38050000Y-47760000D02*
X38050000Y-44570000D01*
X39170000Y-40330000D02*
X39170000Y-44570000D01*
X39170000Y-44570000D02*
X36930000Y-44570000D01*
%TO.C,D61*%
X289280000Y-122580000D02*
X291520000Y-122580000D01*
X289280000Y-123180000D02*
X291520000Y-123180000D01*
X289280000Y-123300000D02*
X291520000Y-123300000D01*
X289280000Y-123420000D02*
X291520000Y-123420000D01*
X289280000Y-126820000D02*
X289280000Y-122580000D01*
X290400000Y-119390000D02*
X290400000Y-122580000D01*
X290400000Y-130010000D02*
X290400000Y-126820000D01*
X291520000Y-122580000D02*
X291520000Y-126820000D01*
X291520000Y-126820000D02*
X289280000Y-126820000D01*
%TO.C,D46*%
X217930000Y-84230000D02*
X220170000Y-84230000D01*
X217930000Y-84830000D02*
X220170000Y-84830000D01*
X217930000Y-84950000D02*
X220170000Y-84950000D01*
X217930000Y-85070000D02*
X220170000Y-85070000D01*
X217930000Y-88470000D02*
X217930000Y-84230000D01*
X219050000Y-81040000D02*
X219050000Y-84230000D01*
X219050000Y-91660000D02*
X219050000Y-88470000D01*
X220170000Y-84230000D02*
X220170000Y-88470000D01*
X220170000Y-88470000D02*
X217930000Y-88470000D01*
%TO.C,D30*%
X103730000Y-103380000D02*
X105970000Y-103380000D01*
X103730000Y-103980000D02*
X105970000Y-103980000D01*
X103730000Y-104100000D02*
X105970000Y-104100000D01*
X103730000Y-104220000D02*
X105970000Y-104220000D01*
X103730000Y-107620000D02*
X103730000Y-103380000D01*
X104850000Y-100190000D02*
X104850000Y-103380000D01*
X104850000Y-110810000D02*
X104850000Y-107620000D01*
X105970000Y-103380000D02*
X105970000Y-107620000D01*
X105970000Y-107620000D02*
X103730000Y-107620000D01*
%TO.C,D21*%
X160880000Y-40180000D02*
X163120000Y-40180000D01*
X160880000Y-40780000D02*
X163120000Y-40780000D01*
X160880000Y-40900000D02*
X163120000Y-40900000D01*
X160880000Y-41020000D02*
X163120000Y-41020000D01*
X160880000Y-44420000D02*
X160880000Y-40180000D01*
X162000000Y-36990000D02*
X162000000Y-40180000D01*
X162000000Y-47610000D02*
X162000000Y-44420000D01*
X163120000Y-40180000D02*
X163120000Y-44420000D01*
X163120000Y-44420000D02*
X160880000Y-44420000D01*
%TO.C,D11*%
X75030000Y-103180000D02*
X77270000Y-103180000D01*
X75030000Y-103780000D02*
X77270000Y-103780000D01*
X75030000Y-103900000D02*
X77270000Y-103900000D01*
X75030000Y-104020000D02*
X77270000Y-104020000D01*
X75030000Y-107420000D02*
X75030000Y-103180000D01*
X76150000Y-99990000D02*
X76150000Y-103180000D01*
X76150000Y-110610000D02*
X76150000Y-107420000D01*
X77270000Y-103180000D02*
X77270000Y-107420000D01*
X77270000Y-107420000D02*
X75030000Y-107420000D01*
%TO.C,D59*%
X251180000Y-122580000D02*
X253420000Y-122580000D01*
X251180000Y-123180000D02*
X253420000Y-123180000D01*
X251180000Y-123300000D02*
X253420000Y-123300000D01*
X251180000Y-123420000D02*
X253420000Y-123420000D01*
X251180000Y-126820000D02*
X251180000Y-122580000D01*
X252300000Y-119390000D02*
X252300000Y-122580000D01*
X252300000Y-130010000D02*
X252300000Y-126820000D01*
X253420000Y-122580000D02*
X253420000Y-126820000D01*
X253420000Y-126820000D02*
X251180000Y-126820000D01*
%TO.C,D26*%
X103730000Y-84230000D02*
X105970000Y-84230000D01*
X103730000Y-84830000D02*
X105970000Y-84830000D01*
X103730000Y-84950000D02*
X105970000Y-84950000D01*
X103730000Y-85070000D02*
X105970000Y-85070000D01*
X103730000Y-88470000D02*
X103730000Y-84230000D01*
X104850000Y-81040000D02*
X104850000Y-84230000D01*
X104850000Y-91660000D02*
X104850000Y-88470000D01*
X105970000Y-84230000D02*
X105970000Y-88470000D01*
X105970000Y-88470000D02*
X103730000Y-88470000D01*
%TO.C,D63*%
X191730000Y-141580000D02*
X193970000Y-141580000D01*
X191730000Y-142180000D02*
X193970000Y-142180000D01*
X191730000Y-142300000D02*
X193970000Y-142300000D01*
X191730000Y-142420000D02*
X193970000Y-142420000D01*
X191730000Y-145820000D02*
X191730000Y-141580000D01*
X192850000Y-138390000D02*
X192850000Y-141580000D01*
X192850000Y-149010000D02*
X192850000Y-145820000D01*
X193970000Y-141580000D02*
X193970000Y-145820000D01*
X193970000Y-145820000D02*
X191730000Y-145820000D01*
%TO.C,D38*%
X103680000Y-140630000D02*
X105920000Y-140630000D01*
X103680000Y-141230000D02*
X105920000Y-141230000D01*
X103680000Y-141350000D02*
X105920000Y-141350000D01*
X103680000Y-141470000D02*
X105920000Y-141470000D01*
X103680000Y-144870000D02*
X103680000Y-140630000D01*
X104800000Y-137440000D02*
X104800000Y-140630000D01*
X104800000Y-148060000D02*
X104800000Y-144870000D01*
X105920000Y-140630000D02*
X105920000Y-144870000D01*
X105920000Y-144870000D02*
X103680000Y-144870000D01*
%TO.C,D5*%
X55980000Y-58330000D02*
X58220000Y-58330000D01*
X55980000Y-58930000D02*
X58220000Y-58930000D01*
X55980000Y-59050000D02*
X58220000Y-59050000D01*
X55980000Y-59170000D02*
X58220000Y-59170000D01*
X55980000Y-62570000D02*
X55980000Y-58330000D01*
X57100000Y-55140000D02*
X57100000Y-58330000D01*
X57100000Y-65760000D02*
X57100000Y-62570000D01*
X58220000Y-58330000D02*
X58220000Y-62570000D01*
X58220000Y-62570000D02*
X55980000Y-62570000D01*
%TO.C,D55*%
X279880000Y-103430000D02*
X282120000Y-103430000D01*
X279880000Y-104030000D02*
X282120000Y-104030000D01*
X279880000Y-104150000D02*
X282120000Y-104150000D01*
X279880000Y-104270000D02*
X282120000Y-104270000D01*
X279880000Y-107670000D02*
X279880000Y-103430000D01*
X281000000Y-100240000D02*
X281000000Y-103430000D01*
X281000000Y-110860000D02*
X281000000Y-107670000D01*
X282120000Y-103430000D02*
X282120000Y-107670000D01*
X282120000Y-107670000D02*
X279880000Y-107670000D01*
%TO.C,D24*%
X141830000Y-58930000D02*
X144070000Y-58930000D01*
X141830000Y-59530000D02*
X144070000Y-59530000D01*
X141830000Y-59650000D02*
X144070000Y-59650000D01*
X141830000Y-59770000D02*
X144070000Y-59770000D01*
X141830000Y-63170000D02*
X141830000Y-58930000D01*
X142950000Y-55740000D02*
X142950000Y-58930000D01*
X142950000Y-66360000D02*
X142950000Y-63170000D01*
X144070000Y-58930000D02*
X144070000Y-63170000D01*
X144070000Y-63170000D02*
X141830000Y-63170000D01*
%TO.C,D60*%
X270230000Y-122580000D02*
X272470000Y-122580000D01*
X270230000Y-123180000D02*
X272470000Y-123180000D01*
X270230000Y-123300000D02*
X272470000Y-123300000D01*
X270230000Y-123420000D02*
X272470000Y-123420000D01*
X270230000Y-126820000D02*
X270230000Y-122580000D01*
X271350000Y-119390000D02*
X271350000Y-122580000D01*
X271350000Y-130010000D02*
X271350000Y-126820000D01*
X272470000Y-122580000D02*
X272470000Y-126820000D01*
X272470000Y-126820000D02*
X270230000Y-126820000D01*
%TO.C,D37*%
X160830000Y-122430000D02*
X163070000Y-122430000D01*
X160830000Y-123030000D02*
X163070000Y-123030000D01*
X160830000Y-123150000D02*
X163070000Y-123150000D01*
X160830000Y-123270000D02*
X163070000Y-123270000D01*
X160830000Y-126670000D02*
X160830000Y-122430000D01*
X161950000Y-119240000D02*
X161950000Y-122430000D01*
X161950000Y-129860000D02*
X161950000Y-126670000D01*
X163070000Y-122430000D02*
X163070000Y-126670000D01*
X163070000Y-126670000D02*
X160830000Y-126670000D01*
%TO.C,D2*%
X55980000Y-40330000D02*
X58220000Y-40330000D01*
X55980000Y-40930000D02*
X58220000Y-40930000D01*
X55980000Y-41050000D02*
X58220000Y-41050000D01*
X55980000Y-41170000D02*
X58220000Y-41170000D01*
X55980000Y-44570000D02*
X55980000Y-40330000D01*
X57100000Y-37140000D02*
X57100000Y-40330000D01*
X57100000Y-47760000D02*
X57100000Y-44570000D01*
X58220000Y-40330000D02*
X58220000Y-44570000D01*
X58220000Y-44570000D02*
X55980000Y-44570000D01*
%TO.C,D12*%
X36930000Y-122430000D02*
X39170000Y-122430000D01*
X36930000Y-123030000D02*
X39170000Y-123030000D01*
X36930000Y-123150000D02*
X39170000Y-123150000D01*
X36930000Y-123270000D02*
X39170000Y-123270000D01*
X36930000Y-126670000D02*
X36930000Y-122430000D01*
X38050000Y-119240000D02*
X38050000Y-122430000D01*
X38050000Y-129860000D02*
X38050000Y-126670000D01*
X39170000Y-122430000D02*
X39170000Y-126670000D01*
X39170000Y-126670000D02*
X36930000Y-126670000D01*
%TO.C,D14*%
X75030000Y-122430000D02*
X77270000Y-122430000D01*
X75030000Y-123030000D02*
X77270000Y-123030000D01*
X75030000Y-123150000D02*
X77270000Y-123150000D01*
X75030000Y-123270000D02*
X77270000Y-123270000D01*
X75030000Y-126670000D02*
X75030000Y-122430000D01*
X76150000Y-119240000D02*
X76150000Y-122430000D01*
X76150000Y-129860000D02*
X76150000Y-126670000D01*
X77270000Y-122430000D02*
X77270000Y-126670000D01*
X77270000Y-126670000D02*
X75030000Y-126670000D01*
%TO.C,D9*%
X36930000Y-103180000D02*
X39170000Y-103180000D01*
X36930000Y-103780000D02*
X39170000Y-103780000D01*
X36930000Y-103900000D02*
X39170000Y-103900000D01*
X36930000Y-104020000D02*
X39170000Y-104020000D01*
X36930000Y-107420000D02*
X36930000Y-103180000D01*
X38050000Y-99990000D02*
X38050000Y-103180000D01*
X38050000Y-110610000D02*
X38050000Y-107420000D01*
X39170000Y-103180000D02*
X39170000Y-107420000D01*
X39170000Y-107420000D02*
X36930000Y-107420000D01*
%TO.C,D33*%
X160880000Y-103380000D02*
X163120000Y-103380000D01*
X160880000Y-103980000D02*
X163120000Y-103980000D01*
X160880000Y-104100000D02*
X163120000Y-104100000D01*
X160880000Y-104220000D02*
X163120000Y-104220000D01*
X160880000Y-107620000D02*
X160880000Y-103380000D01*
X162000000Y-100190000D02*
X162000000Y-103380000D01*
X162000000Y-110810000D02*
X162000000Y-107620000D01*
X163120000Y-103380000D02*
X163120000Y-107620000D01*
X163120000Y-107620000D02*
X160880000Y-107620000D01*
%TO.C,D67*%
X189330000Y-65230000D02*
X191570000Y-65230000D01*
X189330000Y-65830000D02*
X191570000Y-65830000D01*
X189330000Y-65950000D02*
X191570000Y-65950000D01*
X189330000Y-66070000D02*
X191570000Y-66070000D01*
X189330000Y-69470000D02*
X189330000Y-65230000D01*
X190450000Y-62040000D02*
X190450000Y-65230000D01*
X190450000Y-72660000D02*
X190450000Y-69470000D01*
X191570000Y-65230000D02*
X191570000Y-69470000D01*
X191570000Y-69470000D02*
X189330000Y-69470000D01*
%TO.C,D29*%
X160880000Y-84230000D02*
X163120000Y-84230000D01*
X160880000Y-84830000D02*
X163120000Y-84830000D01*
X160880000Y-84950000D02*
X163120000Y-84950000D01*
X160880000Y-85070000D02*
X163120000Y-85070000D01*
X160880000Y-88470000D02*
X160880000Y-84230000D01*
X162000000Y-81040000D02*
X162000000Y-84230000D01*
X162000000Y-91660000D02*
X162000000Y-88470000D01*
X163120000Y-84230000D02*
X163120000Y-88470000D01*
X163120000Y-88470000D02*
X160880000Y-88470000D01*
%TO.C,D27*%
X122780000Y-84230000D02*
X125020000Y-84230000D01*
X122780000Y-84830000D02*
X125020000Y-84830000D01*
X122780000Y-84950000D02*
X125020000Y-84950000D01*
X122780000Y-85070000D02*
X125020000Y-85070000D01*
X122780000Y-88470000D02*
X122780000Y-84230000D01*
X123900000Y-81040000D02*
X123900000Y-84230000D01*
X123900000Y-91660000D02*
X123900000Y-88470000D01*
X125020000Y-84230000D02*
X125020000Y-88470000D01*
X125020000Y-88470000D02*
X122780000Y-88470000D01*
%TO.C,D40*%
X208380000Y-65230000D02*
X210620000Y-65230000D01*
X208380000Y-65830000D02*
X210620000Y-65830000D01*
X208380000Y-65950000D02*
X210620000Y-65950000D01*
X208380000Y-66070000D02*
X210620000Y-66070000D01*
X208380000Y-69470000D02*
X208380000Y-65230000D01*
X209500000Y-62040000D02*
X209500000Y-65230000D01*
X209500000Y-72660000D02*
X209500000Y-69470000D01*
X210620000Y-65230000D02*
X210620000Y-69470000D01*
X210620000Y-69470000D02*
X208380000Y-69470000D01*
%TO.C,D23*%
X122780000Y-58930000D02*
X125020000Y-58930000D01*
X122780000Y-59530000D02*
X125020000Y-59530000D01*
X122780000Y-59650000D02*
X125020000Y-59650000D01*
X122780000Y-59770000D02*
X125020000Y-59770000D01*
X122780000Y-63170000D02*
X122780000Y-58930000D01*
X123900000Y-55740000D02*
X123900000Y-58930000D01*
X123900000Y-66360000D02*
X123900000Y-63170000D01*
X125020000Y-58930000D02*
X125020000Y-63170000D01*
X125020000Y-63170000D02*
X122780000Y-63170000D01*
%TO.C,D41*%
X227430000Y-65230000D02*
X229670000Y-65230000D01*
X227430000Y-65830000D02*
X229670000Y-65830000D01*
X227430000Y-65950000D02*
X229670000Y-65950000D01*
X227430000Y-66070000D02*
X229670000Y-66070000D01*
X227430000Y-69470000D02*
X227430000Y-65230000D01*
X228550000Y-62040000D02*
X228550000Y-65230000D01*
X228550000Y-72660000D02*
X228550000Y-69470000D01*
X229670000Y-65230000D02*
X229670000Y-69470000D01*
X229670000Y-69470000D02*
X227430000Y-69470000D01*
%TO.C,D35*%
X122730000Y-122430000D02*
X124970000Y-122430000D01*
X122730000Y-123030000D02*
X124970000Y-123030000D01*
X122730000Y-123150000D02*
X124970000Y-123150000D01*
X122730000Y-123270000D02*
X124970000Y-123270000D01*
X122730000Y-126670000D02*
X122730000Y-122430000D01*
X123850000Y-119240000D02*
X123850000Y-122430000D01*
X123850000Y-129860000D02*
X123850000Y-126670000D01*
X124970000Y-122430000D02*
X124970000Y-126670000D01*
X124970000Y-126670000D02*
X122730000Y-126670000D01*
%TO.C,D20*%
X141830000Y-40180000D02*
X144070000Y-40180000D01*
X141830000Y-40780000D02*
X144070000Y-40780000D01*
X141830000Y-40900000D02*
X144070000Y-40900000D01*
X141830000Y-41020000D02*
X144070000Y-41020000D01*
X141830000Y-44420000D02*
X141830000Y-40180000D01*
X142950000Y-36990000D02*
X142950000Y-40180000D01*
X142950000Y-47610000D02*
X142950000Y-44420000D01*
X144070000Y-40180000D02*
X144070000Y-44420000D01*
X144070000Y-44420000D02*
X141830000Y-44420000D01*
%TO.C,D47*%
X236980000Y-84230000D02*
X239220000Y-84230000D01*
X236980000Y-84830000D02*
X239220000Y-84830000D01*
X236980000Y-84950000D02*
X239220000Y-84950000D01*
X236980000Y-85070000D02*
X239220000Y-85070000D01*
X236980000Y-88470000D02*
X236980000Y-84230000D01*
X238100000Y-81040000D02*
X238100000Y-84230000D01*
X238100000Y-91660000D02*
X238100000Y-88470000D01*
X239220000Y-84230000D02*
X239220000Y-88470000D01*
X239220000Y-88470000D02*
X236980000Y-88470000D01*
%TO.C,D39*%
X141880000Y-140830000D02*
X144120000Y-140830000D01*
X141880000Y-141430000D02*
X144120000Y-141430000D01*
X141880000Y-141550000D02*
X144120000Y-141550000D01*
X141880000Y-141670000D02*
X144120000Y-141670000D01*
X141880000Y-145070000D02*
X141880000Y-140830000D01*
X143000000Y-137640000D02*
X143000000Y-140830000D01*
X143000000Y-148260000D02*
X143000000Y-145070000D01*
X144120000Y-140830000D02*
X144120000Y-145070000D01*
X144120000Y-145070000D02*
X141880000Y-145070000D01*
%TO.C,D28*%
X141830000Y-84230000D02*
X144070000Y-84230000D01*
X141830000Y-84830000D02*
X144070000Y-84830000D01*
X141830000Y-84950000D02*
X144070000Y-84950000D01*
X141830000Y-85070000D02*
X144070000Y-85070000D01*
X141830000Y-88470000D02*
X141830000Y-84230000D01*
X142950000Y-81040000D02*
X142950000Y-84230000D01*
X142950000Y-91660000D02*
X142950000Y-88470000D01*
X144070000Y-84230000D02*
X144070000Y-88470000D01*
X144070000Y-88470000D02*
X141830000Y-88470000D01*
%TO.C,D66*%
X268080000Y-141530000D02*
X270320000Y-141530000D01*
X268080000Y-142130000D02*
X270320000Y-142130000D01*
X268080000Y-142250000D02*
X270320000Y-142250000D01*
X268080000Y-142370000D02*
X270320000Y-142370000D01*
X268080000Y-145770000D02*
X268080000Y-141530000D01*
X269200000Y-138340000D02*
X269200000Y-141530000D01*
X269200000Y-148960000D02*
X269200000Y-145770000D01*
X270320000Y-141530000D02*
X270320000Y-145770000D01*
X270320000Y-145770000D02*
X268080000Y-145770000D01*
%TO.C,D65*%
X239330000Y-141380000D02*
X241570000Y-141380000D01*
X239330000Y-141980000D02*
X241570000Y-141980000D01*
X239330000Y-142100000D02*
X241570000Y-142100000D01*
X239330000Y-142220000D02*
X241570000Y-142220000D01*
X239330000Y-145620000D02*
X239330000Y-141380000D01*
X240450000Y-138190000D02*
X240450000Y-141380000D01*
X240450000Y-148810000D02*
X240450000Y-145620000D01*
X241570000Y-141380000D02*
X241570000Y-145620000D01*
X241570000Y-145620000D02*
X239330000Y-145620000D01*
%TO.C,D42*%
X246480000Y-65230000D02*
X248720000Y-65230000D01*
X246480000Y-65830000D02*
X248720000Y-65830000D01*
X246480000Y-65950000D02*
X248720000Y-65950000D01*
X246480000Y-66070000D02*
X248720000Y-66070000D01*
X246480000Y-69470000D02*
X246480000Y-65230000D01*
X247600000Y-62040000D02*
X247600000Y-65230000D01*
X247600000Y-72660000D02*
X247600000Y-69470000D01*
X248720000Y-65230000D02*
X248720000Y-69470000D01*
X248720000Y-69470000D02*
X246480000Y-69470000D01*
%TO.C,D50*%
X294130000Y-84230000D02*
X296370000Y-84230000D01*
X294130000Y-84830000D02*
X296370000Y-84830000D01*
X294130000Y-84950000D02*
X296370000Y-84950000D01*
X294130000Y-85070000D02*
X296370000Y-85070000D01*
X294130000Y-88470000D02*
X294130000Y-84230000D01*
X295250000Y-81040000D02*
X295250000Y-84230000D01*
X295250000Y-91660000D02*
X295250000Y-88470000D01*
X296370000Y-84230000D02*
X296370000Y-88470000D01*
X296370000Y-88470000D02*
X294130000Y-88470000D01*
%TO.C,D18*%
X103730000Y-40180000D02*
X105970000Y-40180000D01*
X103730000Y-40780000D02*
X105970000Y-40780000D01*
X103730000Y-40900000D02*
X105970000Y-40900000D01*
X103730000Y-41020000D02*
X105970000Y-41020000D01*
X103730000Y-44420000D02*
X103730000Y-40180000D01*
X104850000Y-36990000D02*
X104850000Y-40180000D01*
X104850000Y-47610000D02*
X104850000Y-44420000D01*
X105970000Y-40180000D02*
X105970000Y-44420000D01*
X105970000Y-44420000D02*
X103730000Y-44420000D01*
%TO.C,D49*%
X275080000Y-84230000D02*
X277320000Y-84230000D01*
X275080000Y-84830000D02*
X277320000Y-84830000D01*
X275080000Y-84950000D02*
X277320000Y-84950000D01*
X275080000Y-85070000D02*
X277320000Y-85070000D01*
X275080000Y-88470000D02*
X275080000Y-84230000D01*
X276200000Y-81040000D02*
X276200000Y-84230000D01*
X276200000Y-91660000D02*
X276200000Y-88470000D01*
X277320000Y-84230000D02*
X277320000Y-88470000D01*
X277320000Y-88470000D02*
X275080000Y-88470000D01*
%TO.C,D53*%
X241780000Y-103430000D02*
X244020000Y-103430000D01*
X241780000Y-104030000D02*
X244020000Y-104030000D01*
X241780000Y-104150000D02*
X244020000Y-104150000D01*
X241780000Y-104270000D02*
X244020000Y-104270000D01*
X241780000Y-107670000D02*
X241780000Y-103430000D01*
X242900000Y-100240000D02*
X242900000Y-103430000D01*
X242900000Y-110860000D02*
X242900000Y-107670000D01*
X244020000Y-103430000D02*
X244020000Y-107670000D01*
X244020000Y-107670000D02*
X241780000Y-107670000D01*
%TO.C,D32*%
X141830000Y-103380000D02*
X144070000Y-103380000D01*
X141830000Y-103980000D02*
X144070000Y-103980000D01*
X141830000Y-104100000D02*
X144070000Y-104100000D01*
X141830000Y-104220000D02*
X144070000Y-104220000D01*
X141830000Y-107620000D02*
X141830000Y-103380000D01*
X142950000Y-100190000D02*
X142950000Y-103380000D01*
X142950000Y-110810000D02*
X142950000Y-107620000D01*
X144070000Y-103380000D02*
X144070000Y-107620000D01*
X144070000Y-107620000D02*
X141830000Y-107620000D01*
%TO.C,D25*%
X160880000Y-58930000D02*
X163120000Y-58930000D01*
X160880000Y-59530000D02*
X163120000Y-59530000D01*
X160880000Y-59650000D02*
X163120000Y-59650000D01*
X160880000Y-59770000D02*
X163120000Y-59770000D01*
X160880000Y-63170000D02*
X160880000Y-58930000D01*
X162000000Y-55740000D02*
X162000000Y-58930000D01*
X162000000Y-66360000D02*
X162000000Y-63170000D01*
X163120000Y-58930000D02*
X163120000Y-63170000D01*
X163120000Y-63170000D02*
X160880000Y-63170000D01*
%TO.C,D6*%
X75030000Y-58330000D02*
X77270000Y-58330000D01*
X75030000Y-58930000D02*
X77270000Y-58930000D01*
X75030000Y-59050000D02*
X77270000Y-59050000D01*
X75030000Y-59170000D02*
X77270000Y-59170000D01*
X75030000Y-62570000D02*
X75030000Y-58330000D01*
X76150000Y-55140000D02*
X76150000Y-58330000D01*
X76150000Y-65760000D02*
X76150000Y-62570000D01*
X77270000Y-58330000D02*
X77270000Y-62570000D01*
X77270000Y-62570000D02*
X75030000Y-62570000D01*
%TO.C,D17*%
X75030000Y-141430000D02*
X77270000Y-141430000D01*
X75030000Y-142030000D02*
X77270000Y-142030000D01*
X75030000Y-142150000D02*
X77270000Y-142150000D01*
X75030000Y-142270000D02*
X77270000Y-142270000D01*
X75030000Y-145670000D02*
X75030000Y-141430000D01*
X76150000Y-138240000D02*
X76150000Y-141430000D01*
X76150000Y-148860000D02*
X76150000Y-145670000D01*
X77270000Y-141430000D02*
X77270000Y-145670000D01*
X77270000Y-145670000D02*
X75030000Y-145670000D01*
%TO.C,D4*%
X36930000Y-58330000D02*
X39170000Y-58330000D01*
X36930000Y-58930000D02*
X39170000Y-58930000D01*
X36930000Y-59050000D02*
X39170000Y-59050000D01*
X36930000Y-59170000D02*
X39170000Y-59170000D01*
X36930000Y-62570000D02*
X36930000Y-58330000D01*
X38050000Y-55140000D02*
X38050000Y-58330000D01*
X38050000Y-65760000D02*
X38050000Y-62570000D01*
X39170000Y-58330000D02*
X39170000Y-62570000D01*
X39170000Y-62570000D02*
X36930000Y-62570000D01*
%TO.C,D62*%
X308330000Y-122580000D02*
X310570000Y-122580000D01*
X308330000Y-123180000D02*
X310570000Y-123180000D01*
X308330000Y-123300000D02*
X310570000Y-123300000D01*
X308330000Y-123420000D02*
X310570000Y-123420000D01*
X308330000Y-126820000D02*
X308330000Y-122580000D01*
X309450000Y-119390000D02*
X309450000Y-122580000D01*
X309450000Y-130010000D02*
X309450000Y-126820000D01*
X310570000Y-122580000D02*
X310570000Y-126820000D01*
X310570000Y-126820000D02*
X308330000Y-126820000D01*
%TO.C,D19*%
X122780000Y-40180000D02*
X125020000Y-40180000D01*
X122780000Y-40780000D02*
X125020000Y-40780000D01*
X122780000Y-40900000D02*
X125020000Y-40900000D01*
X122780000Y-41020000D02*
X125020000Y-41020000D01*
X122780000Y-44420000D02*
X122780000Y-40180000D01*
X123900000Y-36990000D02*
X123900000Y-40180000D01*
X123900000Y-47610000D02*
X123900000Y-44420000D01*
X125020000Y-40180000D02*
X125020000Y-44420000D01*
X125020000Y-44420000D02*
X122780000Y-44420000D01*
%TO.C,D48*%
X256030000Y-84230000D02*
X258270000Y-84230000D01*
X256030000Y-84830000D02*
X258270000Y-84830000D01*
X256030000Y-84950000D02*
X258270000Y-84950000D01*
X256030000Y-85070000D02*
X258270000Y-85070000D01*
X256030000Y-88470000D02*
X256030000Y-84230000D01*
X257150000Y-81040000D02*
X257150000Y-84230000D01*
X257150000Y-91660000D02*
X257150000Y-88470000D01*
X258270000Y-84230000D02*
X258270000Y-88470000D01*
X258270000Y-88470000D02*
X256030000Y-88470000D01*
%TO.C,D54*%
X260830000Y-103430000D02*
X263070000Y-103430000D01*
X260830000Y-104030000D02*
X263070000Y-104030000D01*
X260830000Y-104150000D02*
X263070000Y-104150000D01*
X260830000Y-104270000D02*
X263070000Y-104270000D01*
X260830000Y-107670000D02*
X260830000Y-103430000D01*
X261950000Y-100240000D02*
X261950000Y-103430000D01*
X261950000Y-110860000D02*
X261950000Y-107670000D01*
X263070000Y-103430000D02*
X263070000Y-107670000D01*
X263070000Y-107670000D02*
X260830000Y-107670000D01*
%TO.C,D43*%
X265530000Y-65230000D02*
X267770000Y-65230000D01*
X265530000Y-65830000D02*
X267770000Y-65830000D01*
X265530000Y-65950000D02*
X267770000Y-65950000D01*
X265530000Y-66070000D02*
X267770000Y-66070000D01*
X265530000Y-69470000D02*
X265530000Y-65230000D01*
X266650000Y-62040000D02*
X266650000Y-65230000D01*
X266650000Y-72660000D02*
X266650000Y-69470000D01*
X267770000Y-65230000D02*
X267770000Y-69470000D01*
X267770000Y-69470000D02*
X265530000Y-69470000D01*
%TD*%
M02*
