M48
; DRILL file {KiCad 8.99.0-3334-g98ae574c78} date 2025-06-08T23:29:33-0500
; FORMAT={-:-/ absolute / metric / decimal}
; #@! TF.CreationDate,2025-06-08T23:29:33-05:00
; #@! TF.GenerationSoftware,Kicad,Pcbnew,8.99.0-3334-g98ae574c78
; #@! TF.FileFunction,Plated,1,2,PTH
FMAT,2
METRIC
; #@! TA.AperFunction,Plated,PTH,ViaDrill
T1C0.300
; #@! TA.AperFunction,Plated,PTH,ComponentDrill
T2C0.800
; #@! TA.AperFunction,Plated,PTH,ComponentDrill
T3C1.000
; #@! TA.AperFunction,Plated,PTH,ComponentDrill
T4C1.020
; #@! TA.AperFunction,Plated,PTH,ComponentDrill
T5C1.500
; #@! TA.AperFunction,Plated,PTH,ComponentDrill
T6C2.000
%
G90
G05
T1
X105.733Y-51.056
X141.76Y-47.364
X152.986Y-119.539
X160.841Y-112.997
X160.856Y-78.16
X188.578Y-35.611
X192.397Y-79.417
X192.85Y-117.557
X198.836Y-60.006
X207.276Y-71.166
X231.85Y-54.508
X234.604Y-57.784
X235.109Y-75.621
X264.198Y-57.048
X270.604Y-27.72
X288.239Y-74.592
X304.798Y-47.364
X305.06Y-56.072
X305.77Y-67.208
X308.69Y-129.145
X331.243Y-41.727
T2
X38.05Y-36.1
X38.05Y-48.8
X38.05Y-54.1
X38.05Y-66.8
X38.05Y-98.95
X38.05Y-111.65
X38.05Y-118.2
X38.05Y-130.9
X38.05Y-137.2
X38.05Y-149.9
X42.65Y-80.0
X42.65Y-92.7
X57.1Y-36.1
X57.1Y-48.8
X57.1Y-54.1
X57.1Y-66.8
X57.1Y-98.95
X57.1Y-111.65
X57.1Y-118.2
X57.1Y-130.9
X57.1Y-137.2
X57.1Y-149.9
X71.45Y-80.0
X71.45Y-92.7
X76.15Y-36.1
X76.15Y-48.8
X76.15Y-54.1
X76.15Y-66.8
X76.15Y-98.95
X76.15Y-111.65
X76.15Y-118.2
X76.15Y-130.9
X76.15Y-137.2
X76.15Y-149.9
X104.65Y-118.2
X104.65Y-130.9
X104.8Y-136.4
X104.8Y-149.1
X104.85Y-35.95
X104.85Y-48.65
X104.85Y-54.7
X104.85Y-67.4
X104.85Y-80.0
X104.85Y-92.7
X104.85Y-99.15
X104.85Y-111.85
X123.85Y-118.2
X123.85Y-130.9
X123.9Y-35.95
X123.9Y-48.65
X123.9Y-54.7
X123.9Y-67.4
X123.9Y-80.0
X123.9Y-92.7
X123.9Y-99.15
X123.9Y-111.85
X142.9Y-118.2
X142.9Y-130.9
X142.95Y-35.95
X142.95Y-48.65
X142.95Y-54.7
X142.95Y-67.4
X142.95Y-80.0
X142.95Y-92.7
X142.95Y-99.15
X142.95Y-111.85
X143.0Y-136.6
X143.0Y-149.3
X161.95Y-118.2
X161.95Y-130.9
X162.0Y-35.95
X162.0Y-48.65
X162.0Y-54.7
X162.0Y-67.4
X162.0Y-80.0
X162.0Y-92.7
X162.0Y-99.15
X162.0Y-111.85
X190.45Y-61.0
X190.45Y-73.7
X192.85Y-137.35
X192.85Y-150.05
X195.25Y-80.0
X195.25Y-92.7
X195.4Y-118.25
X195.4Y-130.95
X197.65Y-99.2
X197.65Y-111.9
X209.5Y-61.0
X209.5Y-73.7
X216.65Y-137.2
X216.65Y-149.9
X219.05Y-80.0
X219.05Y-92.7
X223.85Y-99.2
X223.85Y-111.9
X228.55Y-61.0
X228.55Y-73.7
X233.25Y-118.35
X233.25Y-131.05
X238.1Y-80.0
X238.1Y-92.7
X240.45Y-137.15
X240.45Y-149.85
X242.9Y-99.2
X242.9Y-111.9
X247.6Y-61.0
X247.6Y-73.7
X252.3Y-118.35
X252.3Y-131.05
X257.15Y-80.0
X257.15Y-92.7
X261.95Y-99.2
X261.95Y-111.9
X266.65Y-61.0
X266.65Y-73.7
X269.2Y-137.3
X269.2Y-150.0
X271.35Y-118.35
X271.35Y-131.05
X276.2Y-80.0
X276.2Y-92.7
X281.0Y-99.2
X281.0Y-111.9
X290.4Y-118.35
X290.4Y-131.05
X295.25Y-80.0
X295.25Y-92.7
X300.05Y-99.2
X300.05Y-111.9
X309.45Y-118.35
X309.45Y-131.05
T3
X196.45Y-37.2
X196.45Y-39.7
X196.45Y-42.2
X210.95Y-37.2
X210.95Y-42.2
X231.85Y-37.4
X231.85Y-39.9
X231.85Y-42.4
X246.35Y-37.4
X246.35Y-42.4
X265.5Y-37.1
X265.5Y-39.6
X265.5Y-42.1
X280.0Y-37.1
X280.0Y-42.1
T4
X310.3Y-27.72
X310.3Y-30.26
X310.3Y-32.8
X310.3Y-35.34
X310.3Y-37.88
X310.3Y-40.42
X310.3Y-42.96
X310.3Y-45.5
X310.3Y-48.04
X310.3Y-50.58
X310.3Y-53.12
X310.3Y-55.66
X310.3Y-58.2
X310.3Y-60.74
X310.3Y-63.28
X310.3Y-65.82
X310.3Y-68.36
X310.3Y-70.9
X310.3Y-73.44
X310.3Y-75.98
X316.65Y-75.75
X319.19Y-75.75
X321.73Y-75.75
X328.08Y-27.72
X328.08Y-30.26
X328.08Y-32.8
X328.08Y-35.34
X328.08Y-37.88
X328.08Y-40.42
X328.08Y-42.96
X328.08Y-45.5
X328.08Y-48.04
X328.08Y-50.58
X328.08Y-53.12
X328.08Y-55.66
X328.08Y-58.2
X328.08Y-60.74
X328.08Y-63.28
X328.08Y-65.82
X328.08Y-68.36
X328.08Y-70.9
X328.08Y-73.44
X328.08Y-75.98
T5
X43.76Y-39.56
X43.76Y-58.61
X43.76Y-103.06
X43.76Y-122.11
X43.76Y-141.16
X48.523Y-84.01
X50.11Y-37.02
X50.11Y-56.07
X50.11Y-100.52
X50.11Y-119.57
X50.11Y-138.62
X54.872Y-81.47
X62.81Y-39.56
X62.81Y-58.61
X62.81Y-103.06
X62.81Y-122.11
X62.81Y-141.16
X69.16Y-37.02
X69.16Y-56.07
X69.16Y-100.52
X69.16Y-119.57
X69.16Y-138.62
X77.097Y-84.01
X81.86Y-39.56
X81.86Y-58.61
X81.86Y-103.06
X81.86Y-122.11
X81.86Y-141.16
X83.447Y-81.47
X88.21Y-37.02
X88.21Y-56.07
X88.21Y-100.52
X88.21Y-119.57
X88.21Y-138.62
X110.435Y-84.007
X110.435Y-103.057
X110.435Y-122.107
X110.48Y-39.562
X110.48Y-58.612
X116.785Y-81.468
X116.785Y-100.517
X116.785Y-119.567
X116.83Y-37.023
X116.83Y-56.072
X119.99Y-141.16
X126.34Y-138.62
X129.485Y-84.007
X129.485Y-103.057
X129.485Y-122.107
X129.53Y-39.562
X129.53Y-58.612
X135.835Y-81.468
X135.835Y-100.517
X135.835Y-119.567
X135.88Y-37.023
X135.88Y-56.072
X148.535Y-84.007
X148.535Y-103.057
X148.535Y-122.107
X148.58Y-39.562
X148.58Y-58.612
X154.885Y-81.468
X154.885Y-100.517
X154.885Y-119.567
X154.93Y-37.023
X154.93Y-56.072
X158.07Y-141.16
X164.42Y-138.62
X167.585Y-84.007
X167.585Y-103.057
X167.585Y-122.107
X167.63Y-39.562
X167.63Y-58.612
X173.935Y-81.468
X173.935Y-100.517
X173.935Y-119.567
X173.98Y-37.023
X173.98Y-56.072
X196.164Y-64.957
X198.545Y-141.157
X200.927Y-84.007
X202.514Y-62.417
X203.308Y-103.057
X204.895Y-138.618
X207.276Y-81.468
X208.09Y-122.102
X209.658Y-100.517
X214.44Y-119.562
X215.214Y-64.957
X221.564Y-62.417
X222.357Y-141.157
X224.739Y-84.007
X228.707Y-138.618
X229.502Y-103.057
X231.089Y-81.468
X234.264Y-64.957
X235.852Y-100.517
X239.026Y-122.107
X240.614Y-62.417
X243.789Y-84.007
X245.376Y-119.567
X246.169Y-141.157
X248.552Y-103.057
X250.139Y-81.468
X252.519Y-138.618
X253.314Y-64.957
X254.902Y-100.517
X258.076Y-122.107
X259.664Y-62.417
X262.839Y-84.007
X264.426Y-119.567
X267.602Y-103.057
X269.189Y-81.468
X272.364Y-64.957
X273.952Y-100.517
X277.126Y-122.107
X278.714Y-62.417
X281.889Y-84.007
X283.476Y-119.567
X286.635Y-141.157
X286.652Y-103.057
X288.239Y-81.468
X291.414Y-64.957
X292.985Y-138.618
X293.002Y-100.517
X296.176Y-122.107
X297.764Y-62.417
X300.939Y-84.007
X302.526Y-119.567
X305.702Y-103.057
X307.289Y-81.468
X312.052Y-100.517
X315.226Y-122.107
X321.576Y-119.567
T6
X203.7Y-34.1G85X204.2Y-34.1
G05
X203.7Y-45.3G85X204.2Y-45.3
G05
X239.1Y-34.3G85X239.6Y-34.3
G05
X239.1Y-45.5G85X239.6Y-45.5
G05
X272.75Y-34.0G85X273.25Y-34.0
G05
X272.75Y-45.2G85X273.25Y-45.2
G05
M30
