M48
; DRILL file {KiCad 8.99.0-3334-g98ae574c78} date 2025-06-08T23:29:33-0500
; FORMAT={-:-/ absolute / metric / decimal}
; #@! TF.CreationDate,2025-06-08T23:29:33-05:00
; #@! TF.GenerationSoftware,Kicad,Pcbnew,8.99.0-3334-g98ae574c78
; #@! TF.FileFunction,NonPlated,1,2,NPTH
FMAT,2
METRIC
; #@! TA.AperFunction,NonPlated,NPTH,ComponentDrill
T1C1.500
; #@! TA.AperFunction,NonPlated,NPTH,ComponentDrill
T2C1.700
; #@! TA.AperFunction,NonPlated,NPTH,ComponentDrill
T3C1.800
; #@! TA.AperFunction,NonPlated,NPTH,ComponentDrill
T4C3.050
; #@! TA.AperFunction,NonPlated,NPTH,ComponentDrill
T5C4.000
%
G90
G05
T1
X316.765Y-30.88
X321.615Y-30.88
T2
X42.49Y-42.1
X42.49Y-61.15
X42.49Y-105.6
X42.49Y-124.65
X42.49Y-143.7
X47.252Y-86.55
X52.65Y-42.1
X52.65Y-61.15
X52.65Y-105.6
X52.65Y-124.65
X52.65Y-143.7
X57.412Y-86.55
X61.54Y-42.1
X61.54Y-61.15
X61.54Y-105.6
X61.54Y-124.65
X61.54Y-143.7
X71.7Y-42.1
X71.7Y-61.15
X71.7Y-105.6
X71.7Y-124.65
X71.7Y-143.7
X75.828Y-86.55
X80.59Y-42.1
X80.59Y-61.15
X80.59Y-105.6
X80.59Y-124.65
X80.59Y-143.7
X85.987Y-86.55
X90.75Y-42.1
X90.75Y-61.15
X90.75Y-105.6
X90.75Y-124.65
X90.75Y-143.7
X109.165Y-86.547
X109.165Y-105.597
X109.165Y-124.647
X109.21Y-42.102
X109.21Y-61.152
X118.72Y-143.7
X119.325Y-86.547
X119.325Y-105.597
X119.325Y-124.647
X119.37Y-42.102
X119.37Y-61.152
X128.215Y-86.547
X128.215Y-105.597
X128.215Y-124.647
X128.26Y-42.102
X128.26Y-61.152
X128.88Y-143.7
X138.375Y-86.547
X138.375Y-105.597
X138.375Y-124.647
X138.42Y-42.102
X138.42Y-61.152
X147.265Y-86.547
X147.265Y-105.597
X147.265Y-124.647
X147.31Y-42.102
X147.31Y-61.152
X156.8Y-143.7
X157.425Y-86.547
X157.425Y-105.597
X157.425Y-124.647
X157.47Y-42.102
X157.47Y-61.152
X166.315Y-86.547
X166.315Y-105.597
X166.315Y-124.647
X166.36Y-42.102
X166.36Y-61.152
X166.96Y-143.7
X176.475Y-86.547
X176.475Y-105.597
X176.475Y-124.647
X176.52Y-42.102
X176.52Y-61.152
X194.894Y-67.498
X197.275Y-143.697
X199.656Y-86.547
X202.038Y-105.597
X205.054Y-67.498
X206.82Y-124.642
X207.435Y-143.697
X209.816Y-86.547
X212.198Y-105.597
X213.944Y-67.498
X216.98Y-124.642
X221.087Y-143.697
X223.469Y-86.547
X224.104Y-67.498
X228.232Y-105.597
X231.247Y-143.697
X232.994Y-67.498
X233.629Y-86.547
X237.756Y-124.647
X238.392Y-105.597
X242.519Y-86.547
X243.154Y-67.498
X244.899Y-143.697
X247.282Y-105.597
X247.916Y-124.647
X252.044Y-67.498
X252.679Y-86.547
X255.059Y-143.697
X256.806Y-124.647
X257.442Y-105.597
X261.569Y-86.547
X262.204Y-67.498
X266.332Y-105.597
X266.966Y-124.647
X271.094Y-67.498
X271.729Y-86.547
X275.856Y-124.647
X276.492Y-105.597
X280.619Y-86.547
X281.254Y-67.498
X285.365Y-143.697
X285.382Y-105.597
X286.016Y-124.647
X290.144Y-67.498
X290.779Y-86.547
X294.906Y-124.647
X295.525Y-143.697
X295.542Y-105.597
X299.669Y-86.547
X300.304Y-67.498
X304.432Y-105.597
X305.066Y-124.647
X309.829Y-86.547
X313.956Y-124.647
X314.592Y-105.597
X324.116Y-124.647
T3
X316.465Y-27.85
X321.915Y-27.85
T4
X111.9Y-136.7
X135.7Y-136.7
X149.98Y-136.7
X173.78Y-136.7
X200.0Y-117.642
X223.8Y-117.642
X278.545Y-136.697
X302.345Y-136.697
T5
X47.57Y-42.1
X47.57Y-61.15
X47.57Y-105.6
X47.57Y-124.65
X47.57Y-143.7
X52.332Y-86.55
X66.62Y-42.1
X66.62Y-61.15
X66.62Y-105.6
X66.62Y-124.65
X66.62Y-143.7
X80.907Y-86.55
X85.67Y-42.1
X85.67Y-61.15
X85.67Y-105.6
X85.67Y-124.65
X85.67Y-143.7
X111.9Y-151.94
X114.245Y-86.547
X114.245Y-105.597
X114.245Y-124.647
X114.29Y-42.102
X114.29Y-61.152
X123.8Y-143.7
X133.295Y-86.547
X133.295Y-105.597
X133.295Y-124.647
X133.34Y-42.102
X133.34Y-61.152
X135.7Y-151.94
X149.98Y-151.94
X152.345Y-86.547
X152.345Y-105.597
X152.345Y-124.647
X152.39Y-42.102
X152.39Y-61.152
X161.88Y-143.7
X171.395Y-86.547
X171.395Y-105.597
X171.395Y-124.647
X171.44Y-42.102
X171.44Y-61.152
X173.78Y-151.94
X199.974Y-67.498
X200.0Y-132.882
X202.355Y-143.697
X204.736Y-86.547
X207.118Y-105.597
X211.9Y-124.642
X219.024Y-67.498
X223.8Y-132.882
X226.167Y-143.697
X228.549Y-86.547
X233.312Y-105.597
X238.074Y-67.498
X242.836Y-124.647
X247.599Y-86.547
X249.979Y-143.697
X252.362Y-105.597
X257.124Y-67.498
X261.886Y-124.647
X266.649Y-86.547
X271.412Y-105.597
X276.174Y-67.498
X278.545Y-151.938
X280.936Y-124.647
X285.699Y-86.547
X290.445Y-143.697
X290.462Y-105.597
X295.224Y-67.498
X299.986Y-124.647
X302.345Y-151.938
X304.749Y-86.547
X309.512Y-105.597
X319.036Y-124.647
M30
